%
M48
M72
T01C0.02000
T02C0.02362
T03C0.02500
T04C0.03150
T05C0.03543
T06C0.04000
T07C0.04724
T08C0.05900
%
T01
X172600Y132600
X202600Y127600
X210100Y155100
X210100Y170100
X302600Y155100
X202600Y62600
X260100Y295100
X52600Y295100
T02
X80600Y279600
X81600Y256600
X104600Y249600
X117600Y213600
X120600Y191600
X81600Y191600
X84600Y213600
X79600Y163600
X66600Y140600
X61600Y119600
X22600Y138600
X19600Y149600
X20600Y191600
X131600Y128600
X130600Y104600
X158600Y130600
X140600Y152600
X182600Y190600
X183600Y212600
X218600Y213600
X220600Y190600
X269600Y160600
X251600Y139600
X263600Y127600
X255600Y119600
X249600Y105600
X225600Y128600
X209600Y105600
X280600Y106600
X314600Y108600
X330600Y89600
X357600Y47600
X354600Y20600
X389600Y106600
X388600Y148600
X376600Y164600
X378600Y190600
X382600Y214600
X379600Y257600
X377600Y280600
X378600Y314600
X393600Y316600
X303600Y233600
X282600Y214600
X280600Y190600
X318600Y192600
X318600Y212600
X280600Y257600
X280600Y279600
X237600Y281600
X221600Y280600
X219600Y256600
X180600Y256600
X179600Y278600
X162600Y286600
X162600Y318600
X98600Y316600
X83600Y317600
X239600Y317600
X31600Y87600
X59600Y57600
X85600Y28600
X98600Y10600
X129600Y26600
T03
X106100Y102600
X99100Y102600
X58600Y152600
X51600Y152600
X149100Y150600
X156100Y150600
X232600Y146100
X232600Y139100
X250100Y154600
X257100Y154600
X294100Y101600
X301100Y101600
X354100Y77600
X361100Y77600
X356100Y157600
X349100Y157600
T04
X326100Y153600
X326100Y163600
X332600Y127600
X332600Y117600
X272600Y141600
X272600Y151600
X237600Y162600
X227600Y162600
X177600Y157600
X177600Y147600
X132600Y152600
X132600Y162600
X77600Y151600
X77600Y141600
X41600Y110600
X31600Y110600
X27600Y157600
X27600Y167600
X107600Y67600
X117600Y67600
X137600Y307600
X147600Y307600
X60100Y307600
X50100Y307600
X257600Y307600
X267600Y307600
X342600Y307600
X352600Y307600
T05
X253600Y217600
X243600Y217600
X197600Y170600
X187600Y170600
X152600Y220600
X142600Y220600
X102600Y167600
X92600Y167600
X52600Y217600
X42600Y217600
X282600Y167600
X292600Y167600
X342600Y142600
X352600Y142600
X350100Y212600
X340100Y212600
T06
X12600Y22600
X12600Y32600
X12600Y42600
X21600Y64600
X31600Y64600
X41600Y64600
X60100Y83309
X60100Y102600
X41600Y120600
X31600Y120600
X21600Y120600
X37600Y172600
X37600Y182600
X37600Y192600
X37600Y202600
X67600Y202600
X67600Y192600
X67600Y182600
X67600Y172600
X87600Y150600
X87600Y140600
X87600Y130600
X87600Y120600
X117600Y120600
X117600Y130600
X117600Y140600
X117600Y150600
X137600Y172600
X137600Y182600
X137600Y192600
X137600Y202600
X167600Y202600
X167600Y192600
X167600Y182600
X167600Y172600
X187600Y157600
X187600Y147600
X187600Y137600
X187600Y127600
X187600Y107600
X187600Y97600
X187600Y87600
X187600Y77600
X187600Y67600
X187600Y57600
X187600Y47600
X157600Y47600
X157600Y57600
X157600Y67600
X157600Y77600
X157600Y87600
X157600Y97600
X157600Y107600
X117600Y77600
X107600Y77600
X97600Y77600
X69391Y45100
X50100Y45100
X49600Y13600
X59600Y13600
X39600Y13600
X98309Y42600
X117600Y42600
X142600Y17600
X152600Y17600
X162600Y17600
X187600Y17600
X197600Y17600
X207600Y17600
X247600Y17600
X247600Y27600
X247600Y37600
X247600Y47600
X247600Y57600
X247600Y67600
X247600Y77600
X247600Y87600
X227600Y87600
X227600Y77600
X227600Y67600
X277600Y67600
X277600Y57600
X277600Y47600
X277600Y37600
X277600Y27600
X277600Y17600
X317600Y22600
X327600Y22600
X327600Y32600
X317600Y32600
X317600Y42600
X327600Y42600
X327600Y52600
X317600Y52600
X317600Y62600
X327600Y62600
X288600Y57600
X288600Y67600
X288600Y77600
X277600Y77600
X277600Y87600
X282600Y120600
X282600Y130600
X282600Y140600
X282600Y150600
X267600Y172600
X267600Y182600
X267600Y192600
X267600Y202600
X237600Y202600
X237600Y192600
X237600Y182600
X237600Y172600
X217600Y157600
X217600Y147600
X217600Y137600
X217600Y127600
X312600Y130600
X312600Y120600
X312600Y140600
X312600Y150600
X335100Y172600
X335100Y182600
X335100Y192600
X335100Y202600
X365100Y202600
X365100Y192600
X365100Y182600
X365100Y172600
X372600Y127600
X372600Y117600
X372600Y107600
X372600Y97600
X342600Y97600
X342600Y107600
X342600Y117600
X342600Y127600
T07
X340100Y320100
X353880Y320100
X275100Y320100
X261320Y320100
X208880Y320100
X195100Y320100
X145100Y320100
X131320Y320100
X62600Y320600
X48820Y320600
T08
X21100Y289600
X21100Y267600
X21100Y245600
X21100Y224600
X21100Y202600
X21100Y180600
X81100Y180600
X81100Y202600
X81100Y224600
X81100Y245600
X81100Y267600
X81100Y289600
X121100Y289600
X121100Y267600
X121100Y245600
X121100Y224600
X121100Y202600
X121100Y180600
X181100Y180600
X181100Y202600
X181100Y224600
X181100Y245600
X181100Y267600
X181100Y289600
X221100Y289600
X221100Y267600
X221100Y245600
X221100Y224600
X221100Y202600
X221100Y180600
X281100Y180600
X281100Y202600
X281100Y224600
X281100Y245600
X281100Y267600
X281100Y289600
X318600Y289600
X318600Y267600
X318600Y245600
X318600Y224600
X318600Y202600
X318600Y180600
X378600Y180600
X378600Y202600
X378600Y224600
X378600Y245600
X378600Y267600
X378600Y289600
M30
