G75*
%MOIN*%
%OFA0B0*%
%FSLAX25Y25*%
%IPPOS*%
%LPD*%
%AMOC8*
5,1,8,0,0,1.08239X$1,22.5*
%
%ADD10C,0.05324*%
%ADD11C,0.09100*%
%ADD12R,0.09100X0.09100*%
%ADD13C,0.04500*%
%ADD14R,0.04500X0.04500*%
%ADD15C,0.08000*%
%ADD16R,0.07687X0.07687*%
%ADD17C,0.09450*%
%ADD18R,0.04537X0.04931*%
%ADD19C,0.08200*%
%ADD20C,0.04000*%
%ADD21C,0.04362*%
D10*
X0107600Y0067600D03*
X0117600Y0067600D03*
X0041600Y0110600D03*
X0031600Y0110600D03*
X0077600Y0141600D03*
X0077600Y0151600D03*
X0027600Y0157600D03*
X0027600Y0167600D03*
X0132600Y0162600D03*
X0132600Y0152600D03*
X0177600Y0147600D03*
X0177600Y0157600D03*
X0227600Y0162600D03*
X0237600Y0162600D03*
X0272600Y0151600D03*
X0272600Y0141600D03*
X0326100Y0153600D03*
X0326100Y0163600D03*
X0332600Y0127600D03*
X0332600Y0117600D03*
X0342600Y0307600D03*
X0352600Y0307600D03*
X0267600Y0307600D03*
X0257600Y0307600D03*
X0147600Y0307600D03*
X0137600Y0307600D03*
X0060100Y0307600D03*
X0050100Y0307600D03*
D11*
X0060100Y0102600D03*
X0050100Y0045100D03*
X0117600Y0042600D03*
D12*
X0098309Y0042600D03*
X0069391Y0045100D03*
X0060100Y0083309D03*
D13*
X0099100Y0102600D03*
X0051600Y0152600D03*
X0149100Y0150600D03*
X0232600Y0146100D03*
X0250100Y0154600D03*
X0294100Y0101600D03*
X0354100Y0077600D03*
X0349100Y0157600D03*
D14*
X0356100Y0157600D03*
X0301100Y0101600D03*
X0361100Y0077600D03*
X0257100Y0154600D03*
X0232600Y0139100D03*
X0156100Y0150600D03*
X0106100Y0102600D03*
X0058600Y0152600D03*
D15*
X0012600Y0022600D03*
X0012600Y0032600D03*
X0012600Y0042600D03*
X0021600Y0064600D03*
X0031600Y0064600D03*
X0041600Y0064600D03*
X0097600Y0077600D03*
X0107600Y0077600D03*
X0117600Y0077600D03*
X0117600Y0120600D03*
X0117600Y0130600D03*
X0117600Y0140600D03*
X0117600Y0150600D03*
X0102600Y0167600D03*
X0092600Y0167600D03*
X0087600Y0150600D03*
X0087600Y0140600D03*
X0087600Y0130600D03*
X0087600Y0120600D03*
X0041600Y0120600D03*
X0031600Y0120600D03*
X0021600Y0120600D03*
X0037600Y0172600D03*
X0037600Y0182600D03*
X0037600Y0192600D03*
X0037600Y0202600D03*
X0042600Y0217600D03*
X0052600Y0217600D03*
X0067600Y0202600D03*
X0067600Y0192600D03*
X0067600Y0182600D03*
X0067600Y0172600D03*
X0137600Y0172600D03*
X0137600Y0182600D03*
X0137600Y0192600D03*
X0137600Y0202600D03*
X0142600Y0220600D03*
X0152600Y0220600D03*
X0167600Y0202600D03*
X0167600Y0192600D03*
X0167600Y0182600D03*
X0167600Y0172600D03*
X0187600Y0170600D03*
X0197600Y0170600D03*
X0187600Y0157600D03*
X0187600Y0147600D03*
X0187600Y0137600D03*
X0187600Y0127600D03*
X0217600Y0127600D03*
X0217600Y0137600D03*
X0217600Y0147600D03*
X0217600Y0157600D03*
X0237600Y0172600D03*
X0237600Y0182600D03*
X0237600Y0192600D03*
X0237600Y0202600D03*
X0243600Y0217600D03*
X0253600Y0217600D03*
X0267600Y0202600D03*
X0267600Y0192600D03*
X0267600Y0182600D03*
X0267600Y0172600D03*
X0282600Y0167600D03*
X0292600Y0167600D03*
X0282600Y0150600D03*
X0282600Y0140600D03*
X0282600Y0130600D03*
X0282600Y0120600D03*
X0312600Y0120600D03*
X0312600Y0130600D03*
X0312600Y0140600D03*
X0312600Y0150600D03*
X0335100Y0172600D03*
X0335100Y0182600D03*
X0335100Y0192600D03*
X0335100Y0202600D03*
X0340100Y0212600D03*
X0350100Y0212600D03*
X0365100Y0202600D03*
X0365100Y0192600D03*
X0365100Y0182600D03*
X0365100Y0172600D03*
X0352600Y0142600D03*
X0342600Y0142600D03*
X0342600Y0127600D03*
X0342600Y0117600D03*
X0342600Y0107600D03*
X0342600Y0097600D03*
X0372600Y0097600D03*
X0372600Y0107600D03*
X0372600Y0117600D03*
X0372600Y0127600D03*
X0288600Y0077600D03*
X0288600Y0067600D03*
X0288600Y0057600D03*
X0277600Y0057600D03*
X0277600Y0047600D03*
X0277600Y0037600D03*
X0277600Y0027600D03*
X0277600Y0017600D03*
X0247600Y0017600D03*
X0247600Y0027600D03*
X0247600Y0037600D03*
X0247600Y0047600D03*
X0247600Y0057600D03*
X0247600Y0067600D03*
X0247600Y0077600D03*
X0247600Y0087600D03*
X0227600Y0087600D03*
X0227600Y0077600D03*
X0227600Y0067600D03*
X0277600Y0067600D03*
X0277600Y0077600D03*
X0277600Y0087600D03*
X0207600Y0017600D03*
X0197600Y0017600D03*
X0187600Y0017600D03*
X0162600Y0017600D03*
X0152600Y0017600D03*
X0142600Y0017600D03*
X0059600Y0013600D03*
X0049600Y0013600D03*
X0039600Y0013600D03*
D16*
X0048820Y0320600D03*
X0062600Y0320600D03*
X0131320Y0320100D03*
X0145100Y0320100D03*
X0195100Y0320100D03*
X0208880Y0320100D03*
X0261320Y0320100D03*
X0275100Y0320100D03*
X0340100Y0320100D03*
X0353880Y0320100D03*
D17*
X0374175Y0289600D02*
X0383025Y0289600D01*
X0383025Y0267600D02*
X0374175Y0267600D01*
X0374175Y0245600D02*
X0383025Y0245600D01*
X0383025Y0224600D02*
X0374175Y0224600D01*
X0374175Y0202600D02*
X0383025Y0202600D01*
X0383025Y0180600D02*
X0374175Y0180600D01*
X0323025Y0180600D02*
X0314175Y0180600D01*
X0314175Y0202600D02*
X0323025Y0202600D01*
X0323025Y0224600D02*
X0314175Y0224600D01*
X0314175Y0245600D02*
X0323025Y0245600D01*
X0323025Y0267600D02*
X0314175Y0267600D01*
X0314175Y0289600D02*
X0323025Y0289600D01*
X0285525Y0289600D02*
X0276675Y0289600D01*
X0276675Y0267600D02*
X0285525Y0267600D01*
X0285525Y0245600D02*
X0276675Y0245600D01*
X0276675Y0224600D02*
X0285525Y0224600D01*
X0285525Y0202600D02*
X0276675Y0202600D01*
X0276675Y0180600D02*
X0285525Y0180600D01*
X0225525Y0180600D02*
X0216675Y0180600D01*
X0216675Y0202600D02*
X0225525Y0202600D01*
X0225525Y0224600D02*
X0216675Y0224600D01*
X0216675Y0245600D02*
X0225525Y0245600D01*
X0225525Y0267600D02*
X0216675Y0267600D01*
X0216675Y0289600D02*
X0225525Y0289600D01*
X0185525Y0289600D02*
X0176675Y0289600D01*
X0176675Y0267600D02*
X0185525Y0267600D01*
X0185525Y0245600D02*
X0176675Y0245600D01*
X0176675Y0224600D02*
X0185525Y0224600D01*
X0185525Y0202600D02*
X0176675Y0202600D01*
X0176675Y0180600D02*
X0185525Y0180600D01*
X0125525Y0180600D02*
X0116675Y0180600D01*
X0116675Y0202600D02*
X0125525Y0202600D01*
X0125525Y0224600D02*
X0116675Y0224600D01*
X0116675Y0245600D02*
X0125525Y0245600D01*
X0125525Y0267600D02*
X0116675Y0267600D01*
X0116675Y0289600D02*
X0125525Y0289600D01*
X0085525Y0289600D02*
X0076675Y0289600D01*
X0076675Y0267600D02*
X0085525Y0267600D01*
X0085525Y0245600D02*
X0076675Y0245600D01*
X0076675Y0224600D02*
X0085525Y0224600D01*
X0085525Y0202600D02*
X0076675Y0202600D01*
X0076675Y0180600D02*
X0085525Y0180600D01*
X0025525Y0180600D02*
X0016675Y0180600D01*
X0016675Y0202600D02*
X0025525Y0202600D01*
X0025525Y0224600D02*
X0016675Y0224600D01*
X0016675Y0245600D02*
X0025525Y0245600D01*
X0025525Y0267600D02*
X0016675Y0267600D01*
X0016675Y0289600D02*
X0025525Y0289600D01*
D18*
X0052600Y0288446D03*
X0052600Y0281754D03*
X0097600Y0279254D03*
X0097600Y0285946D03*
X0137600Y0285946D03*
X0137600Y0279254D03*
X0197600Y0284254D03*
X0197600Y0290946D03*
X0260100Y0285946D03*
X0260100Y0279254D03*
X0297600Y0284254D03*
X0297600Y0290946D03*
X0335100Y0288446D03*
X0335100Y0281754D03*
X0395100Y0281754D03*
X0395100Y0288446D03*
X0172600Y0095946D03*
X0172600Y0089254D03*
X0172600Y0075946D03*
X0172600Y0069254D03*
D19*
X0157600Y0067600D03*
X0157600Y0057600D03*
X0157600Y0047600D03*
X0157600Y0077600D03*
X0157600Y0087600D03*
X0157600Y0097600D03*
X0157600Y0107600D03*
X0187600Y0107600D03*
X0187600Y0097600D03*
X0187600Y0087600D03*
X0187600Y0077600D03*
X0187600Y0067600D03*
X0187600Y0057600D03*
X0187600Y0047600D03*
X0317600Y0042600D03*
X0327600Y0042600D03*
X0327600Y0032600D03*
X0317600Y0032600D03*
X0317600Y0022600D03*
X0327600Y0022600D03*
X0327600Y0052600D03*
X0317600Y0052600D03*
X0317600Y0062600D03*
X0327600Y0062600D03*
D20*
X0302600Y0155100D03*
X0210100Y0155100D03*
X0210100Y0170100D03*
X0172600Y0132600D03*
X0202600Y0127600D03*
X0202600Y0062600D03*
X0260100Y0295100D03*
X0052600Y0295100D03*
D21*
X0080600Y0279600D03*
X0081600Y0256600D03*
X0104600Y0249600D03*
X0117600Y0213600D03*
X0120600Y0191600D03*
X0081600Y0191600D03*
X0084600Y0213600D03*
X0079600Y0163600D03*
X0066600Y0140600D03*
X0061600Y0119600D03*
X0022600Y0138600D03*
X0019600Y0149600D03*
X0020600Y0191600D03*
X0131600Y0128600D03*
X0130600Y0104600D03*
X0158600Y0130600D03*
X0140600Y0152600D03*
X0182600Y0190600D03*
X0183600Y0212600D03*
X0218600Y0213600D03*
X0220600Y0190600D03*
X0269600Y0160600D03*
X0251600Y0139600D03*
X0263600Y0127600D03*
X0255600Y0119600D03*
X0249600Y0105600D03*
X0225600Y0128600D03*
X0209600Y0105600D03*
X0280600Y0106600D03*
X0314600Y0108600D03*
X0330600Y0089600D03*
X0357600Y0047600D03*
X0354600Y0020600D03*
X0389600Y0106600D03*
X0388600Y0148600D03*
X0376600Y0164600D03*
X0378600Y0190600D03*
X0382600Y0214600D03*
X0379600Y0257600D03*
X0377600Y0280600D03*
X0378600Y0314600D03*
X0393600Y0316600D03*
X0303600Y0233600D03*
X0282600Y0214600D03*
X0280600Y0190600D03*
X0318600Y0192600D03*
X0318600Y0212600D03*
X0280600Y0257600D03*
X0280600Y0279600D03*
X0237600Y0281600D03*
X0221600Y0280600D03*
X0219600Y0256600D03*
X0180600Y0256600D03*
X0179600Y0278600D03*
X0162600Y0286600D03*
X0162600Y0318600D03*
X0098600Y0316600D03*
X0083600Y0317600D03*
X0239600Y0317600D03*
X0031600Y0087600D03*
X0059600Y0057600D03*
X0085600Y0028600D03*
X0098600Y0010600D03*
X0129600Y0026600D03*
M02*
