G75*
%MOIN*%
%OFA0B0*%
%FSLAX25Y25*%
%IPPOS*%
%LPD*%
%AMOC8*
5,1,8,0,0,1.08239X$1,22.5*
%
%ADD10C,0.00000*%
%ADD11C,0.04724*%
%ADD12C,0.08500*%
%ADD13R,0.08500X0.08500*%
%ADD14C,0.03900*%
%ADD15R,0.03900X0.03900*%
%ADD16C,0.01181*%
%ADD17C,0.07400*%
%ADD18R,0.07087X0.07087*%
%ADD19C,0.08850*%
%ADD20R,0.03937X0.04331*%
%ADD21R,0.04331X0.03937*%
%ADD22C,0.07600*%
%ADD23C,0.05000*%
%ADD24C,0.01600*%
%ADD25C,0.03400*%
%ADD26C,0.03762*%
%ADD27C,0.00600*%
D10*
X0002600Y0002600D02*
X0002600Y0327561D01*
X0401301Y0327561D01*
X0401301Y0002600D01*
X0002600Y0002600D01*
D11*
X0107600Y0067600D03*
X0117600Y0067600D03*
X0041600Y0110600D03*
X0031600Y0110600D03*
X0077600Y0141600D03*
X0077600Y0151600D03*
X0027600Y0157600D03*
X0027600Y0167600D03*
X0132600Y0162600D03*
X0132600Y0152600D03*
X0177600Y0147600D03*
X0177600Y0157600D03*
X0227600Y0162600D03*
X0237600Y0162600D03*
X0272600Y0151600D03*
X0272600Y0141600D03*
X0326100Y0153600D03*
X0326100Y0163600D03*
X0332600Y0127600D03*
X0332600Y0117600D03*
X0342600Y0307600D03*
X0352600Y0307600D03*
X0267600Y0307600D03*
X0257600Y0307600D03*
X0147600Y0307600D03*
X0137600Y0307600D03*
X0060100Y0307600D03*
X0050100Y0307600D03*
D12*
X0060100Y0102600D03*
X0050100Y0045100D03*
X0117600Y0042600D03*
D13*
X0098309Y0042600D03*
X0069391Y0045100D03*
X0060100Y0083309D03*
D14*
X0099100Y0102600D03*
X0051600Y0152600D03*
X0149100Y0150600D03*
X0232600Y0146100D03*
X0250100Y0154600D03*
X0294100Y0101600D03*
X0354100Y0077600D03*
X0349100Y0157600D03*
D15*
X0356100Y0157600D03*
X0301100Y0101600D03*
X0361100Y0077600D03*
X0257100Y0154600D03*
X0232600Y0139100D03*
X0156100Y0150600D03*
X0106100Y0102600D03*
X0058600Y0152600D03*
D16*
X0055478Y0130175D02*
X0052722Y0130175D01*
X0052722Y0132931D01*
X0055478Y0132931D01*
X0055478Y0130175D01*
X0055478Y0131355D02*
X0052722Y0131355D01*
X0052722Y0132535D02*
X0055478Y0132535D01*
X0055478Y0123269D02*
X0052722Y0123269D01*
X0052722Y0126025D01*
X0055478Y0126025D01*
X0055478Y0123269D01*
X0055478Y0124449D02*
X0052722Y0124449D01*
X0052722Y0125629D02*
X0055478Y0125629D01*
D17*
X0041600Y0120600D03*
X0031600Y0120600D03*
X0021600Y0120600D03*
X0037600Y0172600D03*
X0037600Y0182600D03*
X0037600Y0192600D03*
X0037600Y0202600D03*
X0042600Y0217600D03*
X0052600Y0217600D03*
X0067600Y0202600D03*
X0067600Y0192600D03*
X0067600Y0182600D03*
X0067600Y0172600D03*
X0092600Y0167600D03*
X0102600Y0167600D03*
X0087600Y0150600D03*
X0087600Y0140600D03*
X0087600Y0130600D03*
X0087600Y0120600D03*
X0117600Y0120600D03*
X0117600Y0130600D03*
X0117600Y0140600D03*
X0117600Y0150600D03*
X0137600Y0172600D03*
X0137600Y0182600D03*
X0137600Y0192600D03*
X0137600Y0202600D03*
X0142600Y0220600D03*
X0152600Y0220600D03*
X0167600Y0202600D03*
X0167600Y0192600D03*
X0167600Y0182600D03*
X0167600Y0172600D03*
X0187600Y0170600D03*
X0197600Y0170600D03*
X0187600Y0157600D03*
X0187600Y0147600D03*
X0187600Y0137600D03*
X0187600Y0127600D03*
X0217600Y0127600D03*
X0217600Y0137600D03*
X0217600Y0147600D03*
X0217600Y0157600D03*
X0237600Y0172600D03*
X0237600Y0182600D03*
X0237600Y0192600D03*
X0237600Y0202600D03*
X0243600Y0217600D03*
X0253600Y0217600D03*
X0267600Y0202600D03*
X0267600Y0192600D03*
X0267600Y0182600D03*
X0267600Y0172600D03*
X0282600Y0167600D03*
X0292600Y0167600D03*
X0282600Y0150600D03*
X0282600Y0140600D03*
X0282600Y0130600D03*
X0282600Y0120600D03*
X0312600Y0120600D03*
X0312600Y0130600D03*
X0312600Y0140600D03*
X0312600Y0150600D03*
X0335100Y0172600D03*
X0335100Y0182600D03*
X0335100Y0192600D03*
X0335100Y0202600D03*
X0340100Y0212600D03*
X0350100Y0212600D03*
X0365100Y0202600D03*
X0365100Y0192600D03*
X0365100Y0182600D03*
X0365100Y0172600D03*
X0352600Y0142600D03*
X0342600Y0142600D03*
X0342600Y0127600D03*
X0342600Y0117600D03*
X0342600Y0107600D03*
X0342600Y0097600D03*
X0372600Y0097600D03*
X0372600Y0107600D03*
X0372600Y0117600D03*
X0372600Y0127600D03*
X0288600Y0077600D03*
X0288600Y0067600D03*
X0288600Y0057600D03*
X0277600Y0057600D03*
X0277600Y0047600D03*
X0277600Y0037600D03*
X0277600Y0027600D03*
X0277600Y0017600D03*
X0247600Y0017600D03*
X0247600Y0027600D03*
X0247600Y0037600D03*
X0247600Y0047600D03*
X0247600Y0057600D03*
X0247600Y0067600D03*
X0247600Y0077600D03*
X0247600Y0087600D03*
X0227600Y0087600D03*
X0227600Y0077600D03*
X0227600Y0067600D03*
X0277600Y0067600D03*
X0277600Y0077600D03*
X0277600Y0087600D03*
X0207600Y0017600D03*
X0197600Y0017600D03*
X0187600Y0017600D03*
X0162600Y0017600D03*
X0152600Y0017600D03*
X0142600Y0017600D03*
X0117600Y0077600D03*
X0107600Y0077600D03*
X0097600Y0077600D03*
X0041600Y0064600D03*
X0031600Y0064600D03*
X0021600Y0064600D03*
X0012600Y0042600D03*
X0012600Y0032600D03*
X0012600Y0022600D03*
X0039600Y0013600D03*
X0049600Y0013600D03*
X0059600Y0013600D03*
D18*
X0062600Y0320600D03*
X0048820Y0320600D03*
X0131320Y0320100D03*
X0145100Y0320100D03*
X0195100Y0320100D03*
X0208880Y0320100D03*
X0261320Y0320100D03*
X0275100Y0320100D03*
X0340100Y0320100D03*
X0353880Y0320100D03*
D19*
X0374175Y0289600D02*
X0383025Y0289600D01*
X0383025Y0267600D02*
X0374175Y0267600D01*
X0374175Y0245600D02*
X0383025Y0245600D01*
X0383025Y0224600D02*
X0374175Y0224600D01*
X0374175Y0202600D02*
X0383025Y0202600D01*
X0383025Y0180600D02*
X0374175Y0180600D01*
X0323025Y0180600D02*
X0314175Y0180600D01*
X0314175Y0202600D02*
X0323025Y0202600D01*
X0323025Y0224600D02*
X0314175Y0224600D01*
X0314175Y0245600D02*
X0323025Y0245600D01*
X0323025Y0267600D02*
X0314175Y0267600D01*
X0314175Y0289600D02*
X0323025Y0289600D01*
X0285525Y0289600D02*
X0276675Y0289600D01*
X0276675Y0267600D02*
X0285525Y0267600D01*
X0285525Y0245600D02*
X0276675Y0245600D01*
X0276675Y0224600D02*
X0285525Y0224600D01*
X0285525Y0202600D02*
X0276675Y0202600D01*
X0276675Y0180600D02*
X0285525Y0180600D01*
X0225525Y0180600D02*
X0216675Y0180600D01*
X0216675Y0202600D02*
X0225525Y0202600D01*
X0225525Y0224600D02*
X0216675Y0224600D01*
X0216675Y0245600D02*
X0225525Y0245600D01*
X0225525Y0267600D02*
X0216675Y0267600D01*
X0216675Y0289600D02*
X0225525Y0289600D01*
X0185525Y0289600D02*
X0176675Y0289600D01*
X0176675Y0267600D02*
X0185525Y0267600D01*
X0185525Y0245600D02*
X0176675Y0245600D01*
X0176675Y0224600D02*
X0185525Y0224600D01*
X0185525Y0202600D02*
X0176675Y0202600D01*
X0176675Y0180600D02*
X0185525Y0180600D01*
X0125525Y0180600D02*
X0116675Y0180600D01*
X0116675Y0202600D02*
X0125525Y0202600D01*
X0125525Y0224600D02*
X0116675Y0224600D01*
X0116675Y0245600D02*
X0125525Y0245600D01*
X0125525Y0267600D02*
X0116675Y0267600D01*
X0116675Y0289600D02*
X0125525Y0289600D01*
X0085525Y0289600D02*
X0076675Y0289600D01*
X0076675Y0267600D02*
X0085525Y0267600D01*
X0085525Y0245600D02*
X0076675Y0245600D01*
X0076675Y0224600D02*
X0085525Y0224600D01*
X0085525Y0202600D02*
X0076675Y0202600D01*
X0076675Y0180600D02*
X0085525Y0180600D01*
X0025525Y0180600D02*
X0016675Y0180600D01*
X0016675Y0202600D02*
X0025525Y0202600D01*
X0025525Y0224600D02*
X0016675Y0224600D01*
X0016675Y0245600D02*
X0025525Y0245600D01*
X0025525Y0267600D02*
X0016675Y0267600D01*
X0016675Y0289600D02*
X0025525Y0289600D01*
D20*
X0007600Y0215946D03*
X0007600Y0209254D03*
X0097600Y0209254D03*
X0097600Y0215946D03*
X0107600Y0215946D03*
X0107600Y0209254D03*
X0197600Y0209254D03*
X0197600Y0215946D03*
X0207600Y0215946D03*
X0207600Y0209254D03*
X0297600Y0209254D03*
X0297600Y0215946D03*
X0305100Y0200946D03*
X0305100Y0194254D03*
X0395100Y0209254D03*
X0395100Y0215946D03*
X0197600Y0035946D03*
X0197600Y0029254D03*
X0187600Y0029254D03*
X0187600Y0035946D03*
X0162600Y0035946D03*
X0162600Y0029254D03*
X0152600Y0029254D03*
X0152600Y0035946D03*
D21*
X0047446Y0135600D03*
X0040754Y0135600D03*
D22*
X0157600Y0107600D03*
X0157600Y0097600D03*
X0157600Y0087600D03*
X0157600Y0077600D03*
X0157600Y0067600D03*
X0157600Y0057600D03*
X0157600Y0047600D03*
X0187600Y0047600D03*
X0187600Y0057600D03*
X0187600Y0067600D03*
X0187600Y0077600D03*
X0187600Y0087600D03*
X0187600Y0097600D03*
X0187600Y0107600D03*
X0317600Y0062600D03*
X0327600Y0062600D03*
X0327600Y0052600D03*
X0317600Y0052600D03*
X0317600Y0042600D03*
X0327600Y0042600D03*
X0327600Y0032600D03*
X0317600Y0032600D03*
X0317600Y0022600D03*
X0327600Y0022600D03*
D23*
X0197600Y0017600D02*
X0197600Y0029254D01*
X0197600Y0035946D02*
X0187600Y0035946D01*
X0162600Y0035946D01*
X0152600Y0035946D01*
X0145946Y0042600D01*
X0117600Y0042600D01*
X0117600Y0067600D01*
X0117600Y0077600D01*
X0107600Y0087600D02*
X0145100Y0087600D01*
X0155100Y0077600D01*
X0157600Y0077600D01*
X0107600Y0087600D02*
X0097600Y0077600D01*
X0085100Y0077600D01*
X0060100Y0102600D01*
X0054100Y0108600D01*
X0054100Y0124647D01*
X0050053Y0120600D01*
X0041600Y0120600D01*
X0041600Y0110600D01*
X0059147Y0102600D02*
X0060100Y0102600D01*
X0054100Y0131553D02*
X0054100Y0133100D01*
X0051600Y0135600D01*
X0047446Y0135600D01*
X0041600Y0064600D02*
X0041600Y0053600D01*
X0020600Y0032600D01*
X0012600Y0032600D01*
X0041600Y0053600D02*
X0050100Y0045100D01*
X0050100Y0014100D01*
X0049600Y0013600D01*
X0059600Y0013600D02*
X0059600Y0014600D01*
X0069391Y0024391D01*
X0069391Y0045100D01*
X0152600Y0029254D02*
X0152600Y0017600D01*
X0162600Y0017600D02*
X0162600Y0029254D01*
X0187600Y0029254D02*
X0187600Y0017600D01*
X0181100Y0267600D02*
X0121100Y0267600D01*
X0081100Y0267600D01*
X0021100Y0267600D01*
X0181100Y0267600D02*
X0221100Y0267600D01*
X0281100Y0267600D01*
X0318600Y0267600D01*
X0378600Y0267600D01*
X0221100Y0267600D02*
X0208880Y0279820D01*
X0208880Y0320100D01*
D24*
X0202936Y0320704D02*
X0200443Y0320704D01*
X0200443Y0320481D02*
X0200443Y0323880D01*
X0200321Y0324338D01*
X0200084Y0324749D01*
X0199749Y0325084D01*
X0199615Y0325161D01*
X0203459Y0325161D01*
X0203302Y0325003D01*
X0202936Y0324121D01*
X0202936Y0316079D01*
X0203302Y0315197D01*
X0203977Y0314522D01*
X0203980Y0314521D01*
X0203980Y0278846D01*
X0204726Y0277045D01*
X0209270Y0272500D01*
X0190277Y0272500D01*
X0189391Y0273386D01*
X0186883Y0274425D01*
X0175317Y0274425D01*
X0172809Y0273386D01*
X0171923Y0272500D01*
X0130277Y0272500D01*
X0129391Y0273386D01*
X0126883Y0274425D01*
X0115317Y0274425D01*
X0112809Y0273386D01*
X0111923Y0272500D01*
X0090277Y0272500D01*
X0089391Y0273386D01*
X0086883Y0274425D01*
X0075317Y0274425D01*
X0072809Y0273386D01*
X0071923Y0272500D01*
X0030277Y0272500D01*
X0029391Y0273386D01*
X0026883Y0274425D01*
X0015317Y0274425D01*
X0012809Y0273386D01*
X0010889Y0271466D01*
X0009850Y0268958D01*
X0009850Y0266242D01*
X0010889Y0263734D01*
X0012809Y0261814D01*
X0015317Y0260775D01*
X0026883Y0260775D01*
X0029391Y0261814D01*
X0030277Y0262700D01*
X0071923Y0262700D01*
X0072809Y0261814D01*
X0075317Y0260775D01*
X0086883Y0260775D01*
X0089391Y0261814D01*
X0090277Y0262700D01*
X0111923Y0262700D01*
X0112809Y0261814D01*
X0115317Y0260775D01*
X0126883Y0260775D01*
X0129391Y0261814D01*
X0130277Y0262700D01*
X0171923Y0262700D01*
X0172809Y0261814D01*
X0175317Y0260775D01*
X0186883Y0260775D01*
X0189391Y0261814D01*
X0190277Y0262700D01*
X0211923Y0262700D01*
X0212809Y0261814D01*
X0215317Y0260775D01*
X0226883Y0260775D01*
X0229391Y0261814D01*
X0230277Y0262700D01*
X0271923Y0262700D01*
X0272809Y0261814D01*
X0275317Y0260775D01*
X0286883Y0260775D01*
X0289391Y0261814D01*
X0290277Y0262700D01*
X0309423Y0262700D01*
X0310309Y0261814D01*
X0312817Y0260775D01*
X0324383Y0260775D01*
X0326891Y0261814D01*
X0327777Y0262700D01*
X0369423Y0262700D01*
X0370309Y0261814D01*
X0372817Y0260775D01*
X0384383Y0260775D01*
X0386891Y0261814D01*
X0388811Y0263734D01*
X0389850Y0266242D01*
X0389850Y0268958D01*
X0388811Y0271466D01*
X0386891Y0273386D01*
X0384383Y0274425D01*
X0372817Y0274425D01*
X0370309Y0273386D01*
X0369423Y0272500D01*
X0327777Y0272500D01*
X0326891Y0273386D01*
X0324383Y0274425D01*
X0312817Y0274425D01*
X0310309Y0273386D01*
X0309423Y0272500D01*
X0290277Y0272500D01*
X0289391Y0273386D01*
X0286883Y0274425D01*
X0275317Y0274425D01*
X0272809Y0273386D01*
X0271923Y0272500D01*
X0230277Y0272500D01*
X0229391Y0273386D01*
X0226883Y0274425D01*
X0221205Y0274425D01*
X0213780Y0281850D01*
X0213780Y0283412D01*
X0215317Y0282775D01*
X0226883Y0282775D01*
X0229391Y0283814D01*
X0231311Y0285734D01*
X0232350Y0288242D01*
X0232350Y0290958D01*
X0231311Y0293466D01*
X0230377Y0294400D01*
X0256000Y0294400D01*
X0256000Y0294284D01*
X0256624Y0292778D01*
X0257778Y0291624D01*
X0259284Y0291000D01*
X0260916Y0291000D01*
X0262422Y0291624D01*
X0263576Y0292778D01*
X0264200Y0294284D01*
X0264200Y0295916D01*
X0263576Y0297422D01*
X0262422Y0298576D01*
X0260916Y0299200D01*
X0260525Y0299200D01*
X0259413Y0300313D01*
X0258237Y0300800D01*
X0226963Y0300800D01*
X0225787Y0300313D01*
X0224887Y0299413D01*
X0221900Y0296425D01*
X0215317Y0296425D01*
X0213780Y0295788D01*
X0213780Y0314521D01*
X0213782Y0314522D01*
X0214457Y0315197D01*
X0214823Y0316079D01*
X0214823Y0324121D01*
X0214457Y0325003D01*
X0214300Y0325161D01*
X0255900Y0325161D01*
X0255743Y0325003D01*
X0255377Y0324121D01*
X0255377Y0316079D01*
X0255743Y0315197D01*
X0256418Y0314522D01*
X0257300Y0314157D01*
X0265341Y0314157D01*
X0266223Y0314522D01*
X0266898Y0315197D01*
X0267264Y0316079D01*
X0267264Y0324121D01*
X0266898Y0325003D01*
X0266741Y0325161D01*
X0269680Y0325161D01*
X0269522Y0325003D01*
X0269157Y0324121D01*
X0269157Y0316079D01*
X0269522Y0315197D01*
X0270197Y0314522D01*
X0271079Y0314157D01*
X0279121Y0314157D01*
X0280003Y0314522D01*
X0280678Y0315197D01*
X0281043Y0316079D01*
X0281043Y0324121D01*
X0280678Y0325003D01*
X0280520Y0325161D01*
X0334680Y0325161D01*
X0334522Y0325003D01*
X0334157Y0324121D01*
X0334157Y0316079D01*
X0334522Y0315197D01*
X0335197Y0314522D01*
X0336079Y0314157D01*
X0344121Y0314157D01*
X0345003Y0314522D01*
X0345678Y0315197D01*
X0346043Y0316079D01*
X0346043Y0324121D01*
X0345678Y0325003D01*
X0345520Y0325161D01*
X0348459Y0325161D01*
X0348302Y0325003D01*
X0347936Y0324121D01*
X0347936Y0316079D01*
X0348302Y0315197D01*
X0348977Y0314522D01*
X0349859Y0314157D01*
X0357900Y0314157D01*
X0358782Y0314522D01*
X0359457Y0315197D01*
X0359823Y0316079D01*
X0359823Y0324121D01*
X0359457Y0325003D01*
X0359300Y0325161D01*
X0398901Y0325161D01*
X0398901Y0219674D01*
X0398428Y0220146D01*
X0398300Y0220199D01*
X0398300Y0220737D01*
X0397813Y0221913D01*
X0395313Y0224413D01*
X0394413Y0225313D01*
X0393237Y0225800D01*
X0389850Y0225800D01*
X0389850Y0225958D01*
X0388811Y0228466D01*
X0386891Y0230386D01*
X0384383Y0231425D01*
X0372817Y0231425D01*
X0370309Y0230386D01*
X0368389Y0228466D01*
X0367350Y0225958D01*
X0367350Y0223242D01*
X0368389Y0220734D01*
X0370309Y0218814D01*
X0372817Y0217775D01*
X0384383Y0217775D01*
X0386891Y0218814D01*
X0387477Y0219400D01*
X0391067Y0219400D01*
X0390731Y0218589D01*
X0390731Y0213304D01*
X0391023Y0212600D01*
X0390731Y0211896D01*
X0390731Y0206611D01*
X0391097Y0205729D01*
X0391772Y0205054D01*
X0391900Y0205001D01*
X0391900Y0171425D01*
X0349887Y0129413D01*
X0349400Y0128237D01*
X0349400Y0108925D01*
X0347874Y0107400D01*
X0342800Y0107400D01*
X0342800Y0107800D01*
X0348100Y0107800D01*
X0348100Y0108033D01*
X0347965Y0108888D01*
X0347697Y0109711D01*
X0347304Y0110483D01*
X0346795Y0111183D01*
X0346183Y0111795D01*
X0345581Y0112232D01*
X0346055Y0112429D01*
X0347771Y0114145D01*
X0348700Y0116387D01*
X0348700Y0118813D01*
X0347771Y0121055D01*
X0346227Y0122600D01*
X0347771Y0124145D01*
X0348700Y0126387D01*
X0348700Y0128813D01*
X0347771Y0131055D01*
X0346055Y0132771D01*
X0345800Y0132877D01*
X0345800Y0137323D01*
X0346055Y0137429D01*
X0347600Y0138973D01*
X0349145Y0137429D01*
X0351387Y0136500D01*
X0353813Y0136500D01*
X0356055Y0137429D01*
X0357771Y0139145D01*
X0358700Y0141387D01*
X0358700Y0143813D01*
X0357771Y0146055D01*
X0356055Y0147771D01*
X0353813Y0148700D01*
X0351387Y0148700D01*
X0349145Y0147771D01*
X0347600Y0146227D01*
X0346055Y0147771D01*
X0343813Y0148700D01*
X0343300Y0148700D01*
X0343300Y0160737D01*
X0342813Y0161913D01*
X0341913Y0162813D01*
X0340875Y0163850D01*
X0344400Y0167375D01*
X0344400Y0158463D01*
X0344750Y0157618D01*
X0344750Y0156735D01*
X0345412Y0155136D01*
X0346636Y0153912D01*
X0348235Y0153250D01*
X0349965Y0153250D01*
X0351564Y0153912D01*
X0352065Y0154413D01*
X0352115Y0154291D01*
X0352791Y0153615D01*
X0353673Y0153250D01*
X0358527Y0153250D01*
X0359409Y0153615D01*
X0360085Y0154291D01*
X0360450Y0155173D01*
X0360450Y0157619D01*
X0360800Y0158463D01*
X0360800Y0168273D01*
X0361645Y0167429D01*
X0363887Y0166500D01*
X0366313Y0166500D01*
X0368555Y0167429D01*
X0370271Y0169145D01*
X0371200Y0171387D01*
X0371200Y0173813D01*
X0370457Y0175607D01*
X0370912Y0175276D01*
X0371785Y0174831D01*
X0372717Y0174528D01*
X0373685Y0174375D01*
X0377925Y0174375D01*
X0377925Y0179925D01*
X0379275Y0179925D01*
X0379275Y0181275D01*
X0377925Y0181275D01*
X0377925Y0186825D01*
X0373685Y0186825D01*
X0372717Y0186672D01*
X0371785Y0186369D01*
X0370912Y0185924D01*
X0370461Y0185596D01*
X0370271Y0186055D01*
X0368727Y0187600D01*
X0370271Y0189145D01*
X0371200Y0191387D01*
X0371200Y0193813D01*
X0370271Y0196055D01*
X0368727Y0197600D01*
X0369125Y0197998D01*
X0370309Y0196814D01*
X0372817Y0195775D01*
X0384383Y0195775D01*
X0386891Y0196814D01*
X0388811Y0198734D01*
X0389850Y0201242D01*
X0389850Y0203958D01*
X0388811Y0206466D01*
X0386891Y0208386D01*
X0384383Y0209425D01*
X0372817Y0209425D01*
X0370309Y0208386D01*
X0369125Y0207202D01*
X0368555Y0207771D01*
X0366313Y0208700D01*
X0363887Y0208700D01*
X0363631Y0208594D01*
X0356913Y0215313D01*
X0355737Y0215800D01*
X0355377Y0215800D01*
X0355271Y0216055D01*
X0353555Y0217771D01*
X0351313Y0218700D01*
X0348887Y0218700D01*
X0346645Y0217771D01*
X0345100Y0216227D01*
X0343555Y0217771D01*
X0341313Y0218700D01*
X0338887Y0218700D01*
X0336645Y0217771D01*
X0334929Y0216055D01*
X0334000Y0213813D01*
X0334000Y0211387D01*
X0334106Y0211131D01*
X0332387Y0209413D01*
X0331900Y0208237D01*
X0331900Y0207877D01*
X0331645Y0207771D01*
X0329929Y0206055D01*
X0329455Y0204911D01*
X0328811Y0206466D01*
X0326891Y0208386D01*
X0324383Y0209425D01*
X0312817Y0209425D01*
X0310309Y0208386D01*
X0308389Y0206466D01*
X0308300Y0206251D01*
X0308300Y0209775D01*
X0316300Y0217775D01*
X0324383Y0217775D01*
X0326891Y0218814D01*
X0328811Y0220734D01*
X0329850Y0223242D01*
X0329850Y0225958D01*
X0328811Y0228466D01*
X0326891Y0230386D01*
X0324383Y0231425D01*
X0312817Y0231425D01*
X0310309Y0230386D01*
X0308389Y0228466D01*
X0307350Y0225958D01*
X0307350Y0223242D01*
X0308389Y0220734D01*
X0309299Y0219824D01*
X0302387Y0212913D01*
X0301967Y0211899D01*
X0301677Y0212600D01*
X0301968Y0213304D01*
X0301968Y0218589D01*
X0301603Y0219471D01*
X0300928Y0220146D01*
X0300046Y0220512D01*
X0299214Y0220512D01*
X0295313Y0224413D01*
X0294413Y0225313D01*
X0293237Y0225800D01*
X0292350Y0225800D01*
X0292350Y0225958D01*
X0291311Y0228466D01*
X0289391Y0230386D01*
X0286883Y0231425D01*
X0275317Y0231425D01*
X0272809Y0230386D01*
X0270889Y0228466D01*
X0269850Y0225958D01*
X0269850Y0223242D01*
X0270889Y0220734D01*
X0272809Y0218814D01*
X0275317Y0217775D01*
X0286883Y0217775D01*
X0289391Y0218814D01*
X0289977Y0219400D01*
X0291275Y0219400D01*
X0293231Y0217443D01*
X0293231Y0213304D01*
X0293523Y0212600D01*
X0293231Y0211896D01*
X0293231Y0206611D01*
X0293597Y0205729D01*
X0294272Y0205054D01*
X0294400Y0205001D01*
X0294400Y0176963D01*
X0294887Y0175787D01*
X0301900Y0168775D01*
X0301900Y0166425D01*
X0289887Y0154413D01*
X0289400Y0153237D01*
X0289400Y0133569D01*
X0288025Y0131506D01*
X0287965Y0131888D01*
X0287697Y0132711D01*
X0287304Y0133483D01*
X0286795Y0134183D01*
X0286183Y0134795D01*
X0285581Y0135232D01*
X0286055Y0135429D01*
X0287771Y0137145D01*
X0288700Y0139387D01*
X0288700Y0141813D01*
X0287771Y0144055D01*
X0286227Y0145600D01*
X0287771Y0147145D01*
X0288700Y0149387D01*
X0288700Y0151813D01*
X0287771Y0154055D01*
X0286055Y0155771D01*
X0285800Y0155877D01*
X0285800Y0162323D01*
X0286055Y0162429D01*
X0287600Y0163973D01*
X0289145Y0162429D01*
X0291387Y0161500D01*
X0293813Y0161500D01*
X0296055Y0162429D01*
X0297771Y0164145D01*
X0298700Y0166387D01*
X0298700Y0168813D01*
X0297771Y0171055D01*
X0296055Y0172771D01*
X0293813Y0173700D01*
X0291387Y0173700D01*
X0289145Y0172771D01*
X0287600Y0171227D01*
X0286055Y0172771D01*
X0283813Y0173700D01*
X0281387Y0173700D01*
X0279145Y0172771D01*
X0277429Y0171055D01*
X0276500Y0168813D01*
X0276500Y0166387D01*
X0277429Y0164145D01*
X0279145Y0162429D01*
X0279400Y0162323D01*
X0279400Y0155877D01*
X0279145Y0155771D01*
X0277681Y0154308D01*
X0276510Y0154425D01*
X0275298Y0155637D01*
X0273547Y0156362D01*
X0271653Y0156362D01*
X0269902Y0155637D01*
X0268563Y0154298D01*
X0268133Y0153260D01*
X0261984Y0150800D01*
X0261963Y0150800D01*
X0261394Y0150564D01*
X0260821Y0150335D01*
X0260806Y0150321D01*
X0260787Y0150313D01*
X0260351Y0149876D01*
X0259909Y0149446D01*
X0259902Y0149427D01*
X0259887Y0149413D01*
X0259651Y0148842D01*
X0259408Y0148275D01*
X0259408Y0148255D01*
X0259400Y0148237D01*
X0259400Y0147619D01*
X0259392Y0147003D01*
X0259400Y0146984D01*
X0259400Y0141425D01*
X0248300Y0130325D01*
X0248300Y0150637D01*
X0249235Y0150250D01*
X0250965Y0150250D01*
X0252564Y0150912D01*
X0253065Y0151413D01*
X0253115Y0151291D01*
X0253791Y0150615D01*
X0254673Y0150250D01*
X0259527Y0150250D01*
X0260409Y0150615D01*
X0261085Y0151291D01*
X0261450Y0152173D01*
X0261450Y0157027D01*
X0261085Y0157909D01*
X0260409Y0158585D01*
X0260055Y0158731D01*
X0259381Y0169856D01*
X0261500Y0171975D01*
X0261500Y0171387D01*
X0262429Y0169145D01*
X0264145Y0167429D01*
X0266387Y0166500D01*
X0268813Y0166500D01*
X0271055Y0167429D01*
X0272771Y0169145D01*
X0273700Y0171387D01*
X0273700Y0173813D01*
X0272957Y0175607D01*
X0273412Y0175276D01*
X0274285Y0174831D01*
X0275217Y0174528D01*
X0276185Y0174375D01*
X0280425Y0174375D01*
X0280425Y0179925D01*
X0281775Y0179925D01*
X0281775Y0181275D01*
X0280425Y0181275D01*
X0280425Y0186825D01*
X0276185Y0186825D01*
X0275217Y0186672D01*
X0274285Y0186369D01*
X0273412Y0185924D01*
X0272961Y0185596D01*
X0272771Y0186055D01*
X0271227Y0187600D01*
X0272771Y0189145D01*
X0273700Y0191387D01*
X0273700Y0193813D01*
X0272771Y0196055D01*
X0271227Y0197600D01*
X0271625Y0197998D01*
X0272809Y0196814D01*
X0275317Y0195775D01*
X0286883Y0195775D01*
X0289391Y0196814D01*
X0291311Y0198734D01*
X0292350Y0201242D01*
X0292350Y0203958D01*
X0291311Y0206466D01*
X0289391Y0208386D01*
X0286883Y0209425D01*
X0275317Y0209425D01*
X0272809Y0208386D01*
X0271625Y0207202D01*
X0271055Y0207771D01*
X0268813Y0208700D01*
X0266387Y0208700D01*
X0266313Y0208669D01*
X0259519Y0215949D01*
X0259700Y0216387D01*
X0259700Y0218813D01*
X0258771Y0221055D01*
X0257055Y0222771D01*
X0254813Y0223700D01*
X0252387Y0223700D01*
X0250145Y0222771D01*
X0248600Y0221227D01*
X0247055Y0222771D01*
X0244813Y0223700D01*
X0242387Y0223700D01*
X0240145Y0222771D01*
X0238429Y0221055D01*
X0237500Y0218813D01*
X0237500Y0216387D01*
X0238429Y0214145D01*
X0238673Y0213900D01*
X0236594Y0208700D01*
X0236387Y0208700D01*
X0234145Y0207771D01*
X0232429Y0206055D01*
X0231955Y0204911D01*
X0231311Y0206466D01*
X0229391Y0208386D01*
X0226883Y0209425D01*
X0215317Y0209425D01*
X0212809Y0208386D01*
X0211968Y0207545D01*
X0211968Y0211896D01*
X0211677Y0212600D01*
X0211968Y0213304D01*
X0211968Y0217443D01*
X0213184Y0218659D01*
X0215317Y0217775D01*
X0226883Y0217775D01*
X0229391Y0218814D01*
X0231311Y0220734D01*
X0232350Y0223242D01*
X0232350Y0225958D01*
X0231311Y0228466D01*
X0229391Y0230386D01*
X0226883Y0231425D01*
X0215317Y0231425D01*
X0212809Y0230386D01*
X0210889Y0228466D01*
X0209850Y0225958D01*
X0209850Y0224375D01*
X0205986Y0220512D01*
X0205154Y0220512D01*
X0204272Y0220146D01*
X0203597Y0219471D01*
X0203231Y0218589D01*
X0203231Y0213304D01*
X0203523Y0212600D01*
X0203231Y0211896D01*
X0203231Y0206611D01*
X0203597Y0205729D01*
X0204272Y0205054D01*
X0204400Y0205001D01*
X0204400Y0179463D01*
X0204887Y0178287D01*
X0205787Y0177387D01*
X0209065Y0174109D01*
X0207778Y0173576D01*
X0207133Y0172931D01*
X0200800Y0183486D01*
X0200800Y0205001D01*
X0200928Y0205054D01*
X0201603Y0205729D01*
X0201968Y0206611D01*
X0201968Y0211896D01*
X0201677Y0212600D01*
X0201968Y0213304D01*
X0201968Y0218589D01*
X0201603Y0219471D01*
X0200928Y0220146D01*
X0200046Y0220512D01*
X0199214Y0220512D01*
X0192813Y0226913D01*
X0191913Y0227813D01*
X0191513Y0227978D01*
X0191311Y0228466D01*
X0189391Y0230386D01*
X0186883Y0231425D01*
X0175317Y0231425D01*
X0172809Y0230386D01*
X0170889Y0228466D01*
X0169850Y0225958D01*
X0169850Y0223242D01*
X0170889Y0220734D01*
X0172809Y0218814D01*
X0175317Y0217775D01*
X0186883Y0217775D01*
X0189391Y0218814D01*
X0190626Y0220049D01*
X0193231Y0217443D01*
X0193231Y0213304D01*
X0193523Y0212600D01*
X0193231Y0211896D01*
X0193231Y0206611D01*
X0193597Y0205729D01*
X0194272Y0205054D01*
X0194400Y0205001D01*
X0194400Y0182994D01*
X0194341Y0182759D01*
X0194400Y0182363D01*
X0194400Y0181963D01*
X0194493Y0181739D01*
X0194529Y0181499D01*
X0194734Y0181157D01*
X0194887Y0180787D01*
X0195059Y0180616D01*
X0197408Y0176700D01*
X0196387Y0176700D01*
X0194145Y0175771D01*
X0192600Y0174227D01*
X0191055Y0175771D01*
X0189955Y0176227D01*
X0190273Y0176545D01*
X0190849Y0177337D01*
X0191294Y0178210D01*
X0191597Y0179142D01*
X0191721Y0179925D01*
X0181775Y0179925D01*
X0181775Y0181275D01*
X0180425Y0181275D01*
X0180425Y0186825D01*
X0176185Y0186825D01*
X0175217Y0186672D01*
X0174285Y0186369D01*
X0173412Y0185924D01*
X0172961Y0185596D01*
X0172771Y0186055D01*
X0171227Y0187600D01*
X0172771Y0189145D01*
X0173700Y0191387D01*
X0173700Y0193813D01*
X0172771Y0196055D01*
X0171227Y0197600D01*
X0171625Y0197998D01*
X0172809Y0196814D01*
X0175317Y0195775D01*
X0186883Y0195775D01*
X0189391Y0196814D01*
X0191311Y0198734D01*
X0192350Y0201242D01*
X0192350Y0203958D01*
X0191311Y0206466D01*
X0189391Y0208386D01*
X0186883Y0209425D01*
X0175317Y0209425D01*
X0172809Y0208386D01*
X0171625Y0207202D01*
X0171055Y0207771D01*
X0168813Y0208700D01*
X0166387Y0208700D01*
X0166131Y0208594D01*
X0157676Y0217049D01*
X0157771Y0217145D01*
X0158700Y0219387D01*
X0158700Y0221813D01*
X0157771Y0224055D01*
X0156055Y0225771D01*
X0153813Y0226700D01*
X0151387Y0226700D01*
X0149145Y0225771D01*
X0147600Y0224227D01*
X0146055Y0225771D01*
X0143813Y0226700D01*
X0141387Y0226700D01*
X0139145Y0225771D01*
X0137429Y0224055D01*
X0136500Y0221813D01*
X0136500Y0219387D01*
X0137429Y0217145D01*
X0138125Y0216448D01*
X0135920Y0208507D01*
X0134145Y0207771D01*
X0132429Y0206055D01*
X0131955Y0204911D01*
X0131311Y0206466D01*
X0129391Y0208386D01*
X0126883Y0209425D01*
X0115317Y0209425D01*
X0112809Y0208386D01*
X0111968Y0207545D01*
X0111968Y0211896D01*
X0111677Y0212600D01*
X0111968Y0213304D01*
X0111968Y0217443D01*
X0113184Y0218659D01*
X0115317Y0217775D01*
X0126883Y0217775D01*
X0129391Y0218814D01*
X0131311Y0220734D01*
X0132350Y0223242D01*
X0132350Y0225958D01*
X0131311Y0228466D01*
X0129391Y0230386D01*
X0126883Y0231425D01*
X0115317Y0231425D01*
X0112809Y0230386D01*
X0110889Y0228466D01*
X0109850Y0225958D01*
X0109850Y0224375D01*
X0105986Y0220512D01*
X0105154Y0220512D01*
X0104272Y0220146D01*
X0103597Y0219471D01*
X0103231Y0218589D01*
X0103231Y0213304D01*
X0103523Y0212600D01*
X0103231Y0211896D01*
X0103231Y0206611D01*
X0103597Y0205729D01*
X0104272Y0205054D01*
X0104400Y0205001D01*
X0104400Y0180325D01*
X0100800Y0183925D01*
X0100800Y0205001D01*
X0100928Y0205054D01*
X0101603Y0205729D01*
X0101968Y0206611D01*
X0101968Y0211896D01*
X0101677Y0212600D01*
X0101968Y0213304D01*
X0101968Y0218589D01*
X0101603Y0219471D01*
X0100928Y0220146D01*
X0100046Y0220512D01*
X0099214Y0220512D01*
X0095313Y0224413D01*
X0094413Y0225313D01*
X0093237Y0225800D01*
X0092350Y0225800D01*
X0092350Y0225958D01*
X0091311Y0228466D01*
X0089391Y0230386D01*
X0086883Y0231425D01*
X0075317Y0231425D01*
X0072809Y0230386D01*
X0070889Y0228466D01*
X0069850Y0225958D01*
X0069850Y0223242D01*
X0070889Y0220734D01*
X0072809Y0218814D01*
X0075317Y0217775D01*
X0086883Y0217775D01*
X0089391Y0218814D01*
X0089977Y0219400D01*
X0091275Y0219400D01*
X0093231Y0217443D01*
X0093231Y0213304D01*
X0093523Y0212600D01*
X0093231Y0211896D01*
X0093231Y0206611D01*
X0093597Y0205729D01*
X0094272Y0205054D01*
X0094400Y0205001D01*
X0094400Y0181963D01*
X0094887Y0180787D01*
X0095787Y0179887D01*
X0101975Y0173700D01*
X0101387Y0173700D01*
X0099145Y0172771D01*
X0097600Y0171227D01*
X0096055Y0172771D01*
X0093813Y0173700D01*
X0091387Y0173700D01*
X0089145Y0172771D01*
X0087429Y0171055D01*
X0086500Y0168813D01*
X0086500Y0166387D01*
X0087429Y0164145D01*
X0088062Y0163511D01*
X0086013Y0156545D01*
X0084145Y0155771D01*
X0083173Y0154800D01*
X0081135Y0154800D01*
X0080298Y0155637D01*
X0078547Y0156362D01*
X0076653Y0156362D01*
X0074902Y0155637D01*
X0073563Y0154298D01*
X0072838Y0152547D01*
X0072838Y0151363D01*
X0070787Y0149313D01*
X0069887Y0148413D01*
X0069400Y0147237D01*
X0069400Y0116425D01*
X0061990Y0109015D01*
X0061423Y0109250D01*
X0060380Y0109250D01*
X0059000Y0110630D01*
X0059000Y0125622D01*
X0058254Y0127423D01*
X0058052Y0127624D01*
X0058013Y0127719D01*
X0057632Y0128100D01*
X0058013Y0128481D01*
X0058052Y0128576D01*
X0058254Y0128777D01*
X0059000Y0130578D01*
X0059000Y0134075D01*
X0058254Y0135876D01*
X0055754Y0138376D01*
X0054376Y0139754D01*
X0052575Y0140500D01*
X0046472Y0140500D01*
X0045189Y0139968D01*
X0044804Y0139968D01*
X0043922Y0139603D01*
X0043575Y0139256D01*
X0043156Y0139368D01*
X0040938Y0139368D01*
X0040938Y0135784D01*
X0040569Y0135784D01*
X0040569Y0139368D01*
X0038351Y0139368D01*
X0037893Y0139246D01*
X0037483Y0139009D01*
X0037148Y0138674D01*
X0036911Y0138263D01*
X0036800Y0137849D01*
X0036800Y0152237D01*
X0036313Y0153413D01*
X0034125Y0155600D01*
X0046413Y0167887D01*
X0047120Y0168595D01*
X0048174Y0155325D01*
X0047912Y0155064D01*
X0047250Y0153465D01*
X0047250Y0151735D01*
X0047912Y0150136D01*
X0049136Y0148912D01*
X0050735Y0148250D01*
X0052465Y0148250D01*
X0054064Y0148912D01*
X0054565Y0149413D01*
X0054615Y0149291D01*
X0055291Y0148615D01*
X0056173Y0148250D01*
X0061027Y0148250D01*
X0061909Y0148615D01*
X0062585Y0149291D01*
X0062950Y0150173D01*
X0062950Y0155027D01*
X0062585Y0155909D01*
X0061909Y0156585D01*
X0061178Y0156888D01*
X0060800Y0159345D01*
X0060800Y0176275D01*
X0063049Y0178524D01*
X0063973Y0177600D01*
X0062429Y0176055D01*
X0061500Y0173813D01*
X0061500Y0171387D01*
X0062429Y0169145D01*
X0064145Y0167429D01*
X0066387Y0166500D01*
X0068813Y0166500D01*
X0071055Y0167429D01*
X0072771Y0169145D01*
X0073700Y0171387D01*
X0073700Y0173813D01*
X0072957Y0175607D01*
X0073412Y0175276D01*
X0074285Y0174831D01*
X0075217Y0174528D01*
X0076185Y0174375D01*
X0080425Y0174375D01*
X0080425Y0179925D01*
X0081775Y0179925D01*
X0081775Y0181275D01*
X0080425Y0181275D01*
X0080425Y0186825D01*
X0076185Y0186825D01*
X0075217Y0186672D01*
X0074285Y0186369D01*
X0073412Y0185924D01*
X0072961Y0185596D01*
X0072771Y0186055D01*
X0071227Y0187600D01*
X0072771Y0189145D01*
X0073700Y0191387D01*
X0073700Y0193813D01*
X0072771Y0196055D01*
X0071227Y0197600D01*
X0071625Y0197998D01*
X0072809Y0196814D01*
X0075317Y0195775D01*
X0086883Y0195775D01*
X0089391Y0196814D01*
X0091311Y0198734D01*
X0092350Y0201242D01*
X0092350Y0203958D01*
X0091311Y0206466D01*
X0089391Y0208386D01*
X0086883Y0209425D01*
X0075317Y0209425D01*
X0072809Y0208386D01*
X0071625Y0207202D01*
X0071055Y0207771D01*
X0068813Y0208700D01*
X0066387Y0208700D01*
X0066131Y0208594D01*
X0058594Y0216131D01*
X0058700Y0216387D01*
X0058700Y0218813D01*
X0057771Y0221055D01*
X0056055Y0222771D01*
X0053813Y0223700D01*
X0051387Y0223700D01*
X0049145Y0222771D01*
X0047600Y0221227D01*
X0046055Y0222771D01*
X0043813Y0223700D01*
X0041387Y0223700D01*
X0039145Y0222771D01*
X0037429Y0221055D01*
X0036500Y0218813D01*
X0036500Y0216387D01*
X0037368Y0214291D01*
X0034970Y0209496D01*
X0034887Y0209413D01*
X0034687Y0208929D01*
X0034453Y0208462D01*
X0034445Y0208345D01*
X0034400Y0208237D01*
X0034400Y0207877D01*
X0034145Y0207771D01*
X0032429Y0206055D01*
X0031955Y0204911D01*
X0031311Y0206466D01*
X0029391Y0208386D01*
X0026883Y0209425D01*
X0015317Y0209425D01*
X0012809Y0208386D01*
X0011968Y0207545D01*
X0011968Y0211896D01*
X0011677Y0212600D01*
X0011968Y0213304D01*
X0011968Y0218589D01*
X0011603Y0219471D01*
X0010928Y0220146D01*
X0010800Y0220199D01*
X0010800Y0220949D01*
X0010889Y0220734D01*
X0012809Y0218814D01*
X0015317Y0217775D01*
X0026883Y0217775D01*
X0029391Y0218814D01*
X0031311Y0220734D01*
X0032350Y0223242D01*
X0032350Y0225958D01*
X0031311Y0228466D01*
X0029391Y0230386D01*
X0026883Y0231425D01*
X0015317Y0231425D01*
X0012809Y0230386D01*
X0010889Y0228466D01*
X0010613Y0227800D01*
X0008963Y0227800D01*
X0007787Y0227313D01*
X0005787Y0225313D01*
X0005000Y0224525D01*
X0005000Y0325161D01*
X0043101Y0325161D01*
X0042877Y0324621D01*
X0042877Y0316579D01*
X0043243Y0315697D01*
X0043918Y0315022D01*
X0044800Y0314657D01*
X0052841Y0314657D01*
X0053723Y0315022D01*
X0054398Y0315697D01*
X0054764Y0316579D01*
X0054764Y0324621D01*
X0054540Y0325161D01*
X0056880Y0325161D01*
X0056657Y0324621D01*
X0056657Y0316579D01*
X0057022Y0315697D01*
X0057697Y0315022D01*
X0058579Y0314657D01*
X0066621Y0314657D01*
X0067503Y0315022D01*
X0068178Y0315697D01*
X0068543Y0316579D01*
X0068543Y0324621D01*
X0068320Y0325161D01*
X0125900Y0325161D01*
X0125743Y0325003D01*
X0125377Y0324121D01*
X0125377Y0316079D01*
X0125743Y0315197D01*
X0126418Y0314522D01*
X0127300Y0314157D01*
X0135341Y0314157D01*
X0136223Y0314522D01*
X0136898Y0315197D01*
X0137264Y0316079D01*
X0137264Y0324121D01*
X0136898Y0325003D01*
X0136741Y0325161D01*
X0139680Y0325161D01*
X0139522Y0325003D01*
X0139157Y0324121D01*
X0139157Y0316079D01*
X0139522Y0315197D01*
X0140197Y0314522D01*
X0141079Y0314157D01*
X0149121Y0314157D01*
X0150003Y0314522D01*
X0150678Y0315197D01*
X0151043Y0316079D01*
X0151043Y0324121D01*
X0150678Y0325003D01*
X0150520Y0325161D01*
X0190585Y0325161D01*
X0190451Y0325084D01*
X0190116Y0324749D01*
X0189879Y0324338D01*
X0189757Y0323880D01*
X0189757Y0320481D01*
X0194719Y0320481D01*
X0194719Y0319719D01*
X0195481Y0319719D01*
X0195481Y0320481D01*
X0200443Y0320481D01*
X0200443Y0319719D02*
X0195481Y0319719D01*
X0195481Y0314757D01*
X0198880Y0314757D01*
X0199338Y0314879D01*
X0199749Y0315116D01*
X0200084Y0315451D01*
X0200321Y0315862D01*
X0200443Y0316320D01*
X0200443Y0319719D01*
X0200443Y0319105D02*
X0202936Y0319105D01*
X0202936Y0317507D02*
X0200443Y0317507D01*
X0200333Y0315908D02*
X0203007Y0315908D01*
X0203980Y0314310D02*
X0149490Y0314310D01*
X0148547Y0312362D02*
X0146653Y0312362D01*
X0144902Y0311637D01*
X0143563Y0310298D01*
X0142838Y0308547D01*
X0142838Y0306653D01*
X0143563Y0304902D01*
X0144902Y0303563D01*
X0146653Y0302838D01*
X0148547Y0302838D01*
X0150298Y0303563D01*
X0151637Y0304902D01*
X0152362Y0306653D01*
X0152362Y0308547D01*
X0151637Y0310298D01*
X0150298Y0311637D01*
X0148547Y0312362D01*
X0150822Y0311113D02*
X0203980Y0311113D01*
X0203980Y0312711D02*
X0005000Y0312711D01*
X0005000Y0311113D02*
X0046878Y0311113D01*
X0047402Y0311637D02*
X0046063Y0310298D01*
X0045338Y0308547D01*
X0045338Y0306653D01*
X0046063Y0304902D01*
X0047402Y0303563D01*
X0049153Y0302838D01*
X0051047Y0302838D01*
X0052798Y0303563D01*
X0054137Y0304902D01*
X0054862Y0306653D01*
X0054862Y0308547D01*
X0054137Y0310298D01*
X0052798Y0311637D01*
X0051047Y0312362D01*
X0049153Y0312362D01*
X0047402Y0311637D01*
X0045738Y0309514D02*
X0005000Y0309514D01*
X0005000Y0307916D02*
X0045338Y0307916D01*
X0045477Y0306317D02*
X0005000Y0306317D01*
X0005000Y0304719D02*
X0046247Y0304719D01*
X0048471Y0303120D02*
X0005000Y0303120D01*
X0005000Y0301522D02*
X0203980Y0301522D01*
X0203980Y0303120D02*
X0149229Y0303120D01*
X0151453Y0304719D02*
X0203980Y0304719D01*
X0203980Y0306317D02*
X0152223Y0306317D01*
X0152362Y0307916D02*
X0203980Y0307916D01*
X0203980Y0309514D02*
X0151962Y0309514D01*
X0150972Y0315908D02*
X0189867Y0315908D01*
X0189879Y0315862D02*
X0190116Y0315451D01*
X0190451Y0315116D01*
X0190862Y0314879D01*
X0191320Y0314757D01*
X0194719Y0314757D01*
X0194719Y0319719D01*
X0189757Y0319719D01*
X0189757Y0316320D01*
X0189879Y0315862D01*
X0189757Y0317507D02*
X0151043Y0317507D01*
X0151043Y0319105D02*
X0189757Y0319105D01*
X0189757Y0320704D02*
X0151043Y0320704D01*
X0151043Y0322302D02*
X0189757Y0322302D01*
X0189762Y0323901D02*
X0151043Y0323901D01*
X0139157Y0323901D02*
X0137264Y0323901D01*
X0137264Y0322302D02*
X0139157Y0322302D01*
X0139157Y0320704D02*
X0137264Y0320704D01*
X0137264Y0319105D02*
X0139157Y0319105D01*
X0139157Y0317507D02*
X0137264Y0317507D01*
X0137193Y0315908D02*
X0139228Y0315908D01*
X0140710Y0314310D02*
X0135711Y0314310D01*
X0136653Y0312362D02*
X0134902Y0311637D01*
X0133563Y0310298D01*
X0132838Y0308547D01*
X0132838Y0306653D01*
X0133563Y0304902D01*
X0134902Y0303563D01*
X0136653Y0302838D01*
X0138547Y0302838D01*
X0140298Y0303563D01*
X0141637Y0304902D01*
X0142362Y0306653D01*
X0142362Y0308547D01*
X0141637Y0310298D01*
X0140298Y0311637D01*
X0138547Y0312362D01*
X0136653Y0312362D01*
X0134378Y0311113D02*
X0063322Y0311113D01*
X0062798Y0311637D02*
X0061047Y0312362D01*
X0059153Y0312362D01*
X0057402Y0311637D01*
X0056063Y0310298D01*
X0055338Y0308547D01*
X0055338Y0306653D01*
X0056063Y0304902D01*
X0057402Y0303563D01*
X0059153Y0302838D01*
X0061047Y0302838D01*
X0062798Y0303563D01*
X0064137Y0304902D01*
X0064862Y0306653D01*
X0064862Y0308547D01*
X0064137Y0310298D01*
X0062798Y0311637D01*
X0064462Y0309514D02*
X0133238Y0309514D01*
X0132838Y0307916D02*
X0064862Y0307916D01*
X0064723Y0306317D02*
X0132977Y0306317D01*
X0133747Y0304719D02*
X0063953Y0304719D01*
X0061729Y0303120D02*
X0135971Y0303120D01*
X0139229Y0303120D02*
X0145971Y0303120D01*
X0143747Y0304719D02*
X0141453Y0304719D01*
X0142223Y0306317D02*
X0142977Y0306317D01*
X0142838Y0307916D02*
X0142362Y0307916D01*
X0141962Y0309514D02*
X0143238Y0309514D01*
X0144378Y0311113D02*
X0140822Y0311113D01*
X0126930Y0314310D02*
X0005000Y0314310D01*
X0005000Y0315908D02*
X0043155Y0315908D01*
X0042877Y0317507D02*
X0005000Y0317507D01*
X0005000Y0319105D02*
X0042877Y0319105D01*
X0042877Y0320704D02*
X0005000Y0320704D01*
X0005000Y0322302D02*
X0042877Y0322302D01*
X0042877Y0323901D02*
X0005000Y0323901D01*
X0005000Y0299923D02*
X0030398Y0299923D01*
X0030787Y0300313D02*
X0026895Y0296420D01*
X0026883Y0296425D01*
X0015317Y0296425D01*
X0012809Y0295386D01*
X0010889Y0293466D01*
X0009850Y0290958D01*
X0009850Y0288242D01*
X0010889Y0285734D01*
X0012809Y0283814D01*
X0015317Y0282775D01*
X0026883Y0282775D01*
X0029391Y0283814D01*
X0031311Y0285734D01*
X0032350Y0288242D01*
X0032350Y0290958D01*
X0031803Y0292278D01*
X0033925Y0294400D01*
X0048500Y0294400D01*
X0048500Y0294284D01*
X0049124Y0292778D01*
X0050278Y0291624D01*
X0051784Y0291000D01*
X0053416Y0291000D01*
X0054922Y0291624D01*
X0056076Y0292778D01*
X0056700Y0294284D01*
X0056700Y0295916D01*
X0056076Y0297422D01*
X0054922Y0298576D01*
X0053416Y0299200D01*
X0053025Y0299200D01*
X0052813Y0299413D01*
X0051913Y0300313D01*
X0050737Y0300800D01*
X0031963Y0300800D01*
X0030787Y0300313D01*
X0028799Y0298325D02*
X0005000Y0298325D01*
X0005000Y0296726D02*
X0027201Y0296726D01*
X0032600Y0297600D02*
X0024600Y0289600D01*
X0021100Y0289600D01*
X0029515Y0283938D02*
X0072685Y0283938D01*
X0072809Y0283814D02*
X0075317Y0282775D01*
X0086883Y0282775D01*
X0089391Y0283814D01*
X0091311Y0285734D01*
X0092350Y0288242D01*
X0092350Y0290958D01*
X0091311Y0293466D01*
X0089391Y0295386D01*
X0086883Y0296425D01*
X0075317Y0296425D01*
X0072809Y0295386D01*
X0070889Y0293466D01*
X0069850Y0290958D01*
X0069850Y0288242D01*
X0070889Y0285734D01*
X0072809Y0283814D01*
X0071086Y0285537D02*
X0031114Y0285537D01*
X0031891Y0287135D02*
X0070309Y0287135D01*
X0069850Y0288734D02*
X0032350Y0288734D01*
X0032350Y0290332D02*
X0069850Y0290332D01*
X0070253Y0291931D02*
X0055229Y0291931D01*
X0056387Y0293529D02*
X0070952Y0293529D01*
X0072551Y0295128D02*
X0056700Y0295128D01*
X0056364Y0296726D02*
X0203980Y0296726D01*
X0203980Y0295128D02*
X0189649Y0295128D01*
X0189391Y0295386D02*
X0186883Y0296425D01*
X0175317Y0296425D01*
X0172809Y0295386D01*
X0170889Y0293466D01*
X0169850Y0290958D01*
X0169850Y0288242D01*
X0170889Y0285734D01*
X0172809Y0283814D01*
X0175317Y0282775D01*
X0186883Y0282775D01*
X0189391Y0283814D01*
X0191311Y0285734D01*
X0192350Y0288242D01*
X0192350Y0290958D01*
X0191311Y0293466D01*
X0189391Y0295386D01*
X0191248Y0293529D02*
X0203980Y0293529D01*
X0203980Y0291931D02*
X0191947Y0291931D01*
X0192350Y0290332D02*
X0203980Y0290332D01*
X0203980Y0288734D02*
X0192350Y0288734D01*
X0191891Y0287135D02*
X0203980Y0287135D01*
X0203980Y0285537D02*
X0191114Y0285537D01*
X0189515Y0283938D02*
X0203980Y0283938D01*
X0203980Y0282339D02*
X0005000Y0282339D01*
X0005000Y0280741D02*
X0203980Y0280741D01*
X0203980Y0279142D02*
X0005000Y0279142D01*
X0005000Y0277544D02*
X0204519Y0277544D01*
X0205825Y0275945D02*
X0005000Y0275945D01*
X0005000Y0274347D02*
X0015129Y0274347D01*
X0012171Y0272748D02*
X0005000Y0272748D01*
X0005000Y0271150D02*
X0010758Y0271150D01*
X0010096Y0269551D02*
X0005000Y0269551D01*
X0005000Y0267953D02*
X0009850Y0267953D01*
X0009850Y0266354D02*
X0005000Y0266354D01*
X0005000Y0264756D02*
X0010466Y0264756D01*
X0011466Y0263157D02*
X0005000Y0263157D01*
X0005000Y0261559D02*
X0013425Y0261559D01*
X0005000Y0259960D02*
X0398901Y0259960D01*
X0398901Y0258362D02*
X0005000Y0258362D01*
X0005000Y0256763D02*
X0398901Y0256763D01*
X0398901Y0255165D02*
X0005000Y0255165D01*
X0005000Y0253566D02*
X0398901Y0253566D01*
X0398901Y0251968D02*
X0385486Y0251968D01*
X0384383Y0252425D02*
X0386891Y0251386D01*
X0388811Y0249466D01*
X0389850Y0246958D01*
X0389850Y0244242D01*
X0388811Y0241734D01*
X0386891Y0239814D01*
X0384383Y0238775D01*
X0372817Y0238775D01*
X0370309Y0239814D01*
X0368389Y0241734D01*
X0367350Y0244242D01*
X0367350Y0246958D01*
X0368389Y0249466D01*
X0370309Y0251386D01*
X0372817Y0252425D01*
X0384383Y0252425D01*
X0387908Y0250369D02*
X0398901Y0250369D01*
X0398901Y0248771D02*
X0389099Y0248771D01*
X0389761Y0247172D02*
X0398901Y0247172D01*
X0398901Y0245574D02*
X0389850Y0245574D01*
X0389739Y0243975D02*
X0398901Y0243975D01*
X0398901Y0242377D02*
X0389077Y0242377D01*
X0387855Y0240778D02*
X0398901Y0240778D01*
X0398901Y0239180D02*
X0385360Y0239180D01*
X0384957Y0231187D02*
X0398901Y0231187D01*
X0398901Y0229589D02*
X0387688Y0229589D01*
X0389008Y0227990D02*
X0398901Y0227990D01*
X0398901Y0226392D02*
X0389670Y0226392D01*
X0392600Y0222600D02*
X0380600Y0222600D01*
X0378600Y0224600D01*
X0372243Y0231187D02*
X0324957Y0231187D01*
X0327688Y0229589D02*
X0369512Y0229589D01*
X0368192Y0227990D02*
X0329008Y0227990D01*
X0329670Y0226392D02*
X0367530Y0226392D01*
X0367350Y0224793D02*
X0329850Y0224793D01*
X0329830Y0223195D02*
X0367370Y0223195D01*
X0368032Y0221596D02*
X0329168Y0221596D01*
X0328075Y0219998D02*
X0369125Y0219998D01*
X0371311Y0218399D02*
X0352040Y0218399D01*
X0354526Y0216801D02*
X0390731Y0216801D01*
X0390731Y0218399D02*
X0385889Y0218399D01*
X0390731Y0215202D02*
X0357023Y0215202D01*
X0358622Y0213603D02*
X0390731Y0213603D01*
X0390777Y0212005D02*
X0360220Y0212005D01*
X0361819Y0210406D02*
X0390731Y0210406D01*
X0390731Y0208808D02*
X0385872Y0208808D01*
X0388068Y0207209D02*
X0390731Y0207209D01*
X0391215Y0205611D02*
X0389165Y0205611D01*
X0389827Y0204012D02*
X0391900Y0204012D01*
X0391900Y0202414D02*
X0389850Y0202414D01*
X0389673Y0200815D02*
X0391900Y0200815D01*
X0391900Y0199217D02*
X0389011Y0199217D01*
X0387695Y0197618D02*
X0391900Y0197618D01*
X0391900Y0196020D02*
X0384974Y0196020D01*
X0391900Y0194421D02*
X0370948Y0194421D01*
X0371200Y0192823D02*
X0391900Y0192823D01*
X0391900Y0191224D02*
X0371133Y0191224D01*
X0370471Y0189626D02*
X0391900Y0189626D01*
X0391900Y0188027D02*
X0369154Y0188027D01*
X0369898Y0186429D02*
X0371970Y0186429D01*
X0365100Y0182600D02*
X0362600Y0182600D01*
X0357600Y0177600D01*
X0357600Y0159100D01*
X0356100Y0157600D01*
X0360465Y0157656D02*
X0378130Y0157656D01*
X0379729Y0159254D02*
X0360800Y0159254D01*
X0360800Y0160853D02*
X0381327Y0160853D01*
X0382926Y0162451D02*
X0360800Y0162451D01*
X0360800Y0164050D02*
X0384524Y0164050D01*
X0386123Y0165648D02*
X0360800Y0165648D01*
X0360800Y0167247D02*
X0362084Y0167247D01*
X0368116Y0167247D02*
X0387721Y0167247D01*
X0389320Y0168845D02*
X0369972Y0168845D01*
X0370809Y0170444D02*
X0390918Y0170444D01*
X0391900Y0172042D02*
X0371200Y0172042D01*
X0371200Y0173641D02*
X0391900Y0173641D01*
X0391900Y0175239D02*
X0386216Y0175239D01*
X0386288Y0175276D02*
X0387080Y0175852D01*
X0387773Y0176545D01*
X0388349Y0177337D01*
X0388794Y0178210D01*
X0389097Y0179142D01*
X0389221Y0179925D01*
X0379275Y0179925D01*
X0379275Y0174375D01*
X0383515Y0174375D01*
X0384483Y0174528D01*
X0385415Y0174831D01*
X0386288Y0175276D01*
X0387986Y0176838D02*
X0391900Y0176838D01*
X0391900Y0178436D02*
X0388867Y0178436D01*
X0389221Y0181275D02*
X0389097Y0182058D01*
X0388794Y0182990D01*
X0388349Y0183863D01*
X0387773Y0184655D01*
X0387080Y0185348D01*
X0386288Y0185924D01*
X0385415Y0186369D01*
X0384483Y0186672D01*
X0383515Y0186825D01*
X0379275Y0186825D01*
X0379275Y0181275D01*
X0389221Y0181275D01*
X0389164Y0181633D02*
X0391900Y0181633D01*
X0391900Y0180035D02*
X0379275Y0180035D01*
X0379275Y0181633D02*
X0377925Y0181633D01*
X0377925Y0183232D02*
X0379275Y0183232D01*
X0379275Y0184830D02*
X0377925Y0184830D01*
X0377925Y0186429D02*
X0379275Y0186429D01*
X0385230Y0186429D02*
X0391900Y0186429D01*
X0391900Y0184830D02*
X0387598Y0184830D01*
X0388671Y0183232D02*
X0391900Y0183232D01*
X0398300Y0183232D02*
X0398901Y0183232D01*
X0398901Y0184830D02*
X0398300Y0184830D01*
X0398300Y0186429D02*
X0398901Y0186429D01*
X0398901Y0188027D02*
X0398300Y0188027D01*
X0398300Y0189626D02*
X0398901Y0189626D01*
X0398901Y0191224D02*
X0398300Y0191224D01*
X0398300Y0192823D02*
X0398901Y0192823D01*
X0398901Y0194421D02*
X0398300Y0194421D01*
X0398300Y0196020D02*
X0398901Y0196020D01*
X0398901Y0197618D02*
X0398300Y0197618D01*
X0398300Y0199217D02*
X0398901Y0199217D01*
X0398901Y0200815D02*
X0398300Y0200815D01*
X0398300Y0202414D02*
X0398901Y0202414D01*
X0398901Y0204012D02*
X0398300Y0204012D01*
X0398300Y0205001D02*
X0398428Y0205054D01*
X0398901Y0205526D01*
X0398901Y0005000D01*
X0304525Y0005000D01*
X0316055Y0016529D01*
X0316367Y0016400D01*
X0318833Y0016400D01*
X0321112Y0017344D01*
X0322600Y0018832D01*
X0324088Y0017344D01*
X0326367Y0016400D01*
X0328833Y0016400D01*
X0331112Y0017344D01*
X0332856Y0019088D01*
X0333800Y0021367D01*
X0333800Y0023833D01*
X0332856Y0026112D01*
X0331368Y0027600D01*
X0332856Y0029088D01*
X0333800Y0031367D01*
X0333800Y0033833D01*
X0332856Y0036112D01*
X0331368Y0037600D01*
X0332856Y0039088D01*
X0333800Y0041367D01*
X0333800Y0043833D01*
X0332856Y0046112D01*
X0331368Y0047600D01*
X0332856Y0049088D01*
X0333800Y0051367D01*
X0333800Y0053833D01*
X0332856Y0056112D01*
X0331112Y0057856D01*
X0330785Y0057992D01*
X0331248Y0058329D01*
X0331871Y0058952D01*
X0332390Y0059665D01*
X0332790Y0060450D01*
X0333062Y0061289D01*
X0333200Y0062159D01*
X0333200Y0062400D01*
X0327800Y0062400D01*
X0327800Y0062800D01*
X0327400Y0062800D01*
X0327400Y0068200D01*
X0327159Y0068200D01*
X0326289Y0068062D01*
X0325450Y0067790D01*
X0324665Y0067390D01*
X0323952Y0066871D01*
X0323329Y0066248D01*
X0322810Y0065535D01*
X0322600Y0065122D01*
X0322390Y0065535D01*
X0321871Y0066248D01*
X0321248Y0066871D01*
X0320535Y0067390D01*
X0319750Y0067790D01*
X0318911Y0068062D01*
X0318041Y0068200D01*
X0317800Y0068200D01*
X0317800Y0062800D01*
X0327400Y0062800D01*
X0327400Y0062400D01*
X0322000Y0062400D01*
X0317800Y0062400D01*
X0317800Y0062800D01*
X0317400Y0062800D01*
X0317400Y0068200D01*
X0317159Y0068200D01*
X0316289Y0068062D01*
X0315450Y0067790D01*
X0314665Y0067390D01*
X0313952Y0066871D01*
X0313329Y0066248D01*
X0312810Y0065535D01*
X0312410Y0064750D01*
X0312138Y0063911D01*
X0312000Y0063041D01*
X0312000Y0062800D01*
X0317400Y0062800D01*
X0317400Y0062400D01*
X0312325Y0062400D01*
X0303300Y0071425D01*
X0303300Y0083237D01*
X0302813Y0084413D01*
X0297813Y0089413D01*
X0296913Y0090313D01*
X0295737Y0090800D01*
X0282877Y0090800D01*
X0282836Y0090900D01*
X0306333Y0090900D01*
X0306597Y0090847D01*
X0306864Y0090900D01*
X0307137Y0090900D01*
X0307386Y0091003D01*
X0307651Y0091056D01*
X0307878Y0091207D01*
X0308129Y0091311D01*
X0308320Y0091502D01*
X0339494Y0112284D01*
X0339619Y0112232D01*
X0339017Y0111795D01*
X0338405Y0111183D01*
X0337896Y0110483D01*
X0337503Y0109711D01*
X0337235Y0108888D01*
X0337100Y0108033D01*
X0337100Y0107800D01*
X0342400Y0107800D01*
X0342400Y0107400D01*
X0337100Y0107400D01*
X0337100Y0107167D01*
X0337235Y0106312D01*
X0337503Y0105489D01*
X0337896Y0104717D01*
X0338405Y0104017D01*
X0339017Y0103405D01*
X0339619Y0102968D01*
X0339145Y0102771D01*
X0337429Y0101055D01*
X0336500Y0098813D01*
X0336500Y0096387D01*
X0337429Y0094145D01*
X0339145Y0092429D01*
X0341387Y0091500D01*
X0343813Y0091500D01*
X0346055Y0092429D01*
X0347771Y0094145D01*
X0348700Y0096387D01*
X0348700Y0098813D01*
X0348594Y0099069D01*
X0354400Y0104875D01*
X0354400Y0103925D01*
X0351387Y0100913D01*
X0350900Y0099737D01*
X0350900Y0080552D01*
X0350412Y0080064D01*
X0349750Y0078465D01*
X0349750Y0076735D01*
X0350412Y0075136D01*
X0351636Y0073912D01*
X0353235Y0073250D01*
X0354965Y0073250D01*
X0356564Y0073912D01*
X0357065Y0074413D01*
X0357115Y0074291D01*
X0357791Y0073615D01*
X0358673Y0073250D01*
X0363527Y0073250D01*
X0364409Y0073615D01*
X0365085Y0074291D01*
X0365450Y0075173D01*
X0365450Y0080027D01*
X0365085Y0080909D01*
X0364796Y0081198D01*
X0365718Y0088266D01*
X0365800Y0088463D01*
X0365800Y0088892D01*
X0365855Y0089317D01*
X0365800Y0089523D01*
X0365800Y0096275D01*
X0366500Y0096975D01*
X0366500Y0096387D01*
X0367429Y0094145D01*
X0369145Y0092429D01*
X0371387Y0091500D01*
X0373813Y0091500D01*
X0376055Y0092429D01*
X0377771Y0094145D01*
X0378700Y0096387D01*
X0378700Y0098813D01*
X0377771Y0101055D01*
X0376227Y0102600D01*
X0377771Y0104145D01*
X0378700Y0106387D01*
X0378700Y0108813D01*
X0377771Y0111055D01*
X0376227Y0112600D01*
X0377771Y0114145D01*
X0378700Y0116387D01*
X0378700Y0118813D01*
X0377771Y0121055D01*
X0376227Y0122600D01*
X0377771Y0124145D01*
X0378700Y0126387D01*
X0378700Y0128813D01*
X0377771Y0131055D01*
X0376055Y0132771D01*
X0373813Y0133700D01*
X0371387Y0133700D01*
X0369145Y0132771D01*
X0367429Y0131055D01*
X0367323Y0130800D01*
X0361963Y0130800D01*
X0360787Y0130313D01*
X0359887Y0129413D01*
X0355800Y0125325D01*
X0355800Y0126275D01*
X0396913Y0167387D01*
X0397813Y0168287D01*
X0398300Y0169463D01*
X0398300Y0205001D01*
X0395100Y0209254D02*
X0395100Y0170100D01*
X0352600Y0127600D01*
X0352600Y0107600D01*
X0342600Y0097600D01*
X0348256Y0095314D02*
X0350900Y0095314D01*
X0350900Y0096912D02*
X0348700Y0096912D01*
X0348700Y0098511D02*
X0350900Y0098511D01*
X0351054Y0100109D02*
X0349635Y0100109D01*
X0351233Y0101708D02*
X0352182Y0101708D01*
X0352832Y0103306D02*
X0353781Y0103306D01*
X0357600Y0102600D02*
X0354100Y0099100D01*
X0354100Y0077600D01*
X0351015Y0074533D02*
X0303300Y0074533D01*
X0303300Y0072934D02*
X0398901Y0072934D01*
X0398901Y0071336D02*
X0303389Y0071336D01*
X0304988Y0069737D02*
X0398901Y0069737D01*
X0398901Y0068139D02*
X0328426Y0068139D01*
X0328041Y0068200D02*
X0328911Y0068062D01*
X0329750Y0067790D01*
X0330535Y0067390D01*
X0331248Y0066871D01*
X0331871Y0066248D01*
X0332390Y0065535D01*
X0332790Y0064750D01*
X0333062Y0063911D01*
X0333200Y0063041D01*
X0333200Y0062800D01*
X0327800Y0062800D01*
X0327800Y0068200D01*
X0328041Y0068200D01*
X0327800Y0068139D02*
X0327400Y0068139D01*
X0326774Y0068139D02*
X0318426Y0068139D01*
X0317800Y0068139D02*
X0317400Y0068139D01*
X0316774Y0068139D02*
X0306587Y0068139D01*
X0308185Y0066540D02*
X0313621Y0066540D01*
X0312508Y0064942D02*
X0309784Y0064942D01*
X0311382Y0063343D02*
X0312048Y0063343D01*
X0317400Y0063343D02*
X0317800Y0063343D01*
X0317800Y0064942D02*
X0317400Y0064942D01*
X0317400Y0066540D02*
X0317800Y0066540D01*
X0321579Y0066540D02*
X0323621Y0066540D01*
X0327400Y0066540D02*
X0327800Y0066540D01*
X0327800Y0064942D02*
X0327400Y0064942D01*
X0327400Y0063343D02*
X0327800Y0063343D01*
X0331579Y0066540D02*
X0398901Y0066540D01*
X0398901Y0064942D02*
X0332692Y0064942D01*
X0333152Y0063343D02*
X0398901Y0063343D01*
X0398901Y0061745D02*
X0333134Y0061745D01*
X0332635Y0060146D02*
X0398901Y0060146D01*
X0398901Y0058548D02*
X0331467Y0058548D01*
X0332019Y0056949D02*
X0398901Y0056949D01*
X0398901Y0055351D02*
X0333171Y0055351D01*
X0333800Y0053752D02*
X0398901Y0053752D01*
X0398901Y0052154D02*
X0333800Y0052154D01*
X0333464Y0050555D02*
X0398901Y0050555D01*
X0398901Y0048957D02*
X0332725Y0048957D01*
X0331610Y0047358D02*
X0398901Y0047358D01*
X0398901Y0045760D02*
X0333002Y0045760D01*
X0333664Y0044161D02*
X0398901Y0044161D01*
X0398901Y0042563D02*
X0333800Y0042563D01*
X0333633Y0040964D02*
X0398901Y0040964D01*
X0398901Y0039366D02*
X0332971Y0039366D01*
X0331535Y0037767D02*
X0398901Y0037767D01*
X0398901Y0036169D02*
X0332799Y0036169D01*
X0333495Y0034570D02*
X0398901Y0034570D01*
X0398901Y0032972D02*
X0333800Y0032972D01*
X0333800Y0031373D02*
X0398901Y0031373D01*
X0398901Y0029775D02*
X0333141Y0029775D01*
X0331944Y0028176D02*
X0398901Y0028176D01*
X0398901Y0026578D02*
X0332390Y0026578D01*
X0333325Y0024979D02*
X0398901Y0024979D01*
X0398901Y0023381D02*
X0333800Y0023381D01*
X0333800Y0021782D02*
X0398901Y0021782D01*
X0398901Y0020184D02*
X0333310Y0020184D01*
X0332353Y0018585D02*
X0398901Y0018585D01*
X0398901Y0016987D02*
X0330249Y0016987D01*
X0324951Y0016987D02*
X0320249Y0016987D01*
X0322353Y0018585D02*
X0322847Y0018585D01*
X0317600Y0022600D02*
X0300100Y0005100D01*
X0165100Y0005100D01*
X0152600Y0017600D01*
X0147232Y0020581D02*
X0146795Y0021183D01*
X0146183Y0021795D01*
X0145483Y0022304D01*
X0144711Y0022697D01*
X0143888Y0022965D01*
X0143033Y0023100D01*
X0142800Y0023100D01*
X0142800Y0017800D01*
X0142400Y0017800D01*
X0142400Y0023100D01*
X0142167Y0023100D01*
X0141312Y0022965D01*
X0140489Y0022697D01*
X0139717Y0022304D01*
X0139017Y0021795D01*
X0138405Y0021183D01*
X0137896Y0020483D01*
X0137503Y0019711D01*
X0137235Y0018888D01*
X0137100Y0018033D01*
X0137100Y0017800D01*
X0142400Y0017800D01*
X0142400Y0017400D01*
X0142800Y0017400D01*
X0142800Y0012100D01*
X0143033Y0012100D01*
X0143888Y0012235D01*
X0144711Y0012503D01*
X0145483Y0012896D01*
X0146183Y0013405D01*
X0146795Y0014017D01*
X0147232Y0014619D01*
X0147429Y0014145D01*
X0149145Y0012429D01*
X0151387Y0011500D01*
X0153813Y0011500D01*
X0154069Y0011606D01*
X0160675Y0005000D01*
X0005000Y0005000D01*
X0005000Y0175675D01*
X0005787Y0174887D01*
X0010787Y0169887D01*
X0011963Y0169400D01*
X0023846Y0169400D01*
X0023743Y0169198D01*
X0023540Y0168575D01*
X0023438Y0167928D01*
X0023438Y0167600D01*
X0027600Y0167600D01*
X0031762Y0167600D01*
X0031762Y0167928D01*
X0031660Y0168575D01*
X0031457Y0169198D01*
X0031354Y0169400D01*
X0032323Y0169400D01*
X0032429Y0169145D01*
X0034145Y0167429D01*
X0036095Y0166621D01*
X0030705Y0161230D01*
X0030298Y0161637D01*
X0028547Y0162362D01*
X0026653Y0162362D01*
X0024902Y0161637D01*
X0023563Y0160298D01*
X0022838Y0158547D01*
X0022838Y0156653D01*
X0023563Y0154902D01*
X0024902Y0153563D01*
X0026653Y0152838D01*
X0027837Y0152838D01*
X0030400Y0150275D01*
X0030400Y0131963D01*
X0030887Y0130787D01*
X0031787Y0129887D01*
X0037024Y0124651D01*
X0036429Y0124055D01*
X0036232Y0123581D01*
X0035795Y0124183D01*
X0035183Y0124795D01*
X0034483Y0125304D01*
X0033711Y0125697D01*
X0032888Y0125965D01*
X0032033Y0126100D01*
X0031800Y0126100D01*
X0031800Y0120800D01*
X0031400Y0120800D01*
X0031400Y0126100D01*
X0031167Y0126100D01*
X0030312Y0125965D01*
X0029489Y0125697D01*
X0028717Y0125304D01*
X0028017Y0124795D01*
X0027405Y0124183D01*
X0026968Y0123581D01*
X0026771Y0124055D01*
X0025055Y0125771D01*
X0022813Y0126700D01*
X0020387Y0126700D01*
X0018145Y0125771D01*
X0016429Y0124055D01*
X0015500Y0121813D01*
X0015500Y0119387D01*
X0016429Y0117145D01*
X0018145Y0115429D01*
X0020387Y0114500D01*
X0022813Y0114500D01*
X0025055Y0115429D01*
X0026771Y0117145D01*
X0026968Y0117619D01*
X0027405Y0117017D01*
X0028017Y0116405D01*
X0028717Y0115896D01*
X0029489Y0115503D01*
X0030312Y0115235D01*
X0031167Y0115100D01*
X0031400Y0115100D01*
X0031400Y0120400D01*
X0031800Y0120400D01*
X0031800Y0115100D01*
X0032033Y0115100D01*
X0032888Y0115235D01*
X0033711Y0115503D01*
X0034483Y0115896D01*
X0035183Y0116405D01*
X0035795Y0117017D01*
X0036232Y0117619D01*
X0036429Y0117145D01*
X0036700Y0116873D01*
X0036700Y0109625D01*
X0037446Y0107824D01*
X0038824Y0106446D01*
X0040625Y0105700D01*
X0042575Y0105700D01*
X0044376Y0106446D01*
X0045754Y0107824D01*
X0046500Y0109625D01*
X0046500Y0115700D01*
X0049200Y0115700D01*
X0049200Y0107625D01*
X0049946Y0105824D01*
X0053450Y0102320D01*
X0053450Y0101277D01*
X0054462Y0098833D01*
X0056333Y0096962D01*
X0058777Y0095950D01*
X0059820Y0095950D01*
X0080946Y0074824D01*
X0082324Y0073446D01*
X0084125Y0072700D01*
X0093873Y0072700D01*
X0094145Y0072429D01*
X0096387Y0071500D01*
X0098813Y0071500D01*
X0101055Y0072429D01*
X0102771Y0074145D01*
X0102968Y0074619D01*
X0103405Y0074017D01*
X0104017Y0073405D01*
X0104717Y0072896D01*
X0105489Y0072503D01*
X0106312Y0072235D01*
X0107167Y0072100D01*
X0107400Y0072100D01*
X0107400Y0077400D01*
X0107800Y0077400D01*
X0107800Y0072100D01*
X0108033Y0072100D01*
X0108888Y0072235D01*
X0109711Y0072503D01*
X0110483Y0072896D01*
X0111183Y0073405D01*
X0111795Y0074017D01*
X0112232Y0074619D01*
X0112429Y0074145D01*
X0112700Y0073873D01*
X0112700Y0047105D01*
X0111962Y0046367D01*
X0110950Y0043923D01*
X0110950Y0041277D01*
X0111962Y0038833D01*
X0113833Y0036962D01*
X0116277Y0035950D01*
X0118923Y0035950D01*
X0121367Y0036962D01*
X0122105Y0037700D01*
X0143917Y0037700D01*
X0148231Y0033385D01*
X0148231Y0033304D01*
X0148523Y0032600D01*
X0148231Y0031896D01*
X0148231Y0031511D01*
X0147700Y0030228D01*
X0147700Y0021327D01*
X0147429Y0021055D01*
X0147232Y0020581D01*
X0147700Y0021782D02*
X0146196Y0021782D01*
X0147700Y0023381D02*
X0055000Y0023381D01*
X0055000Y0024979D02*
X0147700Y0024979D01*
X0147700Y0026578D02*
X0055000Y0026578D01*
X0055000Y0028176D02*
X0147700Y0028176D01*
X0147700Y0029775D02*
X0055000Y0029775D01*
X0055000Y0031373D02*
X0148174Y0031373D01*
X0148369Y0032972D02*
X0055000Y0032972D01*
X0055000Y0034570D02*
X0147047Y0034570D01*
X0145448Y0036169D02*
X0119451Y0036169D01*
X0115749Y0036169D02*
X0055000Y0036169D01*
X0055000Y0037767D02*
X0092351Y0037767D01*
X0092381Y0037655D02*
X0092618Y0037245D01*
X0092953Y0036910D01*
X0093364Y0036673D01*
X0093822Y0036550D01*
X0098109Y0036550D01*
X0098109Y0042400D01*
X0098509Y0042400D01*
X0098509Y0042800D01*
X0104359Y0042800D01*
X0104359Y0047087D01*
X0104236Y0047545D01*
X0103999Y0047955D01*
X0103664Y0048290D01*
X0103253Y0048527D01*
X0102796Y0048650D01*
X0098509Y0048650D01*
X0098509Y0042800D01*
X0098109Y0042800D01*
X0098109Y0048650D01*
X0093822Y0048650D01*
X0093364Y0048527D01*
X0092953Y0048290D01*
X0092618Y0047955D01*
X0092381Y0047545D01*
X0092259Y0047087D01*
X0092259Y0042800D01*
X0098109Y0042800D01*
X0098109Y0042400D01*
X0092259Y0042400D01*
X0092259Y0038113D01*
X0092381Y0037655D01*
X0092259Y0039366D02*
X0074671Y0039366D01*
X0074747Y0039410D02*
X0075082Y0039745D01*
X0075319Y0040155D01*
X0075441Y0040613D01*
X0075441Y0044900D01*
X0069591Y0044900D01*
X0069591Y0039050D01*
X0073878Y0039050D01*
X0074336Y0039173D01*
X0074747Y0039410D01*
X0075441Y0040964D02*
X0092259Y0040964D01*
X0092259Y0044161D02*
X0075441Y0044161D01*
X0075441Y0045300D02*
X0075441Y0049587D01*
X0075319Y0050045D01*
X0075082Y0050455D01*
X0074747Y0050790D01*
X0074336Y0051027D01*
X0073878Y0051150D01*
X0069591Y0051150D01*
X0069591Y0045300D01*
X0069191Y0045300D01*
X0069191Y0044900D01*
X0063341Y0044900D01*
X0063341Y0040613D01*
X0063464Y0040155D01*
X0063701Y0039745D01*
X0064036Y0039410D01*
X0064447Y0039173D01*
X0064904Y0039050D01*
X0069191Y0039050D01*
X0069191Y0044900D01*
X0069591Y0044900D01*
X0069591Y0045300D01*
X0075441Y0045300D01*
X0075441Y0045760D02*
X0092259Y0045760D01*
X0092331Y0047358D02*
X0075441Y0047358D01*
X0075441Y0048957D02*
X0112700Y0048957D01*
X0112700Y0050555D02*
X0074982Y0050555D01*
X0069591Y0050555D02*
X0069191Y0050555D01*
X0069191Y0051150D02*
X0064904Y0051150D01*
X0064447Y0051027D01*
X0064036Y0050790D01*
X0063701Y0050455D01*
X0063464Y0050045D01*
X0063341Y0049587D01*
X0063341Y0045300D01*
X0069191Y0045300D01*
X0069191Y0051150D01*
X0069191Y0048957D02*
X0069591Y0048957D01*
X0069591Y0047358D02*
X0069191Y0047358D01*
X0069191Y0045760D02*
X0069591Y0045760D01*
X0069591Y0044161D02*
X0069191Y0044161D01*
X0069191Y0042563D02*
X0069591Y0042563D01*
X0069591Y0040964D02*
X0069191Y0040964D01*
X0069191Y0039366D02*
X0069591Y0039366D01*
X0075441Y0042563D02*
X0098109Y0042563D01*
X0098509Y0042563D02*
X0110950Y0042563D01*
X0111049Y0044161D02*
X0104359Y0044161D01*
X0104359Y0045760D02*
X0111711Y0045760D01*
X0112700Y0047358D02*
X0104286Y0047358D01*
X0104359Y0042400D02*
X0098509Y0042400D01*
X0098509Y0036550D01*
X0102796Y0036550D01*
X0103253Y0036673D01*
X0103664Y0036910D01*
X0103999Y0037245D01*
X0104236Y0037655D01*
X0104359Y0038113D01*
X0104359Y0042400D01*
X0104359Y0040964D02*
X0111080Y0040964D01*
X0111742Y0039366D02*
X0104359Y0039366D01*
X0104266Y0037767D02*
X0113028Y0037767D01*
X0098509Y0037767D02*
X0098109Y0037767D01*
X0098109Y0039366D02*
X0098509Y0039366D01*
X0098509Y0040964D02*
X0098109Y0040964D01*
X0098109Y0044161D02*
X0098509Y0044161D01*
X0098509Y0045760D02*
X0098109Y0045760D01*
X0098109Y0047358D02*
X0098509Y0047358D01*
X0112700Y0052154D02*
X0049976Y0052154D01*
X0050380Y0051750D02*
X0046500Y0055630D01*
X0046500Y0060873D01*
X0046771Y0061145D01*
X0047700Y0063387D01*
X0047700Y0065813D01*
X0046771Y0068055D01*
X0045055Y0069771D01*
X0042813Y0070700D01*
X0040387Y0070700D01*
X0038145Y0069771D01*
X0036429Y0068055D01*
X0036232Y0067581D01*
X0035795Y0068183D01*
X0035183Y0068795D01*
X0034483Y0069304D01*
X0033711Y0069697D01*
X0032888Y0069965D01*
X0032033Y0070100D01*
X0031800Y0070100D01*
X0031800Y0064800D01*
X0031400Y0064800D01*
X0031400Y0070100D01*
X0031167Y0070100D01*
X0030312Y0069965D01*
X0029489Y0069697D01*
X0028717Y0069304D01*
X0028017Y0068795D01*
X0027405Y0068183D01*
X0026968Y0067581D01*
X0026771Y0068055D01*
X0025055Y0069771D01*
X0022813Y0070700D01*
X0020387Y0070700D01*
X0018145Y0069771D01*
X0016429Y0068055D01*
X0015500Y0065813D01*
X0015500Y0063387D01*
X0016429Y0061145D01*
X0018145Y0059429D01*
X0020387Y0058500D01*
X0022813Y0058500D01*
X0025055Y0059429D01*
X0026771Y0061145D01*
X0026968Y0061619D01*
X0027405Y0061017D01*
X0028017Y0060405D01*
X0028717Y0059896D01*
X0029489Y0059503D01*
X0030312Y0059235D01*
X0031167Y0059100D01*
X0031400Y0059100D01*
X0031400Y0064400D01*
X0031800Y0064400D01*
X0031800Y0059100D01*
X0032033Y0059100D01*
X0032888Y0059235D01*
X0033711Y0059503D01*
X0034483Y0059896D01*
X0035183Y0060405D01*
X0035795Y0061017D01*
X0036232Y0061619D01*
X0036429Y0061145D01*
X0036700Y0060873D01*
X0036700Y0055630D01*
X0018570Y0037500D01*
X0016327Y0037500D01*
X0016227Y0037600D01*
X0017771Y0039145D01*
X0018700Y0041387D01*
X0018700Y0043813D01*
X0017771Y0046055D01*
X0016055Y0047771D01*
X0013813Y0048700D01*
X0011387Y0048700D01*
X0009145Y0047771D01*
X0007429Y0046055D01*
X0006500Y0043813D01*
X0006500Y0041387D01*
X0007429Y0039145D01*
X0008973Y0037600D01*
X0007429Y0036055D01*
X0006500Y0033813D01*
X0006500Y0031387D01*
X0007429Y0029145D01*
X0009145Y0027429D01*
X0009619Y0027232D01*
X0009017Y0026795D01*
X0008405Y0026183D01*
X0007896Y0025483D01*
X0007503Y0024711D01*
X0007235Y0023888D01*
X0007100Y0023033D01*
X0007100Y0022800D01*
X0012400Y0022800D01*
X0012400Y0022400D01*
X0012800Y0022400D01*
X0012800Y0022800D01*
X0018100Y0022800D01*
X0018100Y0023033D01*
X0017965Y0023888D01*
X0017697Y0024711D01*
X0017304Y0025483D01*
X0016795Y0026183D01*
X0016183Y0026795D01*
X0015581Y0027232D01*
X0016055Y0027429D01*
X0016327Y0027700D01*
X0021575Y0027700D01*
X0023376Y0028446D01*
X0041600Y0046670D01*
X0043450Y0044820D01*
X0043450Y0043777D01*
X0044462Y0041333D01*
X0045200Y0040595D01*
X0045200Y0017827D01*
X0044600Y0017227D01*
X0043055Y0018771D01*
X0040813Y0019700D01*
X0038387Y0019700D01*
X0036145Y0018771D01*
X0034429Y0017055D01*
X0033500Y0014813D01*
X0033500Y0012387D01*
X0034429Y0010145D01*
X0036145Y0008429D01*
X0038387Y0007500D01*
X0040813Y0007500D01*
X0043055Y0008429D01*
X0044600Y0009973D01*
X0046145Y0008429D01*
X0048387Y0007500D01*
X0050813Y0007500D01*
X0053055Y0008429D01*
X0054771Y0010145D01*
X0054968Y0010619D01*
X0055405Y0010017D01*
X0056017Y0009405D01*
X0056717Y0008896D01*
X0057489Y0008503D01*
X0058312Y0008235D01*
X0059167Y0008100D01*
X0059400Y0008100D01*
X0059400Y0013400D01*
X0059800Y0013400D01*
X0059800Y0013800D01*
X0059400Y0013800D01*
X0059400Y0019100D01*
X0059167Y0019100D01*
X0058312Y0018965D01*
X0057489Y0018697D01*
X0056717Y0018304D01*
X0056017Y0017795D01*
X0055405Y0017183D01*
X0055000Y0016626D01*
X0055000Y0040595D01*
X0055738Y0041333D01*
X0056750Y0043777D01*
X0056750Y0046423D01*
X0055738Y0048867D01*
X0053867Y0050738D01*
X0051423Y0051750D01*
X0050380Y0051750D01*
X0048377Y0053752D02*
X0112700Y0053752D01*
X0112700Y0055351D02*
X0046779Y0055351D01*
X0046500Y0056949D02*
X0112700Y0056949D01*
X0112700Y0058548D02*
X0046500Y0058548D01*
X0046500Y0060146D02*
X0112700Y0060146D01*
X0112700Y0061745D02*
X0047020Y0061745D01*
X0047682Y0063343D02*
X0112700Y0063343D01*
X0112700Y0064942D02*
X0110814Y0064942D01*
X0110775Y0064888D02*
X0111160Y0065419D01*
X0111457Y0066002D01*
X0111660Y0066625D01*
X0111762Y0067272D01*
X0111762Y0067600D01*
X0111762Y0067928D01*
X0111660Y0068575D01*
X0111457Y0069198D01*
X0111160Y0069781D01*
X0110775Y0070311D01*
X0110311Y0070775D01*
X0109781Y0071160D01*
X0109198Y0071457D01*
X0108575Y0071660D01*
X0107928Y0071762D01*
X0107600Y0071762D01*
X0107600Y0067600D01*
X0107600Y0067600D01*
X0111762Y0067600D01*
X0107600Y0067600D01*
X0107600Y0067600D01*
X0107600Y0067600D01*
X0103438Y0067600D01*
X0103438Y0067928D01*
X0103540Y0068575D01*
X0103743Y0069198D01*
X0104040Y0069781D01*
X0104425Y0070311D01*
X0104888Y0070775D01*
X0105419Y0071160D01*
X0106002Y0071457D01*
X0106625Y0071660D01*
X0107272Y0071762D01*
X0107600Y0071762D01*
X0107600Y0067600D01*
X0107600Y0063438D01*
X0107928Y0063438D01*
X0108575Y0063540D01*
X0109198Y0063743D01*
X0109781Y0064040D01*
X0110311Y0064425D01*
X0110775Y0064888D01*
X0111632Y0066540D02*
X0112700Y0066540D01*
X0112700Y0068139D02*
X0111729Y0068139D01*
X0111182Y0069737D02*
X0112700Y0069737D01*
X0112700Y0071336D02*
X0109436Y0071336D01*
X0107600Y0071336D02*
X0107600Y0071336D01*
X0107600Y0069737D02*
X0107600Y0069737D01*
X0107600Y0068139D02*
X0107600Y0068139D01*
X0107600Y0067600D02*
X0103438Y0067600D01*
X0103438Y0067272D01*
X0103540Y0066625D01*
X0103743Y0066002D01*
X0104040Y0065419D01*
X0104425Y0064888D01*
X0104888Y0064425D01*
X0105419Y0064040D01*
X0106002Y0063743D01*
X0106625Y0063540D01*
X0107272Y0063438D01*
X0107600Y0063438D01*
X0107600Y0067600D01*
X0107600Y0067600D01*
X0107600Y0066540D02*
X0107600Y0066540D01*
X0107600Y0064942D02*
X0107600Y0064942D01*
X0104386Y0064942D02*
X0047700Y0064942D01*
X0047399Y0066540D02*
X0103568Y0066540D01*
X0103471Y0068139D02*
X0046688Y0068139D01*
X0045089Y0069737D02*
X0104018Y0069737D01*
X0105764Y0071336D02*
X0005000Y0071336D01*
X0005000Y0072934D02*
X0083559Y0072934D01*
X0081237Y0074533D02*
X0005000Y0074533D01*
X0005000Y0076132D02*
X0079639Y0076132D01*
X0078040Y0077730D02*
X0065567Y0077730D01*
X0065455Y0077618D02*
X0065790Y0077953D01*
X0066027Y0078364D01*
X0066150Y0078822D01*
X0066150Y0083109D01*
X0060300Y0083109D01*
X0060300Y0083509D01*
X0059900Y0083509D01*
X0059900Y0089359D01*
X0055613Y0089359D01*
X0055155Y0089236D01*
X0054745Y0088999D01*
X0054410Y0088664D01*
X0054173Y0088253D01*
X0054050Y0087796D01*
X0054050Y0083509D01*
X0059900Y0083509D01*
X0059900Y0083109D01*
X0054050Y0083109D01*
X0054050Y0078822D01*
X0054173Y0078364D01*
X0054410Y0077953D01*
X0054745Y0077618D01*
X0055155Y0077381D01*
X0055613Y0077259D01*
X0059900Y0077259D01*
X0059900Y0083109D01*
X0060300Y0083109D01*
X0060300Y0077259D01*
X0064587Y0077259D01*
X0065045Y0077381D01*
X0065455Y0077618D01*
X0066150Y0079329D02*
X0076442Y0079329D01*
X0074843Y0080927D02*
X0066150Y0080927D01*
X0066150Y0082526D02*
X0073245Y0082526D01*
X0071646Y0084124D02*
X0066150Y0084124D01*
X0066150Y0083509D02*
X0066150Y0087796D01*
X0066027Y0088253D01*
X0065790Y0088664D01*
X0065455Y0088999D01*
X0065045Y0089236D01*
X0064587Y0089359D01*
X0060300Y0089359D01*
X0060300Y0083509D01*
X0066150Y0083509D01*
X0066150Y0085723D02*
X0070048Y0085723D01*
X0068449Y0087321D02*
X0066150Y0087321D01*
X0065535Y0088920D02*
X0066851Y0088920D01*
X0065252Y0090518D02*
X0005000Y0090518D01*
X0005000Y0088920D02*
X0054665Y0088920D01*
X0054050Y0087321D02*
X0005000Y0087321D01*
X0005000Y0085723D02*
X0054050Y0085723D01*
X0054050Y0084124D02*
X0005000Y0084124D01*
X0005000Y0082526D02*
X0054050Y0082526D01*
X0054050Y0080927D02*
X0005000Y0080927D01*
X0005000Y0079329D02*
X0054050Y0079329D01*
X0054633Y0077730D02*
X0005000Y0077730D01*
X0005000Y0069737D02*
X0018111Y0069737D01*
X0016512Y0068139D02*
X0005000Y0068139D01*
X0005000Y0066540D02*
X0015801Y0066540D01*
X0015500Y0064942D02*
X0005000Y0064942D01*
X0005000Y0063343D02*
X0015518Y0063343D01*
X0016180Y0061745D02*
X0005000Y0061745D01*
X0005000Y0060146D02*
X0017427Y0060146D01*
X0020271Y0058548D02*
X0005000Y0058548D01*
X0005000Y0056949D02*
X0036700Y0056949D01*
X0036700Y0058548D02*
X0022929Y0058548D01*
X0025773Y0060146D02*
X0028373Y0060146D01*
X0031400Y0060146D02*
X0031800Y0060146D01*
X0031800Y0061745D02*
X0031400Y0061745D01*
X0031400Y0063343D02*
X0031800Y0063343D01*
X0031800Y0064942D02*
X0031400Y0064942D01*
X0031400Y0066540D02*
X0031800Y0066540D01*
X0031800Y0068139D02*
X0031400Y0068139D01*
X0031400Y0069737D02*
X0031800Y0069737D01*
X0033587Y0069737D02*
X0038111Y0069737D01*
X0036512Y0068139D02*
X0035827Y0068139D01*
X0029613Y0069737D02*
X0025089Y0069737D01*
X0026688Y0068139D02*
X0027373Y0068139D01*
X0034827Y0060146D02*
X0036700Y0060146D01*
X0036421Y0055351D02*
X0005000Y0055351D01*
X0005000Y0053752D02*
X0034823Y0053752D01*
X0033224Y0052154D02*
X0005000Y0052154D01*
X0005000Y0050555D02*
X0031626Y0050555D01*
X0030027Y0048957D02*
X0005000Y0048957D01*
X0005000Y0047358D02*
X0008732Y0047358D01*
X0007306Y0045760D02*
X0005000Y0045760D01*
X0005000Y0044161D02*
X0006644Y0044161D01*
X0006500Y0042563D02*
X0005000Y0042563D01*
X0005000Y0040964D02*
X0006675Y0040964D01*
X0007337Y0039366D02*
X0005000Y0039366D01*
X0005000Y0037767D02*
X0008806Y0037767D01*
X0007542Y0036169D02*
X0005000Y0036169D01*
X0005000Y0034570D02*
X0006814Y0034570D01*
X0006500Y0032972D02*
X0005000Y0032972D01*
X0005000Y0031373D02*
X0006506Y0031373D01*
X0007168Y0029775D02*
X0005000Y0029775D01*
X0005000Y0028176D02*
X0008397Y0028176D01*
X0008800Y0026578D02*
X0005000Y0026578D01*
X0005000Y0024979D02*
X0007639Y0024979D01*
X0007155Y0023381D02*
X0005000Y0023381D01*
X0005000Y0021782D02*
X0007161Y0021782D01*
X0007100Y0022167D02*
X0007235Y0021312D01*
X0007503Y0020489D01*
X0007896Y0019717D01*
X0008405Y0019017D01*
X0009017Y0018405D01*
X0009717Y0017896D01*
X0010489Y0017503D01*
X0011312Y0017235D01*
X0012167Y0017100D01*
X0012400Y0017100D01*
X0012400Y0022400D01*
X0007100Y0022400D01*
X0007100Y0022167D01*
X0007658Y0020184D02*
X0005000Y0020184D01*
X0005000Y0018585D02*
X0008837Y0018585D01*
X0012400Y0018585D02*
X0012800Y0018585D01*
X0012800Y0017100D02*
X0013033Y0017100D01*
X0013888Y0017235D01*
X0014711Y0017503D01*
X0015483Y0017896D01*
X0016183Y0018405D01*
X0016795Y0019017D01*
X0017304Y0019717D01*
X0017697Y0020489D01*
X0017965Y0021312D01*
X0018100Y0022167D01*
X0018100Y0022400D01*
X0012800Y0022400D01*
X0012800Y0017100D01*
X0012800Y0020184D02*
X0012400Y0020184D01*
X0012400Y0021782D02*
X0012800Y0021782D01*
X0016363Y0018585D02*
X0035958Y0018585D01*
X0034400Y0016987D02*
X0005000Y0016987D01*
X0005000Y0015388D02*
X0033738Y0015388D01*
X0033500Y0013790D02*
X0005000Y0013790D01*
X0005000Y0012191D02*
X0033581Y0012191D01*
X0034243Y0010593D02*
X0005000Y0010593D01*
X0005000Y0008994D02*
X0035579Y0008994D01*
X0043621Y0008994D02*
X0045579Y0008994D01*
X0053621Y0008994D02*
X0056582Y0008994D01*
X0054987Y0010593D02*
X0054957Y0010593D01*
X0059400Y0010593D02*
X0059800Y0010593D01*
X0059800Y0012191D02*
X0059400Y0012191D01*
X0059800Y0013400D02*
X0059800Y0008100D01*
X0060033Y0008100D01*
X0060888Y0008235D01*
X0061711Y0008503D01*
X0062483Y0008896D01*
X0063183Y0009405D01*
X0063795Y0010017D01*
X0064304Y0010717D01*
X0064697Y0011489D01*
X0064965Y0012312D01*
X0065100Y0013167D01*
X0065100Y0013400D01*
X0059800Y0013400D01*
X0059800Y0013790D02*
X0138632Y0013790D01*
X0138405Y0014017D02*
X0139017Y0013405D01*
X0139717Y0012896D01*
X0140489Y0012503D01*
X0141312Y0012235D01*
X0142167Y0012100D01*
X0142400Y0012100D01*
X0142400Y0017400D01*
X0137100Y0017400D01*
X0137100Y0017167D01*
X0137235Y0016312D01*
X0137503Y0015489D01*
X0137896Y0014717D01*
X0138405Y0014017D01*
X0137554Y0015388D02*
X0064802Y0015388D01*
X0064697Y0015711D02*
X0064304Y0016483D01*
X0063795Y0017183D01*
X0063183Y0017795D01*
X0062483Y0018304D01*
X0061711Y0018697D01*
X0060888Y0018965D01*
X0060033Y0019100D01*
X0059800Y0019100D01*
X0059800Y0013800D01*
X0065100Y0013800D01*
X0065100Y0014033D01*
X0064965Y0014888D01*
X0064697Y0015711D01*
X0063938Y0016987D02*
X0137129Y0016987D01*
X0137187Y0018585D02*
X0061931Y0018585D01*
X0059800Y0018585D02*
X0059400Y0018585D01*
X0059400Y0016987D02*
X0059800Y0016987D01*
X0059800Y0015388D02*
X0059400Y0015388D01*
X0057269Y0018585D02*
X0055000Y0018585D01*
X0055000Y0016987D02*
X0055262Y0016987D01*
X0055000Y0020184D02*
X0137744Y0020184D01*
X0139004Y0021782D02*
X0055000Y0021782D01*
X0045200Y0021782D02*
X0018039Y0021782D01*
X0018045Y0023381D02*
X0045200Y0023381D01*
X0045200Y0024979D02*
X0017561Y0024979D01*
X0016400Y0026578D02*
X0045200Y0026578D01*
X0045200Y0028176D02*
X0022724Y0028176D01*
X0024704Y0029775D02*
X0045200Y0029775D01*
X0045200Y0031373D02*
X0026303Y0031373D01*
X0027901Y0032972D02*
X0045200Y0032972D01*
X0045200Y0034570D02*
X0029500Y0034570D01*
X0031098Y0036169D02*
X0045200Y0036169D01*
X0045200Y0037767D02*
X0032697Y0037767D01*
X0034295Y0039366D02*
X0045200Y0039366D01*
X0044831Y0040964D02*
X0035894Y0040964D01*
X0037492Y0042563D02*
X0043953Y0042563D01*
X0043450Y0044161D02*
X0039091Y0044161D01*
X0040689Y0045760D02*
X0042511Y0045760D01*
X0054049Y0050555D02*
X0063801Y0050555D01*
X0063341Y0048957D02*
X0055648Y0048957D01*
X0056362Y0047358D02*
X0063341Y0047358D01*
X0063341Y0045760D02*
X0056750Y0045760D01*
X0056750Y0044161D02*
X0063341Y0044161D01*
X0063341Y0042563D02*
X0056247Y0042563D01*
X0055369Y0040964D02*
X0063341Y0040964D01*
X0064112Y0039366D02*
X0055000Y0039366D01*
X0045200Y0020184D02*
X0017542Y0020184D01*
X0005000Y0007396D02*
X0158279Y0007396D01*
X0156680Y0008994D02*
X0062618Y0008994D01*
X0064213Y0010593D02*
X0155082Y0010593D01*
X0149718Y0012191D02*
X0143608Y0012191D01*
X0142800Y0012191D02*
X0142400Y0012191D01*
X0141592Y0012191D02*
X0064925Y0012191D01*
X0059800Y0008994D02*
X0059400Y0008994D01*
X0045200Y0018585D02*
X0043242Y0018585D01*
X0020436Y0039366D02*
X0017863Y0039366D01*
X0018525Y0040964D02*
X0022035Y0040964D01*
X0023633Y0042563D02*
X0018700Y0042563D01*
X0018556Y0044161D02*
X0025232Y0044161D01*
X0026830Y0045760D02*
X0017894Y0045760D01*
X0016468Y0047358D02*
X0028429Y0047358D01*
X0018838Y0037767D02*
X0016394Y0037767D01*
X0005000Y0005797D02*
X0159877Y0005797D01*
X0162600Y0012600D02*
X0162600Y0017600D01*
X0168286Y0015388D02*
X0181914Y0015388D01*
X0181500Y0016387D02*
X0182429Y0014145D01*
X0184145Y0012429D01*
X0186387Y0011500D01*
X0188813Y0011500D01*
X0191055Y0012429D01*
X0192600Y0013973D01*
X0194145Y0012429D01*
X0196387Y0011500D01*
X0198813Y0011500D01*
X0201055Y0012429D01*
X0202771Y0014145D01*
X0202968Y0014619D01*
X0203405Y0014017D01*
X0204017Y0013405D01*
X0204717Y0012896D01*
X0205489Y0012503D01*
X0206312Y0012235D01*
X0207167Y0012100D01*
X0207400Y0012100D01*
X0207400Y0017400D01*
X0207800Y0017400D01*
X0207800Y0017800D01*
X0207400Y0017800D01*
X0207400Y0023100D01*
X0207167Y0023100D01*
X0206312Y0022965D01*
X0205489Y0022697D01*
X0204717Y0022304D01*
X0204017Y0021795D01*
X0203405Y0021183D01*
X0202968Y0020581D01*
X0202771Y0021055D01*
X0202500Y0021327D01*
X0202500Y0030228D01*
X0201968Y0031511D01*
X0201968Y0031896D01*
X0201677Y0032600D01*
X0201738Y0032746D01*
X0202889Y0032746D01*
X0223934Y0010800D01*
X0168925Y0010800D01*
X0166676Y0013049D01*
X0167771Y0014145D01*
X0168700Y0016387D01*
X0168700Y0018813D01*
X0167771Y0021055D01*
X0167500Y0021327D01*
X0167500Y0030228D01*
X0167161Y0031046D01*
X0183039Y0031046D01*
X0182700Y0030228D01*
X0182700Y0021327D01*
X0182429Y0021055D01*
X0181500Y0018813D01*
X0181500Y0016387D01*
X0181500Y0016987D02*
X0168700Y0016987D01*
X0168700Y0018585D02*
X0181500Y0018585D01*
X0182068Y0020184D02*
X0168132Y0020184D01*
X0167500Y0021782D02*
X0182700Y0021782D01*
X0182700Y0023381D02*
X0167500Y0023381D01*
X0167500Y0024979D02*
X0182700Y0024979D01*
X0182700Y0026578D02*
X0167500Y0026578D01*
X0167500Y0028176D02*
X0182700Y0028176D01*
X0182700Y0029775D02*
X0167500Y0029775D01*
X0177600Y0040100D02*
X0157600Y0057600D01*
X0172600Y0057600D02*
X0172600Y0132600D01*
X0170800Y0136292D02*
X0170800Y0146275D01*
X0173763Y0149238D01*
X0173743Y0149198D01*
X0173540Y0148575D01*
X0173438Y0147928D01*
X0173438Y0147600D01*
X0177600Y0147600D01*
X0177600Y0147600D01*
X0177600Y0151762D01*
X0177928Y0151762D01*
X0178575Y0151660D01*
X0179198Y0151457D01*
X0179781Y0151160D01*
X0180311Y0150775D01*
X0180775Y0150311D01*
X0181160Y0149781D01*
X0181457Y0149198D01*
X0181546Y0148924D01*
X0182429Y0151055D01*
X0183973Y0152600D01*
X0182429Y0154145D01*
X0182323Y0154400D01*
X0181135Y0154400D01*
X0180298Y0153563D01*
X0178547Y0152838D01*
X0177363Y0152838D01*
X0175962Y0151437D01*
X0176002Y0151457D01*
X0176625Y0151660D01*
X0177272Y0151762D01*
X0177600Y0151762D01*
X0177600Y0147600D01*
X0177600Y0143438D01*
X0177928Y0143438D01*
X0178575Y0143540D01*
X0179198Y0143743D01*
X0179238Y0143763D01*
X0174887Y0139413D01*
X0174400Y0138237D01*
X0174400Y0136963D01*
X0174400Y0136292D01*
X0173416Y0136700D01*
X0171784Y0136700D01*
X0170800Y0136292D01*
X0170800Y0136875D02*
X0174400Y0136875D01*
X0174498Y0138473D02*
X0170800Y0138473D01*
X0170800Y0140072D02*
X0175546Y0140072D01*
X0177145Y0141670D02*
X0170800Y0141670D01*
X0170800Y0143269D02*
X0178744Y0143269D01*
X0177600Y0143438D02*
X0177600Y0147600D01*
X0177600Y0147600D01*
X0177600Y0147600D01*
X0173438Y0147600D01*
X0173438Y0147272D01*
X0173540Y0146625D01*
X0173743Y0146002D01*
X0174040Y0145419D01*
X0174425Y0144888D01*
X0174888Y0144425D01*
X0175419Y0144040D01*
X0176002Y0143743D01*
X0176625Y0143540D01*
X0177272Y0143438D01*
X0177600Y0143438D01*
X0177600Y0144868D02*
X0177600Y0144868D01*
X0177600Y0146466D02*
X0177600Y0146466D01*
X0177600Y0148065D02*
X0177600Y0148065D01*
X0177600Y0149663D02*
X0177600Y0149663D01*
X0177600Y0151262D02*
X0177600Y0151262D01*
X0178601Y0152860D02*
X0183713Y0152860D01*
X0182635Y0151262D02*
X0179582Y0151262D01*
X0181220Y0149663D02*
X0181852Y0149663D01*
X0187600Y0147600D02*
X0177600Y0137600D01*
X0177600Y0112600D01*
X0182600Y0107600D01*
X0187600Y0107600D01*
X0183126Y0103306D02*
X0175800Y0103306D01*
X0175800Y0101708D02*
X0182940Y0101708D01*
X0182344Y0101112D02*
X0181400Y0098833D01*
X0181400Y0096367D01*
X0182344Y0094088D01*
X0183832Y0092600D01*
X0182344Y0091112D01*
X0181400Y0088833D01*
X0181400Y0086367D01*
X0182344Y0084088D01*
X0184088Y0082344D01*
X0184415Y0082208D01*
X0183952Y0081871D01*
X0183329Y0081248D01*
X0182810Y0080535D01*
X0182410Y0079750D01*
X0182138Y0078911D01*
X0182000Y0078041D01*
X0182000Y0077800D01*
X0187400Y0077800D01*
X0187400Y0077400D01*
X0182000Y0077400D01*
X0182000Y0077159D01*
X0182138Y0076289D01*
X0182410Y0075450D01*
X0182810Y0074665D01*
X0183329Y0073952D01*
X0183952Y0073329D01*
X0184415Y0072992D01*
X0184088Y0072856D01*
X0182344Y0071112D01*
X0181400Y0068833D01*
X0181400Y0066367D01*
X0182344Y0064088D01*
X0183832Y0062600D01*
X0182344Y0061112D01*
X0181400Y0058833D01*
X0181400Y0056367D01*
X0182344Y0054088D01*
X0183832Y0052600D01*
X0182979Y0051747D01*
X0175800Y0058925D01*
X0175800Y0109875D01*
X0180787Y0104887D01*
X0181963Y0104400D01*
X0182215Y0104400D01*
X0182344Y0104088D01*
X0183832Y0102600D01*
X0182344Y0101112D01*
X0181929Y0100109D02*
X0175800Y0100109D01*
X0175800Y0098511D02*
X0181400Y0098511D01*
X0181400Y0096912D02*
X0175800Y0096912D01*
X0175800Y0095314D02*
X0181836Y0095314D01*
X0182717Y0093715D02*
X0175800Y0093715D01*
X0175800Y0092117D02*
X0183349Y0092117D01*
X0182098Y0090518D02*
X0175800Y0090518D01*
X0175800Y0088920D02*
X0181436Y0088920D01*
X0181400Y0087321D02*
X0175800Y0087321D01*
X0175800Y0085723D02*
X0181667Y0085723D01*
X0182329Y0084124D02*
X0175800Y0084124D01*
X0175800Y0082526D02*
X0183906Y0082526D01*
X0183095Y0080927D02*
X0175800Y0080927D01*
X0175800Y0079329D02*
X0182273Y0079329D01*
X0182189Y0076132D02*
X0175800Y0076132D01*
X0175800Y0077730D02*
X0187400Y0077730D01*
X0187800Y0077730D02*
X0199900Y0077730D01*
X0199900Y0076132D02*
X0193011Y0076132D01*
X0193062Y0076289D02*
X0193200Y0077159D01*
X0193200Y0077400D01*
X0187800Y0077400D01*
X0187800Y0077800D01*
X0193200Y0077800D01*
X0193200Y0078041D01*
X0193062Y0078911D01*
X0192790Y0079750D01*
X0192390Y0080535D01*
X0191871Y0081248D01*
X0191248Y0081871D01*
X0190785Y0082208D01*
X0191112Y0082344D01*
X0192856Y0084088D01*
X0193800Y0086367D01*
X0193800Y0088833D01*
X0192856Y0091112D01*
X0191368Y0092600D01*
X0192856Y0094088D01*
X0193800Y0096367D01*
X0193800Y0098833D01*
X0192856Y0101112D01*
X0191368Y0102600D01*
X0192856Y0104088D01*
X0193800Y0106367D01*
X0193800Y0107400D01*
X0240637Y0107400D01*
X0241629Y0107811D01*
X0242389Y0108571D01*
X0268718Y0134900D01*
X0272463Y0134900D01*
X0272861Y0134860D01*
X0272996Y0134900D01*
X0273137Y0134900D01*
X0273507Y0135053D01*
X0278132Y0136441D01*
X0279145Y0135429D01*
X0279619Y0135232D01*
X0279017Y0134795D01*
X0278405Y0134183D01*
X0277896Y0133483D01*
X0277503Y0132711D01*
X0277235Y0131888D01*
X0277100Y0131033D01*
X0277100Y0130800D01*
X0282400Y0130800D01*
X0282400Y0130400D01*
X0277100Y0130400D01*
X0277100Y0130167D01*
X0277235Y0129312D01*
X0277503Y0128489D01*
X0277896Y0127717D01*
X0278405Y0127017D01*
X0279017Y0126405D01*
X0279619Y0125968D01*
X0279145Y0125771D01*
X0277429Y0124055D01*
X0276500Y0121813D01*
X0276500Y0119387D01*
X0277429Y0117145D01*
X0279145Y0115429D01*
X0281387Y0114500D01*
X0283813Y0114500D01*
X0286055Y0115429D01*
X0287771Y0117145D01*
X0288700Y0119387D01*
X0288700Y0121813D01*
X0288594Y0122069D01*
X0290641Y0124116D01*
X0290909Y0124295D01*
X0291087Y0124561D01*
X0291313Y0124787D01*
X0291436Y0125086D01*
X0292400Y0126531D01*
X0292400Y0105604D01*
X0291636Y0105288D01*
X0290412Y0104064D01*
X0289750Y0102465D01*
X0289750Y0100735D01*
X0290412Y0099136D01*
X0291636Y0097912D01*
X0293235Y0097250D01*
X0294965Y0097250D01*
X0296564Y0097912D01*
X0297065Y0098413D01*
X0297115Y0098291D01*
X0297791Y0097615D01*
X0298673Y0097250D01*
X0303527Y0097250D01*
X0304409Y0097615D01*
X0305085Y0098291D01*
X0305450Y0099173D01*
X0305450Y0104027D01*
X0305085Y0104909D01*
X0304800Y0105194D01*
X0304800Y0121275D01*
X0307321Y0123796D01*
X0306500Y0121813D01*
X0306500Y0119387D01*
X0307429Y0117145D01*
X0309145Y0115429D01*
X0311387Y0114500D01*
X0313813Y0114500D01*
X0316055Y0115429D01*
X0317771Y0117145D01*
X0318700Y0119387D01*
X0318700Y0121813D01*
X0317771Y0124055D01*
X0316227Y0125600D01*
X0317771Y0127145D01*
X0318700Y0129387D01*
X0318700Y0131813D01*
X0317771Y0134055D01*
X0316227Y0135600D01*
X0317771Y0137145D01*
X0318700Y0139387D01*
X0318700Y0141813D01*
X0317771Y0144055D01*
X0316227Y0145600D01*
X0317771Y0147145D01*
X0318700Y0149387D01*
X0318700Y0151813D01*
X0317771Y0154055D01*
X0316055Y0155771D01*
X0313813Y0156700D01*
X0311387Y0156700D01*
X0309145Y0155771D01*
X0307429Y0154055D01*
X0307323Y0153800D01*
X0306499Y0153800D01*
X0306622Y0154097D01*
X0313925Y0161400D01*
X0321857Y0161400D01*
X0322063Y0160902D01*
X0323402Y0159563D01*
X0325153Y0158838D01*
X0327047Y0158838D01*
X0328798Y0159563D01*
X0329264Y0160029D01*
X0334295Y0159470D01*
X0334463Y0159400D01*
X0334923Y0159400D01*
X0335379Y0159349D01*
X0335554Y0159400D01*
X0336275Y0159400D01*
X0336900Y0158775D01*
X0336900Y0144779D01*
X0336500Y0143813D01*
X0336500Y0141387D01*
X0337429Y0139145D01*
X0339145Y0137429D01*
X0339400Y0137323D01*
X0339400Y0132877D01*
X0339145Y0132771D01*
X0337429Y0131055D01*
X0337323Y0130800D01*
X0336135Y0130800D01*
X0335298Y0131637D01*
X0333547Y0132362D01*
X0331653Y0132362D01*
X0329902Y0131637D01*
X0328563Y0130298D01*
X0327838Y0128547D01*
X0327838Y0126653D01*
X0328563Y0124902D01*
X0329902Y0123563D01*
X0331653Y0122838D01*
X0333547Y0122838D01*
X0335298Y0123563D01*
X0336135Y0124400D01*
X0337323Y0124400D01*
X0337429Y0124145D01*
X0338973Y0122600D01*
X0337429Y0121055D01*
X0336546Y0118924D01*
X0336457Y0119198D01*
X0336160Y0119781D01*
X0335775Y0120311D01*
X0335311Y0120775D01*
X0334781Y0121160D01*
X0334198Y0121457D01*
X0333575Y0121660D01*
X0332928Y0121762D01*
X0332600Y0121762D01*
X0332600Y0117600D01*
X0332600Y0117600D01*
X0332600Y0117600D01*
X0328438Y0117600D01*
X0328438Y0117928D01*
X0328540Y0118575D01*
X0328743Y0119198D01*
X0329040Y0119781D01*
X0329425Y0120311D01*
X0329888Y0120775D01*
X0330419Y0121160D01*
X0331002Y0121457D01*
X0331625Y0121660D01*
X0332272Y0121762D01*
X0332600Y0121762D01*
X0332600Y0117600D01*
X0328438Y0117600D01*
X0328438Y0117272D01*
X0328540Y0116625D01*
X0328743Y0116002D01*
X0329040Y0115419D01*
X0329425Y0114888D01*
X0329888Y0114425D01*
X0330419Y0114040D01*
X0331002Y0113743D01*
X0331625Y0113540D01*
X0331640Y0113538D01*
X0305782Y0096300D01*
X0212932Y0096300D01*
X0212734Y0096350D01*
X0212400Y0096300D01*
X0212063Y0096300D01*
X0211874Y0096222D01*
X0211671Y0096192D01*
X0211382Y0096018D01*
X0211071Y0095889D01*
X0210926Y0095744D01*
X0201382Y0090018D01*
X0201071Y0089889D01*
X0200926Y0089744D01*
X0200750Y0089639D01*
X0200550Y0089368D01*
X0200311Y0089129D01*
X0200233Y0088940D01*
X0200111Y0088776D01*
X0200029Y0088449D01*
X0199900Y0088137D01*
X0199900Y0087932D01*
X0199850Y0087734D01*
X0199900Y0087400D01*
X0199900Y0065698D01*
X0199124Y0064922D01*
X0198500Y0063416D01*
X0198500Y0061784D01*
X0199124Y0060278D01*
X0200278Y0059124D01*
X0201784Y0058500D01*
X0203416Y0058500D01*
X0204922Y0059124D01*
X0206076Y0060278D01*
X0206700Y0061784D01*
X0206700Y0063416D01*
X0206076Y0064922D01*
X0205300Y0065698D01*
X0205300Y0086071D01*
X0213348Y0090900D01*
X0222364Y0090900D01*
X0221500Y0088813D01*
X0221500Y0086387D01*
X0222429Y0084145D01*
X0223973Y0082600D01*
X0222429Y0081055D01*
X0221500Y0078813D01*
X0221500Y0076387D01*
X0222429Y0074145D01*
X0223973Y0072600D01*
X0222429Y0071055D01*
X0221500Y0068813D01*
X0221500Y0066387D01*
X0222429Y0064145D01*
X0224145Y0062429D01*
X0226387Y0061500D01*
X0228813Y0061500D01*
X0231055Y0062429D01*
X0232771Y0064145D01*
X0232877Y0064400D01*
X0242323Y0064400D01*
X0242429Y0064145D01*
X0243973Y0062600D01*
X0242429Y0061055D01*
X0241500Y0058813D01*
X0241500Y0056387D01*
X0242429Y0054145D01*
X0243973Y0052600D01*
X0242429Y0051055D01*
X0241500Y0048813D01*
X0241500Y0046387D01*
X0242429Y0044145D01*
X0243973Y0042600D01*
X0242429Y0041055D01*
X0241919Y0039824D01*
X0240383Y0041744D01*
X0240313Y0041913D01*
X0239988Y0042237D01*
X0239701Y0042596D01*
X0239542Y0042684D01*
X0239413Y0042813D01*
X0238988Y0042989D01*
X0238586Y0043210D01*
X0238405Y0043230D01*
X0238237Y0043300D01*
X0237777Y0043300D01*
X0237321Y0043351D01*
X0237146Y0043300D01*
X0192068Y0043300D01*
X0192856Y0044088D01*
X0193800Y0046367D01*
X0193800Y0048833D01*
X0192856Y0051112D01*
X0191368Y0052600D01*
X0192856Y0054088D01*
X0193800Y0056367D01*
X0193800Y0058833D01*
X0192856Y0061112D01*
X0191368Y0062600D01*
X0192856Y0064088D01*
X0193800Y0066367D01*
X0193800Y0068833D01*
X0192856Y0071112D01*
X0191112Y0072856D01*
X0190785Y0072992D01*
X0191248Y0073329D01*
X0191871Y0073952D01*
X0192390Y0074665D01*
X0192790Y0075450D01*
X0193062Y0076289D01*
X0192294Y0074533D02*
X0199900Y0074533D01*
X0199900Y0072934D02*
X0190923Y0072934D01*
X0192632Y0071336D02*
X0199900Y0071336D01*
X0199900Y0069737D02*
X0193425Y0069737D01*
X0193800Y0068139D02*
X0199900Y0068139D01*
X0199900Y0066540D02*
X0193800Y0066540D01*
X0193210Y0064942D02*
X0199144Y0064942D01*
X0198500Y0063343D02*
X0192112Y0063343D01*
X0192223Y0061745D02*
X0198516Y0061745D01*
X0199255Y0060146D02*
X0193256Y0060146D01*
X0193800Y0058548D02*
X0201669Y0058548D01*
X0203531Y0058548D02*
X0241500Y0058548D01*
X0241500Y0056949D02*
X0193800Y0056949D01*
X0193379Y0055351D02*
X0241929Y0055351D01*
X0242821Y0053752D02*
X0192520Y0053752D01*
X0191814Y0052154D02*
X0243527Y0052154D01*
X0242222Y0050555D02*
X0193087Y0050555D01*
X0193749Y0048957D02*
X0241559Y0048957D01*
X0241500Y0047358D02*
X0193800Y0047358D01*
X0193549Y0045760D02*
X0241760Y0045760D01*
X0242422Y0044161D02*
X0192886Y0044161D01*
X0187600Y0047600D02*
X0182600Y0047600D01*
X0172600Y0057600D01*
X0176178Y0058548D02*
X0181400Y0058548D01*
X0181400Y0056949D02*
X0177776Y0056949D01*
X0179375Y0055351D02*
X0181821Y0055351D01*
X0180973Y0053752D02*
X0182680Y0053752D01*
X0182572Y0052154D02*
X0183386Y0052154D01*
X0181944Y0060146D02*
X0175800Y0060146D01*
X0175800Y0061745D02*
X0182977Y0061745D01*
X0183088Y0063343D02*
X0175800Y0063343D01*
X0175800Y0064942D02*
X0181990Y0064942D01*
X0181400Y0066540D02*
X0175800Y0066540D01*
X0175800Y0068139D02*
X0181400Y0068139D01*
X0181775Y0069737D02*
X0175800Y0069737D01*
X0175800Y0071336D02*
X0182568Y0071336D01*
X0184277Y0072934D02*
X0175800Y0072934D01*
X0175800Y0074533D02*
X0182906Y0074533D01*
X0192927Y0079329D02*
X0199900Y0079329D01*
X0199900Y0080927D02*
X0192105Y0080927D01*
X0191294Y0082526D02*
X0199900Y0082526D01*
X0199900Y0084124D02*
X0192871Y0084124D01*
X0193533Y0085723D02*
X0199900Y0085723D01*
X0199900Y0087321D02*
X0193800Y0087321D01*
X0193764Y0088920D02*
X0200217Y0088920D01*
X0202216Y0090518D02*
X0193102Y0090518D01*
X0191851Y0092117D02*
X0204880Y0092117D01*
X0207544Y0093715D02*
X0192483Y0093715D01*
X0193364Y0095314D02*
X0210208Y0095314D01*
X0212711Y0090518D02*
X0222206Y0090518D01*
X0221544Y0088920D02*
X0210047Y0088920D01*
X0207383Y0087321D02*
X0221500Y0087321D01*
X0221775Y0085723D02*
X0205300Y0085723D01*
X0205300Y0084124D02*
X0222449Y0084124D01*
X0223899Y0082526D02*
X0205300Y0082526D01*
X0205300Y0080927D02*
X0222376Y0080927D01*
X0221713Y0079329D02*
X0205300Y0079329D01*
X0205300Y0077730D02*
X0221500Y0077730D01*
X0221606Y0076132D02*
X0205300Y0076132D01*
X0205300Y0074533D02*
X0222268Y0074533D01*
X0223639Y0072934D02*
X0205300Y0072934D01*
X0205300Y0071336D02*
X0222709Y0071336D01*
X0221883Y0069737D02*
X0205300Y0069737D01*
X0205300Y0068139D02*
X0221500Y0068139D01*
X0221500Y0066540D02*
X0205300Y0066540D01*
X0206056Y0064942D02*
X0222098Y0064942D01*
X0223230Y0063343D02*
X0206700Y0063343D01*
X0206684Y0061745D02*
X0225795Y0061745D01*
X0229405Y0061745D02*
X0243118Y0061745D01*
X0243230Y0063343D02*
X0231970Y0063343D01*
X0227600Y0067600D02*
X0247600Y0067600D01*
X0251970Y0063343D02*
X0264400Y0063343D01*
X0264400Y0061745D02*
X0252082Y0061745D01*
X0252771Y0061055D02*
X0251227Y0062600D01*
X0252771Y0064145D01*
X0253700Y0066387D01*
X0253700Y0068813D01*
X0252771Y0071055D01*
X0251227Y0072600D01*
X0252771Y0074145D01*
X0253700Y0076387D01*
X0253700Y0078813D01*
X0252771Y0081055D01*
X0251227Y0082600D01*
X0252771Y0084145D01*
X0253700Y0086387D01*
X0253700Y0088813D01*
X0252836Y0090900D01*
X0272364Y0090900D01*
X0271500Y0088813D01*
X0271500Y0086387D01*
X0271606Y0086131D01*
X0265787Y0080313D01*
X0264887Y0079413D01*
X0264400Y0078237D01*
X0264400Y0018759D01*
X0261101Y0014800D01*
X0252346Y0014800D01*
X0252697Y0015489D01*
X0252965Y0016312D01*
X0253100Y0017167D01*
X0253100Y0017400D01*
X0247800Y0017400D01*
X0247800Y0017800D01*
X0253100Y0017800D01*
X0253100Y0018033D01*
X0252965Y0018888D01*
X0252697Y0019711D01*
X0252304Y0020483D01*
X0251795Y0021183D01*
X0251183Y0021795D01*
X0250581Y0022232D01*
X0251055Y0022429D01*
X0252771Y0024145D01*
X0253700Y0026387D01*
X0253700Y0028813D01*
X0252771Y0031055D01*
X0251227Y0032600D01*
X0252771Y0034145D01*
X0253700Y0036387D01*
X0253700Y0038813D01*
X0252771Y0041055D01*
X0251227Y0042600D01*
X0252771Y0044145D01*
X0253700Y0046387D01*
X0253700Y0048813D01*
X0252771Y0051055D01*
X0251227Y0052600D01*
X0252771Y0054145D01*
X0253700Y0056387D01*
X0253700Y0058813D01*
X0252771Y0061055D01*
X0253148Y0060146D02*
X0264400Y0060146D01*
X0264400Y0058548D02*
X0253700Y0058548D01*
X0253700Y0056949D02*
X0264400Y0056949D01*
X0264400Y0055351D02*
X0253271Y0055351D01*
X0252379Y0053752D02*
X0264400Y0053752D01*
X0264400Y0052154D02*
X0251673Y0052154D01*
X0252978Y0050555D02*
X0264400Y0050555D01*
X0264400Y0048957D02*
X0253641Y0048957D01*
X0253700Y0047358D02*
X0264400Y0047358D01*
X0264400Y0045760D02*
X0253440Y0045760D01*
X0252778Y0044161D02*
X0264400Y0044161D01*
X0264400Y0042563D02*
X0251264Y0042563D01*
X0252809Y0040964D02*
X0264400Y0040964D01*
X0264400Y0039366D02*
X0253471Y0039366D01*
X0253700Y0037767D02*
X0264400Y0037767D01*
X0264400Y0036169D02*
X0253610Y0036169D01*
X0252948Y0034570D02*
X0264400Y0034570D01*
X0264400Y0032972D02*
X0251598Y0032972D01*
X0252453Y0031373D02*
X0264400Y0031373D01*
X0264400Y0029775D02*
X0253302Y0029775D01*
X0253700Y0028176D02*
X0264400Y0028176D01*
X0264400Y0026578D02*
X0253700Y0026578D01*
X0253117Y0024979D02*
X0264400Y0024979D01*
X0264400Y0023381D02*
X0252007Y0023381D01*
X0251196Y0021782D02*
X0264400Y0021782D01*
X0264400Y0020184D02*
X0252456Y0020184D01*
X0253013Y0018585D02*
X0264255Y0018585D01*
X0262923Y0016987D02*
X0253071Y0016987D01*
X0252646Y0015388D02*
X0261591Y0015388D01*
X0262600Y0011600D02*
X0227600Y0011600D01*
X0204254Y0035946D01*
X0197600Y0035946D01*
X0202026Y0031373D02*
X0204205Y0031373D01*
X0205738Y0029775D02*
X0202500Y0029775D01*
X0202500Y0028176D02*
X0207271Y0028176D01*
X0208804Y0026578D02*
X0202500Y0026578D01*
X0202500Y0024979D02*
X0210337Y0024979D01*
X0211870Y0023381D02*
X0202500Y0023381D01*
X0202500Y0021782D02*
X0204004Y0021782D01*
X0207400Y0021782D02*
X0207800Y0021782D01*
X0207800Y0023100D02*
X0207800Y0017800D01*
X0213100Y0017800D01*
X0213100Y0018033D01*
X0212965Y0018888D01*
X0212697Y0019711D01*
X0212304Y0020483D01*
X0211795Y0021183D01*
X0211183Y0021795D01*
X0210483Y0022304D01*
X0209711Y0022697D01*
X0208888Y0022965D01*
X0208033Y0023100D01*
X0207800Y0023100D01*
X0207800Y0020184D02*
X0207400Y0020184D01*
X0207400Y0018585D02*
X0207800Y0018585D01*
X0207800Y0017400D02*
X0213100Y0017400D01*
X0213100Y0017167D01*
X0212965Y0016312D01*
X0212697Y0015489D01*
X0212304Y0014717D01*
X0211795Y0014017D01*
X0211183Y0013405D01*
X0210483Y0012896D01*
X0209711Y0012503D01*
X0208888Y0012235D01*
X0208033Y0012100D01*
X0207800Y0012100D01*
X0207800Y0017400D01*
X0207800Y0016987D02*
X0207400Y0016987D01*
X0207400Y0015388D02*
X0207800Y0015388D01*
X0207800Y0013790D02*
X0207400Y0013790D01*
X0207400Y0012191D02*
X0207800Y0012191D01*
X0208608Y0012191D02*
X0222600Y0012191D01*
X0221067Y0013790D02*
X0211568Y0013790D01*
X0212646Y0015388D02*
X0219534Y0015388D01*
X0218001Y0016987D02*
X0213071Y0016987D01*
X0213013Y0018585D02*
X0216468Y0018585D01*
X0214935Y0020184D02*
X0212456Y0020184D01*
X0213403Y0021782D02*
X0211196Y0021782D01*
X0217671Y0026578D02*
X0241500Y0026578D01*
X0241500Y0026387D02*
X0242429Y0024145D01*
X0244145Y0022429D01*
X0244619Y0022232D01*
X0244017Y0021795D01*
X0243405Y0021183D01*
X0242896Y0020483D01*
X0242503Y0019711D01*
X0242235Y0018888D01*
X0242100Y0018033D01*
X0242100Y0017800D01*
X0247400Y0017800D01*
X0247400Y0017400D01*
X0242100Y0017400D01*
X0242100Y0017167D01*
X0242235Y0016312D01*
X0242503Y0015489D01*
X0242854Y0014800D01*
X0228965Y0014800D01*
X0207773Y0036900D01*
X0236062Y0036900D01*
X0241852Y0029663D01*
X0241500Y0028813D01*
X0241500Y0026387D01*
X0242083Y0024979D02*
X0219204Y0024979D01*
X0220737Y0023381D02*
X0243193Y0023381D01*
X0244004Y0021782D02*
X0222270Y0021782D01*
X0223802Y0020184D02*
X0242744Y0020184D01*
X0242187Y0018585D02*
X0225335Y0018585D01*
X0226868Y0016987D02*
X0242129Y0016987D01*
X0242554Y0015388D02*
X0228401Y0015388D01*
X0216138Y0028176D02*
X0241500Y0028176D01*
X0241762Y0029775D02*
X0214605Y0029775D01*
X0213072Y0031373D02*
X0240483Y0031373D01*
X0239205Y0032972D02*
X0211540Y0032972D01*
X0210007Y0034570D02*
X0237926Y0034570D01*
X0236647Y0036169D02*
X0208474Y0036169D01*
X0203632Y0013790D02*
X0202416Y0013790D01*
X0200482Y0012191D02*
X0206592Y0012191D01*
X0194718Y0012191D02*
X0190482Y0012191D01*
X0192416Y0013790D02*
X0192784Y0013790D01*
X0184718Y0012191D02*
X0167534Y0012191D01*
X0167416Y0013790D02*
X0182784Y0013790D01*
X0167600Y0007600D02*
X0162600Y0012600D01*
X0167600Y0007600D02*
X0292600Y0007600D01*
X0317600Y0032600D01*
X0314914Y0015388D02*
X0398901Y0015388D01*
X0398901Y0013790D02*
X0313315Y0013790D01*
X0311717Y0012191D02*
X0398901Y0012191D01*
X0398901Y0010593D02*
X0310118Y0010593D01*
X0308520Y0008994D02*
X0398901Y0008994D01*
X0398901Y0007396D02*
X0306921Y0007396D01*
X0305322Y0005797D02*
X0398901Y0005797D01*
X0327600Y0052600D02*
X0317600Y0052600D01*
X0300100Y0070100D01*
X0300100Y0082600D01*
X0295100Y0087600D01*
X0277600Y0087600D01*
X0267600Y0077600D01*
X0267600Y0017600D01*
X0262600Y0011600D01*
X0247600Y0027600D02*
X0237600Y0040100D01*
X0177600Y0040100D01*
X0205945Y0060146D02*
X0242052Y0060146D01*
X0253102Y0064942D02*
X0264400Y0064942D01*
X0264400Y0066540D02*
X0253700Y0066540D01*
X0253700Y0068139D02*
X0264400Y0068139D01*
X0264400Y0069737D02*
X0253317Y0069737D01*
X0252491Y0071336D02*
X0264400Y0071336D01*
X0264400Y0072934D02*
X0251561Y0072934D01*
X0252932Y0074533D02*
X0264400Y0074533D01*
X0264400Y0076132D02*
X0253594Y0076132D01*
X0253700Y0077730D02*
X0264400Y0077730D01*
X0264852Y0079329D02*
X0253487Y0079329D01*
X0252824Y0080927D02*
X0266402Y0080927D01*
X0268000Y0082526D02*
X0251301Y0082526D01*
X0252751Y0084124D02*
X0269599Y0084124D01*
X0271197Y0085723D02*
X0253425Y0085723D01*
X0253700Y0087321D02*
X0271500Y0087321D01*
X0271544Y0088920D02*
X0253656Y0088920D01*
X0252994Y0090518D02*
X0272206Y0090518D01*
X0277600Y0077600D02*
X0288600Y0077600D01*
X0288600Y0067600D02*
X0277600Y0067600D01*
X0277600Y0057600D02*
X0288600Y0057600D01*
X0303300Y0076132D02*
X0350000Y0076132D01*
X0349750Y0077730D02*
X0303300Y0077730D01*
X0303300Y0079329D02*
X0350108Y0079329D01*
X0350900Y0080927D02*
X0303300Y0080927D01*
X0303300Y0082526D02*
X0350900Y0082526D01*
X0350900Y0084124D02*
X0302932Y0084124D01*
X0301503Y0085723D02*
X0350900Y0085723D01*
X0350900Y0087321D02*
X0299904Y0087321D01*
X0298306Y0088920D02*
X0350900Y0088920D01*
X0350900Y0090518D02*
X0296417Y0090518D01*
X0306701Y0096912D02*
X0193800Y0096912D01*
X0193800Y0098511D02*
X0291037Y0098511D01*
X0290009Y0100109D02*
X0193271Y0100109D01*
X0192260Y0101708D02*
X0289750Y0101708D01*
X0290098Y0103306D02*
X0192074Y0103306D01*
X0193194Y0104905D02*
X0291253Y0104905D01*
X0292400Y0106503D02*
X0193800Y0106503D01*
X0191168Y0112800D02*
X0191112Y0112856D01*
X0188833Y0113800D01*
X0186367Y0113800D01*
X0184088Y0112856D01*
X0182979Y0111747D01*
X0180800Y0113925D01*
X0180800Y0136275D01*
X0182325Y0137800D01*
X0187400Y0137800D01*
X0187400Y0137400D01*
X0182100Y0137400D01*
X0182100Y0137167D01*
X0182235Y0136312D01*
X0182503Y0135489D01*
X0182896Y0134717D01*
X0183405Y0134017D01*
X0184017Y0133405D01*
X0184619Y0132968D01*
X0184145Y0132771D01*
X0182429Y0131055D01*
X0181500Y0128813D01*
X0181500Y0126387D01*
X0182429Y0124145D01*
X0184145Y0122429D01*
X0186387Y0121500D01*
X0188813Y0121500D01*
X0191055Y0122429D01*
X0192771Y0124145D01*
X0192877Y0124400D01*
X0193237Y0124400D01*
X0193487Y0124504D01*
X0193754Y0124548D01*
X0194069Y0124745D01*
X0194413Y0124887D01*
X0194604Y0125079D01*
X0194834Y0125222D01*
X0195050Y0125525D01*
X0195313Y0125787D01*
X0195416Y0126038D01*
X0207550Y0143025D01*
X0207813Y0143287D01*
X0207916Y0143538D01*
X0208074Y0143758D01*
X0208158Y0144120D01*
X0208300Y0144463D01*
X0208300Y0144734D01*
X0208361Y0144998D01*
X0208300Y0145365D01*
X0208300Y0151408D01*
X0209284Y0151000D01*
X0210916Y0151000D01*
X0212422Y0151624D01*
X0213576Y0152778D01*
X0213640Y0152933D01*
X0213973Y0152600D01*
X0212429Y0151055D01*
X0211500Y0148813D01*
X0211500Y0146387D01*
X0212429Y0144145D01*
X0213973Y0142600D01*
X0212429Y0141055D01*
X0211500Y0138813D01*
X0211500Y0136387D01*
X0212429Y0134145D01*
X0213973Y0132600D01*
X0212429Y0131055D01*
X0211500Y0128813D01*
X0211500Y0126387D01*
X0212429Y0124145D01*
X0214145Y0122429D01*
X0216387Y0121500D01*
X0218813Y0121500D01*
X0221055Y0122429D01*
X0222771Y0124145D01*
X0223700Y0126387D01*
X0223700Y0128813D01*
X0222771Y0131055D01*
X0221227Y0132600D01*
X0222771Y0134145D01*
X0222877Y0134400D01*
X0231737Y0134400D01*
X0232581Y0134750D01*
X0235027Y0134750D01*
X0235909Y0135115D01*
X0236585Y0135791D01*
X0236950Y0136673D01*
X0236950Y0141527D01*
X0236585Y0142409D01*
X0235909Y0143085D01*
X0235787Y0143135D01*
X0236288Y0143636D01*
X0236950Y0145235D01*
X0236950Y0146965D01*
X0236288Y0148564D01*
X0235064Y0149788D01*
X0233465Y0150450D01*
X0231735Y0150450D01*
X0230136Y0149788D01*
X0228912Y0148564D01*
X0228250Y0146965D01*
X0228250Y0145235D01*
X0228912Y0143636D01*
X0229413Y0143135D01*
X0229291Y0143085D01*
X0228615Y0142409D01*
X0228250Y0141527D01*
X0228250Y0140800D01*
X0222877Y0140800D01*
X0222771Y0141055D01*
X0221227Y0142600D01*
X0222771Y0144145D01*
X0223700Y0146387D01*
X0223700Y0148813D01*
X0222771Y0151055D01*
X0221227Y0152600D01*
X0222771Y0154145D01*
X0223700Y0156387D01*
X0223700Y0158813D01*
X0222771Y0161055D01*
X0221055Y0162771D01*
X0218813Y0163700D01*
X0216387Y0163700D01*
X0214145Y0162771D01*
X0213300Y0161927D01*
X0213300Y0167502D01*
X0213576Y0167778D01*
X0214109Y0169065D01*
X0218287Y0164887D01*
X0219463Y0164400D01*
X0223846Y0164400D01*
X0223743Y0164198D01*
X0223540Y0163575D01*
X0223438Y0162928D01*
X0223438Y0162600D01*
X0227600Y0162600D01*
X0231762Y0162600D01*
X0231762Y0162928D01*
X0231660Y0163575D01*
X0231457Y0164198D01*
X0231354Y0164400D01*
X0233191Y0164400D01*
X0232838Y0163547D01*
X0232838Y0161653D01*
X0233563Y0159902D01*
X0234682Y0158784D01*
X0234887Y0158287D01*
X0241900Y0151275D01*
X0241900Y0123925D01*
X0236275Y0118300D01*
X0211912Y0118300D01*
X0206700Y0126986D01*
X0206700Y0128416D01*
X0206076Y0129922D01*
X0204922Y0131076D01*
X0203416Y0131700D01*
X0201784Y0131700D01*
X0200278Y0131076D01*
X0199124Y0129922D01*
X0198500Y0128416D01*
X0198500Y0126784D01*
X0199124Y0125278D01*
X0200278Y0124124D01*
X0201177Y0123752D01*
X0207234Y0113657D01*
X0207387Y0113287D01*
X0207559Y0113116D01*
X0207684Y0112908D01*
X0207829Y0112800D01*
X0191168Y0112800D01*
X0191013Y0112897D02*
X0207698Y0112897D01*
X0206731Y0114496D02*
X0180800Y0114496D01*
X0180800Y0116094D02*
X0205772Y0116094D01*
X0204812Y0117693D02*
X0180800Y0117693D01*
X0180800Y0119291D02*
X0203853Y0119291D01*
X0202894Y0120890D02*
X0180800Y0120890D01*
X0180800Y0122488D02*
X0184085Y0122488D01*
X0182486Y0124087D02*
X0180800Y0124087D01*
X0180800Y0125685D02*
X0181790Y0125685D01*
X0181500Y0127284D02*
X0180800Y0127284D01*
X0180800Y0128882D02*
X0181529Y0128882D01*
X0182191Y0130481D02*
X0180800Y0130481D01*
X0180800Y0132079D02*
X0183453Y0132079D01*
X0183744Y0133678D02*
X0180800Y0133678D01*
X0180800Y0135276D02*
X0182611Y0135276D01*
X0182146Y0136875D02*
X0181400Y0136875D01*
X0187800Y0137400D02*
X0187800Y0137800D01*
X0193100Y0137800D01*
X0193100Y0138033D01*
X0192965Y0138888D01*
X0192697Y0139711D01*
X0192304Y0140483D01*
X0191795Y0141183D01*
X0191183Y0141795D01*
X0190581Y0142232D01*
X0191055Y0142429D01*
X0192771Y0144145D01*
X0193700Y0146387D01*
X0193700Y0148813D01*
X0192771Y0151055D01*
X0191227Y0152600D01*
X0192771Y0154145D01*
X0193700Y0156387D01*
X0193700Y0158813D01*
X0192771Y0161055D01*
X0191055Y0162771D01*
X0190800Y0162877D01*
X0190800Y0165323D01*
X0191055Y0165429D01*
X0192600Y0166973D01*
X0194145Y0165429D01*
X0196387Y0164500D01*
X0198813Y0164500D01*
X0201055Y0165429D01*
X0201900Y0166273D01*
X0201900Y0146125D01*
X0191817Y0132010D01*
X0191055Y0132771D01*
X0190581Y0132968D01*
X0191183Y0133405D01*
X0191795Y0134017D01*
X0192304Y0134717D01*
X0192697Y0135489D01*
X0192965Y0136312D01*
X0193100Y0137167D01*
X0193100Y0137400D01*
X0187800Y0137400D01*
X0191456Y0133678D02*
X0193009Y0133678D01*
X0192589Y0135276D02*
X0194151Y0135276D01*
X0193054Y0136875D02*
X0195292Y0136875D01*
X0196434Y0138473D02*
X0193030Y0138473D01*
X0192513Y0140072D02*
X0197576Y0140072D01*
X0198718Y0141670D02*
X0191308Y0141670D01*
X0191896Y0143269D02*
X0199860Y0143269D01*
X0201001Y0144868D02*
X0193071Y0144868D01*
X0193700Y0146466D02*
X0201900Y0146466D01*
X0201900Y0148065D02*
X0193700Y0148065D01*
X0193348Y0149663D02*
X0201900Y0149663D01*
X0201900Y0151262D02*
X0192565Y0151262D01*
X0191487Y0152860D02*
X0201900Y0152860D01*
X0201900Y0154459D02*
X0192901Y0154459D01*
X0193563Y0156057D02*
X0201900Y0156057D01*
X0201900Y0157656D02*
X0193700Y0157656D01*
X0193517Y0159254D02*
X0201900Y0159254D01*
X0201900Y0160853D02*
X0192855Y0160853D01*
X0191376Y0162451D02*
X0201900Y0162451D01*
X0201900Y0164050D02*
X0190800Y0164050D01*
X0191275Y0165648D02*
X0193925Y0165648D01*
X0201275Y0165648D02*
X0201900Y0165648D01*
X0205100Y0170100D02*
X0197600Y0182600D01*
X0197600Y0209254D01*
X0201968Y0208808D02*
X0203231Y0208808D01*
X0203231Y0210406D02*
X0201968Y0210406D01*
X0201923Y0212005D02*
X0203277Y0212005D01*
X0203231Y0213603D02*
X0201968Y0213603D01*
X0201968Y0215202D02*
X0203231Y0215202D01*
X0203231Y0216801D02*
X0201968Y0216801D01*
X0201968Y0218399D02*
X0203231Y0218399D01*
X0204123Y0219998D02*
X0201077Y0219998D01*
X0198129Y0221596D02*
X0207071Y0221596D01*
X0208669Y0223195D02*
X0196531Y0223195D01*
X0194932Y0224793D02*
X0209850Y0224793D01*
X0210030Y0226392D02*
X0193334Y0226392D01*
X0191508Y0227990D02*
X0210692Y0227990D01*
X0212012Y0229589D02*
X0190188Y0229589D01*
X0187457Y0231187D02*
X0214743Y0231187D01*
X0215317Y0238775D02*
X0212809Y0239814D01*
X0210889Y0241734D01*
X0209850Y0244242D01*
X0209850Y0246958D01*
X0210889Y0249466D01*
X0212809Y0251386D01*
X0215317Y0252425D01*
X0226883Y0252425D01*
X0229391Y0251386D01*
X0231311Y0249466D01*
X0232350Y0246958D01*
X0232350Y0244242D01*
X0231311Y0241734D01*
X0229391Y0239814D01*
X0226883Y0238775D01*
X0215317Y0238775D01*
X0214340Y0239180D02*
X0187860Y0239180D01*
X0186883Y0238775D02*
X0189391Y0239814D01*
X0191311Y0241734D01*
X0192350Y0244242D01*
X0192350Y0246958D01*
X0191311Y0249466D01*
X0189391Y0251386D01*
X0186883Y0252425D01*
X0175317Y0252425D01*
X0172809Y0251386D01*
X0170889Y0249466D01*
X0169850Y0246958D01*
X0169850Y0244242D01*
X0170889Y0241734D01*
X0172809Y0239814D01*
X0175317Y0238775D01*
X0186883Y0238775D01*
X0190355Y0240778D02*
X0211845Y0240778D01*
X0210623Y0242377D02*
X0191577Y0242377D01*
X0192239Y0243975D02*
X0209961Y0243975D01*
X0209850Y0245574D02*
X0192350Y0245574D01*
X0192261Y0247172D02*
X0209939Y0247172D01*
X0210601Y0248771D02*
X0191599Y0248771D01*
X0190408Y0250369D02*
X0211792Y0250369D01*
X0214214Y0251968D02*
X0187986Y0251968D01*
X0188775Y0261559D02*
X0213425Y0261559D01*
X0209022Y0272748D02*
X0190029Y0272748D01*
X0187071Y0274347D02*
X0207423Y0274347D01*
X0214889Y0280741D02*
X0398901Y0280741D01*
X0398901Y0282339D02*
X0213780Y0282339D01*
X0216487Y0279142D02*
X0398901Y0279142D01*
X0398901Y0277544D02*
X0218086Y0277544D01*
X0219684Y0275945D02*
X0398901Y0275945D01*
X0398901Y0274347D02*
X0384571Y0274347D01*
X0387529Y0272748D02*
X0398901Y0272748D01*
X0398901Y0271150D02*
X0388942Y0271150D01*
X0389604Y0269551D02*
X0398901Y0269551D01*
X0398901Y0267953D02*
X0389850Y0267953D01*
X0389850Y0266354D02*
X0398901Y0266354D01*
X0398901Y0264756D02*
X0389234Y0264756D01*
X0388234Y0263157D02*
X0398901Y0263157D01*
X0398901Y0261559D02*
X0386275Y0261559D01*
X0370925Y0261559D02*
X0326275Y0261559D01*
X0324383Y0252425D02*
X0312817Y0252425D01*
X0310309Y0251386D01*
X0308389Y0249466D01*
X0307350Y0246958D01*
X0307350Y0244242D01*
X0308389Y0241734D01*
X0310309Y0239814D01*
X0312817Y0238775D01*
X0324383Y0238775D01*
X0326891Y0239814D01*
X0328811Y0241734D01*
X0329850Y0244242D01*
X0329850Y0246958D01*
X0328811Y0249466D01*
X0326891Y0251386D01*
X0324383Y0252425D01*
X0325486Y0251968D02*
X0371714Y0251968D01*
X0369292Y0250369D02*
X0327908Y0250369D01*
X0329099Y0248771D02*
X0368101Y0248771D01*
X0367439Y0247172D02*
X0329761Y0247172D01*
X0329850Y0245574D02*
X0367350Y0245574D01*
X0367461Y0243975D02*
X0329739Y0243975D01*
X0329077Y0242377D02*
X0368123Y0242377D01*
X0369345Y0240778D02*
X0327855Y0240778D01*
X0325360Y0239180D02*
X0371840Y0239180D01*
X0392600Y0222600D02*
X0395100Y0220100D01*
X0395100Y0215946D01*
X0398577Y0219998D02*
X0398901Y0219998D01*
X0398901Y0221596D02*
X0397944Y0221596D01*
X0398901Y0223195D02*
X0396531Y0223195D01*
X0394932Y0224793D02*
X0398901Y0224793D01*
X0398901Y0232786D02*
X0005000Y0232786D01*
X0005000Y0234384D02*
X0398901Y0234384D01*
X0398901Y0235983D02*
X0005000Y0235983D01*
X0005000Y0237581D02*
X0398901Y0237581D01*
X0371328Y0208808D02*
X0363418Y0208808D01*
X0369117Y0207209D02*
X0369132Y0207209D01*
X0365100Y0202600D02*
X0357600Y0202600D01*
X0347600Y0192600D01*
X0347600Y0159100D01*
X0349100Y0157600D01*
X0346090Y0154459D02*
X0343300Y0154459D01*
X0343300Y0156057D02*
X0345031Y0156057D01*
X0344735Y0157656D02*
X0343300Y0157656D01*
X0343300Y0159254D02*
X0344400Y0159254D01*
X0344400Y0160853D02*
X0343252Y0160853D01*
X0342274Y0162451D02*
X0344400Y0162451D01*
X0344400Y0164050D02*
X0341075Y0164050D01*
X0342674Y0165648D02*
X0344400Y0165648D01*
X0344400Y0167247D02*
X0344272Y0167247D01*
X0342600Y0170100D02*
X0342600Y0195100D01*
X0335100Y0202600D01*
X0335100Y0207600D01*
X0340100Y0212600D01*
X0335674Y0216801D02*
X0315326Y0216801D01*
X0313727Y0215202D02*
X0334575Y0215202D01*
X0334000Y0213603D02*
X0312129Y0213603D01*
X0310530Y0212005D02*
X0334000Y0212005D01*
X0333381Y0210406D02*
X0308932Y0210406D01*
X0308300Y0208808D02*
X0311328Y0208808D01*
X0309132Y0207209D02*
X0308300Y0207209D01*
X0305100Y0211100D02*
X0318600Y0224600D01*
X0312243Y0231187D02*
X0287457Y0231187D01*
X0290188Y0229589D02*
X0309512Y0229589D01*
X0308192Y0227990D02*
X0291508Y0227990D01*
X0292170Y0226392D02*
X0307530Y0226392D01*
X0307350Y0224793D02*
X0294932Y0224793D01*
X0295313Y0224413D02*
X0295313Y0224413D01*
X0296531Y0223195D02*
X0307370Y0223195D01*
X0308032Y0221596D02*
X0298129Y0221596D01*
X0301077Y0219998D02*
X0309125Y0219998D01*
X0307874Y0218399D02*
X0301968Y0218399D01*
X0301968Y0216801D02*
X0306275Y0216801D01*
X0304677Y0215202D02*
X0301968Y0215202D01*
X0301968Y0213603D02*
X0303078Y0213603D01*
X0302011Y0212005D02*
X0301923Y0212005D01*
X0305100Y0211100D02*
X0305100Y0200946D01*
X0309278Y0197845D02*
X0310309Y0196814D01*
X0312817Y0195775D01*
X0324383Y0195775D01*
X0326891Y0196814D01*
X0328811Y0198734D01*
X0329455Y0200289D01*
X0329929Y0199145D01*
X0331473Y0197600D01*
X0329929Y0196055D01*
X0329000Y0193813D01*
X0329000Y0191387D01*
X0329929Y0189145D01*
X0331645Y0187429D01*
X0332119Y0187232D01*
X0331517Y0186795D01*
X0330905Y0186183D01*
X0330396Y0185483D01*
X0330003Y0184711D01*
X0329735Y0183888D01*
X0329600Y0183033D01*
X0329600Y0182800D01*
X0334900Y0182800D01*
X0334900Y0182400D01*
X0329600Y0182400D01*
X0329600Y0182167D01*
X0329735Y0181312D01*
X0330003Y0180489D01*
X0330396Y0179717D01*
X0330905Y0179017D01*
X0331517Y0178405D01*
X0332119Y0177968D01*
X0331645Y0177771D01*
X0329929Y0176055D01*
X0329823Y0175800D01*
X0327009Y0175800D01*
X0327080Y0175852D01*
X0327773Y0176545D01*
X0328349Y0177337D01*
X0328794Y0178210D01*
X0329097Y0179142D01*
X0329221Y0179925D01*
X0319275Y0179925D01*
X0319275Y0181275D01*
X0317925Y0181275D01*
X0317925Y0186825D01*
X0313685Y0186825D01*
X0312717Y0186672D01*
X0311785Y0186369D01*
X0310912Y0185924D01*
X0310120Y0185348D01*
X0309427Y0184655D01*
X0308851Y0183863D01*
X0308406Y0182990D01*
X0308300Y0182663D01*
X0308300Y0190001D01*
X0308428Y0190054D01*
X0309103Y0190729D01*
X0309468Y0191611D01*
X0309468Y0196896D01*
X0309177Y0197600D01*
X0309278Y0197845D01*
X0309185Y0197618D02*
X0309505Y0197618D01*
X0309468Y0196020D02*
X0312226Y0196020D01*
X0309468Y0194421D02*
X0329252Y0194421D01*
X0329000Y0192823D02*
X0309468Y0192823D01*
X0309308Y0191224D02*
X0329067Y0191224D01*
X0329729Y0189626D02*
X0308300Y0189626D01*
X0308300Y0188027D02*
X0331046Y0188027D01*
X0331151Y0186429D02*
X0325230Y0186429D01*
X0325415Y0186369D02*
X0324483Y0186672D01*
X0323515Y0186825D01*
X0319275Y0186825D01*
X0319275Y0181275D01*
X0329221Y0181275D01*
X0329097Y0182058D01*
X0328794Y0182990D01*
X0328349Y0183863D01*
X0327773Y0184655D01*
X0327080Y0185348D01*
X0326288Y0185924D01*
X0325415Y0186369D01*
X0327598Y0184830D02*
X0330064Y0184830D01*
X0329632Y0183232D02*
X0328671Y0183232D01*
X0329164Y0181633D02*
X0329685Y0181633D01*
X0330234Y0180035D02*
X0319275Y0180035D01*
X0319275Y0181633D02*
X0317925Y0181633D01*
X0317925Y0183232D02*
X0319275Y0183232D01*
X0319275Y0184830D02*
X0317925Y0184830D01*
X0317925Y0186429D02*
X0319275Y0186429D01*
X0311970Y0186429D02*
X0308300Y0186429D01*
X0308300Y0184830D02*
X0309602Y0184830D01*
X0308529Y0183232D02*
X0308300Y0183232D01*
X0305100Y0177600D02*
X0310100Y0172600D01*
X0335100Y0172600D01*
X0330711Y0176838D02*
X0327986Y0176838D01*
X0328867Y0178436D02*
X0331486Y0178436D01*
X0342600Y0170100D02*
X0335100Y0162600D01*
X0337600Y0162600D01*
X0340100Y0160100D01*
X0340100Y0145100D01*
X0342600Y0142600D01*
X0342600Y0127600D01*
X0332600Y0127600D01*
X0328238Y0125685D02*
X0316312Y0125685D01*
X0317740Y0124087D02*
X0329378Y0124087D01*
X0330047Y0120890D02*
X0318700Y0120890D01*
X0318661Y0119291D02*
X0328790Y0119291D01*
X0328438Y0117693D02*
X0317998Y0117693D01*
X0316721Y0116094D02*
X0328713Y0116094D01*
X0329818Y0114496D02*
X0304800Y0114496D01*
X0304800Y0116094D02*
X0308479Y0116094D01*
X0307202Y0117693D02*
X0304800Y0117693D01*
X0304800Y0119291D02*
X0306539Y0119291D01*
X0306500Y0120890D02*
X0304800Y0120890D01*
X0306014Y0122488D02*
X0306780Y0122488D01*
X0301600Y0122600D02*
X0301600Y0102100D01*
X0301100Y0101600D01*
X0305450Y0101708D02*
X0313894Y0101708D01*
X0316292Y0103306D02*
X0305450Y0103306D01*
X0305087Y0104905D02*
X0318690Y0104905D01*
X0321087Y0106503D02*
X0304800Y0106503D01*
X0304800Y0108102D02*
X0323485Y0108102D01*
X0325883Y0109700D02*
X0304800Y0109700D01*
X0304800Y0111299D02*
X0328281Y0111299D01*
X0330678Y0112897D02*
X0304800Y0112897D01*
X0301600Y0122600D02*
X0309600Y0130600D01*
X0312600Y0130600D01*
X0318700Y0130481D02*
X0328746Y0130481D01*
X0327977Y0128882D02*
X0318491Y0128882D01*
X0317829Y0127284D02*
X0327838Y0127284D01*
X0330970Y0132079D02*
X0318590Y0132079D01*
X0317928Y0133678D02*
X0339400Y0133678D01*
X0339400Y0135276D02*
X0316550Y0135276D01*
X0317502Y0136875D02*
X0339400Y0136875D01*
X0338100Y0138473D02*
X0318322Y0138473D01*
X0318700Y0140072D02*
X0337045Y0140072D01*
X0336500Y0141670D02*
X0318700Y0141670D01*
X0318097Y0143269D02*
X0336500Y0143269D01*
X0336900Y0144868D02*
X0316959Y0144868D01*
X0317093Y0146466D02*
X0336900Y0146466D01*
X0336900Y0148065D02*
X0318152Y0148065D01*
X0318700Y0149663D02*
X0324748Y0149663D01*
X0324502Y0149743D02*
X0325125Y0149540D01*
X0325772Y0149438D01*
X0326100Y0149438D01*
X0326428Y0149438D01*
X0327075Y0149540D01*
X0327698Y0149743D01*
X0328281Y0150040D01*
X0328811Y0150425D01*
X0329275Y0150888D01*
X0329660Y0151419D01*
X0329957Y0152002D01*
X0330160Y0152625D01*
X0330262Y0153272D01*
X0330262Y0153600D01*
X0330262Y0153928D01*
X0330160Y0154575D01*
X0329957Y0155198D01*
X0329660Y0155781D01*
X0329275Y0156311D01*
X0328811Y0156775D01*
X0328281Y0157160D01*
X0327698Y0157457D01*
X0327075Y0157660D01*
X0326428Y0157762D01*
X0326100Y0157762D01*
X0326100Y0153600D01*
X0330262Y0153600D01*
X0326100Y0153600D01*
X0326100Y0153600D01*
X0326100Y0153600D01*
X0326100Y0149438D01*
X0326100Y0153600D01*
X0326100Y0153600D01*
X0326100Y0153600D01*
X0321938Y0153600D01*
X0321938Y0153928D01*
X0322040Y0154575D01*
X0322243Y0155198D01*
X0322540Y0155781D01*
X0322925Y0156311D01*
X0323388Y0156775D01*
X0323919Y0157160D01*
X0324502Y0157457D01*
X0325125Y0157660D01*
X0325772Y0157762D01*
X0326100Y0157762D01*
X0326100Y0153600D01*
X0321938Y0153600D01*
X0321938Y0153272D01*
X0322040Y0152625D01*
X0322243Y0152002D01*
X0322540Y0151419D01*
X0322925Y0150888D01*
X0323388Y0150425D01*
X0323919Y0150040D01*
X0324502Y0149743D01*
X0326100Y0149663D02*
X0326100Y0149663D01*
X0327452Y0149663D02*
X0336900Y0149663D01*
X0336900Y0151262D02*
X0329546Y0151262D01*
X0330197Y0152860D02*
X0336900Y0152860D01*
X0336900Y0154459D02*
X0330178Y0154459D01*
X0329460Y0156057D02*
X0336900Y0156057D01*
X0336900Y0157656D02*
X0327087Y0157656D01*
X0326100Y0157656D02*
X0326100Y0157656D01*
X0325113Y0157656D02*
X0310181Y0157656D01*
X0309835Y0156057D02*
X0308583Y0156057D01*
X0307832Y0154459D02*
X0306984Y0154459D01*
X0303100Y0155100D02*
X0312600Y0164600D01*
X0325100Y0164600D01*
X0326100Y0163600D01*
X0335100Y0162600D01*
X0336420Y0159254D02*
X0328052Y0159254D01*
X0326100Y0156057D02*
X0326100Y0156057D01*
X0326100Y0154459D02*
X0326100Y0154459D01*
X0326100Y0152860D02*
X0326100Y0152860D01*
X0326100Y0151262D02*
X0326100Y0151262D01*
X0322654Y0151262D02*
X0318700Y0151262D01*
X0318266Y0152860D02*
X0322003Y0152860D01*
X0322022Y0154459D02*
X0317368Y0154459D01*
X0315365Y0156057D02*
X0322740Y0156057D01*
X0324148Y0159254D02*
X0311780Y0159254D01*
X0313378Y0160853D02*
X0322113Y0160853D01*
X0312600Y0150600D02*
X0304600Y0150600D01*
X0295600Y0141600D01*
X0295600Y0103100D01*
X0294100Y0101600D01*
X0292400Y0108102D02*
X0241920Y0108102D01*
X0243519Y0109700D02*
X0292400Y0109700D01*
X0292400Y0111299D02*
X0245117Y0111299D01*
X0246716Y0112897D02*
X0292400Y0112897D01*
X0292400Y0114496D02*
X0248314Y0114496D01*
X0249913Y0116094D02*
X0278479Y0116094D01*
X0277202Y0117693D02*
X0251511Y0117693D01*
X0253110Y0119291D02*
X0276539Y0119291D01*
X0276500Y0120890D02*
X0254708Y0120890D01*
X0256307Y0122488D02*
X0276780Y0122488D01*
X0277460Y0124087D02*
X0257905Y0124087D01*
X0259504Y0125685D02*
X0279059Y0125685D01*
X0278211Y0127284D02*
X0261102Y0127284D01*
X0262701Y0128882D02*
X0277375Y0128882D01*
X0277298Y0132079D02*
X0265898Y0132079D01*
X0264299Y0130481D02*
X0282400Y0130481D01*
X0278038Y0133678D02*
X0267496Y0133678D01*
X0274251Y0135276D02*
X0279512Y0135276D01*
X0285688Y0135276D02*
X0289400Y0135276D01*
X0289400Y0133678D02*
X0287162Y0133678D01*
X0287902Y0132079D02*
X0288407Y0132079D01*
X0292600Y0132600D02*
X0288600Y0126600D01*
X0282600Y0120600D01*
X0286721Y0116094D02*
X0292400Y0116094D01*
X0292400Y0117693D02*
X0287998Y0117693D01*
X0288661Y0119291D02*
X0292400Y0119291D01*
X0292400Y0120890D02*
X0288700Y0120890D01*
X0289014Y0122488D02*
X0292400Y0122488D01*
X0292400Y0124087D02*
X0290612Y0124087D01*
X0291836Y0125685D02*
X0292400Y0125685D01*
X0292600Y0132600D02*
X0292600Y0152600D01*
X0305100Y0165100D01*
X0305100Y0170100D01*
X0297600Y0177600D01*
X0297600Y0209254D01*
X0293231Y0208808D02*
X0288372Y0208808D01*
X0290568Y0207209D02*
X0293231Y0207209D01*
X0293715Y0205611D02*
X0291665Y0205611D01*
X0292327Y0204012D02*
X0294400Y0204012D01*
X0294400Y0202414D02*
X0292350Y0202414D01*
X0292173Y0200815D02*
X0294400Y0200815D01*
X0294400Y0199217D02*
X0291511Y0199217D01*
X0290195Y0197618D02*
X0294400Y0197618D01*
X0294400Y0196020D02*
X0287474Y0196020D01*
X0294400Y0194421D02*
X0273448Y0194421D01*
X0273700Y0192823D02*
X0294400Y0192823D01*
X0294400Y0191224D02*
X0273633Y0191224D01*
X0272971Y0189626D02*
X0294400Y0189626D01*
X0294400Y0188027D02*
X0271654Y0188027D01*
X0272398Y0186429D02*
X0274470Y0186429D01*
X0267600Y0182600D02*
X0256100Y0171100D01*
X0257100Y0154600D01*
X0261450Y0154459D02*
X0268724Y0154459D01*
X0267134Y0152860D02*
X0261450Y0152860D01*
X0261056Y0151262D02*
X0263138Y0151262D01*
X0260132Y0149663D02*
X0248300Y0149663D01*
X0248300Y0148065D02*
X0259400Y0148065D01*
X0259400Y0146466D02*
X0248300Y0146466D01*
X0248300Y0144868D02*
X0259400Y0144868D01*
X0259400Y0143269D02*
X0248300Y0143269D01*
X0248300Y0141670D02*
X0259400Y0141670D01*
X0258047Y0140072D02*
X0248300Y0140072D01*
X0248300Y0138473D02*
X0256448Y0138473D01*
X0254849Y0136875D02*
X0248300Y0136875D01*
X0248300Y0135276D02*
X0253251Y0135276D01*
X0251652Y0133678D02*
X0248300Y0133678D01*
X0248300Y0132079D02*
X0250054Y0132079D01*
X0248455Y0130481D02*
X0248300Y0130481D01*
X0241900Y0130481D02*
X0223009Y0130481D01*
X0223671Y0128882D02*
X0241900Y0128882D01*
X0241900Y0127284D02*
X0223700Y0127284D01*
X0223410Y0125685D02*
X0241900Y0125685D01*
X0241900Y0124087D02*
X0222714Y0124087D01*
X0221115Y0122488D02*
X0240463Y0122488D01*
X0238864Y0120890D02*
X0210358Y0120890D01*
X0209399Y0122488D02*
X0214085Y0122488D01*
X0212486Y0124087D02*
X0208440Y0124087D01*
X0207481Y0125685D02*
X0211790Y0125685D01*
X0211500Y0127284D02*
X0206700Y0127284D01*
X0206507Y0128882D02*
X0211529Y0128882D01*
X0212191Y0130481D02*
X0205517Y0130481D01*
X0202600Y0127600D02*
X0210100Y0115100D01*
X0237600Y0115100D01*
X0245100Y0122600D01*
X0262600Y0140100D01*
X0262600Y0147600D01*
X0272600Y0151600D01*
X0282600Y0150600D01*
X0282600Y0167600D01*
X0278416Y0172042D02*
X0273700Y0172042D01*
X0273700Y0173641D02*
X0281244Y0173641D01*
X0281775Y0174375D02*
X0286015Y0174375D01*
X0286983Y0174528D01*
X0287915Y0174831D01*
X0288788Y0175276D01*
X0289580Y0175852D01*
X0290273Y0176545D01*
X0290849Y0177337D01*
X0291294Y0178210D01*
X0291597Y0179142D01*
X0291721Y0179925D01*
X0281775Y0179925D01*
X0281775Y0174375D01*
X0281775Y0175239D02*
X0280425Y0175239D01*
X0280425Y0176838D02*
X0281775Y0176838D01*
X0281775Y0178436D02*
X0280425Y0178436D01*
X0281775Y0180035D02*
X0294400Y0180035D01*
X0294400Y0181633D02*
X0291664Y0181633D01*
X0291721Y0181275D02*
X0291597Y0182058D01*
X0291294Y0182990D01*
X0290849Y0183863D01*
X0290273Y0184655D01*
X0289580Y0185348D01*
X0288788Y0185924D01*
X0287915Y0186369D01*
X0286983Y0186672D01*
X0286015Y0186825D01*
X0281775Y0186825D01*
X0281775Y0181275D01*
X0291721Y0181275D01*
X0291171Y0183232D02*
X0294400Y0183232D01*
X0294400Y0184830D02*
X0290098Y0184830D01*
X0287730Y0186429D02*
X0294400Y0186429D01*
X0294400Y0178436D02*
X0291367Y0178436D01*
X0290486Y0176838D02*
X0294452Y0176838D01*
X0295435Y0175239D02*
X0288716Y0175239D01*
X0291244Y0173641D02*
X0283956Y0173641D01*
X0286784Y0172042D02*
X0288416Y0172042D01*
X0293956Y0173641D02*
X0297034Y0173641D01*
X0296784Y0172042D02*
X0298632Y0172042D01*
X0298025Y0170444D02*
X0300231Y0170444D01*
X0298687Y0168845D02*
X0301829Y0168845D01*
X0301900Y0167247D02*
X0298700Y0167247D01*
X0298394Y0165648D02*
X0301123Y0165648D01*
X0299524Y0164050D02*
X0297676Y0164050D01*
X0297926Y0162451D02*
X0296078Y0162451D01*
X0296327Y0160853D02*
X0285800Y0160853D01*
X0285800Y0159254D02*
X0294729Y0159254D01*
X0293130Y0157656D02*
X0285800Y0157656D01*
X0285800Y0156057D02*
X0291532Y0156057D01*
X0289933Y0154459D02*
X0287368Y0154459D01*
X0288266Y0152860D02*
X0289400Y0152860D01*
X0289400Y0151262D02*
X0288700Y0151262D01*
X0288700Y0149663D02*
X0289400Y0149663D01*
X0289400Y0148065D02*
X0288152Y0148065D01*
X0287093Y0146466D02*
X0289400Y0146466D01*
X0289400Y0144868D02*
X0286959Y0144868D01*
X0288097Y0143269D02*
X0289400Y0143269D01*
X0289400Y0141670D02*
X0288700Y0141670D01*
X0288700Y0140072D02*
X0289400Y0140072D01*
X0289400Y0138473D02*
X0288322Y0138473D01*
X0287502Y0136875D02*
X0289400Y0136875D01*
X0278973Y0145600D02*
X0277429Y0147145D01*
X0277102Y0147934D01*
X0275799Y0148064D01*
X0275298Y0147563D01*
X0273547Y0146838D01*
X0271653Y0146838D01*
X0270502Y0147314D01*
X0265800Y0145434D01*
X0265800Y0140737D01*
X0265800Y0139618D01*
X0266071Y0139889D01*
X0267063Y0140300D01*
X0268646Y0140300D01*
X0268540Y0140625D01*
X0268438Y0141272D01*
X0268438Y0141600D01*
X0272600Y0141600D01*
X0272600Y0141600D01*
X0272600Y0145762D01*
X0272928Y0145762D01*
X0273575Y0145660D01*
X0274198Y0145457D01*
X0274781Y0145160D01*
X0275311Y0144775D01*
X0275775Y0144311D01*
X0276160Y0143781D01*
X0276457Y0143198D01*
X0276660Y0142575D01*
X0276703Y0142303D01*
X0277429Y0144055D01*
X0278973Y0145600D01*
X0278241Y0144868D02*
X0275184Y0144868D01*
X0276421Y0143269D02*
X0277103Y0143269D01*
X0278107Y0146466D02*
X0268381Y0146466D01*
X0269888Y0144775D02*
X0269425Y0144311D01*
X0269040Y0143781D01*
X0268743Y0143198D01*
X0268540Y0142575D01*
X0268438Y0141928D01*
X0268438Y0141600D01*
X0272600Y0141600D01*
X0272600Y0141600D01*
X0272600Y0145762D01*
X0272272Y0145762D01*
X0271625Y0145660D01*
X0271002Y0145457D01*
X0270419Y0145160D01*
X0269888Y0144775D01*
X0270016Y0144868D02*
X0265800Y0144868D01*
X0265800Y0143269D02*
X0268779Y0143269D01*
X0268438Y0141670D02*
X0265800Y0141670D01*
X0265800Y0140072D02*
X0266512Y0140072D01*
X0272600Y0141670D02*
X0272600Y0141670D01*
X0272600Y0143269D02*
X0272600Y0143269D01*
X0272600Y0144868D02*
X0272600Y0144868D01*
X0276476Y0154459D02*
X0277832Y0154459D01*
X0279400Y0156057D02*
X0274284Y0156057D01*
X0270916Y0156057D02*
X0261450Y0156057D01*
X0261190Y0157656D02*
X0279400Y0157656D01*
X0279400Y0159254D02*
X0260024Y0159254D01*
X0259927Y0160853D02*
X0279400Y0160853D01*
X0279122Y0162451D02*
X0259830Y0162451D01*
X0259733Y0164050D02*
X0277524Y0164050D01*
X0276806Y0165648D02*
X0259636Y0165648D01*
X0259539Y0167247D02*
X0264584Y0167247D01*
X0262728Y0168845D02*
X0259443Y0168845D01*
X0259969Y0170444D02*
X0261891Y0170444D01*
X0270616Y0167247D02*
X0276500Y0167247D01*
X0276513Y0168845D02*
X0272472Y0168845D01*
X0273309Y0170444D02*
X0277175Y0170444D01*
X0273484Y0175239D02*
X0273109Y0175239D01*
X0280425Y0181633D02*
X0281775Y0181633D01*
X0281775Y0183232D02*
X0280425Y0183232D01*
X0280425Y0184830D02*
X0281775Y0184830D01*
X0281775Y0186429D02*
X0280425Y0186429D01*
X0274726Y0196020D02*
X0272786Y0196020D01*
X0272005Y0197618D02*
X0271245Y0197618D01*
X0267600Y0202600D02*
X0262600Y0202600D01*
X0252600Y0192600D01*
X0252600Y0167600D01*
X0250100Y0165100D01*
X0250100Y0154600D01*
X0252913Y0151262D02*
X0253144Y0151262D01*
X0245100Y0152600D02*
X0245100Y0122600D01*
X0237266Y0119291D02*
X0211317Y0119291D01*
X0201935Y0122488D02*
X0191115Y0122488D01*
X0192714Y0124087D02*
X0200368Y0124087D01*
X0198955Y0125685D02*
X0195211Y0125685D01*
X0196307Y0127284D02*
X0198500Y0127284D01*
X0198693Y0128882D02*
X0197448Y0128882D01*
X0198590Y0130481D02*
X0199683Y0130481D01*
X0199732Y0132079D02*
X0213453Y0132079D01*
X0212895Y0133678D02*
X0200874Y0133678D01*
X0202016Y0135276D02*
X0211960Y0135276D01*
X0211500Y0136875D02*
X0203157Y0136875D01*
X0204299Y0138473D02*
X0211500Y0138473D01*
X0212021Y0140072D02*
X0205441Y0140072D01*
X0206583Y0141670D02*
X0213044Y0141670D01*
X0213304Y0143269D02*
X0207794Y0143269D01*
X0208331Y0144868D02*
X0212129Y0144868D01*
X0211500Y0146466D02*
X0208300Y0146466D01*
X0208300Y0148065D02*
X0211500Y0148065D01*
X0211852Y0149663D02*
X0208300Y0149663D01*
X0208300Y0151262D02*
X0208653Y0151262D01*
X0211547Y0151262D02*
X0212635Y0151262D01*
X0213610Y0152860D02*
X0213713Y0152860D01*
X0210100Y0155100D02*
X0210100Y0170100D01*
X0214018Y0168845D02*
X0214329Y0168845D01*
X0213300Y0167247D02*
X0215928Y0167247D01*
X0217526Y0165648D02*
X0213300Y0165648D01*
X0213300Y0164050D02*
X0223695Y0164050D01*
X0223438Y0162600D02*
X0223438Y0162272D01*
X0223540Y0161625D01*
X0223743Y0161002D01*
X0224040Y0160419D01*
X0224425Y0159888D01*
X0224888Y0159425D01*
X0225419Y0159040D01*
X0226002Y0158743D01*
X0226625Y0158540D01*
X0227272Y0158438D01*
X0227600Y0158438D01*
X0227928Y0158438D01*
X0228575Y0158540D01*
X0229198Y0158743D01*
X0229781Y0159040D01*
X0230311Y0159425D01*
X0230775Y0159888D01*
X0231160Y0160419D01*
X0231457Y0161002D01*
X0231660Y0161625D01*
X0231762Y0162272D01*
X0231762Y0162600D01*
X0227600Y0162600D01*
X0227600Y0162600D01*
X0227600Y0158438D01*
X0227600Y0162600D01*
X0227600Y0162600D01*
X0227600Y0162600D01*
X0223438Y0162600D01*
X0223438Y0162451D02*
X0221376Y0162451D01*
X0222855Y0160853D02*
X0223819Y0160853D01*
X0223517Y0159254D02*
X0225124Y0159254D01*
X0223700Y0157656D02*
X0235519Y0157656D01*
X0234211Y0159254D02*
X0230076Y0159254D01*
X0231381Y0160853D02*
X0233169Y0160853D01*
X0232838Y0162451D02*
X0231762Y0162451D01*
X0231505Y0164050D02*
X0233046Y0164050D01*
X0232600Y0167600D02*
X0220100Y0167600D01*
X0207600Y0180100D01*
X0207600Y0209254D01*
X0211968Y0208808D02*
X0213828Y0208808D01*
X0211968Y0210406D02*
X0237276Y0210406D01*
X0236637Y0208808D02*
X0228372Y0208808D01*
X0230568Y0207209D02*
X0233583Y0207209D01*
X0232245Y0205611D02*
X0231665Y0205611D01*
X0237600Y0202600D02*
X0247600Y0192600D01*
X0247600Y0172600D01*
X0237600Y0162600D01*
X0237600Y0160100D01*
X0245100Y0152600D01*
X0241900Y0151262D02*
X0222565Y0151262D01*
X0223348Y0149663D02*
X0230011Y0149663D01*
X0228705Y0148065D02*
X0223700Y0148065D01*
X0223700Y0146466D02*
X0228250Y0146466D01*
X0228402Y0144868D02*
X0223071Y0144868D01*
X0221896Y0143269D02*
X0229279Y0143269D01*
X0228309Y0141670D02*
X0222156Y0141670D01*
X0217600Y0137600D02*
X0231100Y0137600D01*
X0232600Y0139100D01*
X0236950Y0138473D02*
X0241900Y0138473D01*
X0241900Y0136875D02*
X0236950Y0136875D01*
X0236071Y0135276D02*
X0241900Y0135276D01*
X0241900Y0133678D02*
X0222305Y0133678D01*
X0221747Y0132079D02*
X0241900Y0132079D01*
X0241900Y0140072D02*
X0236950Y0140072D01*
X0236891Y0141670D02*
X0241900Y0141670D01*
X0241900Y0143269D02*
X0235921Y0143269D01*
X0236798Y0144868D02*
X0241900Y0144868D01*
X0241900Y0146466D02*
X0236950Y0146466D01*
X0236495Y0148065D02*
X0241900Y0148065D01*
X0241900Y0149663D02*
X0235189Y0149663D01*
X0238716Y0154459D02*
X0222901Y0154459D01*
X0223563Y0156057D02*
X0237117Y0156057D01*
X0240314Y0152860D02*
X0221487Y0152860D01*
X0227600Y0159254D02*
X0227600Y0159254D01*
X0227600Y0160853D02*
X0227600Y0160853D01*
X0227600Y0162451D02*
X0227600Y0162451D01*
X0232600Y0167600D02*
X0237600Y0172600D01*
X0232091Y0175239D02*
X0228716Y0175239D01*
X0228788Y0175276D02*
X0229580Y0175852D01*
X0230273Y0176545D01*
X0230849Y0177337D01*
X0231294Y0178210D01*
X0231597Y0179142D01*
X0231721Y0179925D01*
X0221775Y0179925D01*
X0221775Y0181275D01*
X0220425Y0181275D01*
X0220425Y0186825D01*
X0216185Y0186825D01*
X0215217Y0186672D01*
X0214285Y0186369D01*
X0213412Y0185924D01*
X0212620Y0185348D01*
X0211927Y0184655D01*
X0211351Y0183863D01*
X0210906Y0182990D01*
X0210800Y0182663D01*
X0210800Y0198949D01*
X0210889Y0198734D01*
X0212809Y0196814D01*
X0215317Y0195775D01*
X0226883Y0195775D01*
X0229391Y0196814D01*
X0231311Y0198734D01*
X0231955Y0200289D01*
X0232429Y0199145D01*
X0233973Y0197600D01*
X0232429Y0196055D01*
X0231500Y0193813D01*
X0231500Y0191387D01*
X0232429Y0189145D01*
X0234145Y0187429D01*
X0234619Y0187232D01*
X0234017Y0186795D01*
X0233405Y0186183D01*
X0232896Y0185483D01*
X0232503Y0184711D01*
X0232235Y0183888D01*
X0232100Y0183033D01*
X0232100Y0182800D01*
X0237400Y0182800D01*
X0237400Y0182400D01*
X0232100Y0182400D01*
X0232100Y0182167D01*
X0232235Y0181312D01*
X0232503Y0180489D01*
X0232896Y0179717D01*
X0233405Y0179017D01*
X0234017Y0178405D01*
X0234619Y0177968D01*
X0234145Y0177771D01*
X0232429Y0176055D01*
X0231500Y0173813D01*
X0231500Y0171387D01*
X0231606Y0171131D01*
X0231275Y0170800D01*
X0221425Y0170800D01*
X0217850Y0174375D01*
X0220425Y0174375D01*
X0220425Y0179925D01*
X0221775Y0179925D01*
X0221775Y0174375D01*
X0226015Y0174375D01*
X0226983Y0174528D01*
X0227915Y0174831D01*
X0228788Y0175276D01*
X0230486Y0176838D02*
X0233211Y0176838D01*
X0233986Y0178436D02*
X0231367Y0178436D01*
X0232734Y0180035D02*
X0221775Y0180035D01*
X0221775Y0181275D02*
X0231721Y0181275D01*
X0231597Y0182058D01*
X0231294Y0182990D01*
X0230849Y0183863D01*
X0230273Y0184655D01*
X0229580Y0185348D01*
X0228788Y0185924D01*
X0227915Y0186369D01*
X0226983Y0186672D01*
X0226015Y0186825D01*
X0221775Y0186825D01*
X0221775Y0181275D01*
X0221775Y0181633D02*
X0220425Y0181633D01*
X0220425Y0183232D02*
X0221775Y0183232D01*
X0221775Y0184830D02*
X0220425Y0184830D01*
X0220425Y0186429D02*
X0221775Y0186429D01*
X0227730Y0186429D02*
X0233651Y0186429D01*
X0233546Y0188027D02*
X0210800Y0188027D01*
X0210800Y0186429D02*
X0214470Y0186429D01*
X0212102Y0184830D02*
X0210800Y0184830D01*
X0210800Y0183232D02*
X0211029Y0183232D01*
X0210800Y0189626D02*
X0232229Y0189626D01*
X0231567Y0191224D02*
X0210800Y0191224D01*
X0210800Y0192823D02*
X0231500Y0192823D01*
X0231752Y0194421D02*
X0210800Y0194421D01*
X0210800Y0196020D02*
X0214726Y0196020D01*
X0212005Y0197618D02*
X0210800Y0197618D01*
X0204400Y0197618D02*
X0200800Y0197618D01*
X0200800Y0196020D02*
X0204400Y0196020D01*
X0204400Y0194421D02*
X0200800Y0194421D01*
X0200800Y0192823D02*
X0204400Y0192823D01*
X0204400Y0191224D02*
X0200800Y0191224D01*
X0200800Y0189626D02*
X0204400Y0189626D01*
X0204400Y0188027D02*
X0200800Y0188027D01*
X0200800Y0186429D02*
X0204400Y0186429D01*
X0204400Y0184830D02*
X0200800Y0184830D01*
X0200953Y0183232D02*
X0204400Y0183232D01*
X0204400Y0181633D02*
X0201912Y0181633D01*
X0202871Y0180035D02*
X0204400Y0180035D01*
X0204825Y0178436D02*
X0203830Y0178436D01*
X0204789Y0176838D02*
X0206337Y0176838D01*
X0205748Y0175239D02*
X0207935Y0175239D01*
X0207934Y0173641D02*
X0206707Y0173641D01*
X0205100Y0170100D02*
X0205100Y0145100D01*
X0192600Y0127600D01*
X0187600Y0127600D01*
X0191747Y0132079D02*
X0191867Y0132079D01*
X0174446Y0144868D02*
X0170800Y0144868D01*
X0170991Y0146466D02*
X0173592Y0146466D01*
X0173459Y0148065D02*
X0172590Y0148065D01*
X0167600Y0147600D02*
X0166600Y0147600D01*
X0157600Y0138600D01*
X0146600Y0138600D01*
X0132600Y0152600D01*
X0145100Y0165100D01*
X0145100Y0195100D01*
X0137600Y0202600D01*
X0142600Y0220600D01*
X0137773Y0216801D02*
X0111968Y0216801D01*
X0111968Y0215202D02*
X0137779Y0215202D01*
X0137335Y0213603D02*
X0111968Y0213603D01*
X0111923Y0212005D02*
X0136891Y0212005D01*
X0136447Y0210406D02*
X0111968Y0210406D01*
X0111968Y0208808D02*
X0113828Y0208808D01*
X0107600Y0209254D02*
X0107600Y0177600D01*
X0117600Y0167600D01*
X0132600Y0167600D01*
X0137600Y0172600D01*
X0141900Y0168273D02*
X0141055Y0167429D01*
X0138813Y0166500D01*
X0136387Y0166500D01*
X0136131Y0166606D01*
X0135313Y0165787D01*
X0135305Y0165779D01*
X0135311Y0165775D01*
X0135775Y0165311D01*
X0136160Y0164781D01*
X0136457Y0164198D01*
X0136660Y0163575D01*
X0136762Y0162928D01*
X0136762Y0162600D01*
X0132600Y0162600D01*
X0132600Y0162600D01*
X0136762Y0162600D01*
X0136762Y0162272D01*
X0136660Y0161625D01*
X0136457Y0161002D01*
X0136437Y0160962D01*
X0141900Y0166425D01*
X0141900Y0168273D01*
X0141900Y0167247D02*
X0140616Y0167247D01*
X0141123Y0165648D02*
X0135438Y0165648D01*
X0136505Y0164050D02*
X0139524Y0164050D01*
X0137926Y0162451D02*
X0136762Y0162451D01*
X0132600Y0162451D02*
X0132600Y0162451D01*
X0132600Y0162600D02*
X0132600Y0158438D01*
X0132928Y0158438D01*
X0133575Y0158540D01*
X0134198Y0158743D01*
X0134238Y0158763D01*
X0132837Y0157362D01*
X0131653Y0157362D01*
X0129902Y0156637D01*
X0128563Y0155298D01*
X0127838Y0153547D01*
X0127838Y0151653D01*
X0128563Y0149902D01*
X0129902Y0148563D01*
X0131653Y0147838D01*
X0132837Y0147838D01*
X0144787Y0135887D01*
X0145963Y0135400D01*
X0158237Y0135400D01*
X0159413Y0135887D01*
X0160313Y0136787D01*
X0164400Y0140875D01*
X0164400Y0088925D01*
X0163800Y0088325D01*
X0163800Y0088833D01*
X0162856Y0091112D01*
X0161368Y0092600D01*
X0162856Y0094088D01*
X0163800Y0096367D01*
X0163800Y0098833D01*
X0162856Y0101112D01*
X0161368Y0102600D01*
X0162856Y0104088D01*
X0163800Y0106367D01*
X0163800Y0108833D01*
X0162856Y0111112D01*
X0161112Y0112856D01*
X0158833Y0113800D01*
X0156367Y0113800D01*
X0154088Y0112856D01*
X0152344Y0111112D01*
X0151400Y0108833D01*
X0151400Y0106367D01*
X0151529Y0106055D01*
X0141275Y0095800D01*
X0098925Y0095800D01*
X0080800Y0113925D01*
X0080800Y0129275D01*
X0082325Y0130800D01*
X0087400Y0130800D01*
X0087400Y0130400D01*
X0082100Y0130400D01*
X0082100Y0130167D01*
X0082235Y0129312D01*
X0082503Y0128489D01*
X0082896Y0127717D01*
X0083405Y0127017D01*
X0084017Y0126405D01*
X0084619Y0125968D01*
X0084145Y0125771D01*
X0082429Y0124055D01*
X0081500Y0121813D01*
X0081500Y0119387D01*
X0082429Y0117145D01*
X0084145Y0115429D01*
X0086387Y0114500D01*
X0088813Y0114500D01*
X0091055Y0115429D01*
X0092771Y0117145D01*
X0093700Y0119387D01*
X0093700Y0121813D01*
X0093223Y0122966D01*
X0095050Y0125525D01*
X0111614Y0142089D01*
X0111500Y0141813D01*
X0111500Y0139387D01*
X0112429Y0137145D01*
X0113973Y0135600D01*
X0112429Y0134055D01*
X0112323Y0133800D01*
X0109963Y0133800D01*
X0108787Y0133313D01*
X0107887Y0132413D01*
X0103387Y0127913D01*
X0102900Y0126737D01*
X0102900Y0106630D01*
X0102791Y0106585D01*
X0102115Y0105909D01*
X0102065Y0105787D01*
X0101564Y0106288D01*
X0099965Y0106950D01*
X0098235Y0106950D01*
X0096636Y0106288D01*
X0095412Y0105064D01*
X0094750Y0103465D01*
X0094750Y0101735D01*
X0095412Y0100136D01*
X0096636Y0098912D01*
X0098235Y0098250D01*
X0099965Y0098250D01*
X0101564Y0098912D01*
X0102065Y0099413D01*
X0102115Y0099291D01*
X0102791Y0098615D01*
X0103673Y0098250D01*
X0108527Y0098250D01*
X0109409Y0098615D01*
X0110085Y0099291D01*
X0110450Y0100173D01*
X0110450Y0105027D01*
X0110085Y0105909D01*
X0109409Y0106585D01*
X0109300Y0106630D01*
X0109300Y0124775D01*
X0111925Y0127400D01*
X0112323Y0127400D01*
X0112429Y0127145D01*
X0113973Y0125600D01*
X0112429Y0124055D01*
X0111500Y0121813D01*
X0111500Y0119387D01*
X0112429Y0117145D01*
X0114145Y0115429D01*
X0116387Y0114500D01*
X0118813Y0114500D01*
X0121055Y0115429D01*
X0122771Y0117145D01*
X0123700Y0119387D01*
X0123700Y0121813D01*
X0122771Y0124055D01*
X0121227Y0125600D01*
X0122771Y0127145D01*
X0123700Y0129387D01*
X0123700Y0131813D01*
X0122771Y0134055D01*
X0121227Y0135600D01*
X0122771Y0137145D01*
X0123700Y0139387D01*
X0123700Y0141813D01*
X0122771Y0144055D01*
X0121227Y0145600D01*
X0122771Y0147145D01*
X0123700Y0149387D01*
X0123700Y0151813D01*
X0122771Y0154055D01*
X0121055Y0155771D01*
X0118813Y0156700D01*
X0116387Y0156700D01*
X0114145Y0155771D01*
X0113300Y0154927D01*
X0113300Y0167375D01*
X0115787Y0164887D01*
X0116963Y0164400D01*
X0128846Y0164400D01*
X0128743Y0164198D01*
X0128540Y0163575D01*
X0128438Y0162928D01*
X0128438Y0162600D01*
X0132600Y0162600D01*
X0132600Y0162600D01*
X0132600Y0162600D01*
X0132600Y0158438D01*
X0132272Y0158438D01*
X0131625Y0158540D01*
X0131002Y0158743D01*
X0130419Y0159040D01*
X0129888Y0159425D01*
X0129425Y0159888D01*
X0129040Y0160419D01*
X0128743Y0161002D01*
X0128540Y0161625D01*
X0128438Y0162272D01*
X0128438Y0162600D01*
X0132600Y0162600D01*
X0132600Y0160853D02*
X0132600Y0160853D01*
X0132600Y0159254D02*
X0132600Y0159254D01*
X0133130Y0157656D02*
X0113300Y0157656D01*
X0113300Y0159254D02*
X0130124Y0159254D01*
X0128819Y0160853D02*
X0113300Y0160853D01*
X0113300Y0162451D02*
X0128438Y0162451D01*
X0128695Y0164050D02*
X0113300Y0164050D01*
X0113300Y0165648D02*
X0115026Y0165648D01*
X0113428Y0167247D02*
X0113300Y0167247D01*
X0110100Y0170100D02*
X0097600Y0182600D01*
X0097600Y0209254D01*
X0101968Y0208808D02*
X0103231Y0208808D01*
X0103231Y0210406D02*
X0101968Y0210406D01*
X0101923Y0212005D02*
X0103277Y0212005D01*
X0103231Y0213603D02*
X0101968Y0213603D01*
X0101968Y0215202D02*
X0103231Y0215202D01*
X0103231Y0216801D02*
X0101968Y0216801D01*
X0101968Y0218399D02*
X0103231Y0218399D01*
X0104123Y0219998D02*
X0101077Y0219998D01*
X0098129Y0221596D02*
X0107071Y0221596D01*
X0108669Y0223195D02*
X0096531Y0223195D01*
X0094932Y0224793D02*
X0109850Y0224793D01*
X0110030Y0226392D02*
X0092170Y0226392D01*
X0091508Y0227990D02*
X0110692Y0227990D01*
X0112012Y0229589D02*
X0090188Y0229589D01*
X0087457Y0231187D02*
X0114743Y0231187D01*
X0115317Y0238775D02*
X0112809Y0239814D01*
X0110889Y0241734D01*
X0109850Y0244242D01*
X0109850Y0246958D01*
X0110889Y0249466D01*
X0112809Y0251386D01*
X0115317Y0252425D01*
X0126883Y0252425D01*
X0129391Y0251386D01*
X0131311Y0249466D01*
X0132350Y0246958D01*
X0132350Y0244242D01*
X0131311Y0241734D01*
X0129391Y0239814D01*
X0126883Y0238775D01*
X0115317Y0238775D01*
X0114340Y0239180D02*
X0087860Y0239180D01*
X0086883Y0238775D02*
X0089391Y0239814D01*
X0091311Y0241734D01*
X0092350Y0244242D01*
X0092350Y0246958D01*
X0091311Y0249466D01*
X0089391Y0251386D01*
X0086883Y0252425D01*
X0075317Y0252425D01*
X0072809Y0251386D01*
X0070889Y0249466D01*
X0069850Y0246958D01*
X0069850Y0244242D01*
X0070889Y0241734D01*
X0072809Y0239814D01*
X0075317Y0238775D01*
X0086883Y0238775D01*
X0090355Y0240778D02*
X0111845Y0240778D01*
X0110623Y0242377D02*
X0091577Y0242377D01*
X0092239Y0243975D02*
X0109961Y0243975D01*
X0109850Y0245574D02*
X0092350Y0245574D01*
X0092261Y0247172D02*
X0109939Y0247172D01*
X0110601Y0248771D02*
X0091599Y0248771D01*
X0090408Y0250369D02*
X0111792Y0250369D01*
X0114214Y0251968D02*
X0087986Y0251968D01*
X0088775Y0261559D02*
X0113425Y0261559D01*
X0112171Y0272748D02*
X0090029Y0272748D01*
X0087071Y0274347D02*
X0115129Y0274347D01*
X0115317Y0282775D02*
X0112809Y0283814D01*
X0110889Y0285734D01*
X0109850Y0288242D01*
X0109850Y0290958D01*
X0110889Y0293466D01*
X0112809Y0295386D01*
X0115317Y0296425D01*
X0126883Y0296425D01*
X0129391Y0295386D01*
X0131311Y0293466D01*
X0132350Y0290958D01*
X0132350Y0288242D01*
X0131311Y0285734D01*
X0129391Y0283814D01*
X0126883Y0282775D01*
X0115317Y0282775D01*
X0112685Y0283938D02*
X0089515Y0283938D01*
X0091114Y0285537D02*
X0111086Y0285537D01*
X0110309Y0287135D02*
X0091891Y0287135D01*
X0092350Y0288734D02*
X0109850Y0288734D01*
X0109850Y0290332D02*
X0092350Y0290332D01*
X0091947Y0291931D02*
X0110253Y0291931D01*
X0110952Y0293529D02*
X0091248Y0293529D01*
X0089649Y0295128D02*
X0112551Y0295128D01*
X0129649Y0295128D02*
X0172551Y0295128D01*
X0170952Y0293529D02*
X0131248Y0293529D01*
X0131947Y0291931D02*
X0170253Y0291931D01*
X0169850Y0290332D02*
X0132350Y0290332D01*
X0132350Y0288734D02*
X0169850Y0288734D01*
X0170309Y0287135D02*
X0131891Y0287135D01*
X0131114Y0285537D02*
X0171086Y0285537D01*
X0172685Y0283938D02*
X0129515Y0283938D01*
X0127071Y0274347D02*
X0175129Y0274347D01*
X0172171Y0272748D02*
X0130029Y0272748D01*
X0128775Y0261559D02*
X0173425Y0261559D01*
X0174214Y0251968D02*
X0127986Y0251968D01*
X0130408Y0250369D02*
X0171792Y0250369D01*
X0170601Y0248771D02*
X0131599Y0248771D01*
X0132261Y0247172D02*
X0169939Y0247172D01*
X0169850Y0245574D02*
X0132350Y0245574D01*
X0132239Y0243975D02*
X0169961Y0243975D01*
X0170623Y0242377D02*
X0131577Y0242377D01*
X0130355Y0240778D02*
X0171845Y0240778D01*
X0174340Y0239180D02*
X0127860Y0239180D01*
X0127457Y0231187D02*
X0174743Y0231187D01*
X0172012Y0229589D02*
X0130188Y0229589D01*
X0131508Y0227990D02*
X0170692Y0227990D01*
X0170030Y0226392D02*
X0154558Y0226392D01*
X0157034Y0224793D02*
X0169850Y0224793D01*
X0169870Y0223195D02*
X0158128Y0223195D01*
X0158700Y0221596D02*
X0170532Y0221596D01*
X0171625Y0219998D02*
X0158700Y0219998D01*
X0158291Y0218399D02*
X0173811Y0218399D01*
X0181100Y0224600D02*
X0181600Y0225100D01*
X0190100Y0225100D01*
X0197600Y0217600D01*
X0197600Y0215946D01*
X0193231Y0215202D02*
X0159523Y0215202D01*
X0157925Y0216801D02*
X0193231Y0216801D01*
X0192275Y0218399D02*
X0188389Y0218399D01*
X0190575Y0219998D02*
X0190677Y0219998D01*
X0193231Y0213603D02*
X0161122Y0213603D01*
X0162720Y0212005D02*
X0193277Y0212005D01*
X0193231Y0210406D02*
X0164319Y0210406D01*
X0165918Y0208808D02*
X0173828Y0208808D01*
X0171632Y0207209D02*
X0171617Y0207209D01*
X0167600Y0202600D02*
X0165100Y0202600D01*
X0150100Y0187600D01*
X0150100Y0158600D01*
X0149100Y0150600D01*
X0152065Y0147413D02*
X0152115Y0147291D01*
X0152791Y0146615D01*
X0153673Y0146250D01*
X0158527Y0146250D01*
X0159409Y0146615D01*
X0160085Y0147291D01*
X0160450Y0148173D01*
X0160450Y0153027D01*
X0160085Y0153909D01*
X0159409Y0154585D01*
X0158795Y0154839D01*
X0158300Y0158799D01*
X0158300Y0173775D01*
X0163049Y0178524D01*
X0163973Y0177600D01*
X0162429Y0176055D01*
X0161500Y0173813D01*
X0161500Y0171387D01*
X0162429Y0169145D01*
X0164145Y0167429D01*
X0166387Y0166500D01*
X0168813Y0166500D01*
X0171055Y0167429D01*
X0172771Y0169145D01*
X0173700Y0171387D01*
X0173700Y0173813D01*
X0172957Y0175607D01*
X0173412Y0175276D01*
X0174285Y0174831D01*
X0175217Y0174528D01*
X0176185Y0174375D01*
X0180425Y0174375D01*
X0180425Y0179925D01*
X0181775Y0179925D01*
X0181775Y0174375D01*
X0182748Y0174375D01*
X0182429Y0174055D01*
X0181500Y0171813D01*
X0181500Y0169387D01*
X0182429Y0167145D01*
X0184145Y0165429D01*
X0184400Y0165323D01*
X0184400Y0162877D01*
X0184145Y0162771D01*
X0182429Y0161055D01*
X0182323Y0160800D01*
X0181135Y0160800D01*
X0180298Y0161637D01*
X0178547Y0162362D01*
X0176653Y0162362D01*
X0174902Y0161637D01*
X0173563Y0160298D01*
X0172838Y0158547D01*
X0172838Y0157363D01*
X0166275Y0150800D01*
X0165963Y0150800D01*
X0164787Y0150313D01*
X0156275Y0141800D01*
X0147925Y0141800D01*
X0137362Y0152363D01*
X0137362Y0152837D01*
X0146900Y0162375D01*
X0146900Y0158799D01*
X0146293Y0153945D01*
X0145412Y0153064D01*
X0144750Y0151465D01*
X0144750Y0149735D01*
X0145412Y0148136D01*
X0146636Y0146912D01*
X0148235Y0146250D01*
X0149965Y0146250D01*
X0151564Y0146912D01*
X0152065Y0147413D01*
X0153151Y0146466D02*
X0150487Y0146466D01*
X0147713Y0146466D02*
X0143259Y0146466D01*
X0141661Y0148065D02*
X0145484Y0148065D01*
X0144780Y0149663D02*
X0140062Y0149663D01*
X0138464Y0151262D02*
X0144750Y0151262D01*
X0145328Y0152860D02*
X0137386Y0152860D01*
X0138984Y0154459D02*
X0146357Y0154459D01*
X0146557Y0156057D02*
X0140583Y0156057D01*
X0142181Y0157656D02*
X0146757Y0157656D01*
X0146900Y0159254D02*
X0143780Y0159254D01*
X0145378Y0160853D02*
X0146900Y0160853D01*
X0155100Y0158600D02*
X0156100Y0150600D01*
X0160450Y0151262D02*
X0166736Y0151262D01*
X0168335Y0152860D02*
X0160450Y0152860D01*
X0159536Y0154459D02*
X0169933Y0154459D01*
X0171532Y0156057D02*
X0158643Y0156057D01*
X0158443Y0157656D02*
X0172838Y0157656D01*
X0173131Y0159254D02*
X0158300Y0159254D01*
X0158300Y0160853D02*
X0174118Y0160853D01*
X0177600Y0157600D02*
X0167600Y0147600D01*
X0167600Y0087600D01*
X0157600Y0077600D01*
X0163764Y0088920D02*
X0164394Y0088920D01*
X0164400Y0090518D02*
X0163102Y0090518D01*
X0161851Y0092117D02*
X0164400Y0092117D01*
X0164400Y0093715D02*
X0162483Y0093715D01*
X0163364Y0095314D02*
X0164400Y0095314D01*
X0164400Y0096912D02*
X0163800Y0096912D01*
X0163800Y0098511D02*
X0164400Y0098511D01*
X0164400Y0100109D02*
X0163271Y0100109D01*
X0162260Y0101708D02*
X0164400Y0101708D01*
X0164400Y0103306D02*
X0162074Y0103306D01*
X0163194Y0104905D02*
X0164400Y0104905D01*
X0164400Y0106503D02*
X0163800Y0106503D01*
X0163800Y0108102D02*
X0164400Y0108102D01*
X0164400Y0109700D02*
X0163441Y0109700D01*
X0162669Y0111299D02*
X0164400Y0111299D01*
X0164400Y0112897D02*
X0161013Y0112897D01*
X0164400Y0114496D02*
X0109300Y0114496D01*
X0109300Y0116094D02*
X0113479Y0116094D01*
X0112202Y0117693D02*
X0109300Y0117693D01*
X0109300Y0119291D02*
X0111539Y0119291D01*
X0111500Y0120890D02*
X0109300Y0120890D01*
X0109300Y0122488D02*
X0111780Y0122488D01*
X0112460Y0124087D02*
X0109300Y0124087D01*
X0110211Y0125685D02*
X0113888Y0125685D01*
X0112371Y0127284D02*
X0111809Y0127284D01*
X0110600Y0130600D02*
X0117600Y0130600D01*
X0123700Y0130481D02*
X0164400Y0130481D01*
X0164400Y0132079D02*
X0123590Y0132079D01*
X0122928Y0133678D02*
X0164400Y0133678D01*
X0164400Y0135276D02*
X0121550Y0135276D01*
X0122502Y0136875D02*
X0143800Y0136875D01*
X0142201Y0138473D02*
X0123322Y0138473D01*
X0123700Y0140072D02*
X0140603Y0140072D01*
X0139004Y0141670D02*
X0123700Y0141670D01*
X0123097Y0143269D02*
X0137406Y0143269D01*
X0135807Y0144868D02*
X0121959Y0144868D01*
X0122093Y0146466D02*
X0134208Y0146466D01*
X0131105Y0148065D02*
X0123152Y0148065D01*
X0123700Y0149663D02*
X0128802Y0149663D01*
X0128000Y0151262D02*
X0123700Y0151262D01*
X0123266Y0152860D02*
X0127838Y0152860D01*
X0128215Y0154459D02*
X0122368Y0154459D01*
X0120365Y0156057D02*
X0129322Y0156057D01*
X0114835Y0156057D02*
X0113300Y0156057D01*
X0110100Y0145100D02*
X0110100Y0170100D01*
X0115187Y0174538D02*
X0115217Y0174528D01*
X0116185Y0174375D01*
X0120425Y0174375D01*
X0120425Y0179925D01*
X0121775Y0179925D01*
X0121775Y0181275D01*
X0120425Y0181275D01*
X0120425Y0186825D01*
X0116185Y0186825D01*
X0115217Y0186672D01*
X0114285Y0186369D01*
X0113412Y0185924D01*
X0112620Y0185348D01*
X0111927Y0184655D01*
X0111351Y0183863D01*
X0110906Y0182990D01*
X0110800Y0182663D01*
X0110800Y0198949D01*
X0110889Y0198734D01*
X0112809Y0196814D01*
X0115317Y0195775D01*
X0126883Y0195775D01*
X0129391Y0196814D01*
X0131311Y0198734D01*
X0131955Y0200288D01*
X0132429Y0199145D01*
X0133973Y0197600D01*
X0132429Y0196055D01*
X0131500Y0193813D01*
X0131500Y0191387D01*
X0132429Y0189145D01*
X0134145Y0187429D01*
X0134619Y0187232D01*
X0134017Y0186795D01*
X0133405Y0186183D01*
X0132896Y0185483D01*
X0132503Y0184711D01*
X0132235Y0183888D01*
X0132100Y0183033D01*
X0132100Y0182800D01*
X0137400Y0182800D01*
X0137400Y0182400D01*
X0132100Y0182400D01*
X0132100Y0182167D01*
X0132235Y0181312D01*
X0132503Y0180489D01*
X0132896Y0179717D01*
X0133405Y0179017D01*
X0134017Y0178405D01*
X0134619Y0177968D01*
X0134145Y0177771D01*
X0132429Y0176055D01*
X0131500Y0173813D01*
X0131500Y0171387D01*
X0131606Y0171131D01*
X0131275Y0170800D01*
X0118925Y0170800D01*
X0115187Y0174538D01*
X0116085Y0173641D02*
X0131500Y0173641D01*
X0131500Y0172042D02*
X0117683Y0172042D01*
X0120425Y0175239D02*
X0121775Y0175239D01*
X0121775Y0174375D02*
X0126015Y0174375D01*
X0126983Y0174528D01*
X0127915Y0174831D01*
X0128788Y0175276D01*
X0129580Y0175852D01*
X0130273Y0176545D01*
X0130849Y0177337D01*
X0131294Y0178210D01*
X0131597Y0179142D01*
X0131721Y0179925D01*
X0121775Y0179925D01*
X0121775Y0174375D01*
X0121775Y0176838D02*
X0120425Y0176838D01*
X0120425Y0178436D02*
X0121775Y0178436D01*
X0121775Y0180035D02*
X0132734Y0180035D01*
X0131721Y0181275D02*
X0131597Y0182058D01*
X0131294Y0182990D01*
X0130849Y0183863D01*
X0130273Y0184655D01*
X0129580Y0185348D01*
X0128788Y0185924D01*
X0127915Y0186369D01*
X0126983Y0186672D01*
X0126015Y0186825D01*
X0121775Y0186825D01*
X0121775Y0181275D01*
X0131721Y0181275D01*
X0131664Y0181633D02*
X0132185Y0181633D01*
X0132132Y0183232D02*
X0131171Y0183232D01*
X0130098Y0184830D02*
X0132564Y0184830D01*
X0133651Y0186429D02*
X0127730Y0186429D01*
X0132229Y0189626D02*
X0110800Y0189626D01*
X0110800Y0191224D02*
X0131567Y0191224D01*
X0131500Y0192823D02*
X0110800Y0192823D01*
X0110800Y0194421D02*
X0131752Y0194421D01*
X0132414Y0196020D02*
X0127474Y0196020D01*
X0130195Y0197618D02*
X0133955Y0197618D01*
X0132399Y0199217D02*
X0131511Y0199217D01*
X0131665Y0205611D02*
X0132245Y0205611D01*
X0133583Y0207209D02*
X0130568Y0207209D01*
X0128372Y0208808D02*
X0136003Y0208808D01*
X0136909Y0218399D02*
X0128389Y0218399D01*
X0130575Y0219998D02*
X0136500Y0219998D01*
X0136500Y0221596D02*
X0131668Y0221596D01*
X0132330Y0223195D02*
X0137072Y0223195D01*
X0138166Y0224793D02*
X0132350Y0224793D01*
X0132170Y0226392D02*
X0140642Y0226392D01*
X0144558Y0226392D02*
X0150642Y0226392D01*
X0148166Y0224793D02*
X0147034Y0224793D01*
X0152600Y0220600D02*
X0152600Y0217600D01*
X0167600Y0202600D01*
X0171245Y0197618D02*
X0172005Y0197618D01*
X0172786Y0196020D02*
X0174726Y0196020D01*
X0173448Y0194421D02*
X0194400Y0194421D01*
X0194400Y0192823D02*
X0173700Y0192823D01*
X0173633Y0191224D02*
X0194400Y0191224D01*
X0194400Y0189626D02*
X0172971Y0189626D01*
X0171654Y0188027D02*
X0194400Y0188027D01*
X0194400Y0186429D02*
X0187730Y0186429D01*
X0187915Y0186369D02*
X0186983Y0186672D01*
X0186015Y0186825D01*
X0181775Y0186825D01*
X0181775Y0181275D01*
X0191721Y0181275D01*
X0191597Y0182058D01*
X0191294Y0182990D01*
X0190849Y0183863D01*
X0190273Y0184655D01*
X0189580Y0185348D01*
X0188788Y0185924D01*
X0187915Y0186369D01*
X0190098Y0184830D02*
X0194400Y0184830D01*
X0194400Y0183232D02*
X0191171Y0183232D01*
X0191664Y0181633D02*
X0194509Y0181633D01*
X0195407Y0180035D02*
X0181775Y0180035D01*
X0181775Y0181633D02*
X0180425Y0181633D01*
X0180425Y0183232D02*
X0181775Y0183232D01*
X0181775Y0184830D02*
X0180425Y0184830D01*
X0180425Y0186429D02*
X0181775Y0186429D01*
X0174470Y0186429D02*
X0172398Y0186429D01*
X0167600Y0182600D02*
X0162600Y0182600D01*
X0155100Y0175100D01*
X0155100Y0158600D01*
X0158300Y0162451D02*
X0183824Y0162451D01*
X0184400Y0164050D02*
X0158300Y0164050D01*
X0158300Y0165648D02*
X0183925Y0165648D01*
X0182386Y0167247D02*
X0170616Y0167247D01*
X0172472Y0168845D02*
X0181724Y0168845D01*
X0181500Y0170444D02*
X0173309Y0170444D01*
X0173700Y0172042D02*
X0181595Y0172042D01*
X0182257Y0173641D02*
X0173700Y0173641D01*
X0173484Y0175239D02*
X0173109Y0175239D01*
X0180425Y0175239D02*
X0181775Y0175239D01*
X0181775Y0176838D02*
X0180425Y0176838D01*
X0180425Y0178436D02*
X0181775Y0178436D01*
X0187600Y0170600D02*
X0187600Y0157600D01*
X0177600Y0157600D01*
X0181082Y0160853D02*
X0182345Y0160853D01*
X0191587Y0175239D02*
X0193613Y0175239D01*
X0190486Y0176838D02*
X0197326Y0176838D01*
X0196366Y0178436D02*
X0191367Y0178436D01*
X0194400Y0196020D02*
X0187474Y0196020D01*
X0190195Y0197618D02*
X0194400Y0197618D01*
X0194400Y0199217D02*
X0191511Y0199217D01*
X0192173Y0200815D02*
X0194400Y0200815D01*
X0194400Y0202414D02*
X0192350Y0202414D01*
X0192327Y0204012D02*
X0194400Y0204012D01*
X0193715Y0205611D02*
X0191665Y0205611D01*
X0190568Y0207209D02*
X0193231Y0207209D01*
X0193231Y0208808D02*
X0188372Y0208808D01*
X0200800Y0204012D02*
X0204400Y0204012D01*
X0204400Y0202414D02*
X0200800Y0202414D01*
X0200800Y0200815D02*
X0204400Y0200815D01*
X0204400Y0199217D02*
X0200800Y0199217D01*
X0201485Y0205611D02*
X0203715Y0205611D01*
X0203231Y0207209D02*
X0201968Y0207209D01*
X0207600Y0215946D02*
X0207600Y0217600D01*
X0212600Y0222600D01*
X0219100Y0222600D01*
X0221100Y0224600D01*
X0227457Y0231187D02*
X0274743Y0231187D01*
X0272012Y0229589D02*
X0230188Y0229589D01*
X0231508Y0227990D02*
X0270692Y0227990D01*
X0270030Y0226392D02*
X0232170Y0226392D01*
X0232350Y0224793D02*
X0269850Y0224793D01*
X0269870Y0223195D02*
X0256034Y0223195D01*
X0258231Y0221596D02*
X0270532Y0221596D01*
X0271625Y0219998D02*
X0259209Y0219998D01*
X0259700Y0218399D02*
X0273811Y0218399D01*
X0281100Y0224600D02*
X0283100Y0222600D01*
X0292600Y0222600D01*
X0297600Y0217600D01*
X0297600Y0215946D01*
X0293231Y0215202D02*
X0260215Y0215202D01*
X0259700Y0216801D02*
X0293231Y0216801D01*
X0292275Y0218399D02*
X0288389Y0218399D01*
X0293231Y0213603D02*
X0261707Y0213603D01*
X0263199Y0212005D02*
X0293277Y0212005D01*
X0293231Y0210406D02*
X0264691Y0210406D01*
X0266183Y0208808D02*
X0273828Y0208808D01*
X0271632Y0207209D02*
X0271617Y0207209D01*
X0267600Y0202600D02*
X0253600Y0217600D01*
X0251166Y0223195D02*
X0246034Y0223195D01*
X0248231Y0221596D02*
X0248969Y0221596D01*
X0243600Y0217600D02*
X0237600Y0202600D01*
X0233955Y0197618D02*
X0230195Y0197618D01*
X0231511Y0199217D02*
X0232399Y0199217D01*
X0232414Y0196020D02*
X0227474Y0196020D01*
X0230098Y0184830D02*
X0232564Y0184830D01*
X0232132Y0183232D02*
X0231171Y0183232D01*
X0231664Y0181633D02*
X0232185Y0181633D01*
X0237800Y0182400D02*
X0237800Y0182800D01*
X0243100Y0182800D01*
X0243100Y0183033D01*
X0242965Y0183888D01*
X0242697Y0184711D01*
X0242304Y0185483D01*
X0241795Y0186183D01*
X0241183Y0186795D01*
X0240581Y0187232D01*
X0241055Y0187429D01*
X0242771Y0189145D01*
X0243700Y0191387D01*
X0243700Y0191975D01*
X0244400Y0191275D01*
X0244400Y0173925D01*
X0243700Y0173225D01*
X0243700Y0173813D01*
X0242771Y0176055D01*
X0241055Y0177771D01*
X0240581Y0177968D01*
X0241183Y0178405D01*
X0241795Y0179017D01*
X0242304Y0179717D01*
X0242697Y0180489D01*
X0242965Y0181312D01*
X0243100Y0182167D01*
X0243100Y0182400D01*
X0237800Y0182400D01*
X0242466Y0180035D02*
X0244400Y0180035D01*
X0244400Y0181633D02*
X0243015Y0181633D01*
X0243068Y0183232D02*
X0244400Y0183232D01*
X0244400Y0184830D02*
X0242636Y0184830D01*
X0241549Y0186429D02*
X0244400Y0186429D01*
X0244400Y0188027D02*
X0241654Y0188027D01*
X0242971Y0189626D02*
X0244400Y0189626D01*
X0244400Y0191224D02*
X0243633Y0191224D01*
X0244400Y0178436D02*
X0241214Y0178436D01*
X0241989Y0176838D02*
X0244400Y0176838D01*
X0244400Y0175239D02*
X0243109Y0175239D01*
X0243700Y0173641D02*
X0244115Y0173641D01*
X0231500Y0173641D02*
X0218585Y0173641D01*
X0220183Y0172042D02*
X0231500Y0172042D01*
X0221775Y0175239D02*
X0220425Y0175239D01*
X0220425Y0176838D02*
X0221775Y0176838D01*
X0221775Y0178436D02*
X0220425Y0178436D01*
X0213824Y0162451D02*
X0213300Y0162451D01*
X0164584Y0167247D02*
X0158300Y0167247D01*
X0158300Y0168845D02*
X0162728Y0168845D01*
X0161891Y0170444D02*
X0158300Y0170444D01*
X0158300Y0172042D02*
X0161500Y0172042D01*
X0161500Y0173641D02*
X0158300Y0173641D01*
X0159765Y0175239D02*
X0162091Y0175239D01*
X0161363Y0176838D02*
X0163211Y0176838D01*
X0163137Y0178436D02*
X0162962Y0178436D01*
X0133986Y0178436D02*
X0131367Y0178436D01*
X0130486Y0176838D02*
X0133211Y0176838D01*
X0132091Y0175239D02*
X0128716Y0175239D01*
X0121775Y0181633D02*
X0120425Y0181633D01*
X0120425Y0183232D02*
X0121775Y0183232D01*
X0121775Y0184830D02*
X0120425Y0184830D01*
X0120425Y0186429D02*
X0121775Y0186429D01*
X0114470Y0186429D02*
X0110800Y0186429D01*
X0110800Y0188027D02*
X0133546Y0188027D01*
X0114726Y0196020D02*
X0110800Y0196020D01*
X0110800Y0197618D02*
X0112005Y0197618D01*
X0104400Y0197618D02*
X0100800Y0197618D01*
X0100800Y0196020D02*
X0104400Y0196020D01*
X0104400Y0194421D02*
X0100800Y0194421D01*
X0100800Y0192823D02*
X0104400Y0192823D01*
X0104400Y0191224D02*
X0100800Y0191224D01*
X0100800Y0189626D02*
X0104400Y0189626D01*
X0104400Y0188027D02*
X0100800Y0188027D01*
X0100800Y0186429D02*
X0104400Y0186429D01*
X0104400Y0184830D02*
X0100800Y0184830D01*
X0101494Y0183232D02*
X0104400Y0183232D01*
X0104400Y0181633D02*
X0103092Y0181633D01*
X0098837Y0176838D02*
X0090486Y0176838D01*
X0090273Y0176545D02*
X0090849Y0177337D01*
X0091294Y0178210D01*
X0091597Y0179142D01*
X0091721Y0179925D01*
X0081775Y0179925D01*
X0081775Y0174375D01*
X0086015Y0174375D01*
X0086983Y0174528D01*
X0087915Y0174831D01*
X0088788Y0175276D01*
X0089580Y0175852D01*
X0090273Y0176545D01*
X0088716Y0175239D02*
X0100435Y0175239D01*
X0101244Y0173641D02*
X0093956Y0173641D01*
X0091244Y0173641D02*
X0073700Y0173641D01*
X0073700Y0172042D02*
X0088416Y0172042D01*
X0087175Y0170444D02*
X0073309Y0170444D01*
X0072472Y0168845D02*
X0086513Y0168845D01*
X0086500Y0167247D02*
X0070616Y0167247D01*
X0064584Y0167247D02*
X0060800Y0167247D01*
X0060800Y0168845D02*
X0062728Y0168845D01*
X0061891Y0170444D02*
X0060800Y0170444D01*
X0060800Y0172042D02*
X0061500Y0172042D01*
X0061500Y0173641D02*
X0060800Y0173641D01*
X0060800Y0175239D02*
X0062091Y0175239D01*
X0061363Y0176838D02*
X0063211Y0176838D01*
X0063137Y0178436D02*
X0062962Y0178436D01*
X0062600Y0182600D02*
X0067600Y0182600D01*
X0062600Y0182600D02*
X0057600Y0177600D01*
X0057600Y0159100D01*
X0058600Y0152600D01*
X0062950Y0152860D02*
X0072967Y0152860D01*
X0072736Y0151262D02*
X0062950Y0151262D01*
X0062739Y0149663D02*
X0071138Y0149663D01*
X0069743Y0148065D02*
X0036800Y0148065D01*
X0036800Y0149663D02*
X0048385Y0149663D01*
X0047446Y0151262D02*
X0036800Y0151262D01*
X0036542Y0152860D02*
X0047250Y0152860D01*
X0047661Y0154459D02*
X0035267Y0154459D01*
X0034583Y0156057D02*
X0048116Y0156057D01*
X0047989Y0157656D02*
X0036181Y0157656D01*
X0037780Y0159254D02*
X0047862Y0159254D01*
X0047735Y0160853D02*
X0039378Y0160853D01*
X0040977Y0162451D02*
X0047608Y0162451D01*
X0047481Y0164050D02*
X0042575Y0164050D01*
X0044174Y0165648D02*
X0047354Y0165648D01*
X0047227Y0167247D02*
X0045772Y0167247D01*
X0044600Y0170600D02*
X0044600Y0195600D01*
X0037600Y0202600D01*
X0037600Y0207600D01*
X0042600Y0217600D01*
X0036991Y0215202D02*
X0011968Y0215202D01*
X0011968Y0216801D02*
X0036500Y0216801D01*
X0036500Y0218399D02*
X0028389Y0218399D01*
X0030575Y0219998D02*
X0036991Y0219998D01*
X0037969Y0221596D02*
X0031668Y0221596D01*
X0032330Y0223195D02*
X0040166Y0223195D01*
X0045034Y0223195D02*
X0050166Y0223195D01*
X0047969Y0221596D02*
X0047231Y0221596D01*
X0052600Y0217600D02*
X0067600Y0202600D01*
X0049100Y0184100D01*
X0051600Y0152600D01*
X0061060Y0157656D02*
X0086340Y0157656D01*
X0086810Y0159254D02*
X0060814Y0159254D01*
X0060800Y0160853D02*
X0087280Y0160853D01*
X0087750Y0162451D02*
X0060800Y0162451D01*
X0060800Y0164050D02*
X0087524Y0164050D01*
X0086806Y0165648D02*
X0060800Y0165648D01*
X0062437Y0156057D02*
X0075916Y0156057D01*
X0073724Y0154459D02*
X0062950Y0154459D01*
X0069400Y0146466D02*
X0036800Y0146466D01*
X0036800Y0144868D02*
X0069400Y0144868D01*
X0069400Y0143269D02*
X0036800Y0143269D01*
X0036800Y0141670D02*
X0069400Y0141670D01*
X0069400Y0140072D02*
X0053608Y0140072D01*
X0055656Y0138473D02*
X0069400Y0138473D01*
X0069400Y0136875D02*
X0057255Y0136875D01*
X0058502Y0135276D02*
X0069400Y0135276D01*
X0069400Y0133678D02*
X0059000Y0133678D01*
X0059000Y0132079D02*
X0069400Y0132079D01*
X0069400Y0130481D02*
X0058960Y0130481D01*
X0058298Y0128882D02*
X0069400Y0128882D01*
X0069400Y0127284D02*
X0058312Y0127284D01*
X0058974Y0125685D02*
X0069400Y0125685D01*
X0069400Y0124087D02*
X0059000Y0124087D01*
X0059000Y0122488D02*
X0069400Y0122488D01*
X0069400Y0120890D02*
X0059000Y0120890D01*
X0059000Y0119291D02*
X0069400Y0119291D01*
X0069400Y0117693D02*
X0059000Y0117693D01*
X0059000Y0116094D02*
X0069069Y0116094D01*
X0067470Y0114496D02*
X0059000Y0114496D01*
X0059000Y0112897D02*
X0065872Y0112897D01*
X0064273Y0111299D02*
X0059000Y0111299D01*
X0059929Y0109700D02*
X0062675Y0109700D01*
X0060100Y0102600D02*
X0072600Y0115100D01*
X0072600Y0146600D01*
X0077600Y0151600D01*
X0086600Y0151600D01*
X0087600Y0150600D01*
X0092600Y0167600D01*
X0096784Y0172042D02*
X0098416Y0172042D01*
X0097238Y0178436D02*
X0091367Y0178436D01*
X0091721Y0181275D02*
X0091597Y0182058D01*
X0091294Y0182990D01*
X0090849Y0183863D01*
X0090273Y0184655D01*
X0089580Y0185348D01*
X0088788Y0185924D01*
X0087915Y0186369D01*
X0086983Y0186672D01*
X0086015Y0186825D01*
X0081775Y0186825D01*
X0081775Y0181275D01*
X0091721Y0181275D01*
X0091664Y0181633D02*
X0094537Y0181633D01*
X0094400Y0183232D02*
X0091171Y0183232D01*
X0090098Y0184830D02*
X0094400Y0184830D01*
X0094400Y0186429D02*
X0087730Y0186429D01*
X0081775Y0186429D02*
X0080425Y0186429D01*
X0080425Y0184830D02*
X0081775Y0184830D01*
X0081775Y0183232D02*
X0080425Y0183232D01*
X0080425Y0181633D02*
X0081775Y0181633D01*
X0081775Y0180035D02*
X0095640Y0180035D01*
X0094400Y0188027D02*
X0071654Y0188027D01*
X0072398Y0186429D02*
X0074470Y0186429D01*
X0072971Y0189626D02*
X0094400Y0189626D01*
X0094400Y0191224D02*
X0073633Y0191224D01*
X0073700Y0192823D02*
X0094400Y0192823D01*
X0094400Y0194421D02*
X0073448Y0194421D01*
X0072786Y0196020D02*
X0074726Y0196020D01*
X0072005Y0197618D02*
X0071245Y0197618D01*
X0071617Y0207209D02*
X0071632Y0207209D01*
X0073828Y0208808D02*
X0065917Y0208808D01*
X0064319Y0210406D02*
X0093231Y0210406D01*
X0093231Y0208808D02*
X0088372Y0208808D01*
X0090568Y0207209D02*
X0093231Y0207209D01*
X0093715Y0205611D02*
X0091665Y0205611D01*
X0092327Y0204012D02*
X0094400Y0204012D01*
X0094400Y0202414D02*
X0092350Y0202414D01*
X0092173Y0200815D02*
X0094400Y0200815D01*
X0094400Y0199217D02*
X0091511Y0199217D01*
X0090195Y0197618D02*
X0094400Y0197618D01*
X0094400Y0196020D02*
X0087474Y0196020D01*
X0100800Y0199217D02*
X0104400Y0199217D01*
X0104400Y0200815D02*
X0100800Y0200815D01*
X0100800Y0202414D02*
X0104400Y0202414D01*
X0104400Y0204012D02*
X0100800Y0204012D01*
X0101485Y0205611D02*
X0103715Y0205611D01*
X0103231Y0207209D02*
X0101968Y0207209D01*
X0097600Y0215946D02*
X0097600Y0217600D01*
X0092600Y0222600D01*
X0083100Y0222600D01*
X0081100Y0224600D01*
X0074743Y0231187D02*
X0027457Y0231187D01*
X0030188Y0229589D02*
X0072012Y0229589D01*
X0070692Y0227990D02*
X0031508Y0227990D01*
X0032170Y0226392D02*
X0070030Y0226392D01*
X0069850Y0224793D02*
X0032350Y0224793D01*
X0021100Y0224600D02*
X0009600Y0224600D01*
X0007600Y0222600D01*
X0007600Y0215946D01*
X0011968Y0213603D02*
X0037024Y0213603D01*
X0036225Y0212005D02*
X0011923Y0212005D01*
X0011968Y0210406D02*
X0035426Y0210406D01*
X0034626Y0208808D02*
X0028372Y0208808D01*
X0030568Y0207209D02*
X0033583Y0207209D01*
X0032245Y0205611D02*
X0031665Y0205611D01*
X0031955Y0200289D02*
X0032429Y0199145D01*
X0033973Y0197600D01*
X0032429Y0196055D01*
X0031500Y0193813D01*
X0031500Y0191387D01*
X0032429Y0189145D01*
X0034145Y0187429D01*
X0034619Y0187232D01*
X0034017Y0186795D01*
X0033405Y0186183D01*
X0032896Y0185483D01*
X0032503Y0184711D01*
X0032235Y0183888D01*
X0032100Y0183033D01*
X0032100Y0182800D01*
X0037400Y0182800D01*
X0037400Y0182400D01*
X0032100Y0182400D01*
X0032100Y0182167D01*
X0032235Y0181312D01*
X0032503Y0180489D01*
X0032896Y0179717D01*
X0033405Y0179017D01*
X0034017Y0178405D01*
X0034619Y0177968D01*
X0034145Y0177771D01*
X0032429Y0176055D01*
X0032323Y0175800D01*
X0029509Y0175800D01*
X0029580Y0175852D01*
X0030273Y0176545D01*
X0030849Y0177337D01*
X0031294Y0178210D01*
X0031597Y0179142D01*
X0031721Y0179925D01*
X0021775Y0179925D01*
X0021775Y0181275D01*
X0020425Y0181275D01*
X0020425Y0186825D01*
X0016185Y0186825D01*
X0015217Y0186672D01*
X0014285Y0186369D01*
X0013412Y0185924D01*
X0012620Y0185348D01*
X0011927Y0184655D01*
X0011351Y0183863D01*
X0010906Y0182990D01*
X0010800Y0182663D01*
X0010800Y0198949D01*
X0010889Y0198734D01*
X0012809Y0196814D01*
X0015317Y0195775D01*
X0026883Y0195775D01*
X0029391Y0196814D01*
X0031311Y0198734D01*
X0031955Y0200289D01*
X0031511Y0199217D02*
X0032399Y0199217D01*
X0033955Y0197618D02*
X0030195Y0197618D01*
X0032414Y0196020D02*
X0027474Y0196020D01*
X0031752Y0194421D02*
X0010800Y0194421D01*
X0010800Y0192823D02*
X0031500Y0192823D01*
X0031567Y0191224D02*
X0010800Y0191224D01*
X0010800Y0189626D02*
X0032229Y0189626D01*
X0033546Y0188027D02*
X0010800Y0188027D01*
X0010800Y0186429D02*
X0014470Y0186429D01*
X0012102Y0184830D02*
X0010800Y0184830D01*
X0010800Y0183232D02*
X0011029Y0183232D01*
X0007600Y0177600D02*
X0007600Y0209254D01*
X0011968Y0208808D02*
X0013828Y0208808D01*
X0013811Y0218399D02*
X0011968Y0218399D01*
X0011625Y0219998D02*
X0011077Y0219998D01*
X0005268Y0224793D02*
X0005000Y0224793D01*
X0005000Y0226392D02*
X0006866Y0226392D01*
X0005000Y0227990D02*
X0010692Y0227990D01*
X0012012Y0229589D02*
X0005000Y0229589D01*
X0005000Y0231187D02*
X0014743Y0231187D01*
X0015317Y0238775D02*
X0026883Y0238775D01*
X0029391Y0239814D01*
X0031311Y0241734D01*
X0032350Y0244242D01*
X0032350Y0246958D01*
X0031311Y0249466D01*
X0029391Y0251386D01*
X0026883Y0252425D01*
X0015317Y0252425D01*
X0012809Y0251386D01*
X0010889Y0249466D01*
X0009850Y0246958D01*
X0009850Y0244242D01*
X0010889Y0241734D01*
X0012809Y0239814D01*
X0015317Y0238775D01*
X0014340Y0239180D02*
X0005000Y0239180D01*
X0005000Y0240778D02*
X0011845Y0240778D01*
X0010623Y0242377D02*
X0005000Y0242377D01*
X0005000Y0243975D02*
X0009961Y0243975D01*
X0009850Y0245574D02*
X0005000Y0245574D01*
X0005000Y0247172D02*
X0009939Y0247172D01*
X0010601Y0248771D02*
X0005000Y0248771D01*
X0005000Y0250369D02*
X0011792Y0250369D01*
X0014214Y0251968D02*
X0005000Y0251968D01*
X0027986Y0251968D02*
X0074214Y0251968D01*
X0071792Y0250369D02*
X0030408Y0250369D01*
X0031599Y0248771D02*
X0070601Y0248771D01*
X0069939Y0247172D02*
X0032261Y0247172D01*
X0032350Y0245574D02*
X0069850Y0245574D01*
X0069961Y0243975D02*
X0032239Y0243975D01*
X0031577Y0242377D02*
X0070623Y0242377D01*
X0071845Y0240778D02*
X0030355Y0240778D01*
X0027860Y0239180D02*
X0074340Y0239180D01*
X0069870Y0223195D02*
X0055034Y0223195D01*
X0057231Y0221596D02*
X0070532Y0221596D01*
X0071625Y0219998D02*
X0058209Y0219998D01*
X0058700Y0218399D02*
X0073811Y0218399D01*
X0062720Y0212005D02*
X0093277Y0212005D01*
X0093231Y0213603D02*
X0061122Y0213603D01*
X0059523Y0215202D02*
X0093231Y0215202D01*
X0093231Y0216801D02*
X0058700Y0216801D01*
X0088389Y0218399D02*
X0092275Y0218399D01*
X0107600Y0217600D02*
X0107600Y0215946D01*
X0107600Y0217600D02*
X0112600Y0222600D01*
X0119100Y0222600D01*
X0121100Y0224600D01*
X0113811Y0218399D02*
X0112924Y0218399D01*
X0112102Y0184830D02*
X0110800Y0184830D01*
X0110800Y0183232D02*
X0111029Y0183232D01*
X0081775Y0178436D02*
X0080425Y0178436D01*
X0080425Y0176838D02*
X0081775Y0176838D01*
X0081775Y0175239D02*
X0080425Y0175239D01*
X0073484Y0175239D02*
X0073109Y0175239D01*
X0079284Y0156057D02*
X0084835Y0156057D01*
X0081909Y0148400D02*
X0082429Y0147145D01*
X0083973Y0145600D01*
X0082429Y0144055D01*
X0081703Y0142303D01*
X0081660Y0142575D01*
X0081457Y0143198D01*
X0081160Y0143781D01*
X0080775Y0144311D01*
X0080311Y0144775D01*
X0079781Y0145160D01*
X0079198Y0145457D01*
X0078575Y0145660D01*
X0077928Y0145762D01*
X0077600Y0145762D01*
X0077600Y0141600D01*
X0077600Y0141600D01*
X0077600Y0145762D01*
X0077272Y0145762D01*
X0076625Y0145660D01*
X0076002Y0145457D01*
X0075962Y0145437D01*
X0077363Y0146838D01*
X0078547Y0146838D01*
X0080298Y0147563D01*
X0081135Y0148400D01*
X0081909Y0148400D01*
X0082048Y0148065D02*
X0080799Y0148065D01*
X0083107Y0146466D02*
X0076991Y0146466D01*
X0077600Y0144868D02*
X0077600Y0144868D01*
X0077600Y0143269D02*
X0077600Y0143269D01*
X0077600Y0141670D02*
X0077600Y0141670D01*
X0077600Y0141600D02*
X0077600Y0137438D01*
X0077928Y0137438D01*
X0078575Y0137540D01*
X0079198Y0137743D01*
X0079781Y0138040D01*
X0080311Y0138425D01*
X0080775Y0138888D01*
X0081160Y0139419D01*
X0081457Y0140002D01*
X0081500Y0140134D01*
X0081500Y0139387D01*
X0081606Y0139131D01*
X0075800Y0133325D01*
X0075800Y0137846D01*
X0076002Y0137743D01*
X0076625Y0137540D01*
X0077272Y0137438D01*
X0077600Y0137438D01*
X0077600Y0141600D01*
X0077600Y0141600D01*
X0077600Y0140072D02*
X0077600Y0140072D01*
X0077600Y0138473D02*
X0077600Y0138473D01*
X0079349Y0136875D02*
X0075800Y0136875D01*
X0075800Y0135276D02*
X0077751Y0135276D01*
X0076152Y0133678D02*
X0075800Y0133678D01*
X0077600Y0130600D02*
X0087600Y0140600D01*
X0083241Y0144868D02*
X0080184Y0144868D01*
X0081421Y0143269D02*
X0082103Y0143269D01*
X0081500Y0140072D02*
X0081480Y0140072D01*
X0080948Y0138473D02*
X0080360Y0138473D01*
X0082006Y0130481D02*
X0087400Y0130481D01*
X0083211Y0127284D02*
X0080800Y0127284D01*
X0080800Y0128882D02*
X0082375Y0128882D01*
X0080800Y0125685D02*
X0084059Y0125685D01*
X0082460Y0124087D02*
X0080800Y0124087D01*
X0080800Y0122488D02*
X0081780Y0122488D01*
X0081500Y0120890D02*
X0080800Y0120890D01*
X0080800Y0119291D02*
X0081539Y0119291D01*
X0082202Y0117693D02*
X0080800Y0117693D01*
X0080800Y0116094D02*
X0083479Y0116094D01*
X0080800Y0114496D02*
X0102900Y0114496D01*
X0102900Y0116094D02*
X0091721Y0116094D01*
X0092998Y0117693D02*
X0102900Y0117693D01*
X0102900Y0119291D02*
X0093661Y0119291D01*
X0093700Y0120890D02*
X0102900Y0120890D01*
X0102900Y0122488D02*
X0093420Y0122488D01*
X0094023Y0124087D02*
X0102900Y0124087D01*
X0102900Y0125685D02*
X0095211Y0125685D01*
X0096809Y0127284D02*
X0103127Y0127284D01*
X0104357Y0128882D02*
X0098408Y0128882D01*
X0100006Y0130481D02*
X0105955Y0130481D01*
X0107554Y0132079D02*
X0101605Y0132079D01*
X0103203Y0133678D02*
X0109669Y0133678D01*
X0110600Y0130600D02*
X0106100Y0126100D01*
X0106100Y0102600D01*
X0110450Y0103306D02*
X0148781Y0103306D01*
X0150379Y0104905D02*
X0110450Y0104905D01*
X0109491Y0106503D02*
X0151400Y0106503D01*
X0151400Y0108102D02*
X0109300Y0108102D01*
X0109300Y0109700D02*
X0151759Y0109700D01*
X0152531Y0111299D02*
X0109300Y0111299D01*
X0109300Y0112897D02*
X0154187Y0112897D01*
X0157600Y0107600D02*
X0142600Y0092600D01*
X0097600Y0092600D01*
X0077600Y0112600D01*
X0077600Y0130600D01*
X0087600Y0120600D02*
X0092600Y0127600D01*
X0110100Y0145100D01*
X0111196Y0141670D02*
X0111500Y0141670D01*
X0111500Y0140072D02*
X0109597Y0140072D01*
X0107999Y0138473D02*
X0111878Y0138473D01*
X0112698Y0136875D02*
X0106400Y0136875D01*
X0104802Y0135276D02*
X0113650Y0135276D01*
X0123491Y0128882D02*
X0164400Y0128882D01*
X0164400Y0127284D02*
X0122829Y0127284D01*
X0121312Y0125685D02*
X0164400Y0125685D01*
X0164400Y0124087D02*
X0122740Y0124087D01*
X0123420Y0122488D02*
X0164400Y0122488D01*
X0164400Y0120890D02*
X0123700Y0120890D01*
X0123661Y0119291D02*
X0164400Y0119291D01*
X0164400Y0117693D02*
X0122998Y0117693D01*
X0121721Y0116094D02*
X0164400Y0116094D01*
X0175800Y0109700D02*
X0175974Y0109700D01*
X0175800Y0108102D02*
X0177573Y0108102D01*
X0179171Y0106503D02*
X0175800Y0106503D01*
X0175800Y0104905D02*
X0180770Y0104905D01*
X0181828Y0112897D02*
X0184187Y0112897D01*
X0164400Y0136875D02*
X0160400Y0136875D01*
X0161999Y0138473D02*
X0164400Y0138473D01*
X0164400Y0140072D02*
X0163597Y0140072D01*
X0159342Y0144868D02*
X0144858Y0144868D01*
X0146456Y0143269D02*
X0157744Y0143269D01*
X0159049Y0146466D02*
X0160941Y0146466D01*
X0160405Y0148065D02*
X0162539Y0148065D01*
X0164138Y0149663D02*
X0160450Y0149663D01*
X0102900Y0112897D02*
X0081828Y0112897D01*
X0083427Y0111299D02*
X0102900Y0111299D01*
X0102900Y0109700D02*
X0085025Y0109700D01*
X0086624Y0108102D02*
X0102900Y0108102D01*
X0102709Y0106503D02*
X0101044Y0106503D01*
X0097156Y0106503D02*
X0088222Y0106503D01*
X0089821Y0104905D02*
X0095346Y0104905D01*
X0094750Y0103306D02*
X0091419Y0103306D01*
X0093018Y0101708D02*
X0094761Y0101708D01*
X0094616Y0100109D02*
X0095439Y0100109D01*
X0096215Y0098511D02*
X0097605Y0098511D01*
X0097813Y0096912D02*
X0142387Y0096912D01*
X0143985Y0098511D02*
X0109157Y0098511D01*
X0110424Y0100109D02*
X0145584Y0100109D01*
X0147182Y0101708D02*
X0110450Y0101708D01*
X0103043Y0098511D02*
X0100595Y0098511D01*
X0107400Y0076132D02*
X0107800Y0076132D01*
X0107800Y0074533D02*
X0107400Y0074533D01*
X0107400Y0072934D02*
X0107800Y0072934D01*
X0110536Y0072934D02*
X0112700Y0072934D01*
X0112268Y0074533D02*
X0112170Y0074533D01*
X0104664Y0072934D02*
X0101561Y0072934D01*
X0102932Y0074533D02*
X0103030Y0074533D01*
X0063654Y0092117D02*
X0005000Y0092117D01*
X0005000Y0093715D02*
X0062055Y0093715D01*
X0060457Y0095314D02*
X0005000Y0095314D01*
X0005000Y0096912D02*
X0056454Y0096912D01*
X0054785Y0098511D02*
X0005000Y0098511D01*
X0005000Y0100109D02*
X0053934Y0100109D01*
X0053450Y0101708D02*
X0005000Y0101708D01*
X0005000Y0103306D02*
X0052464Y0103306D01*
X0050866Y0104905D02*
X0005000Y0104905D01*
X0005000Y0106503D02*
X0030859Y0106503D01*
X0030625Y0106540D02*
X0031272Y0106438D01*
X0031600Y0106438D01*
X0031928Y0106438D01*
X0032575Y0106540D01*
X0033198Y0106743D01*
X0033781Y0107040D01*
X0034311Y0107425D01*
X0034775Y0107888D01*
X0035160Y0108419D01*
X0035457Y0109002D01*
X0035660Y0109625D01*
X0035762Y0110272D01*
X0035762Y0110600D01*
X0035762Y0110928D01*
X0035660Y0111575D01*
X0035457Y0112198D01*
X0035160Y0112781D01*
X0034775Y0113311D01*
X0034311Y0113775D01*
X0033781Y0114160D01*
X0033198Y0114457D01*
X0032575Y0114660D01*
X0031928Y0114762D01*
X0031600Y0114762D01*
X0031600Y0110600D01*
X0031600Y0120600D01*
X0031400Y0120890D02*
X0031800Y0120890D01*
X0031800Y0122488D02*
X0031400Y0122488D01*
X0031400Y0124087D02*
X0031800Y0124087D01*
X0031800Y0125685D02*
X0031400Y0125685D01*
X0029466Y0125685D02*
X0025141Y0125685D01*
X0026740Y0124087D02*
X0027335Y0124087D01*
X0031400Y0119291D02*
X0031800Y0119291D01*
X0031800Y0117693D02*
X0031400Y0117693D01*
X0031400Y0116094D02*
X0031800Y0116094D01*
X0031600Y0114762D02*
X0031272Y0114762D01*
X0030625Y0114660D01*
X0030002Y0114457D01*
X0029419Y0114160D01*
X0028888Y0113775D01*
X0028425Y0113311D01*
X0028040Y0112781D01*
X0027743Y0112198D01*
X0027540Y0111575D01*
X0027438Y0110928D01*
X0027438Y0110600D01*
X0031600Y0110600D01*
X0031600Y0110600D01*
X0035762Y0110600D01*
X0031600Y0110600D01*
X0031600Y0110600D01*
X0031600Y0110600D01*
X0031600Y0114762D01*
X0031600Y0114496D02*
X0031600Y0114496D01*
X0030121Y0114496D02*
X0005000Y0114496D01*
X0005000Y0116094D02*
X0017479Y0116094D01*
X0016202Y0117693D02*
X0005000Y0117693D01*
X0005000Y0119291D02*
X0015539Y0119291D01*
X0015500Y0120890D02*
X0005000Y0120890D01*
X0005000Y0122488D02*
X0015780Y0122488D01*
X0016460Y0124087D02*
X0005000Y0124087D01*
X0005000Y0125685D02*
X0018059Y0125685D01*
X0025721Y0116094D02*
X0028444Y0116094D01*
X0028124Y0112897D02*
X0005000Y0112897D01*
X0005000Y0111299D02*
X0027497Y0111299D01*
X0027438Y0110600D02*
X0027438Y0110272D01*
X0027540Y0109625D01*
X0027743Y0109002D01*
X0028040Y0108419D01*
X0028425Y0107888D01*
X0028888Y0107425D01*
X0029419Y0107040D01*
X0030002Y0106743D01*
X0030625Y0106540D01*
X0031600Y0106503D02*
X0031600Y0106503D01*
X0031600Y0106438D02*
X0031600Y0110600D01*
X0031600Y0110600D01*
X0027438Y0110600D01*
X0027528Y0109700D02*
X0005000Y0109700D01*
X0005000Y0108102D02*
X0028270Y0108102D01*
X0031600Y0108102D02*
X0031600Y0108102D01*
X0031600Y0109700D02*
X0031600Y0109700D01*
X0031600Y0110600D02*
X0031600Y0106438D01*
X0032341Y0106503D02*
X0038767Y0106503D01*
X0037331Y0108102D02*
X0034930Y0108102D01*
X0035672Y0109700D02*
X0036700Y0109700D01*
X0036700Y0111299D02*
X0035703Y0111299D01*
X0035076Y0112897D02*
X0036700Y0112897D01*
X0036700Y0114496D02*
X0033079Y0114496D01*
X0031600Y0112897D02*
X0031600Y0112897D01*
X0031600Y0111299D02*
X0031600Y0111299D01*
X0034756Y0116094D02*
X0036700Y0116094D01*
X0041600Y0120600D02*
X0041600Y0124600D01*
X0033600Y0132600D01*
X0033600Y0151600D01*
X0027600Y0157600D01*
X0031600Y0157600D01*
X0044600Y0170600D01*
X0037600Y0172600D02*
X0012600Y0172600D01*
X0007600Y0177600D01*
X0005435Y0175239D02*
X0005000Y0175239D01*
X0005000Y0173641D02*
X0007034Y0173641D01*
X0008632Y0172042D02*
X0005000Y0172042D01*
X0005000Y0170444D02*
X0010231Y0170444D01*
X0005000Y0168845D02*
X0023628Y0168845D01*
X0023438Y0167600D02*
X0023438Y0167272D01*
X0023540Y0166625D01*
X0023743Y0166002D01*
X0024040Y0165419D01*
X0024425Y0164888D01*
X0024888Y0164425D01*
X0025419Y0164040D01*
X0026002Y0163743D01*
X0026625Y0163540D01*
X0027272Y0163438D01*
X0027600Y0163438D01*
X0027928Y0163438D01*
X0028575Y0163540D01*
X0029198Y0163743D01*
X0029781Y0164040D01*
X0030311Y0164425D01*
X0030775Y0164888D01*
X0031160Y0165419D01*
X0031457Y0166002D01*
X0031660Y0166625D01*
X0031762Y0167272D01*
X0031762Y0167600D01*
X0027600Y0167600D01*
X0027600Y0167600D01*
X0027600Y0163438D01*
X0027600Y0167600D01*
X0027600Y0167600D01*
X0027600Y0167600D01*
X0023438Y0167600D01*
X0023442Y0167247D02*
X0005000Y0167247D01*
X0005000Y0165648D02*
X0023923Y0165648D01*
X0025405Y0164050D02*
X0005000Y0164050D01*
X0005000Y0162451D02*
X0031926Y0162451D01*
X0033524Y0164050D02*
X0029795Y0164050D01*
X0031277Y0165648D02*
X0035123Y0165648D01*
X0034584Y0167247D02*
X0031758Y0167247D01*
X0031572Y0168845D02*
X0032728Y0168845D01*
X0027600Y0167247D02*
X0027600Y0167247D01*
X0027600Y0165648D02*
X0027600Y0165648D01*
X0027600Y0164050D02*
X0027600Y0164050D01*
X0024118Y0160853D02*
X0005000Y0160853D01*
X0005000Y0159254D02*
X0023131Y0159254D01*
X0022838Y0157656D02*
X0005000Y0157656D01*
X0005000Y0156057D02*
X0023085Y0156057D01*
X0024007Y0154459D02*
X0005000Y0154459D01*
X0005000Y0152860D02*
X0026599Y0152860D01*
X0029413Y0151262D02*
X0005000Y0151262D01*
X0005000Y0149663D02*
X0030400Y0149663D01*
X0030400Y0148065D02*
X0005000Y0148065D01*
X0005000Y0146466D02*
X0030400Y0146466D01*
X0030400Y0144868D02*
X0005000Y0144868D01*
X0005000Y0143269D02*
X0030400Y0143269D01*
X0030400Y0141670D02*
X0005000Y0141670D01*
X0005000Y0140072D02*
X0030400Y0140072D01*
X0030400Y0138473D02*
X0005000Y0138473D01*
X0005000Y0136875D02*
X0030400Y0136875D01*
X0030400Y0135276D02*
X0005000Y0135276D01*
X0005000Y0133678D02*
X0030400Y0133678D01*
X0030400Y0132079D02*
X0005000Y0132079D01*
X0005000Y0130481D02*
X0031194Y0130481D01*
X0032792Y0128882D02*
X0005000Y0128882D01*
X0005000Y0127284D02*
X0034391Y0127284D01*
X0033734Y0125685D02*
X0035989Y0125685D01*
X0035865Y0124087D02*
X0036460Y0124087D01*
X0041843Y0128882D02*
X0049902Y0128882D01*
X0049946Y0128777D02*
X0050147Y0128576D01*
X0050187Y0128481D01*
X0050568Y0128100D01*
X0050187Y0127719D01*
X0050148Y0127624D01*
X0048023Y0125500D01*
X0045327Y0125500D01*
X0045055Y0125771D01*
X0044480Y0126010D01*
X0044313Y0126413D01*
X0038894Y0131831D01*
X0040569Y0131831D01*
X0040569Y0135416D01*
X0040938Y0135416D01*
X0040938Y0131831D01*
X0043156Y0131831D01*
X0043575Y0131944D01*
X0043922Y0131597D01*
X0044804Y0131231D01*
X0045189Y0131231D01*
X0046472Y0130700D01*
X0049200Y0130700D01*
X0049200Y0130578D01*
X0049946Y0128777D01*
X0049807Y0127284D02*
X0043442Y0127284D01*
X0045141Y0125685D02*
X0048209Y0125685D01*
X0049240Y0130481D02*
X0040245Y0130481D01*
X0040569Y0132079D02*
X0040938Y0132079D01*
X0040938Y0133678D02*
X0040569Y0133678D01*
X0040569Y0135276D02*
X0040938Y0135276D01*
X0040938Y0136875D02*
X0040569Y0136875D01*
X0040569Y0138473D02*
X0040938Y0138473D01*
X0037032Y0138473D02*
X0036800Y0138473D01*
X0036800Y0140072D02*
X0045438Y0140072D01*
X0046500Y0114496D02*
X0049200Y0114496D01*
X0049200Y0112897D02*
X0046500Y0112897D01*
X0046500Y0111299D02*
X0049200Y0111299D01*
X0049200Y0109700D02*
X0046500Y0109700D01*
X0045869Y0108102D02*
X0049200Y0108102D01*
X0049665Y0106503D02*
X0044433Y0106503D01*
X0059900Y0088920D02*
X0060300Y0088920D01*
X0060300Y0087321D02*
X0059900Y0087321D01*
X0059900Y0085723D02*
X0060300Y0085723D01*
X0060300Y0084124D02*
X0059900Y0084124D01*
X0059900Y0082526D02*
X0060300Y0082526D01*
X0060300Y0080927D02*
X0059900Y0080927D01*
X0059900Y0079329D02*
X0060300Y0079329D01*
X0060300Y0077730D02*
X0059900Y0077730D01*
X0142400Y0021782D02*
X0142800Y0021782D01*
X0142800Y0020184D02*
X0142400Y0020184D01*
X0142400Y0018585D02*
X0142800Y0018585D01*
X0142800Y0016987D02*
X0142400Y0016987D01*
X0142400Y0015388D02*
X0142800Y0015388D01*
X0142800Y0013790D02*
X0142400Y0013790D01*
X0146568Y0013790D02*
X0147784Y0013790D01*
X0227600Y0077600D02*
X0247600Y0077600D01*
X0247600Y0087600D02*
X0227600Y0087600D01*
X0239728Y0042563D02*
X0243936Y0042563D01*
X0242391Y0040964D02*
X0241007Y0040964D01*
X0309242Y0092117D02*
X0339898Y0092117D01*
X0337858Y0093715D02*
X0311640Y0093715D01*
X0314038Y0095314D02*
X0336944Y0095314D01*
X0336500Y0096912D02*
X0316436Y0096912D01*
X0318834Y0098511D02*
X0336500Y0098511D01*
X0337037Y0100109D02*
X0321231Y0100109D01*
X0323629Y0101708D02*
X0338081Y0101708D01*
X0339153Y0103306D02*
X0326027Y0103306D01*
X0328425Y0104905D02*
X0337801Y0104905D01*
X0337205Y0106503D02*
X0330822Y0106503D01*
X0333220Y0108102D02*
X0337111Y0108102D01*
X0337499Y0109700D02*
X0335618Y0109700D01*
X0338016Y0111299D02*
X0338521Y0111299D01*
X0346679Y0111299D02*
X0349400Y0111299D01*
X0349400Y0112897D02*
X0346524Y0112897D01*
X0347917Y0114496D02*
X0349400Y0114496D01*
X0349400Y0116094D02*
X0348579Y0116094D01*
X0348700Y0117693D02*
X0349400Y0117693D01*
X0349400Y0119291D02*
X0348502Y0119291D01*
X0347840Y0120890D02*
X0349400Y0120890D01*
X0349400Y0122488D02*
X0346338Y0122488D01*
X0347714Y0124087D02*
X0349400Y0124087D01*
X0349400Y0125685D02*
X0348410Y0125685D01*
X0348700Y0127284D02*
X0349400Y0127284D01*
X0349668Y0128882D02*
X0348671Y0128882D01*
X0348009Y0130481D02*
X0350955Y0130481D01*
X0352554Y0132079D02*
X0346747Y0132079D01*
X0345800Y0133678D02*
X0354152Y0133678D01*
X0355751Y0135276D02*
X0345800Y0135276D01*
X0345800Y0136875D02*
X0350481Y0136875D01*
X0348100Y0138473D02*
X0347100Y0138473D01*
X0354719Y0136875D02*
X0357349Y0136875D01*
X0357100Y0138473D02*
X0358948Y0138473D01*
X0358155Y0140072D02*
X0360546Y0140072D01*
X0362145Y0141670D02*
X0358700Y0141670D01*
X0358700Y0143269D02*
X0363744Y0143269D01*
X0365342Y0144868D02*
X0358263Y0144868D01*
X0357361Y0146466D02*
X0366941Y0146466D01*
X0368539Y0148065D02*
X0355348Y0148065D01*
X0349852Y0148065D02*
X0345348Y0148065D01*
X0347361Y0146466D02*
X0347839Y0146466D01*
X0343300Y0149663D02*
X0370138Y0149663D01*
X0371736Y0151262D02*
X0343300Y0151262D01*
X0343300Y0152860D02*
X0373335Y0152860D01*
X0374933Y0154459D02*
X0360154Y0154459D01*
X0360450Y0156057D02*
X0376532Y0156057D01*
X0380787Y0151262D02*
X0398901Y0151262D01*
X0398901Y0152860D02*
X0382386Y0152860D01*
X0383984Y0154459D02*
X0398901Y0154459D01*
X0398901Y0156057D02*
X0385583Y0156057D01*
X0387181Y0157656D02*
X0398901Y0157656D01*
X0398901Y0159254D02*
X0388780Y0159254D01*
X0390378Y0160853D02*
X0398901Y0160853D01*
X0398901Y0162451D02*
X0391977Y0162451D01*
X0393575Y0164050D02*
X0398901Y0164050D01*
X0398901Y0165648D02*
X0395174Y0165648D01*
X0396772Y0167247D02*
X0398901Y0167247D01*
X0398901Y0168845D02*
X0398044Y0168845D01*
X0398300Y0170444D02*
X0398901Y0170444D01*
X0398901Y0172042D02*
X0398300Y0172042D01*
X0398300Y0173641D02*
X0398901Y0173641D01*
X0398901Y0175239D02*
X0398300Y0175239D01*
X0398300Y0176838D02*
X0398901Y0176838D01*
X0398901Y0178436D02*
X0398300Y0178436D01*
X0398300Y0180035D02*
X0398901Y0180035D01*
X0398901Y0181633D02*
X0398300Y0181633D01*
X0379275Y0178436D02*
X0377925Y0178436D01*
X0377925Y0176838D02*
X0379275Y0176838D01*
X0379275Y0175239D02*
X0377925Y0175239D01*
X0370984Y0175239D02*
X0370609Y0175239D01*
X0370286Y0196020D02*
X0372226Y0196020D01*
X0369505Y0197618D02*
X0368745Y0197618D01*
X0365100Y0202600D02*
X0355100Y0212600D01*
X0350100Y0212600D01*
X0345674Y0216801D02*
X0344526Y0216801D01*
X0342040Y0218399D02*
X0348160Y0218399D01*
X0338160Y0218399D02*
X0325889Y0218399D01*
X0325872Y0208808D02*
X0332137Y0208808D01*
X0331083Y0207209D02*
X0328068Y0207209D01*
X0329165Y0205611D02*
X0329745Y0205611D01*
X0329899Y0199217D02*
X0329011Y0199217D01*
X0327695Y0197618D02*
X0331455Y0197618D01*
X0329914Y0196020D02*
X0324974Y0196020D01*
X0305100Y0194254D02*
X0305100Y0177600D01*
X0289122Y0162451D02*
X0286078Y0162451D01*
X0302600Y0155100D02*
X0303100Y0155100D01*
X0334230Y0132079D02*
X0338453Y0132079D01*
X0337486Y0124087D02*
X0335822Y0124087D01*
X0335153Y0120890D02*
X0337360Y0120890D01*
X0336698Y0119291D02*
X0336410Y0119291D01*
X0332600Y0119291D02*
X0332600Y0119291D01*
X0332600Y0117693D02*
X0332600Y0117693D01*
X0332600Y0120890D02*
X0332600Y0120890D01*
X0338862Y0122488D02*
X0318420Y0122488D01*
X0311496Y0100109D02*
X0305450Y0100109D01*
X0305176Y0098511D02*
X0309099Y0098511D01*
X0345302Y0092117D02*
X0350900Y0092117D01*
X0350900Y0093715D02*
X0347342Y0093715D01*
X0357600Y0102600D02*
X0357600Y0122600D01*
X0362600Y0127600D01*
X0372600Y0127600D01*
X0376747Y0132079D02*
X0398901Y0132079D01*
X0398901Y0130481D02*
X0378009Y0130481D01*
X0378671Y0128882D02*
X0398901Y0128882D01*
X0398901Y0127284D02*
X0378700Y0127284D01*
X0378410Y0125685D02*
X0398901Y0125685D01*
X0398901Y0124087D02*
X0377714Y0124087D01*
X0376338Y0122488D02*
X0398901Y0122488D01*
X0398901Y0120890D02*
X0377840Y0120890D01*
X0378502Y0119291D02*
X0398901Y0119291D01*
X0398901Y0117693D02*
X0378700Y0117693D01*
X0378579Y0116094D02*
X0398901Y0116094D01*
X0398901Y0114496D02*
X0377917Y0114496D01*
X0376524Y0112897D02*
X0398901Y0112897D01*
X0398901Y0111299D02*
X0377528Y0111299D01*
X0378333Y0109700D02*
X0398901Y0109700D01*
X0398901Y0108102D02*
X0378700Y0108102D01*
X0378700Y0106503D02*
X0398901Y0106503D01*
X0398901Y0104905D02*
X0378086Y0104905D01*
X0376933Y0103306D02*
X0398901Y0103306D01*
X0398901Y0101708D02*
X0377119Y0101708D01*
X0378163Y0100109D02*
X0398901Y0100109D01*
X0398901Y0098511D02*
X0378700Y0098511D01*
X0378700Y0096912D02*
X0398901Y0096912D01*
X0398901Y0095314D02*
X0378256Y0095314D01*
X0377342Y0093715D02*
X0398901Y0093715D01*
X0398901Y0092117D02*
X0375302Y0092117D01*
X0369898Y0092117D02*
X0365800Y0092117D01*
X0365800Y0093715D02*
X0367858Y0093715D01*
X0366944Y0095314D02*
X0365800Y0095314D01*
X0366438Y0096912D02*
X0366500Y0096912D01*
X0362600Y0097600D02*
X0372600Y0107600D01*
X0362600Y0097600D02*
X0362600Y0089100D01*
X0361100Y0077600D01*
X0365450Y0077730D02*
X0398901Y0077730D01*
X0398901Y0076132D02*
X0365450Y0076132D01*
X0365185Y0074533D02*
X0398901Y0074533D01*
X0398901Y0079329D02*
X0365450Y0079329D01*
X0365067Y0080927D02*
X0398901Y0080927D01*
X0398901Y0082526D02*
X0364970Y0082526D01*
X0365178Y0084124D02*
X0398901Y0084124D01*
X0398901Y0085723D02*
X0365387Y0085723D01*
X0365595Y0087321D02*
X0398901Y0087321D01*
X0398901Y0088920D02*
X0365804Y0088920D01*
X0365800Y0090518D02*
X0398901Y0090518D01*
X0359357Y0128882D02*
X0358408Y0128882D01*
X0357758Y0127284D02*
X0356809Y0127284D01*
X0356160Y0125685D02*
X0355800Y0125685D01*
X0360006Y0130481D02*
X0361193Y0130481D01*
X0361605Y0132079D02*
X0368453Y0132079D01*
X0371333Y0133678D02*
X0363203Y0133678D01*
X0364802Y0135276D02*
X0398901Y0135276D01*
X0398901Y0133678D02*
X0373867Y0133678D01*
X0367999Y0138473D02*
X0398901Y0138473D01*
X0398901Y0136875D02*
X0366400Y0136875D01*
X0369597Y0140072D02*
X0398901Y0140072D01*
X0398901Y0141670D02*
X0371196Y0141670D01*
X0372794Y0143269D02*
X0398901Y0143269D01*
X0398901Y0144868D02*
X0374393Y0144868D01*
X0375991Y0146466D02*
X0398901Y0146466D01*
X0398901Y0148065D02*
X0377590Y0148065D01*
X0379189Y0149663D02*
X0398901Y0149663D01*
X0349400Y0109700D02*
X0347701Y0109700D01*
X0348089Y0108102D02*
X0348576Y0108102D01*
X0237916Y0212005D02*
X0211923Y0212005D01*
X0211968Y0213603D02*
X0238555Y0213603D01*
X0237991Y0215202D02*
X0211968Y0215202D01*
X0211968Y0216801D02*
X0237500Y0216801D01*
X0237500Y0218399D02*
X0228389Y0218399D01*
X0230575Y0219998D02*
X0237991Y0219998D01*
X0238969Y0221596D02*
X0231668Y0221596D01*
X0232330Y0223195D02*
X0241166Y0223195D01*
X0230355Y0240778D02*
X0271845Y0240778D01*
X0270889Y0241734D02*
X0272809Y0239814D01*
X0275317Y0238775D01*
X0286883Y0238775D01*
X0289391Y0239814D01*
X0291311Y0241734D01*
X0292350Y0244242D01*
X0292350Y0246958D01*
X0291311Y0249466D01*
X0289391Y0251386D01*
X0286883Y0252425D01*
X0275317Y0252425D01*
X0272809Y0251386D01*
X0270889Y0249466D01*
X0269850Y0246958D01*
X0269850Y0244242D01*
X0270889Y0241734D01*
X0270623Y0242377D02*
X0231577Y0242377D01*
X0232239Y0243975D02*
X0269961Y0243975D01*
X0269850Y0245574D02*
X0232350Y0245574D01*
X0232261Y0247172D02*
X0269939Y0247172D01*
X0270601Y0248771D02*
X0231599Y0248771D01*
X0230408Y0250369D02*
X0271792Y0250369D01*
X0274214Y0251968D02*
X0227986Y0251968D01*
X0228775Y0261559D02*
X0273425Y0261559D01*
X0272171Y0272748D02*
X0230029Y0272748D01*
X0227071Y0274347D02*
X0275129Y0274347D01*
X0275317Y0282775D02*
X0286883Y0282775D01*
X0289391Y0283814D01*
X0291311Y0285734D01*
X0292350Y0288242D01*
X0292350Y0290958D01*
X0291311Y0293466D01*
X0289391Y0295386D01*
X0286883Y0296425D01*
X0275317Y0296425D01*
X0272809Y0295386D01*
X0270889Y0293466D01*
X0269850Y0290958D01*
X0269850Y0288242D01*
X0270889Y0285734D01*
X0272809Y0283814D01*
X0275317Y0282775D01*
X0272685Y0283938D02*
X0229515Y0283938D01*
X0231114Y0285537D02*
X0271086Y0285537D01*
X0270309Y0287135D02*
X0231891Y0287135D01*
X0232350Y0288734D02*
X0269850Y0288734D01*
X0269850Y0290332D02*
X0232350Y0290332D01*
X0231947Y0291931D02*
X0257471Y0291931D01*
X0256313Y0293529D02*
X0231248Y0293529D01*
X0227600Y0297600D02*
X0257600Y0297600D01*
X0260100Y0295100D01*
X0263887Y0293529D02*
X0270952Y0293529D01*
X0270253Y0291931D02*
X0262729Y0291931D01*
X0264200Y0295128D02*
X0272551Y0295128D01*
X0263864Y0296726D02*
X0398901Y0296726D01*
X0398901Y0295128D02*
X0387149Y0295128D01*
X0386891Y0295386D02*
X0384383Y0296425D01*
X0372817Y0296425D01*
X0370309Y0295386D01*
X0368389Y0293466D01*
X0367350Y0290958D01*
X0367350Y0288242D01*
X0368389Y0285734D01*
X0370309Y0283814D01*
X0372817Y0282775D01*
X0384383Y0282775D01*
X0386891Y0283814D01*
X0388811Y0285734D01*
X0389850Y0288242D01*
X0389850Y0290958D01*
X0388811Y0293466D01*
X0386891Y0295386D01*
X0388748Y0293529D02*
X0398901Y0293529D01*
X0398901Y0291931D02*
X0389447Y0291931D01*
X0389850Y0290332D02*
X0398901Y0290332D01*
X0398901Y0288734D02*
X0389850Y0288734D01*
X0389391Y0287135D02*
X0398901Y0287135D01*
X0398901Y0285537D02*
X0388614Y0285537D01*
X0387015Y0283938D02*
X0398901Y0283938D01*
X0398901Y0298325D02*
X0262674Y0298325D01*
X0259802Y0299923D02*
X0398901Y0299923D01*
X0398901Y0301522D02*
X0213780Y0301522D01*
X0213780Y0303120D02*
X0255971Y0303120D01*
X0256653Y0302838D02*
X0258547Y0302838D01*
X0260298Y0303563D01*
X0261637Y0304902D01*
X0262362Y0306653D01*
X0262362Y0308547D01*
X0261637Y0310298D01*
X0260298Y0311637D01*
X0258547Y0312362D01*
X0256653Y0312362D01*
X0254902Y0311637D01*
X0253563Y0310298D01*
X0252838Y0308547D01*
X0252838Y0306653D01*
X0253563Y0304902D01*
X0254902Y0303563D01*
X0256653Y0302838D01*
X0259229Y0303120D02*
X0265971Y0303120D01*
X0266653Y0302838D02*
X0268547Y0302838D01*
X0270298Y0303563D01*
X0271637Y0304902D01*
X0272362Y0306653D01*
X0272362Y0308547D01*
X0271637Y0310298D01*
X0270298Y0311637D01*
X0268547Y0312362D01*
X0266653Y0312362D01*
X0264902Y0311637D01*
X0263563Y0310298D01*
X0262838Y0308547D01*
X0262838Y0306653D01*
X0263563Y0304902D01*
X0264902Y0303563D01*
X0266653Y0302838D01*
X0269229Y0303120D02*
X0340971Y0303120D01*
X0341653Y0302838D02*
X0343547Y0302838D01*
X0345298Y0303563D01*
X0346637Y0304902D01*
X0347362Y0306653D01*
X0347362Y0308547D01*
X0346637Y0310298D01*
X0345298Y0311637D01*
X0343547Y0312362D01*
X0341653Y0312362D01*
X0339902Y0311637D01*
X0338563Y0310298D01*
X0337838Y0308547D01*
X0337838Y0306653D01*
X0338563Y0304902D01*
X0339902Y0303563D01*
X0341653Y0302838D01*
X0344229Y0303120D02*
X0350971Y0303120D01*
X0351653Y0302838D02*
X0353547Y0302838D01*
X0355298Y0303563D01*
X0356637Y0304902D01*
X0357362Y0306653D01*
X0357362Y0308547D01*
X0356637Y0310298D01*
X0355298Y0311637D01*
X0353547Y0312362D01*
X0351653Y0312362D01*
X0349902Y0311637D01*
X0348563Y0310298D01*
X0347838Y0308547D01*
X0347838Y0306653D01*
X0348563Y0304902D01*
X0349902Y0303563D01*
X0351653Y0302838D01*
X0354229Y0303120D02*
X0398901Y0303120D01*
X0398901Y0304719D02*
X0356453Y0304719D01*
X0357223Y0306317D02*
X0398901Y0306317D01*
X0398901Y0307916D02*
X0357362Y0307916D01*
X0356962Y0309514D02*
X0398901Y0309514D01*
X0398901Y0311113D02*
X0355822Y0311113D01*
X0358270Y0314310D02*
X0398901Y0314310D01*
X0398901Y0315908D02*
X0359752Y0315908D01*
X0359823Y0317507D02*
X0398901Y0317507D01*
X0398901Y0319105D02*
X0359823Y0319105D01*
X0359823Y0320704D02*
X0398901Y0320704D01*
X0398901Y0322302D02*
X0359823Y0322302D01*
X0359823Y0323901D02*
X0398901Y0323901D01*
X0398901Y0312711D02*
X0213780Y0312711D01*
X0213780Y0311113D02*
X0254378Y0311113D01*
X0253238Y0309514D02*
X0213780Y0309514D01*
X0213780Y0307916D02*
X0252838Y0307916D01*
X0252977Y0306317D02*
X0213780Y0306317D01*
X0213780Y0304719D02*
X0253747Y0304719D01*
X0261453Y0304719D02*
X0263747Y0304719D01*
X0262977Y0306317D02*
X0262223Y0306317D01*
X0262362Y0307916D02*
X0262838Y0307916D01*
X0263238Y0309514D02*
X0261962Y0309514D01*
X0260822Y0311113D02*
X0264378Y0311113D01*
X0265711Y0314310D02*
X0270710Y0314310D01*
X0269228Y0315908D02*
X0267193Y0315908D01*
X0267264Y0317507D02*
X0269157Y0317507D01*
X0269157Y0319105D02*
X0267264Y0319105D01*
X0267264Y0320704D02*
X0269157Y0320704D01*
X0269157Y0322302D02*
X0267264Y0322302D01*
X0267264Y0323901D02*
X0269157Y0323901D01*
X0281043Y0323901D02*
X0334157Y0323901D01*
X0334157Y0322302D02*
X0281043Y0322302D01*
X0281043Y0320704D02*
X0334157Y0320704D01*
X0334157Y0319105D02*
X0281043Y0319105D01*
X0281043Y0317507D02*
X0334157Y0317507D01*
X0334228Y0315908D02*
X0280972Y0315908D01*
X0279490Y0314310D02*
X0335710Y0314310D01*
X0339378Y0311113D02*
X0270822Y0311113D01*
X0271962Y0309514D02*
X0338238Y0309514D01*
X0337838Y0307916D02*
X0272362Y0307916D01*
X0272223Y0306317D02*
X0337977Y0306317D01*
X0338747Y0304719D02*
X0271453Y0304719D01*
X0256930Y0314310D02*
X0213780Y0314310D01*
X0214752Y0315908D02*
X0255448Y0315908D01*
X0255377Y0317507D02*
X0214823Y0317507D01*
X0214823Y0319105D02*
X0255377Y0319105D01*
X0255377Y0320704D02*
X0214823Y0320704D01*
X0214823Y0322302D02*
X0255377Y0322302D01*
X0255377Y0323901D02*
X0214823Y0323901D01*
X0202936Y0323901D02*
X0200438Y0323901D01*
X0200443Y0322302D02*
X0202936Y0322302D01*
X0195481Y0319105D02*
X0194719Y0319105D01*
X0194719Y0317507D02*
X0195481Y0317507D01*
X0195481Y0315908D02*
X0194719Y0315908D01*
X0203980Y0299923D02*
X0052302Y0299923D01*
X0050100Y0297600D02*
X0032600Y0297600D01*
X0033055Y0293529D02*
X0048813Y0293529D01*
X0049971Y0291931D02*
X0031947Y0291931D01*
X0012551Y0295128D02*
X0005000Y0295128D01*
X0005000Y0293529D02*
X0010952Y0293529D01*
X0010253Y0291931D02*
X0005000Y0291931D01*
X0005000Y0290332D02*
X0009850Y0290332D01*
X0009850Y0288734D02*
X0005000Y0288734D01*
X0005000Y0287135D02*
X0010309Y0287135D01*
X0011086Y0285537D02*
X0005000Y0285537D01*
X0005000Y0283938D02*
X0012685Y0283938D01*
X0027071Y0274347D02*
X0075129Y0274347D01*
X0072171Y0272748D02*
X0030029Y0272748D01*
X0028775Y0261559D02*
X0073425Y0261559D01*
X0052600Y0295100D02*
X0050100Y0297600D01*
X0055174Y0298325D02*
X0203980Y0298325D01*
X0213780Y0298325D02*
X0223799Y0298325D01*
X0225398Y0299923D02*
X0213780Y0299923D01*
X0213780Y0296726D02*
X0222201Y0296726D01*
X0227600Y0297600D02*
X0221100Y0291100D01*
X0221100Y0289600D01*
X0227860Y0239180D02*
X0274340Y0239180D01*
X0287860Y0239180D02*
X0311840Y0239180D01*
X0309345Y0240778D02*
X0290355Y0240778D01*
X0291577Y0242377D02*
X0308123Y0242377D01*
X0307461Y0243975D02*
X0292239Y0243975D01*
X0292350Y0245574D02*
X0307350Y0245574D01*
X0307439Y0247172D02*
X0292261Y0247172D01*
X0291599Y0248771D02*
X0308101Y0248771D01*
X0309292Y0250369D02*
X0290408Y0250369D01*
X0287986Y0251968D02*
X0311714Y0251968D01*
X0310925Y0261559D02*
X0288775Y0261559D01*
X0290029Y0272748D02*
X0309671Y0272748D01*
X0312629Y0274347D02*
X0287071Y0274347D01*
X0289515Y0283938D02*
X0310185Y0283938D01*
X0310309Y0283814D02*
X0312817Y0282775D01*
X0324383Y0282775D01*
X0326891Y0283814D01*
X0328811Y0285734D01*
X0329850Y0288242D01*
X0329850Y0290958D01*
X0328811Y0293466D01*
X0326891Y0295386D01*
X0324383Y0296425D01*
X0312817Y0296425D01*
X0310309Y0295386D01*
X0308389Y0293466D01*
X0307350Y0290958D01*
X0307350Y0288242D01*
X0308389Y0285734D01*
X0310309Y0283814D01*
X0308586Y0285537D02*
X0291114Y0285537D01*
X0291891Y0287135D02*
X0307809Y0287135D01*
X0307350Y0288734D02*
X0292350Y0288734D01*
X0292350Y0290332D02*
X0307350Y0290332D01*
X0307753Y0291931D02*
X0291947Y0291931D01*
X0291248Y0293529D02*
X0308452Y0293529D01*
X0310051Y0295128D02*
X0289649Y0295128D01*
X0327149Y0295128D02*
X0370051Y0295128D01*
X0368452Y0293529D02*
X0328748Y0293529D01*
X0329447Y0291931D02*
X0367753Y0291931D01*
X0367350Y0290332D02*
X0329850Y0290332D01*
X0329850Y0288734D02*
X0367350Y0288734D01*
X0367809Y0287135D02*
X0329391Y0287135D01*
X0328614Y0285537D02*
X0368586Y0285537D01*
X0370185Y0283938D02*
X0327015Y0283938D01*
X0324571Y0274347D02*
X0372629Y0274347D01*
X0369671Y0272748D02*
X0327529Y0272748D01*
X0346453Y0304719D02*
X0348747Y0304719D01*
X0347977Y0306317D02*
X0347223Y0306317D01*
X0347362Y0307916D02*
X0347838Y0307916D01*
X0348238Y0309514D02*
X0346962Y0309514D01*
X0345822Y0311113D02*
X0349378Y0311113D01*
X0349489Y0314310D02*
X0344490Y0314310D01*
X0345972Y0315908D02*
X0348007Y0315908D01*
X0347936Y0317507D02*
X0346043Y0317507D01*
X0346043Y0319105D02*
X0347936Y0319105D01*
X0347936Y0320704D02*
X0346043Y0320704D01*
X0346043Y0322302D02*
X0347936Y0322302D01*
X0347936Y0323901D02*
X0346043Y0323901D01*
X0213811Y0218399D02*
X0212924Y0218399D01*
X0125448Y0315908D02*
X0068265Y0315908D01*
X0068543Y0317507D02*
X0125377Y0317507D01*
X0125377Y0319105D02*
X0068543Y0319105D01*
X0068543Y0320704D02*
X0125377Y0320704D01*
X0125377Y0322302D02*
X0068543Y0322302D01*
X0068543Y0323901D02*
X0125377Y0323901D01*
X0056935Y0315908D02*
X0054486Y0315908D01*
X0054764Y0317507D02*
X0056657Y0317507D01*
X0056657Y0319105D02*
X0054764Y0319105D01*
X0054764Y0320704D02*
X0056657Y0320704D01*
X0056657Y0322302D02*
X0054764Y0322302D01*
X0054764Y0323901D02*
X0056657Y0323901D01*
X0056878Y0311113D02*
X0053322Y0311113D01*
X0054462Y0309514D02*
X0055738Y0309514D01*
X0055338Y0307916D02*
X0054862Y0307916D01*
X0054723Y0306317D02*
X0055477Y0306317D01*
X0056247Y0304719D02*
X0053953Y0304719D01*
X0051729Y0303120D02*
X0058471Y0303120D01*
X0012005Y0197618D02*
X0010800Y0197618D01*
X0010800Y0196020D02*
X0014726Y0196020D01*
X0021775Y0186825D02*
X0021775Y0181275D01*
X0031721Y0181275D01*
X0031597Y0182058D01*
X0031294Y0182990D01*
X0030849Y0183863D01*
X0030273Y0184655D01*
X0029580Y0185348D01*
X0028788Y0185924D01*
X0027915Y0186369D01*
X0026983Y0186672D01*
X0026015Y0186825D01*
X0021775Y0186825D01*
X0021775Y0186429D02*
X0020425Y0186429D01*
X0020425Y0184830D02*
X0021775Y0184830D01*
X0021775Y0183232D02*
X0020425Y0183232D01*
X0020425Y0181633D02*
X0021775Y0181633D01*
X0021775Y0180035D02*
X0032734Y0180035D01*
X0032185Y0181633D02*
X0031664Y0181633D01*
X0032132Y0183232D02*
X0031171Y0183232D01*
X0030098Y0184830D02*
X0032564Y0184830D01*
X0033651Y0186429D02*
X0027730Y0186429D01*
X0031367Y0178436D02*
X0033986Y0178436D01*
X0033211Y0176838D02*
X0030486Y0176838D01*
D25*
X0052600Y0295100D03*
X0210100Y0170100D03*
X0210100Y0155100D03*
X0202600Y0127600D03*
X0172600Y0132600D03*
X0202600Y0062600D03*
X0302600Y0155100D03*
X0260100Y0295100D03*
D26*
X0280600Y0279600D03*
X0280600Y0257600D03*
X0303600Y0233600D03*
X0282600Y0214600D03*
X0280600Y0190600D03*
X0269600Y0160600D03*
X0251600Y0139600D03*
X0263600Y0127600D03*
X0255600Y0119600D03*
X0249600Y0105600D03*
X0225600Y0128600D03*
X0209600Y0105600D03*
X0158600Y0130600D03*
X0140600Y0152600D03*
X0131600Y0128600D03*
X0130600Y0104600D03*
X0066600Y0140600D03*
X0061600Y0119600D03*
X0022600Y0138600D03*
X0019600Y0149600D03*
X0020600Y0191600D03*
X0079600Y0163600D03*
X0081600Y0191600D03*
X0084600Y0213600D03*
X0117600Y0213600D03*
X0120600Y0191600D03*
X0182600Y0190600D03*
X0183600Y0212600D03*
X0218600Y0213600D03*
X0220600Y0190600D03*
X0219600Y0256600D03*
X0221600Y0280600D03*
X0237600Y0281600D03*
X0239600Y0317600D03*
X0179600Y0278600D03*
X0162600Y0286600D03*
X0162600Y0318600D03*
X0098600Y0316600D03*
X0083600Y0317600D03*
X0080600Y0279600D03*
X0081600Y0256600D03*
X0104600Y0249600D03*
X0180600Y0256600D03*
X0318600Y0212600D03*
X0318600Y0192600D03*
X0376600Y0164600D03*
X0388600Y0148600D03*
X0389600Y0106600D03*
X0330600Y0089600D03*
X0314600Y0108600D03*
X0280600Y0106600D03*
X0357600Y0047600D03*
X0354600Y0020600D03*
X0378600Y0190600D03*
X0382600Y0214600D03*
X0379600Y0257600D03*
X0377600Y0280600D03*
X0378600Y0314600D03*
X0393600Y0316600D03*
X0059600Y0057600D03*
X0085600Y0028600D03*
X0098600Y0010600D03*
X0129600Y0026600D03*
X0031600Y0087600D03*
D27*
X0187600Y0107600D02*
X0190100Y0110100D01*
X0240100Y0110100D01*
X0267600Y0137600D01*
X0272600Y0137600D01*
X0282600Y0140600D01*
X0306600Y0093600D02*
X0212600Y0093600D01*
X0202600Y0087600D01*
X0202600Y0062600D01*
X0306600Y0093600D02*
X0342600Y0117600D01*
M02*
