G75*
%MOIN*%
%OFA0B0*%
%FSLAX25Y25*%
%IPPOS*%
%LPD*%
%AMOC8*
5,1,8,0,0,1.08239X$1,22.5*
%
%ADD10C,0.04724*%
%ADD11C,0.08500*%
%ADD12R,0.08500X0.08500*%
%ADD13C,0.03900*%
%ADD14R,0.03900X0.03900*%
%ADD15C,0.07400*%
%ADD16R,0.07087X0.07087*%
%ADD17C,0.08850*%
%ADD18R,0.03937X0.04331*%
%ADD19C,0.07600*%
%ADD20C,0.03400*%
%ADD21C,0.01600*%
%ADD22C,0.03200*%
%ADD23C,0.05000*%
%ADD24C,0.03762*%
%ADD25C,0.06000*%
%ADD26C,0.01000*%
%ADD27C,0.00600*%
D10*
X0107600Y0067600D03*
X0117600Y0067600D03*
X0041600Y0110600D03*
X0031600Y0110600D03*
X0077600Y0141600D03*
X0077600Y0151600D03*
X0027600Y0157600D03*
X0027600Y0167600D03*
X0132600Y0162600D03*
X0132600Y0152600D03*
X0177600Y0147600D03*
X0177600Y0157600D03*
X0227600Y0162600D03*
X0237600Y0162600D03*
X0272600Y0151600D03*
X0272600Y0141600D03*
X0326100Y0153600D03*
X0326100Y0163600D03*
X0332600Y0127600D03*
X0332600Y0117600D03*
X0342600Y0307600D03*
X0352600Y0307600D03*
X0267600Y0307600D03*
X0257600Y0307600D03*
X0147600Y0307600D03*
X0137600Y0307600D03*
X0060100Y0307600D03*
X0050100Y0307600D03*
D11*
X0060100Y0102600D03*
X0050100Y0045100D03*
X0117600Y0042600D03*
D12*
X0098309Y0042600D03*
X0069391Y0045100D03*
X0060100Y0083309D03*
D13*
X0099100Y0102600D03*
X0051600Y0152600D03*
X0149100Y0150600D03*
X0232600Y0146100D03*
X0250100Y0154600D03*
X0294100Y0101600D03*
X0354100Y0077600D03*
X0349100Y0157600D03*
D14*
X0356100Y0157600D03*
X0301100Y0101600D03*
X0361100Y0077600D03*
X0257100Y0154600D03*
X0232600Y0139100D03*
X0156100Y0150600D03*
X0106100Y0102600D03*
X0058600Y0152600D03*
D15*
X0067600Y0172600D03*
X0067600Y0182600D03*
X0067600Y0192600D03*
X0067600Y0202600D03*
X0052600Y0217600D03*
X0042600Y0217600D03*
X0037600Y0202600D03*
X0037600Y0192600D03*
X0037600Y0182600D03*
X0037600Y0172600D03*
X0087600Y0150600D03*
X0087600Y0140600D03*
X0087600Y0130600D03*
X0087600Y0120600D03*
X0117600Y0120600D03*
X0117600Y0130600D03*
X0117600Y0140600D03*
X0117600Y0150600D03*
X0102600Y0167600D03*
X0092600Y0167600D03*
X0137600Y0172600D03*
X0137600Y0182600D03*
X0137600Y0192600D03*
X0137600Y0202600D03*
X0142600Y0220600D03*
X0152600Y0220600D03*
X0167600Y0202600D03*
X0167600Y0192600D03*
X0167600Y0182600D03*
X0167600Y0172600D03*
X0187600Y0170600D03*
X0197600Y0170600D03*
X0187600Y0157600D03*
X0187600Y0147600D03*
X0187600Y0137600D03*
X0187600Y0127600D03*
X0217600Y0127600D03*
X0217600Y0137600D03*
X0217600Y0147600D03*
X0217600Y0157600D03*
X0237600Y0172600D03*
X0237600Y0182600D03*
X0237600Y0192600D03*
X0237600Y0202600D03*
X0243600Y0217600D03*
X0253600Y0217600D03*
X0267600Y0202600D03*
X0267600Y0192600D03*
X0267600Y0182600D03*
X0267600Y0172600D03*
X0282600Y0167600D03*
X0292600Y0167600D03*
X0282600Y0150600D03*
X0282600Y0140600D03*
X0282600Y0130600D03*
X0282600Y0120600D03*
X0312600Y0120600D03*
X0312600Y0130600D03*
X0312600Y0140600D03*
X0312600Y0150600D03*
X0335100Y0172600D03*
X0335100Y0182600D03*
X0335100Y0192600D03*
X0335100Y0202600D03*
X0340100Y0212600D03*
X0350100Y0212600D03*
X0365100Y0202600D03*
X0365100Y0192600D03*
X0365100Y0182600D03*
X0365100Y0172600D03*
X0352600Y0142600D03*
X0342600Y0142600D03*
X0342600Y0127600D03*
X0342600Y0117600D03*
X0342600Y0107600D03*
X0342600Y0097600D03*
X0372600Y0097600D03*
X0372600Y0107600D03*
X0372600Y0117600D03*
X0372600Y0127600D03*
X0288600Y0077600D03*
X0288600Y0067600D03*
X0288600Y0057600D03*
X0277600Y0057600D03*
X0277600Y0047600D03*
X0277600Y0037600D03*
X0277600Y0027600D03*
X0277600Y0017600D03*
X0247600Y0017600D03*
X0247600Y0027600D03*
X0247600Y0037600D03*
X0247600Y0047600D03*
X0247600Y0057600D03*
X0247600Y0067600D03*
X0247600Y0077600D03*
X0247600Y0087600D03*
X0227600Y0087600D03*
X0227600Y0077600D03*
X0227600Y0067600D03*
X0277600Y0067600D03*
X0277600Y0077600D03*
X0277600Y0087600D03*
X0207600Y0017600D03*
X0197600Y0017600D03*
X0187600Y0017600D03*
X0162600Y0017600D03*
X0152600Y0017600D03*
X0142600Y0017600D03*
X0117600Y0077600D03*
X0107600Y0077600D03*
X0097600Y0077600D03*
X0041600Y0064600D03*
X0031600Y0064600D03*
X0021600Y0064600D03*
X0012600Y0042600D03*
X0012600Y0032600D03*
X0012600Y0022600D03*
X0039600Y0013600D03*
X0049600Y0013600D03*
X0059600Y0013600D03*
X0041600Y0120600D03*
X0031600Y0120600D03*
X0021600Y0120600D03*
D16*
X0048820Y0320600D03*
X0062600Y0320600D03*
X0131320Y0320100D03*
X0145100Y0320100D03*
X0195100Y0320100D03*
X0208880Y0320100D03*
X0261320Y0320100D03*
X0275100Y0320100D03*
X0340100Y0320100D03*
X0353880Y0320100D03*
D17*
X0374175Y0289600D02*
X0383025Y0289600D01*
X0383025Y0267600D02*
X0374175Y0267600D01*
X0374175Y0245600D02*
X0383025Y0245600D01*
X0383025Y0224600D02*
X0374175Y0224600D01*
X0374175Y0202600D02*
X0383025Y0202600D01*
X0383025Y0180600D02*
X0374175Y0180600D01*
X0323025Y0180600D02*
X0314175Y0180600D01*
X0314175Y0202600D02*
X0323025Y0202600D01*
X0323025Y0224600D02*
X0314175Y0224600D01*
X0314175Y0245600D02*
X0323025Y0245600D01*
X0323025Y0267600D02*
X0314175Y0267600D01*
X0314175Y0289600D02*
X0323025Y0289600D01*
X0285525Y0289600D02*
X0276675Y0289600D01*
X0276675Y0267600D02*
X0285525Y0267600D01*
X0285525Y0245600D02*
X0276675Y0245600D01*
X0276675Y0224600D02*
X0285525Y0224600D01*
X0285525Y0202600D02*
X0276675Y0202600D01*
X0276675Y0180600D02*
X0285525Y0180600D01*
X0225525Y0180600D02*
X0216675Y0180600D01*
X0216675Y0202600D02*
X0225525Y0202600D01*
X0225525Y0224600D02*
X0216675Y0224600D01*
X0216675Y0245600D02*
X0225525Y0245600D01*
X0225525Y0267600D02*
X0216675Y0267600D01*
X0216675Y0289600D02*
X0225525Y0289600D01*
X0185525Y0289600D02*
X0176675Y0289600D01*
X0176675Y0267600D02*
X0185525Y0267600D01*
X0185525Y0245600D02*
X0176675Y0245600D01*
X0176675Y0224600D02*
X0185525Y0224600D01*
X0185525Y0202600D02*
X0176675Y0202600D01*
X0176675Y0180600D02*
X0185525Y0180600D01*
X0125525Y0180600D02*
X0116675Y0180600D01*
X0116675Y0202600D02*
X0125525Y0202600D01*
X0125525Y0224600D02*
X0116675Y0224600D01*
X0116675Y0245600D02*
X0125525Y0245600D01*
X0125525Y0267600D02*
X0116675Y0267600D01*
X0116675Y0289600D02*
X0125525Y0289600D01*
X0085525Y0289600D02*
X0076675Y0289600D01*
X0076675Y0267600D02*
X0085525Y0267600D01*
X0085525Y0245600D02*
X0076675Y0245600D01*
X0076675Y0224600D02*
X0085525Y0224600D01*
X0085525Y0202600D02*
X0076675Y0202600D01*
X0076675Y0180600D02*
X0085525Y0180600D01*
X0025525Y0180600D02*
X0016675Y0180600D01*
X0016675Y0202600D02*
X0025525Y0202600D01*
X0025525Y0224600D02*
X0016675Y0224600D01*
X0016675Y0245600D02*
X0025525Y0245600D01*
X0025525Y0267600D02*
X0016675Y0267600D01*
X0016675Y0289600D02*
X0025525Y0289600D01*
D18*
X0052600Y0288446D03*
X0052600Y0281754D03*
X0097600Y0279254D03*
X0097600Y0285946D03*
X0137600Y0285946D03*
X0137600Y0279254D03*
X0197600Y0284254D03*
X0197600Y0290946D03*
X0260100Y0285946D03*
X0260100Y0279254D03*
X0297600Y0284254D03*
X0297600Y0290946D03*
X0335100Y0288446D03*
X0335100Y0281754D03*
X0395100Y0281754D03*
X0395100Y0288446D03*
X0172600Y0095946D03*
X0172600Y0089254D03*
X0172600Y0075946D03*
X0172600Y0069254D03*
D19*
X0157600Y0067600D03*
X0157600Y0057600D03*
X0157600Y0047600D03*
X0157600Y0077600D03*
X0157600Y0087600D03*
X0157600Y0097600D03*
X0157600Y0107600D03*
X0187600Y0107600D03*
X0187600Y0097600D03*
X0187600Y0087600D03*
X0187600Y0077600D03*
X0187600Y0067600D03*
X0187600Y0057600D03*
X0187600Y0047600D03*
X0317600Y0042600D03*
X0327600Y0042600D03*
X0327600Y0032600D03*
X0317600Y0032600D03*
X0317600Y0022600D03*
X0327600Y0022600D03*
X0327600Y0052600D03*
X0317600Y0052600D03*
X0317600Y0062600D03*
X0327600Y0062600D03*
D20*
X0302600Y0155100D03*
X0210100Y0155100D03*
X0210100Y0170100D03*
X0172600Y0132600D03*
X0202600Y0127600D03*
X0202600Y0062600D03*
X0260100Y0295100D03*
X0052600Y0295100D03*
D21*
X0052600Y0288446D01*
X0052600Y0281754D02*
X0052600Y0227600D01*
X0060100Y0220100D01*
X0060100Y0197600D01*
X0065100Y0192600D01*
X0067600Y0192600D01*
X0045100Y0185100D02*
X0037600Y0192600D01*
X0045100Y0185100D02*
X0046023Y0143565D01*
X0047988Y0141600D01*
X0052600Y0141600D01*
X0067600Y0126600D01*
X0067600Y0082600D01*
X0092600Y0057600D01*
X0147600Y0057600D01*
X0157600Y0047600D01*
X0157600Y0067600D02*
X0170946Y0067600D01*
X0172600Y0069254D01*
X0174254Y0067600D01*
X0187600Y0067600D01*
X0190100Y0067600D01*
X0195100Y0070100D01*
X0195100Y0082600D01*
X0187600Y0087600D01*
X0185946Y0089254D01*
X0172600Y0089254D01*
X0159254Y0089254D01*
X0157600Y0087600D01*
X0152600Y0092600D02*
X0137600Y0077600D01*
X0117600Y0077600D01*
X0099100Y0102600D02*
X0100100Y0113600D01*
X0100100Y0140100D01*
X0109600Y0149600D01*
X0116600Y0149600D01*
X0117600Y0150600D01*
X0107600Y0167600D01*
X0102600Y0167600D01*
X0097600Y0187600D02*
X0097600Y0279254D01*
X0097600Y0285946D02*
X0097600Y0287600D01*
X0095100Y0290100D01*
X0081600Y0290100D01*
X0081100Y0289600D01*
X0121100Y0289600D02*
X0121600Y0290100D01*
X0135100Y0290100D01*
X0137600Y0287600D01*
X0137600Y0285946D01*
X0137600Y0279254D02*
X0137600Y0252600D01*
X0160100Y0230100D01*
X0160100Y0200100D01*
X0167600Y0192600D01*
X0197600Y0170600D02*
X0207600Y0167600D01*
X0217600Y0157600D01*
X0221100Y0157600D01*
X0232600Y0146100D01*
X0217600Y0147600D02*
X0210100Y0155100D01*
X0202600Y0152600D02*
X0197600Y0157600D01*
X0187600Y0157600D01*
X0172600Y0157600D02*
X0137600Y0192600D01*
X0127600Y0157600D02*
X0097600Y0187600D01*
X0127600Y0157600D02*
X0127600Y0152600D01*
X0122600Y0147600D01*
X0117600Y0140600D01*
X0162600Y0097600D02*
X0167600Y0102600D01*
X0175100Y0102600D01*
X0172600Y0095946D02*
X0169254Y0092600D01*
X0162600Y0097600D02*
X0157600Y0097600D01*
X0182600Y0120100D02*
X0172600Y0132600D01*
X0172600Y0157600D01*
X0200100Y0180100D02*
X0200100Y0281754D01*
X0197600Y0284254D01*
X0197600Y0290946D02*
X0182446Y0290946D01*
X0181100Y0289600D01*
X0260100Y0285946D02*
X0260100Y0295100D01*
X0260100Y0279254D02*
X0260100Y0197600D01*
X0265100Y0192600D01*
X0267600Y0192600D01*
X0245100Y0185100D02*
X0245100Y0162600D01*
X0242600Y0160100D01*
X0242600Y0127600D01*
X0227600Y0120100D01*
X0182600Y0120100D01*
X0202600Y0127600D02*
X0202600Y0152600D01*
X0210100Y0170100D02*
X0200100Y0180100D01*
X0237600Y0192600D02*
X0245100Y0185100D01*
X0282600Y0167600D02*
X0282600Y0166600D01*
X0294600Y0154600D01*
X0302100Y0154600D01*
X0302600Y0155100D01*
X0312600Y0150600D02*
X0302600Y0167600D01*
X0292600Y0167600D01*
X0297600Y0182600D02*
X0297600Y0284254D01*
X0297600Y0290946D02*
X0282446Y0290946D01*
X0281100Y0289600D01*
X0318600Y0289600D02*
X0321600Y0292600D01*
X0332600Y0292600D01*
X0335100Y0290100D01*
X0335100Y0288446D01*
X0335100Y0281754D02*
X0335100Y0240100D01*
X0357600Y0217600D01*
X0357600Y0200100D01*
X0365100Y0192600D01*
X0320100Y0160100D02*
X0321100Y0154100D01*
X0312600Y0140600D01*
X0320100Y0160100D02*
X0297600Y0182600D01*
X0352600Y0142600D02*
X0362600Y0142600D01*
X0372600Y0127600D01*
X0372600Y0117600D02*
X0382600Y0122600D01*
X0397600Y0137600D01*
X0397600Y0279254D01*
X0395100Y0281754D01*
X0395100Y0288446D02*
X0395100Y0290100D01*
X0392600Y0292600D01*
X0381600Y0292600D01*
X0378600Y0289600D01*
X0252600Y0097600D02*
X0187600Y0097600D01*
X0192600Y0092600D02*
X0197600Y0087600D01*
X0197600Y0082600D01*
X0232600Y0047600D01*
X0247600Y0047600D01*
X0262600Y0042600D02*
X0272600Y0037600D01*
X0277600Y0037600D01*
X0262600Y0042600D02*
X0262600Y0082600D01*
X0252600Y0097600D01*
X0190100Y0057600D02*
X0187600Y0057600D01*
X0190100Y0057600D02*
X0222600Y0025100D01*
X0242600Y0025100D01*
X0245100Y0022600D01*
X0272600Y0022600D02*
X0277600Y0017600D01*
X0315100Y0010100D02*
X0205100Y0010100D01*
X0197600Y0017600D01*
X0187600Y0017600D02*
X0197600Y0007600D01*
X0327600Y0007600D01*
X0337600Y0017600D01*
X0337600Y0022600D01*
X0327600Y0032600D01*
X0327600Y0022600D02*
X0315100Y0010100D01*
D22*
X0005800Y0005800D02*
X0005800Y0030986D01*
X0006750Y0028691D01*
X0008266Y0027176D01*
X0007795Y0026704D01*
X0007212Y0025902D01*
X0006762Y0025018D01*
X0006455Y0024075D01*
X0006300Y0023096D01*
X0006300Y0022600D01*
X0012600Y0022600D01*
X0049391Y0022600D01*
X0048227Y0020500D02*
X0050972Y0020500D01*
X0053509Y0019450D01*
X0055024Y0017934D01*
X0055496Y0018405D01*
X0056298Y0018988D01*
X0057182Y0019438D01*
X0058125Y0019745D01*
X0059104Y0019900D01*
X0059600Y0019900D01*
X0059600Y0013600D01*
X0059600Y0013600D01*
X0065900Y0013600D01*
X0065900Y0014096D01*
X0065745Y0015075D01*
X0065438Y0016018D01*
X0064988Y0016902D01*
X0064405Y0017704D01*
X0063704Y0018405D01*
X0062902Y0018988D01*
X0062018Y0019438D01*
X0061075Y0019745D01*
X0060096Y0019900D01*
X0059600Y0019900D01*
X0059600Y0013600D01*
X0059600Y0013600D01*
X0065900Y0013600D01*
X0065900Y0013104D01*
X0065745Y0012125D01*
X0065438Y0011182D01*
X0064988Y0010298D01*
X0064405Y0009496D01*
X0063704Y0008795D01*
X0062902Y0008212D01*
X0062018Y0007762D01*
X0061075Y0007455D01*
X0060096Y0007300D01*
X0059600Y0007300D01*
X0059600Y0013600D01*
X0059600Y0013600D01*
X0059600Y0007300D01*
X0059104Y0007300D01*
X0058125Y0007455D01*
X0057182Y0007762D01*
X0056298Y0008212D01*
X0055496Y0008795D01*
X0055024Y0009266D01*
X0053509Y0007750D01*
X0050972Y0006700D01*
X0048227Y0006700D01*
X0045691Y0007750D01*
X0044600Y0008842D01*
X0043509Y0007750D01*
X0040972Y0006700D01*
X0038227Y0006700D01*
X0035691Y0007750D01*
X0033750Y0009691D01*
X0032700Y0012227D01*
X0032700Y0014972D01*
X0033750Y0017509D01*
X0035691Y0019450D01*
X0038227Y0020500D01*
X0040972Y0020500D01*
X0043509Y0019450D01*
X0044600Y0018358D01*
X0045691Y0019450D01*
X0048227Y0020500D01*
X0044834Y0018593D02*
X0044366Y0018593D01*
X0034834Y0018593D02*
X0017476Y0018593D01*
X0017405Y0018496D02*
X0017988Y0019298D01*
X0018438Y0020182D01*
X0018745Y0021125D01*
X0018900Y0022104D01*
X0018900Y0022600D01*
X0018900Y0023096D01*
X0018745Y0024075D01*
X0018438Y0025018D01*
X0017988Y0025902D01*
X0017405Y0026704D01*
X0016934Y0027176D01*
X0018450Y0028691D01*
X0019500Y0031227D01*
X0019500Y0033972D01*
X0018450Y0036509D01*
X0017358Y0037600D01*
X0018450Y0038691D01*
X0019500Y0041227D01*
X0019500Y0043972D01*
X0018450Y0046509D01*
X0016509Y0048450D01*
X0013972Y0049500D01*
X0011227Y0049500D01*
X0008691Y0048450D01*
X0006750Y0046509D01*
X0005800Y0044214D01*
X0005800Y0116339D01*
X0006371Y0115768D01*
X0006410Y0115752D01*
X0006440Y0115723D01*
X0007455Y0115319D01*
X0008466Y0114900D01*
X0008508Y0114900D01*
X0008547Y0114885D01*
X0009640Y0114900D01*
X0015900Y0114900D01*
X0015900Y0068658D01*
X0015750Y0068509D01*
X0014700Y0065972D01*
X0014700Y0063227D01*
X0015750Y0060691D01*
X0017691Y0058750D01*
X0020227Y0057700D01*
X0022972Y0057700D01*
X0025509Y0058750D01*
X0027024Y0060266D01*
X0027496Y0059795D01*
X0028298Y0059212D01*
X0029182Y0058762D01*
X0030125Y0058455D01*
X0031104Y0058300D01*
X0031600Y0058300D01*
X0032096Y0058300D01*
X0033075Y0058455D01*
X0034018Y0058762D01*
X0034902Y0059212D01*
X0035704Y0059795D01*
X0036176Y0060266D01*
X0037691Y0058750D01*
X0040227Y0057700D01*
X0042972Y0057700D01*
X0045509Y0058750D01*
X0047450Y0060691D01*
X0048500Y0063227D01*
X0048500Y0065972D01*
X0047450Y0068509D01*
X0045509Y0070450D01*
X0042972Y0071500D01*
X0040227Y0071500D01*
X0037691Y0070450D01*
X0036176Y0068934D01*
X0035704Y0069405D01*
X0034902Y0069988D01*
X0034018Y0070438D01*
X0033075Y0070745D01*
X0032096Y0070900D01*
X0031600Y0070900D01*
X0031600Y0064600D01*
X0031600Y0064600D01*
X0031600Y0070900D01*
X0031104Y0070900D01*
X0030125Y0070745D01*
X0029182Y0070438D01*
X0028298Y0069988D01*
X0027496Y0069405D01*
X0027300Y0069210D01*
X0027300Y0108109D01*
X0027356Y0107999D01*
X0027815Y0107367D01*
X0028367Y0106815D01*
X0028999Y0106356D01*
X0029695Y0106001D01*
X0030438Y0105760D01*
X0031209Y0105638D01*
X0031600Y0105638D01*
X0031991Y0105638D01*
X0032762Y0105760D01*
X0033505Y0106001D01*
X0034201Y0106356D01*
X0034833Y0106815D01*
X0035385Y0107367D01*
X0035844Y0107999D01*
X0036199Y0108695D01*
X0036273Y0108925D01*
X0036885Y0107449D01*
X0038449Y0105885D01*
X0040494Y0105038D01*
X0042706Y0105038D01*
X0044751Y0105885D01*
X0046315Y0107449D01*
X0047162Y0109494D01*
X0047162Y0111706D01*
X0046315Y0113751D01*
X0045372Y0114694D01*
X0045509Y0114750D01*
X0047450Y0116691D01*
X0048500Y0119227D01*
X0048500Y0121972D01*
X0047450Y0124509D01*
X0045509Y0126450D01*
X0042972Y0127500D01*
X0040227Y0127500D01*
X0037691Y0126450D01*
X0036176Y0124934D01*
X0035704Y0125405D01*
X0034902Y0125988D01*
X0034018Y0126438D01*
X0033075Y0126745D01*
X0032096Y0126900D01*
X0031600Y0126900D01*
X0031600Y0120600D01*
X0031600Y0120600D01*
X0031600Y0126900D01*
X0031104Y0126900D01*
X0030125Y0126745D01*
X0029182Y0126438D01*
X0028298Y0125988D01*
X0027496Y0125405D01*
X0027024Y0124934D01*
X0025509Y0126450D01*
X0022972Y0127500D01*
X0020227Y0127500D01*
X0017691Y0126450D01*
X0017542Y0126300D01*
X0015220Y0126300D01*
X0014550Y0173897D01*
X0015302Y0173695D01*
X0016215Y0173575D01*
X0021100Y0173575D01*
X0025985Y0173575D01*
X0026898Y0173695D01*
X0027788Y0173934D01*
X0028639Y0174286D01*
X0029436Y0174746D01*
X0030167Y0175307D01*
X0030818Y0175958D01*
X0031379Y0176689D01*
X0031839Y0177486D01*
X0032191Y0178337D01*
X0032385Y0179060D01*
X0032795Y0178496D01*
X0033266Y0178024D01*
X0031750Y0176509D01*
X0030700Y0173972D01*
X0030700Y0171481D01*
X0030201Y0171844D01*
X0029505Y0172199D01*
X0028762Y0172440D01*
X0027991Y0172562D01*
X0027600Y0172562D01*
X0027600Y0167600D01*
X0032562Y0167600D01*
X0032562Y0167880D01*
X0033691Y0166750D01*
X0036227Y0165700D01*
X0038972Y0165700D01*
X0041507Y0166750D01*
X0042023Y0143521D01*
X0042023Y0142769D01*
X0042041Y0142727D01*
X0042042Y0142681D01*
X0042344Y0141993D01*
X0042632Y0141299D01*
X0042665Y0141267D01*
X0042683Y0141224D01*
X0043226Y0140705D01*
X0045722Y0138209D01*
X0047192Y0137600D01*
X0050943Y0137600D01*
X0063600Y0124943D01*
X0063600Y0109214D01*
X0061582Y0110050D01*
X0058618Y0110050D01*
X0055880Y0108916D01*
X0053784Y0106820D01*
X0052650Y0104082D01*
X0052650Y0101118D01*
X0053784Y0098380D01*
X0055880Y0096284D01*
X0058618Y0095150D01*
X0061582Y0095150D01*
X0063600Y0095986D01*
X0063600Y0090159D01*
X0060100Y0090159D01*
X0055594Y0090159D01*
X0055092Y0090059D01*
X0054618Y0089863D01*
X0054193Y0089578D01*
X0053830Y0089216D01*
X0053546Y0088790D01*
X0053350Y0088317D01*
X0053250Y0087815D01*
X0053250Y0083309D01*
X0060100Y0083309D01*
X0060100Y0090159D01*
X0060100Y0083309D01*
X0060100Y0083309D01*
X0060100Y0083309D01*
X0053250Y0083309D01*
X0053250Y0078803D01*
X0053350Y0078300D01*
X0053546Y0077827D01*
X0053830Y0077401D01*
X0054193Y0077039D01*
X0054618Y0076755D01*
X0055092Y0076559D01*
X0055594Y0076459D01*
X0060100Y0076459D01*
X0064606Y0076459D01*
X0065108Y0076559D01*
X0065582Y0076755D01*
X0066007Y0077039D01*
X0066370Y0077401D01*
X0066654Y0077827D01*
X0066672Y0077871D01*
X0090334Y0054209D01*
X0091804Y0053600D01*
X0145943Y0053600D01*
X0150600Y0048943D01*
X0150600Y0046208D01*
X0151666Y0043635D01*
X0153635Y0041666D01*
X0156208Y0040600D01*
X0158992Y0040600D01*
X0161565Y0041666D01*
X0163534Y0043635D01*
X0163816Y0044315D01*
X0164583Y0044633D01*
X0179050Y0059100D01*
X0180645Y0059100D01*
X0180600Y0058992D01*
X0180600Y0056208D01*
X0181666Y0053635D01*
X0182701Y0052600D01*
X0181666Y0051565D01*
X0180600Y0048992D01*
X0180600Y0046208D01*
X0181666Y0043635D01*
X0183635Y0041666D01*
X0186208Y0040600D01*
X0188992Y0040600D01*
X0191565Y0041666D01*
X0193534Y0043635D01*
X0194600Y0046208D01*
X0194600Y0047443D01*
X0220334Y0021709D01*
X0221804Y0021100D01*
X0240943Y0021100D01*
X0241850Y0020193D01*
X0241762Y0020018D01*
X0241455Y0019075D01*
X0241300Y0018096D01*
X0241300Y0017600D01*
X0247600Y0017600D01*
X0253900Y0017600D01*
X0253900Y0018096D01*
X0253773Y0018900D01*
X0270643Y0018900D01*
X0270700Y0018843D01*
X0270700Y0016227D01*
X0271581Y0014100D01*
X0252844Y0014100D01*
X0252988Y0014298D01*
X0253438Y0015182D01*
X0253745Y0016125D01*
X0253900Y0017104D01*
X0253900Y0017600D01*
X0247600Y0017600D01*
X0247600Y0017600D01*
X0247600Y0017600D01*
X0241300Y0017600D01*
X0241300Y0017104D01*
X0241455Y0016125D01*
X0241762Y0015182D01*
X0242212Y0014298D01*
X0242356Y0014100D01*
X0212844Y0014100D01*
X0212988Y0014298D01*
X0213438Y0015182D01*
X0213745Y0016125D01*
X0213900Y0017104D01*
X0213900Y0017600D01*
X0213900Y0018096D01*
X0213745Y0019075D01*
X0213438Y0020018D01*
X0212988Y0020902D01*
X0212405Y0021704D01*
X0211704Y0022405D01*
X0210902Y0022988D01*
X0210018Y0023438D01*
X0209075Y0023745D01*
X0208096Y0023900D01*
X0207600Y0023900D01*
X0207600Y0017600D01*
X0207600Y0017600D01*
X0213900Y0017600D01*
X0207600Y0017600D01*
X0207600Y0017600D01*
X0207600Y0023900D01*
X0207104Y0023900D01*
X0206125Y0023745D01*
X0205182Y0023438D01*
X0204298Y0022988D01*
X0203496Y0022405D01*
X0203024Y0021934D01*
X0201509Y0023450D01*
X0198972Y0024500D01*
X0196227Y0024500D01*
X0193691Y0023450D01*
X0192600Y0022358D01*
X0191509Y0023450D01*
X0188972Y0024500D01*
X0186227Y0024500D01*
X0183691Y0023450D01*
X0181750Y0021509D01*
X0180700Y0018972D01*
X0180700Y0016227D01*
X0181750Y0013691D01*
X0183691Y0011750D01*
X0186227Y0010700D01*
X0188843Y0010700D01*
X0193743Y0005800D01*
X0005800Y0005800D01*
X0005800Y0008997D02*
X0034445Y0008997D01*
X0032713Y0012196D02*
X0005800Y0012196D01*
X0005800Y0015394D02*
X0032875Y0015394D01*
X0018850Y0021791D02*
X0137882Y0021791D01*
X0137795Y0021704D02*
X0137212Y0020902D01*
X0136762Y0020018D01*
X0136455Y0019075D01*
X0136300Y0018096D01*
X0136300Y0017600D01*
X0142600Y0017600D01*
X0142600Y0017600D01*
X0142600Y0023900D01*
X0143096Y0023900D01*
X0144075Y0023745D01*
X0145018Y0023438D01*
X0145902Y0022988D01*
X0146704Y0022405D01*
X0147176Y0021934D01*
X0148691Y0023450D01*
X0151227Y0024500D01*
X0153972Y0024500D01*
X0156509Y0023450D01*
X0157600Y0022358D01*
X0158691Y0023450D01*
X0161227Y0024500D01*
X0163972Y0024500D01*
X0166509Y0023450D01*
X0168450Y0021509D01*
X0169500Y0018972D01*
X0169500Y0016227D01*
X0168450Y0013691D01*
X0166509Y0011750D01*
X0163972Y0010700D01*
X0161227Y0010700D01*
X0158691Y0011750D01*
X0157600Y0012842D01*
X0156509Y0011750D01*
X0153972Y0010700D01*
X0151227Y0010700D01*
X0148691Y0011750D01*
X0147176Y0013266D01*
X0146704Y0012795D01*
X0145902Y0012212D01*
X0145018Y0011762D01*
X0144075Y0011455D01*
X0143096Y0011300D01*
X0142600Y0011300D01*
X0142600Y0017600D01*
X0142600Y0017600D01*
X0142600Y0023900D01*
X0142104Y0023900D01*
X0141125Y0023745D01*
X0140182Y0023438D01*
X0139298Y0022988D01*
X0138496Y0022405D01*
X0137795Y0021704D01*
X0136379Y0018593D02*
X0063447Y0018593D01*
X0059600Y0018593D02*
X0059600Y0018593D01*
X0059600Y0015394D02*
X0059600Y0015394D01*
X0059600Y0012196D02*
X0059600Y0012196D01*
X0059600Y0008997D02*
X0059600Y0008997D01*
X0063907Y0008997D02*
X0190546Y0008997D01*
X0183246Y0012196D02*
X0166954Y0012196D01*
X0169155Y0015394D02*
X0181045Y0015394D01*
X0180700Y0018593D02*
X0169500Y0018593D01*
X0168167Y0021791D02*
X0182033Y0021791D01*
X0158246Y0012196D02*
X0156954Y0012196D01*
X0148246Y0012196D02*
X0145870Y0012196D01*
X0142600Y0012196D02*
X0142600Y0012196D01*
X0142600Y0011300D02*
X0142600Y0017600D01*
X0142600Y0017600D01*
X0136300Y0017600D01*
X0136300Y0017104D01*
X0136455Y0016125D01*
X0136762Y0015182D01*
X0137212Y0014298D01*
X0137795Y0013496D01*
X0138496Y0012795D01*
X0139298Y0012212D01*
X0140182Y0011762D01*
X0141125Y0011455D01*
X0142104Y0011300D01*
X0142600Y0011300D01*
X0139330Y0012196D02*
X0065756Y0012196D01*
X0065641Y0015394D02*
X0136693Y0015394D01*
X0142600Y0015394D02*
X0142600Y0015394D01*
X0142600Y0018593D02*
X0142600Y0018593D01*
X0142600Y0021791D02*
X0142600Y0021791D01*
X0123916Y0038380D02*
X0125050Y0041118D01*
X0125050Y0044082D01*
X0123916Y0046820D01*
X0121820Y0048916D01*
X0119082Y0050050D01*
X0116118Y0050050D01*
X0113380Y0048916D01*
X0111284Y0046820D01*
X0110150Y0044082D01*
X0110150Y0041118D01*
X0111284Y0038380D01*
X0113380Y0036284D01*
X0116118Y0035150D01*
X0119082Y0035150D01*
X0121820Y0036284D01*
X0123916Y0038380D01*
X0123320Y0037784D02*
X0204260Y0037784D01*
X0207458Y0034585D02*
X0019246Y0034585D01*
X0019500Y0031387D02*
X0210657Y0031387D01*
X0213855Y0028188D02*
X0017946Y0028188D01*
X0018448Y0024990D02*
X0217054Y0024990D01*
X0220252Y0021791D02*
X0212318Y0021791D01*
X0213821Y0018593D02*
X0241379Y0018593D01*
X0241693Y0015394D02*
X0213507Y0015394D01*
X0207600Y0018593D02*
X0207600Y0018593D01*
X0207600Y0021791D02*
X0207600Y0021791D01*
X0201061Y0040982D02*
X0189915Y0040982D01*
X0185285Y0040982D02*
X0159915Y0040982D01*
X0155285Y0040982D02*
X0124994Y0040982D01*
X0125009Y0044181D02*
X0151440Y0044181D01*
X0150600Y0047379D02*
X0123357Y0047379D01*
X0111843Y0047379D02*
X0105104Y0047379D01*
X0105059Y0047608D02*
X0105159Y0047106D01*
X0105159Y0042600D01*
X0098309Y0042600D01*
X0098309Y0042600D01*
X0105159Y0042600D01*
X0105159Y0038094D01*
X0105059Y0037592D01*
X0104863Y0037118D01*
X0104578Y0036693D01*
X0104216Y0036330D01*
X0103790Y0036046D01*
X0103317Y0035850D01*
X0102815Y0035750D01*
X0098309Y0035750D01*
X0098309Y0042600D01*
X0098309Y0042600D01*
X0098309Y0049450D01*
X0102815Y0049450D01*
X0103317Y0049350D01*
X0103790Y0049154D01*
X0104216Y0048870D01*
X0104578Y0048507D01*
X0104863Y0048082D01*
X0105059Y0047608D01*
X0105159Y0044181D02*
X0110191Y0044181D01*
X0110206Y0040982D02*
X0105159Y0040982D01*
X0105097Y0037784D02*
X0111880Y0037784D01*
X0098309Y0037784D02*
X0098309Y0037784D01*
X0098309Y0035750D02*
X0093803Y0035750D01*
X0093300Y0035850D01*
X0092827Y0036046D01*
X0092401Y0036330D01*
X0092039Y0036693D01*
X0091755Y0037118D01*
X0091559Y0037592D01*
X0091459Y0038094D01*
X0091459Y0042600D01*
X0098309Y0042600D01*
X0098309Y0042600D01*
X0098309Y0049450D01*
X0093803Y0049450D01*
X0093300Y0049350D01*
X0092827Y0049154D01*
X0092401Y0048870D01*
X0092039Y0048507D01*
X0091755Y0048082D01*
X0091559Y0047608D01*
X0091459Y0047106D01*
X0091459Y0042600D01*
X0098309Y0042600D01*
X0098309Y0035750D01*
X0098309Y0040982D02*
X0098309Y0040982D01*
X0098309Y0042600D02*
X0098309Y0042600D01*
X0098309Y0044181D02*
X0098309Y0044181D01*
X0098309Y0047379D02*
X0098309Y0047379D01*
X0091513Y0047379D02*
X0076241Y0047379D01*
X0076241Y0049606D02*
X0076241Y0045100D01*
X0069391Y0045100D01*
X0069391Y0045100D01*
X0062541Y0045100D01*
X0062541Y0040594D01*
X0062641Y0040092D01*
X0062837Y0039618D01*
X0063122Y0039193D01*
X0063484Y0038830D01*
X0063910Y0038546D01*
X0064383Y0038350D01*
X0064885Y0038250D01*
X0069391Y0038250D01*
X0069391Y0045100D01*
X0062541Y0045100D01*
X0062541Y0049606D01*
X0062641Y0050108D01*
X0062837Y0050582D01*
X0063122Y0051007D01*
X0063484Y0051370D01*
X0063910Y0051654D01*
X0064383Y0051850D01*
X0064885Y0051950D01*
X0069391Y0051950D01*
X0069391Y0045100D01*
X0069391Y0045100D01*
X0069391Y0045100D01*
X0069391Y0038250D01*
X0073897Y0038250D01*
X0074400Y0038350D01*
X0074873Y0038546D01*
X0075299Y0038830D01*
X0075661Y0039193D01*
X0075945Y0039618D01*
X0076141Y0040092D01*
X0076241Y0040594D01*
X0076241Y0045100D01*
X0069391Y0045100D01*
X0069391Y0051950D01*
X0073897Y0051950D01*
X0074400Y0051850D01*
X0074873Y0051654D01*
X0075299Y0051370D01*
X0075661Y0051007D01*
X0075945Y0050582D01*
X0076141Y0050108D01*
X0076241Y0049606D01*
X0075947Y0050578D02*
X0148965Y0050578D01*
X0150970Y0059886D02*
X0149866Y0060991D01*
X0148396Y0061600D01*
X0094257Y0061600D01*
X0071600Y0084257D01*
X0071600Y0127396D01*
X0070991Y0128866D01*
X0055991Y0143866D01*
X0054866Y0144991D01*
X0053396Y0145600D01*
X0049979Y0145600D01*
X0049932Y0147717D01*
X0050576Y0147450D01*
X0052624Y0147450D01*
X0054517Y0148234D01*
X0054529Y0148246D01*
X0054837Y0147937D01*
X0056013Y0147450D01*
X0061187Y0147450D01*
X0062363Y0147937D01*
X0063263Y0148837D01*
X0063750Y0150013D01*
X0063750Y0155187D01*
X0063263Y0156363D01*
X0062363Y0157263D01*
X0061187Y0157750D01*
X0056013Y0157750D01*
X0054837Y0157263D01*
X0054529Y0156954D01*
X0054517Y0156966D01*
X0052624Y0157750D01*
X0050576Y0157750D01*
X0049717Y0157394D01*
X0049100Y0185144D01*
X0049100Y0185896D01*
X0049082Y0185938D01*
X0049081Y0185984D01*
X0048779Y0186672D01*
X0048491Y0187366D01*
X0048458Y0187398D01*
X0048440Y0187441D01*
X0047897Y0187960D01*
X0044500Y0191357D01*
X0044500Y0193972D01*
X0043450Y0196509D01*
X0042358Y0197600D01*
X0043450Y0198691D01*
X0044500Y0201227D01*
X0044500Y0203972D01*
X0043450Y0206509D01*
X0041509Y0208450D01*
X0038972Y0209500D01*
X0036227Y0209500D01*
X0035443Y0209175D01*
X0038355Y0212087D01*
X0038691Y0211750D01*
X0041227Y0210700D01*
X0043972Y0210700D01*
X0046509Y0211750D01*
X0047600Y0212842D01*
X0048691Y0211750D01*
X0051227Y0210700D01*
X0053972Y0210700D01*
X0056100Y0211581D01*
X0056100Y0196804D01*
X0056709Y0195334D01*
X0060700Y0191343D01*
X0060700Y0191227D01*
X0061750Y0188691D01*
X0062842Y0187600D01*
X0061750Y0186509D01*
X0060700Y0183972D01*
X0060700Y0181227D01*
X0061750Y0178691D01*
X0062842Y0177600D01*
X0061750Y0176509D01*
X0060700Y0173972D01*
X0060700Y0171227D01*
X0061750Y0168691D01*
X0063691Y0166750D01*
X0066227Y0165700D01*
X0068972Y0165700D01*
X0071509Y0166750D01*
X0073450Y0168691D01*
X0074500Y0171227D01*
X0074500Y0173910D01*
X0075302Y0173695D01*
X0076215Y0173575D01*
X0081100Y0173575D01*
X0085985Y0173575D01*
X0086898Y0173695D01*
X0087788Y0173934D01*
X0088639Y0174286D01*
X0089436Y0174746D01*
X0090167Y0175307D01*
X0090818Y0175958D01*
X0091379Y0176689D01*
X0091839Y0177486D01*
X0092191Y0178337D01*
X0092430Y0179227D01*
X0092550Y0180140D01*
X0092550Y0180600D01*
X0092550Y0181060D01*
X0092430Y0181973D01*
X0092191Y0182863D01*
X0091839Y0183714D01*
X0091379Y0184511D01*
X0090818Y0185242D01*
X0090167Y0185893D01*
X0089436Y0186454D01*
X0088639Y0186914D01*
X0087788Y0187266D01*
X0086898Y0187505D01*
X0085985Y0187625D01*
X0081100Y0187625D01*
X0081100Y0180600D01*
X0081100Y0180600D01*
X0092550Y0180600D01*
X0081100Y0180600D01*
X0081100Y0180600D01*
X0081100Y0187625D01*
X0076215Y0187625D01*
X0075302Y0187505D01*
X0074412Y0187266D01*
X0073561Y0186914D01*
X0073233Y0186725D01*
X0072358Y0187600D01*
X0073450Y0188691D01*
X0074500Y0191227D01*
X0074500Y0193972D01*
X0073862Y0195512D01*
X0075158Y0194975D01*
X0087042Y0194975D01*
X0089844Y0196136D01*
X0091989Y0198281D01*
X0093150Y0201083D01*
X0093150Y0204117D01*
X0091989Y0206919D01*
X0089844Y0209064D01*
X0087042Y0210225D01*
X0083743Y0210225D01*
X0076993Y0216975D01*
X0087042Y0216975D01*
X0089844Y0218136D01*
X0091989Y0220281D01*
X0093150Y0223083D01*
X0093150Y0226117D01*
X0091989Y0228919D01*
X0089844Y0231064D01*
X0087042Y0232225D01*
X0076493Y0232225D01*
X0082243Y0237975D01*
X0087042Y0237975D01*
X0089844Y0239136D01*
X0091989Y0241281D01*
X0093150Y0244083D01*
X0093150Y0247117D01*
X0091989Y0249919D01*
X0089844Y0252064D01*
X0087042Y0253225D01*
X0081536Y0253225D01*
X0074523Y0260238D01*
X0075158Y0259975D01*
X0087042Y0259975D01*
X0089844Y0261136D01*
X0091989Y0263281D01*
X0093150Y0266083D01*
X0093150Y0269117D01*
X0091989Y0271919D01*
X0089844Y0274064D01*
X0087042Y0275225D01*
X0075158Y0275225D01*
X0072356Y0274064D01*
X0070211Y0271919D01*
X0069050Y0269117D01*
X0069050Y0266083D01*
X0069313Y0265448D01*
X0065800Y0268961D01*
X0065800Y0305239D01*
X0067432Y0306871D01*
X0068300Y0308966D01*
X0068300Y0314688D01*
X0068856Y0315244D01*
X0069343Y0316420D01*
X0069343Y0324361D01*
X0124611Y0324361D01*
X0124577Y0324280D01*
X0124577Y0315920D01*
X0125064Y0314744D01*
X0125620Y0314188D01*
X0125620Y0313300D01*
X0116466Y0313300D01*
X0114371Y0312432D01*
X0104371Y0302432D01*
X0102768Y0300829D01*
X0101900Y0298734D01*
X0101900Y0290306D01*
X0101381Y0290825D01*
X0100205Y0291312D01*
X0099545Y0291312D01*
X0098491Y0292366D01*
X0097366Y0293491D01*
X0095896Y0294100D01*
X0091808Y0294100D01*
X0089844Y0296064D01*
X0087042Y0297225D01*
X0075158Y0297225D01*
X0072356Y0296064D01*
X0070211Y0293919D01*
X0069050Y0291117D01*
X0069050Y0288083D01*
X0070211Y0285281D01*
X0072356Y0283136D01*
X0075158Y0281975D01*
X0087042Y0281975D01*
X0089844Y0283136D01*
X0091989Y0285281D01*
X0092328Y0286100D01*
X0092431Y0286100D01*
X0092431Y0283145D01*
X0092657Y0282600D01*
X0092431Y0282055D01*
X0092431Y0276452D01*
X0092919Y0275276D01*
X0093600Y0274594D01*
X0093600Y0186804D01*
X0094209Y0185334D01*
X0095334Y0184209D01*
X0105800Y0173743D01*
X0103972Y0174500D01*
X0101227Y0174500D01*
X0098691Y0173450D01*
X0097600Y0172358D01*
X0096509Y0173450D01*
X0093972Y0174500D01*
X0091227Y0174500D01*
X0088691Y0173450D01*
X0086750Y0171509D01*
X0085700Y0168972D01*
X0085700Y0166227D01*
X0086750Y0163691D01*
X0088691Y0161750D01*
X0091227Y0160700D01*
X0093972Y0160700D01*
X0096509Y0161750D01*
X0097600Y0162842D01*
X0098691Y0161750D01*
X0101227Y0160700D01*
X0103972Y0160700D01*
X0106421Y0161714D01*
X0111195Y0153600D01*
X0108804Y0153600D01*
X0107334Y0152991D01*
X0106209Y0151866D01*
X0096709Y0142366D01*
X0096100Y0140896D01*
X0096100Y0113781D01*
X0095410Y0106193D01*
X0094734Y0105517D01*
X0093950Y0103624D01*
X0093950Y0101576D01*
X0094734Y0099683D01*
X0096183Y0098234D01*
X0098076Y0097450D01*
X0100124Y0097450D01*
X0102017Y0098234D01*
X0102029Y0098246D01*
X0102337Y0097937D01*
X0103513Y0097450D01*
X0108687Y0097450D01*
X0109863Y0097937D01*
X0110763Y0098837D01*
X0111250Y0100013D01*
X0111250Y0105187D01*
X0110763Y0106363D01*
X0109863Y0107263D01*
X0108687Y0107750D01*
X0103585Y0107750D01*
X0104028Y0112632D01*
X0104100Y0112804D01*
X0104100Y0113419D01*
X0104156Y0114030D01*
X0104100Y0114209D01*
X0104100Y0138443D01*
X0111257Y0145600D01*
X0112842Y0145600D01*
X0111750Y0144509D01*
X0110700Y0141972D01*
X0110700Y0139227D01*
X0111750Y0136691D01*
X0112842Y0135600D01*
X0111750Y0134509D01*
X0110700Y0131972D01*
X0110700Y0129227D01*
X0111750Y0126691D01*
X0112842Y0125600D01*
X0111750Y0124509D01*
X0110700Y0121972D01*
X0110700Y0119227D01*
X0111750Y0116691D01*
X0113691Y0114750D01*
X0116227Y0113700D01*
X0118972Y0113700D01*
X0121509Y0114750D01*
X0123450Y0116691D01*
X0124500Y0119227D01*
X0124500Y0121972D01*
X0123450Y0124509D01*
X0122358Y0125600D01*
X0123450Y0126691D01*
X0124500Y0129227D01*
X0124500Y0131972D01*
X0123450Y0134509D01*
X0122358Y0135600D01*
X0123450Y0136691D01*
X0124500Y0139227D01*
X0124500Y0141972D01*
X0124131Y0142862D01*
X0125662Y0145006D01*
X0128995Y0148339D01*
X0129449Y0147885D01*
X0131494Y0147038D01*
X0133706Y0147038D01*
X0135751Y0147885D01*
X0137315Y0149449D01*
X0138162Y0151494D01*
X0138162Y0153706D01*
X0137315Y0155751D01*
X0135751Y0157315D01*
X0134275Y0157927D01*
X0134505Y0158001D01*
X0135201Y0158356D01*
X0135833Y0158815D01*
X0136385Y0159367D01*
X0136844Y0159999D01*
X0137199Y0160695D01*
X0137440Y0161438D01*
X0137562Y0162209D01*
X0137562Y0162600D01*
X0137562Y0162991D01*
X0137440Y0163762D01*
X0137199Y0164505D01*
X0136844Y0165201D01*
X0136481Y0165700D01*
X0138972Y0165700D01*
X0141509Y0166750D01*
X0143450Y0168691D01*
X0144500Y0171227D01*
X0144500Y0173972D01*
X0143450Y0176509D01*
X0141934Y0178024D01*
X0142405Y0178496D01*
X0142988Y0179298D01*
X0143438Y0180182D01*
X0143665Y0180878D01*
X0168600Y0155943D01*
X0168600Y0135530D01*
X0168446Y0135376D01*
X0167700Y0133575D01*
X0167700Y0131625D01*
X0168446Y0129824D01*
X0169824Y0128446D01*
X0171285Y0127841D01*
X0176678Y0121100D01*
X0161904Y0121100D01*
X0160617Y0120567D01*
X0159633Y0119583D01*
X0154633Y0114583D01*
X0154315Y0113816D01*
X0153635Y0113534D01*
X0151666Y0111565D01*
X0150600Y0108992D01*
X0150600Y0106208D01*
X0151666Y0103635D01*
X0152701Y0102600D01*
X0151666Y0101565D01*
X0150600Y0098992D01*
X0150600Y0096208D01*
X0150638Y0096117D01*
X0150334Y0095991D01*
X0135943Y0081600D01*
X0123358Y0081600D01*
X0121509Y0083450D01*
X0118972Y0084500D01*
X0116227Y0084500D01*
X0113691Y0083450D01*
X0112176Y0081934D01*
X0111704Y0082405D01*
X0110902Y0082988D01*
X0110018Y0083438D01*
X0109075Y0083745D01*
X0108096Y0083900D01*
X0107600Y0083900D01*
X0107600Y0077600D01*
X0107600Y0077600D01*
X0107600Y0083900D01*
X0107104Y0083900D01*
X0106125Y0083745D01*
X0105182Y0083438D01*
X0104298Y0082988D01*
X0103496Y0082405D01*
X0103024Y0081934D01*
X0101509Y0083450D01*
X0098972Y0084500D01*
X0096227Y0084500D01*
X0093691Y0083450D01*
X0091750Y0081509D01*
X0090700Y0078972D01*
X0090700Y0076227D01*
X0091750Y0073691D01*
X0093691Y0071750D01*
X0096227Y0070700D01*
X0098972Y0070700D01*
X0101509Y0071750D01*
X0103024Y0073266D01*
X0103496Y0072795D01*
X0104298Y0072212D01*
X0105010Y0071849D01*
X0104999Y0071844D01*
X0104367Y0071385D01*
X0103815Y0070833D01*
X0103356Y0070201D01*
X0103001Y0069505D01*
X0102760Y0068762D01*
X0102638Y0067991D01*
X0102638Y0067600D01*
X0107600Y0067600D01*
X0107600Y0067600D01*
X0107600Y0071300D01*
X0107600Y0077600D01*
X0107600Y0077600D01*
X0107600Y0067600D01*
X0107600Y0062638D01*
X0107991Y0062638D01*
X0108762Y0062760D01*
X0109505Y0063001D01*
X0110201Y0063356D01*
X0110833Y0063815D01*
X0111385Y0064367D01*
X0111844Y0064999D01*
X0112199Y0065695D01*
X0112273Y0065925D01*
X0112885Y0064449D01*
X0114449Y0062885D01*
X0116494Y0062038D01*
X0118706Y0062038D01*
X0120751Y0062885D01*
X0122315Y0064449D01*
X0123162Y0066494D01*
X0123162Y0068706D01*
X0122315Y0070751D01*
X0121372Y0071694D01*
X0121509Y0071750D01*
X0123358Y0073600D01*
X0138396Y0073600D01*
X0139866Y0074209D01*
X0140991Y0075334D01*
X0150970Y0085314D01*
X0151666Y0083635D01*
X0152701Y0082600D01*
X0151666Y0081565D01*
X0150600Y0078992D01*
X0150600Y0076208D01*
X0151666Y0073635D01*
X0152701Y0072600D01*
X0151666Y0071565D01*
X0150600Y0068992D01*
X0150600Y0066208D01*
X0151666Y0063635D01*
X0152701Y0062600D01*
X0151666Y0061565D01*
X0150970Y0059886D01*
X0151089Y0060173D02*
X0150684Y0060173D01*
X0151929Y0063372D02*
X0121238Y0063372D01*
X0123162Y0066570D02*
X0150600Y0066570D01*
X0150922Y0069769D02*
X0122722Y0069769D01*
X0122725Y0072967D02*
X0152333Y0072967D01*
X0150617Y0076166D02*
X0141823Y0076166D01*
X0145021Y0079364D02*
X0150754Y0079364D01*
X0152663Y0082563D02*
X0148220Y0082563D01*
X0143303Y0088960D02*
X0071600Y0088960D01*
X0071600Y0092158D02*
X0146501Y0092158D01*
X0149700Y0095357D02*
X0071600Y0095357D01*
X0071600Y0098555D02*
X0095861Y0098555D01*
X0093950Y0101754D02*
X0071600Y0101754D01*
X0071600Y0104952D02*
X0094500Y0104952D01*
X0095588Y0108151D02*
X0071600Y0108151D01*
X0071600Y0111349D02*
X0095879Y0111349D01*
X0096100Y0114548D02*
X0091020Y0114548D01*
X0091509Y0114750D02*
X0093450Y0116691D01*
X0094500Y0119227D01*
X0094500Y0121972D01*
X0093450Y0124509D01*
X0091934Y0126024D01*
X0092405Y0126496D01*
X0092988Y0127298D01*
X0093438Y0128182D01*
X0093745Y0129125D01*
X0093900Y0130104D01*
X0093900Y0130600D01*
X0093900Y0131096D01*
X0093745Y0132075D01*
X0093438Y0133018D01*
X0092988Y0133902D01*
X0092405Y0134704D01*
X0091934Y0135176D01*
X0093450Y0136691D01*
X0094500Y0139227D01*
X0094500Y0141972D01*
X0093450Y0144509D01*
X0092358Y0145600D01*
X0093450Y0146691D01*
X0094500Y0149227D01*
X0094500Y0151972D01*
X0093450Y0154509D01*
X0091509Y0156450D01*
X0088972Y0157500D01*
X0086227Y0157500D01*
X0083691Y0156450D01*
X0082154Y0154912D01*
X0080751Y0156315D01*
X0078706Y0157162D01*
X0076494Y0157162D01*
X0074449Y0156315D01*
X0072885Y0154751D01*
X0072038Y0152706D01*
X0072038Y0150494D01*
X0072885Y0148449D01*
X0074449Y0146885D01*
X0075925Y0146273D01*
X0075695Y0146199D01*
X0074999Y0145844D01*
X0074367Y0145385D01*
X0073815Y0144833D01*
X0073356Y0144201D01*
X0073001Y0143505D01*
X0072760Y0142762D01*
X0072638Y0141991D01*
X0072638Y0141600D01*
X0072638Y0141209D01*
X0072760Y0140438D01*
X0073001Y0139695D01*
X0073356Y0138999D01*
X0073815Y0138367D01*
X0074367Y0137815D01*
X0074999Y0137356D01*
X0075695Y0137001D01*
X0076438Y0136760D01*
X0077209Y0136638D01*
X0077600Y0136638D01*
X0077991Y0136638D01*
X0078762Y0136760D01*
X0079505Y0137001D01*
X0080201Y0137356D01*
X0080833Y0137815D01*
X0081153Y0138135D01*
X0081750Y0136691D01*
X0083266Y0135176D01*
X0082795Y0134704D01*
X0082212Y0133902D01*
X0081762Y0133018D01*
X0081455Y0132075D01*
X0081300Y0131096D01*
X0081300Y0130600D01*
X0087600Y0130600D01*
X0093900Y0130600D01*
X0087600Y0130600D01*
X0087600Y0130600D01*
X0087600Y0130600D01*
X0081300Y0130600D01*
X0081300Y0130104D01*
X0081455Y0129125D01*
X0081762Y0128182D01*
X0082212Y0127298D01*
X0082795Y0126496D01*
X0083266Y0126024D01*
X0081750Y0124509D01*
X0080700Y0121972D01*
X0080700Y0119227D01*
X0081750Y0116691D01*
X0083691Y0114750D01*
X0086227Y0113700D01*
X0088972Y0113700D01*
X0091509Y0114750D01*
X0093886Y0117746D02*
X0096100Y0117746D01*
X0096100Y0120945D02*
X0094500Y0120945D01*
X0093601Y0124143D02*
X0096100Y0124143D01*
X0096100Y0127342D02*
X0093011Y0127342D01*
X0093900Y0130540D02*
X0096100Y0130540D01*
X0096100Y0133739D02*
X0093071Y0133739D01*
X0093551Y0136937D02*
X0096100Y0136937D01*
X0096100Y0140136D02*
X0094500Y0140136D01*
X0093936Y0143334D02*
X0097678Y0143334D01*
X0100876Y0146533D02*
X0093291Y0146533D01*
X0094500Y0149732D02*
X0104075Y0149732D01*
X0107273Y0152930D02*
X0094103Y0152930D01*
X0091830Y0156129D02*
X0109707Y0156129D01*
X0107826Y0159327D02*
X0049674Y0159327D01*
X0049603Y0162526D02*
X0087916Y0162526D01*
X0085909Y0165724D02*
X0069031Y0165724D01*
X0066169Y0165724D02*
X0049532Y0165724D01*
X0049460Y0168923D02*
X0061655Y0168923D01*
X0060700Y0172121D02*
X0049389Y0172121D01*
X0049318Y0175320D02*
X0061258Y0175320D01*
X0061924Y0178518D02*
X0049247Y0178518D01*
X0049176Y0181717D02*
X0060700Y0181717D01*
X0061090Y0184915D02*
X0049105Y0184915D01*
X0047743Y0188114D02*
X0062328Y0188114D01*
X0060700Y0191312D02*
X0044545Y0191312D01*
X0044277Y0194511D02*
X0057532Y0194511D01*
X0056100Y0197709D02*
X0042467Y0197709D01*
X0044368Y0200908D02*
X0056100Y0200908D01*
X0056100Y0204106D02*
X0044445Y0204106D01*
X0042653Y0207305D02*
X0056100Y0207305D01*
X0056100Y0210503D02*
X0036771Y0210503D01*
X0032040Y0198402D02*
X0032842Y0197600D01*
X0031750Y0196509D01*
X0030700Y0193972D01*
X0030700Y0191227D01*
X0031750Y0188691D01*
X0033266Y0187176D01*
X0032795Y0186704D01*
X0032212Y0185902D01*
X0031762Y0185018D01*
X0031518Y0184269D01*
X0031379Y0184511D01*
X0030818Y0185242D01*
X0030167Y0185893D01*
X0029436Y0186454D01*
X0028639Y0186914D01*
X0027788Y0187266D01*
X0026898Y0187505D01*
X0025985Y0187625D01*
X0021100Y0187625D01*
X0021100Y0180600D01*
X0021100Y0180600D01*
X0021100Y0173575D01*
X0021100Y0180600D01*
X0021100Y0180600D01*
X0021100Y0187625D01*
X0016215Y0187625D01*
X0015302Y0187505D01*
X0014412Y0187266D01*
X0014362Y0187246D01*
X0014248Y0195352D01*
X0015158Y0194975D01*
X0027042Y0194975D01*
X0029844Y0196136D01*
X0031989Y0198281D01*
X0032040Y0198402D01*
X0031418Y0197709D02*
X0032733Y0197709D01*
X0030923Y0194511D02*
X0014260Y0194511D01*
X0014305Y0191312D02*
X0030700Y0191312D01*
X0032328Y0188114D02*
X0014350Y0188114D01*
X0021100Y0184915D02*
X0021100Y0184915D01*
X0021100Y0181717D02*
X0021100Y0181717D01*
X0021100Y0178518D02*
X0021100Y0178518D01*
X0021100Y0175320D02*
X0021100Y0175320D01*
X0024367Y0171385D02*
X0023815Y0170833D01*
X0023356Y0170201D01*
X0023001Y0169505D01*
X0022760Y0168762D01*
X0022638Y0167991D01*
X0022638Y0167600D01*
X0022638Y0167209D01*
X0022760Y0166438D01*
X0023001Y0165695D01*
X0023356Y0164999D01*
X0023815Y0164367D01*
X0024367Y0163815D01*
X0024999Y0163356D01*
X0025695Y0163001D01*
X0025925Y0162927D01*
X0024449Y0162315D01*
X0022885Y0160751D01*
X0022038Y0158706D01*
X0022038Y0156494D01*
X0022885Y0154449D01*
X0024449Y0152885D01*
X0026494Y0152038D01*
X0028706Y0152038D01*
X0030751Y0152885D01*
X0032315Y0154449D01*
X0033162Y0156494D01*
X0033162Y0158706D01*
X0032315Y0160751D01*
X0030751Y0162315D01*
X0029275Y0162927D01*
X0029505Y0163001D01*
X0030201Y0163356D01*
X0030833Y0163815D01*
X0031385Y0164367D01*
X0031844Y0164999D01*
X0032199Y0165695D01*
X0032440Y0166438D01*
X0032562Y0167209D01*
X0032562Y0167600D01*
X0027600Y0167600D01*
X0027600Y0167600D01*
X0027600Y0167600D01*
X0027600Y0167600D01*
X0022638Y0167600D01*
X0027600Y0167600D01*
X0027600Y0172562D01*
X0027209Y0172562D01*
X0026438Y0172440D01*
X0025695Y0172199D01*
X0024999Y0171844D01*
X0024367Y0171385D01*
X0025543Y0172121D02*
X0014575Y0172121D01*
X0014620Y0168923D02*
X0022812Y0168923D01*
X0022992Y0165724D02*
X0014665Y0165724D01*
X0014710Y0162526D02*
X0024957Y0162526D01*
X0022295Y0159327D02*
X0014755Y0159327D01*
X0014800Y0156129D02*
X0022189Y0156129D01*
X0024404Y0152930D02*
X0014845Y0152930D01*
X0014890Y0149732D02*
X0041885Y0149732D01*
X0041814Y0152930D02*
X0030796Y0152930D01*
X0033011Y0156129D02*
X0041743Y0156129D01*
X0041672Y0159327D02*
X0032905Y0159327D01*
X0030243Y0162526D02*
X0041601Y0162526D01*
X0041530Y0165724D02*
X0039031Y0165724D01*
X0036169Y0165724D02*
X0032208Y0165724D01*
X0027600Y0168923D02*
X0027600Y0168923D01*
X0027600Y0172121D02*
X0027600Y0172121D01*
X0029657Y0172121D02*
X0030700Y0172121D01*
X0030179Y0175320D02*
X0031258Y0175320D01*
X0032240Y0178518D02*
X0032778Y0178518D01*
X0031728Y0184915D02*
X0031069Y0184915D01*
X0063360Y0156129D02*
X0074262Y0156129D01*
X0072130Y0152930D02*
X0063750Y0152930D01*
X0063633Y0149732D02*
X0072353Y0149732D01*
X0075298Y0146533D02*
X0049958Y0146533D01*
X0056522Y0143334D02*
X0072946Y0143334D01*
X0072638Y0141600D02*
X0077600Y0141600D01*
X0077600Y0136638D01*
X0077600Y0141600D01*
X0077600Y0141600D01*
X0077600Y0141600D01*
X0072638Y0141600D01*
X0072858Y0140136D02*
X0059721Y0140136D01*
X0062919Y0136937D02*
X0075892Y0136937D01*
X0077600Y0136937D02*
X0077600Y0136937D01*
X0079308Y0136937D02*
X0081649Y0136937D01*
X0082129Y0133739D02*
X0066118Y0133739D01*
X0069316Y0130540D02*
X0081300Y0130540D01*
X0082189Y0127342D02*
X0071600Y0127342D01*
X0071600Y0124143D02*
X0081599Y0124143D01*
X0080700Y0120945D02*
X0071600Y0120945D01*
X0071600Y0117746D02*
X0081313Y0117746D01*
X0084180Y0114548D02*
X0071600Y0114548D01*
X0063600Y0114548D02*
X0045518Y0114548D01*
X0047162Y0111349D02*
X0063600Y0111349D01*
X0063600Y0117746D02*
X0047886Y0117746D01*
X0048500Y0120945D02*
X0063600Y0120945D01*
X0063600Y0124143D02*
X0047601Y0124143D01*
X0043354Y0127342D02*
X0061201Y0127342D01*
X0058003Y0130540D02*
X0015161Y0130540D01*
X0015206Y0127342D02*
X0019846Y0127342D01*
X0023354Y0127342D02*
X0039846Y0127342D01*
X0031600Y0124143D02*
X0031600Y0124143D01*
X0031600Y0120945D02*
X0031600Y0120945D01*
X0031600Y0120600D02*
X0031600Y0114300D01*
X0031600Y0110600D01*
X0031600Y0110600D01*
X0031600Y0105638D01*
X0031600Y0110600D01*
X0031600Y0110600D01*
X0031600Y0120600D01*
X0031600Y0120600D01*
X0031600Y0117746D02*
X0031600Y0117746D01*
X0031600Y0114548D02*
X0031600Y0114548D01*
X0031600Y0111349D02*
X0031600Y0111349D01*
X0031600Y0108151D02*
X0031600Y0108151D01*
X0035921Y0108151D02*
X0036594Y0108151D01*
X0046606Y0108151D02*
X0055115Y0108151D01*
X0053011Y0104952D02*
X0027300Y0104952D01*
X0027300Y0101754D02*
X0052650Y0101754D01*
X0053712Y0098555D02*
X0027300Y0098555D01*
X0027300Y0095357D02*
X0058119Y0095357D01*
X0062081Y0095357D02*
X0063600Y0095357D01*
X0063600Y0092158D02*
X0027300Y0092158D01*
X0027300Y0088960D02*
X0053659Y0088960D01*
X0053250Y0085761D02*
X0027300Y0085761D01*
X0027300Y0082563D02*
X0053250Y0082563D01*
X0053250Y0079364D02*
X0027300Y0079364D01*
X0027300Y0076166D02*
X0068377Y0076166D01*
X0071576Y0072967D02*
X0027300Y0072967D01*
X0027300Y0069769D02*
X0027996Y0069769D01*
X0031600Y0069769D02*
X0031600Y0069769D01*
X0031600Y0066570D02*
X0031600Y0066570D01*
X0031600Y0064600D02*
X0031600Y0058300D01*
X0031600Y0064600D01*
X0031600Y0064600D01*
X0031600Y0063372D02*
X0031600Y0063372D01*
X0031600Y0060173D02*
X0031600Y0060173D01*
X0036083Y0060173D02*
X0036269Y0060173D01*
X0027117Y0060173D02*
X0026931Y0060173D01*
X0016269Y0060173D02*
X0005800Y0060173D01*
X0005800Y0056975D02*
X0087568Y0056975D01*
X0084370Y0060173D02*
X0046931Y0060173D01*
X0048500Y0063372D02*
X0081171Y0063372D01*
X0077973Y0066570D02*
X0048252Y0066570D01*
X0046189Y0069769D02*
X0074774Y0069769D01*
X0079691Y0076166D02*
X0090726Y0076166D01*
X0090862Y0079364D02*
X0076493Y0079364D01*
X0073294Y0082563D02*
X0092805Y0082563D01*
X0102395Y0082563D02*
X0103712Y0082563D01*
X0107600Y0082563D02*
X0107600Y0082563D01*
X0107600Y0079364D02*
X0107600Y0079364D01*
X0107600Y0076166D02*
X0107600Y0076166D01*
X0107600Y0072967D02*
X0107600Y0072967D01*
X0107600Y0069769D02*
X0107600Y0069769D01*
X0107600Y0067600D02*
X0107600Y0067600D01*
X0107600Y0067600D01*
X0107600Y0062638D01*
X0107209Y0062638D01*
X0106438Y0062760D01*
X0105695Y0063001D01*
X0104999Y0063356D01*
X0104367Y0063815D01*
X0103815Y0064367D01*
X0103356Y0064999D01*
X0103001Y0065695D01*
X0102760Y0066438D01*
X0102638Y0067209D01*
X0102638Y0067600D01*
X0107600Y0067600D01*
X0107600Y0066570D02*
X0107600Y0066570D01*
X0107600Y0063372D02*
X0107600Y0063372D01*
X0110222Y0063372D02*
X0113962Y0063372D01*
X0104978Y0063372D02*
X0092485Y0063372D01*
X0089287Y0066570D02*
X0102739Y0066570D01*
X0103136Y0069769D02*
X0086088Y0069769D01*
X0082890Y0072967D02*
X0092475Y0072967D01*
X0102725Y0072967D02*
X0103323Y0072967D01*
X0111488Y0082563D02*
X0112805Y0082563D01*
X0122395Y0082563D02*
X0136906Y0082563D01*
X0140104Y0085761D02*
X0071600Y0085761D01*
X0060100Y0085761D02*
X0060100Y0085761D01*
X0060100Y0083309D02*
X0060100Y0076459D01*
X0060100Y0083309D01*
X0060100Y0083309D01*
X0060100Y0082563D02*
X0060100Y0082563D01*
X0060100Y0079364D02*
X0060100Y0079364D01*
X0060100Y0088960D02*
X0060100Y0088960D01*
X0037011Y0069769D02*
X0035204Y0069769D01*
X0015900Y0069769D02*
X0005800Y0069769D01*
X0005800Y0072967D02*
X0015900Y0072967D01*
X0015900Y0076166D02*
X0005800Y0076166D01*
X0005800Y0079364D02*
X0015900Y0079364D01*
X0015900Y0082563D02*
X0005800Y0082563D01*
X0005800Y0085761D02*
X0015900Y0085761D01*
X0015900Y0088960D02*
X0005800Y0088960D01*
X0005800Y0092158D02*
X0015900Y0092158D01*
X0015900Y0095357D02*
X0005800Y0095357D01*
X0005800Y0098555D02*
X0015900Y0098555D01*
X0015900Y0101754D02*
X0005800Y0101754D01*
X0005800Y0104952D02*
X0015900Y0104952D01*
X0015900Y0108151D02*
X0005800Y0108151D01*
X0005800Y0111349D02*
X0015900Y0111349D01*
X0015900Y0114548D02*
X0005800Y0114548D01*
X0015115Y0133739D02*
X0054804Y0133739D01*
X0051606Y0136937D02*
X0015070Y0136937D01*
X0015025Y0140136D02*
X0043795Y0140136D01*
X0042023Y0143334D02*
X0014980Y0143334D01*
X0014935Y0146533D02*
X0041956Y0146533D01*
X0073545Y0168923D02*
X0085700Y0168923D01*
X0087363Y0172121D02*
X0074500Y0172121D01*
X0081100Y0173575D02*
X0081100Y0180600D01*
X0081100Y0173575D01*
X0081100Y0175320D02*
X0081100Y0175320D01*
X0081100Y0178518D02*
X0081100Y0178518D01*
X0081100Y0180600D02*
X0081100Y0180600D01*
X0081100Y0181717D02*
X0081100Y0181717D01*
X0081100Y0184915D02*
X0081100Y0184915D01*
X0074500Y0191312D02*
X0093600Y0191312D01*
X0093600Y0188114D02*
X0072872Y0188114D01*
X0074277Y0194511D02*
X0093600Y0194511D01*
X0093600Y0197709D02*
X0091418Y0197709D01*
X0093077Y0200908D02*
X0093600Y0200908D01*
X0093600Y0204106D02*
X0093150Y0204106D01*
X0093600Y0207305D02*
X0091604Y0207305D01*
X0093600Y0210503D02*
X0083465Y0210503D01*
X0080266Y0213702D02*
X0093600Y0213702D01*
X0093600Y0216900D02*
X0077068Y0216900D01*
X0091807Y0220099D02*
X0093600Y0220099D01*
X0093600Y0223297D02*
X0093150Y0223297D01*
X0092993Y0226496D02*
X0093600Y0226496D01*
X0093600Y0229694D02*
X0091214Y0229694D01*
X0093600Y0232893D02*
X0077161Y0232893D01*
X0080359Y0236091D02*
X0093600Y0236091D01*
X0093600Y0239290D02*
X0089998Y0239290D01*
X0092489Y0242488D02*
X0093600Y0242488D01*
X0093600Y0245687D02*
X0093150Y0245687D01*
X0093600Y0248885D02*
X0092417Y0248885D01*
X0093600Y0252084D02*
X0089797Y0252084D01*
X0093600Y0255282D02*
X0079479Y0255282D01*
X0076280Y0258481D02*
X0093600Y0258481D01*
X0093600Y0261679D02*
X0090388Y0261679D01*
X0092651Y0264878D02*
X0093600Y0264878D01*
X0093600Y0268076D02*
X0093150Y0268076D01*
X0093600Y0271275D02*
X0092256Y0271275D01*
X0093600Y0274473D02*
X0088856Y0274473D01*
X0092431Y0277672D02*
X0065800Y0277672D01*
X0065800Y0280870D02*
X0092431Y0280870D01*
X0092431Y0284069D02*
X0090777Y0284069D01*
X0096947Y0293665D02*
X0101900Y0293665D01*
X0101900Y0296863D02*
X0087916Y0296863D01*
X0074284Y0296863D02*
X0065800Y0296863D01*
X0065800Y0293665D02*
X0070105Y0293665D01*
X0069050Y0290466D02*
X0065800Y0290466D01*
X0065800Y0287268D02*
X0069388Y0287268D01*
X0071423Y0284069D02*
X0065800Y0284069D01*
X0065800Y0274473D02*
X0073344Y0274473D01*
X0069944Y0271275D02*
X0065800Y0271275D01*
X0066685Y0268076D02*
X0069050Y0268076D01*
X0101600Y0268076D02*
X0101900Y0268076D01*
X0101900Y0264878D02*
X0101600Y0264878D01*
X0101600Y0261679D02*
X0101900Y0261679D01*
X0101900Y0258481D02*
X0101600Y0258481D01*
X0101900Y0257966D02*
X0102768Y0255871D01*
X0109774Y0248865D01*
X0109050Y0247117D01*
X0109050Y0244083D01*
X0110211Y0241281D01*
X0112356Y0239136D01*
X0115158Y0237975D01*
X0119957Y0237975D01*
X0125707Y0232225D01*
X0115158Y0232225D01*
X0112356Y0231064D01*
X0110211Y0228919D01*
X0109050Y0226117D01*
X0109050Y0223083D01*
X0110211Y0220281D01*
X0112356Y0218136D01*
X0115158Y0216975D01*
X0125707Y0216975D01*
X0118957Y0210225D01*
X0115158Y0210225D01*
X0112356Y0209064D01*
X0110211Y0206919D01*
X0109050Y0204117D01*
X0109050Y0201083D01*
X0110211Y0198281D01*
X0112356Y0196136D01*
X0115158Y0194975D01*
X0127042Y0194975D01*
X0129844Y0196136D01*
X0131989Y0198281D01*
X0132040Y0198402D01*
X0132842Y0197600D01*
X0131750Y0196509D01*
X0130700Y0193972D01*
X0130700Y0191227D01*
X0131750Y0188691D01*
X0133266Y0187176D01*
X0132795Y0186704D01*
X0132212Y0185902D01*
X0131762Y0185018D01*
X0131518Y0184269D01*
X0131379Y0184511D01*
X0130818Y0185242D01*
X0130167Y0185893D01*
X0129436Y0186454D01*
X0128639Y0186914D01*
X0127788Y0187266D01*
X0126898Y0187505D01*
X0125985Y0187625D01*
X0121100Y0187625D01*
X0121100Y0180600D01*
X0121100Y0180600D01*
X0121100Y0187625D01*
X0116215Y0187625D01*
X0115302Y0187505D01*
X0114412Y0187266D01*
X0113561Y0186914D01*
X0112764Y0186454D01*
X0112033Y0185893D01*
X0111382Y0185242D01*
X0110821Y0184511D01*
X0110361Y0183714D01*
X0110009Y0182863D01*
X0109770Y0181973D01*
X0109667Y0181190D01*
X0101600Y0189257D01*
X0101600Y0274594D01*
X0101900Y0274894D01*
X0101900Y0257966D01*
X0101600Y0255282D02*
X0103357Y0255282D01*
X0101600Y0252084D02*
X0106555Y0252084D01*
X0109754Y0248885D02*
X0101600Y0248885D01*
X0101600Y0245687D02*
X0109050Y0245687D01*
X0109711Y0242488D02*
X0101600Y0242488D01*
X0101600Y0239290D02*
X0112202Y0239290D01*
X0121841Y0236091D02*
X0101600Y0236091D01*
X0101600Y0232893D02*
X0125039Y0232893D01*
X0110986Y0229694D02*
X0101600Y0229694D01*
X0101600Y0226496D02*
X0109207Y0226496D01*
X0109050Y0223297D02*
X0101600Y0223297D01*
X0101600Y0220099D02*
X0110393Y0220099D01*
X0101600Y0216900D02*
X0125632Y0216900D01*
X0122434Y0213702D02*
X0101600Y0213702D01*
X0101600Y0210503D02*
X0119235Y0210503D01*
X0110596Y0207305D02*
X0101600Y0207305D01*
X0101600Y0204106D02*
X0109050Y0204106D01*
X0109123Y0200908D02*
X0101600Y0200908D01*
X0101600Y0197709D02*
X0110782Y0197709D01*
X0101600Y0194511D02*
X0130923Y0194511D01*
X0130700Y0191312D02*
X0101600Y0191312D01*
X0102743Y0188114D02*
X0132328Y0188114D01*
X0131728Y0184915D02*
X0131069Y0184915D01*
X0132385Y0179060D02*
X0132795Y0178496D01*
X0133266Y0178024D01*
X0131750Y0176509D01*
X0130700Y0173972D01*
X0130700Y0171227D01*
X0131750Y0168691D01*
X0132880Y0167562D01*
X0132600Y0167562D01*
X0132600Y0162600D01*
X0137562Y0162600D01*
X0132600Y0162600D01*
X0132600Y0162600D01*
X0132600Y0162600D01*
X0132600Y0167562D01*
X0132209Y0167562D01*
X0131438Y0167440D01*
X0130695Y0167199D01*
X0129999Y0166844D01*
X0129367Y0166385D01*
X0128815Y0165833D01*
X0128356Y0165201D01*
X0128001Y0164505D01*
X0127760Y0163762D01*
X0127669Y0163188D01*
X0117282Y0173575D01*
X0121100Y0173575D01*
X0125985Y0173575D01*
X0126898Y0173695D01*
X0127788Y0173934D01*
X0128639Y0174286D01*
X0129436Y0174746D01*
X0130167Y0175307D01*
X0130818Y0175958D01*
X0131379Y0176689D01*
X0131839Y0177486D01*
X0132191Y0178337D01*
X0132385Y0179060D01*
X0132240Y0178518D02*
X0132778Y0178518D01*
X0131258Y0175320D02*
X0130179Y0175320D01*
X0130700Y0172121D02*
X0118736Y0172121D01*
X0121100Y0173575D02*
X0121100Y0180600D01*
X0121100Y0173575D01*
X0121100Y0175320D02*
X0121100Y0175320D01*
X0121100Y0178518D02*
X0121100Y0178518D01*
X0121100Y0180600D02*
X0121100Y0180600D01*
X0121100Y0181717D02*
X0121100Y0181717D01*
X0121100Y0184915D02*
X0121100Y0184915D01*
X0111131Y0184915D02*
X0105942Y0184915D01*
X0109140Y0181717D02*
X0109736Y0181717D01*
X0104224Y0175320D02*
X0090179Y0175320D01*
X0092240Y0178518D02*
X0101025Y0178518D01*
X0097827Y0181717D02*
X0092464Y0181717D01*
X0091069Y0184915D02*
X0094628Y0184915D01*
X0097284Y0162526D02*
X0097916Y0162526D01*
X0083370Y0156129D02*
X0080938Y0156129D01*
X0077600Y0140136D02*
X0077600Y0140136D01*
X0104100Y0136937D02*
X0111649Y0136937D01*
X0111432Y0133739D02*
X0104100Y0133739D01*
X0104100Y0130540D02*
X0110700Y0130540D01*
X0111481Y0127342D02*
X0104100Y0127342D01*
X0104100Y0124143D02*
X0111599Y0124143D01*
X0110700Y0120945D02*
X0104100Y0120945D01*
X0104100Y0117746D02*
X0111313Y0117746D01*
X0114180Y0114548D02*
X0104100Y0114548D01*
X0103912Y0111349D02*
X0151576Y0111349D01*
X0150600Y0108151D02*
X0103621Y0108151D01*
X0111250Y0104952D02*
X0151120Y0104952D01*
X0151854Y0101754D02*
X0111250Y0101754D01*
X0110481Y0098555D02*
X0150600Y0098555D01*
X0154618Y0114548D02*
X0121020Y0114548D01*
X0123886Y0117746D02*
X0157797Y0117746D01*
X0161529Y0120945D02*
X0124500Y0120945D01*
X0123601Y0124143D02*
X0174243Y0124143D01*
X0171684Y0127342D02*
X0123719Y0127342D01*
X0124500Y0130540D02*
X0168149Y0130540D01*
X0167768Y0133739D02*
X0123768Y0133739D01*
X0123551Y0136937D02*
X0168600Y0136937D01*
X0168600Y0140136D02*
X0124500Y0140136D01*
X0124469Y0143334D02*
X0168600Y0143334D01*
X0168600Y0146533D02*
X0160458Y0146533D01*
X0160763Y0146837D02*
X0161250Y0148013D01*
X0161250Y0153187D01*
X0160763Y0154363D01*
X0159863Y0155263D01*
X0158687Y0155750D01*
X0153513Y0155750D01*
X0152337Y0155263D01*
X0152029Y0154954D01*
X0152017Y0154966D01*
X0150124Y0155750D01*
X0148076Y0155750D01*
X0146183Y0154966D01*
X0144734Y0153517D01*
X0143950Y0151624D01*
X0143950Y0149576D01*
X0144734Y0147683D01*
X0146183Y0146234D01*
X0148076Y0145450D01*
X0150124Y0145450D01*
X0152017Y0146234D01*
X0152029Y0146246D01*
X0152337Y0145937D01*
X0153513Y0145450D01*
X0158687Y0145450D01*
X0159863Y0145937D01*
X0160763Y0146837D01*
X0161250Y0149732D02*
X0168600Y0149732D01*
X0168600Y0152930D02*
X0161250Y0152930D01*
X0165216Y0159327D02*
X0136345Y0159327D01*
X0136938Y0156129D02*
X0168415Y0156129D01*
X0173995Y0161861D02*
X0169810Y0166047D01*
X0171509Y0166750D01*
X0173450Y0168691D01*
X0174500Y0171227D01*
X0174500Y0173910D01*
X0175302Y0173695D01*
X0176215Y0173575D01*
X0181100Y0173575D01*
X0181364Y0173575D01*
X0180700Y0171972D01*
X0180700Y0169227D01*
X0181750Y0166691D01*
X0183691Y0164750D01*
X0185262Y0164100D01*
X0183691Y0163450D01*
X0181750Y0161509D01*
X0181694Y0161372D01*
X0180751Y0162315D01*
X0178706Y0163162D01*
X0176494Y0163162D01*
X0174449Y0162315D01*
X0173995Y0161861D01*
X0173331Y0162526D02*
X0174957Y0162526D01*
X0180243Y0162526D02*
X0182767Y0162526D01*
X0182718Y0165724D02*
X0170133Y0165724D01*
X0173545Y0168923D02*
X0180826Y0168923D01*
X0180762Y0172121D02*
X0174500Y0172121D01*
X0181100Y0173575D02*
X0181100Y0180600D01*
X0181100Y0180600D01*
X0181100Y0187625D01*
X0185985Y0187625D01*
X0186898Y0187505D01*
X0187788Y0187266D01*
X0188639Y0186914D01*
X0189436Y0186454D01*
X0190167Y0185893D01*
X0190818Y0185242D01*
X0191379Y0184511D01*
X0191839Y0183714D01*
X0192191Y0182863D01*
X0192430Y0181973D01*
X0192550Y0181060D01*
X0192550Y0180600D01*
X0181100Y0180600D01*
X0181100Y0180600D01*
X0181100Y0173575D01*
X0181100Y0175320D02*
X0181100Y0175320D01*
X0181100Y0178518D02*
X0181100Y0178518D01*
X0181100Y0180600D02*
X0181100Y0180600D01*
X0181100Y0187625D01*
X0176215Y0187625D01*
X0175302Y0187505D01*
X0174412Y0187266D01*
X0173561Y0186914D01*
X0173233Y0186725D01*
X0172358Y0187600D01*
X0173450Y0188691D01*
X0174500Y0191227D01*
X0174500Y0193972D01*
X0173862Y0195512D01*
X0175158Y0194975D01*
X0187042Y0194975D01*
X0189844Y0196136D01*
X0191989Y0198281D01*
X0193150Y0201083D01*
X0193150Y0204117D01*
X0191989Y0206919D01*
X0189844Y0209064D01*
X0187042Y0210225D01*
X0183743Y0210225D01*
X0176993Y0216975D01*
X0187042Y0216975D01*
X0189844Y0218136D01*
X0191989Y0220281D01*
X0193150Y0223083D01*
X0193150Y0226117D01*
X0191989Y0228919D01*
X0189844Y0231064D01*
X0187042Y0232225D01*
X0176493Y0232225D01*
X0182243Y0237975D01*
X0187042Y0237975D01*
X0189844Y0239136D01*
X0191989Y0241281D01*
X0193150Y0244083D01*
X0193150Y0247117D01*
X0191989Y0249919D01*
X0189844Y0252064D01*
X0187042Y0253225D01*
X0181536Y0253225D01*
X0174523Y0260238D01*
X0175158Y0259975D01*
X0187042Y0259975D01*
X0189844Y0261136D01*
X0191989Y0263281D01*
X0193150Y0266083D01*
X0193150Y0269117D01*
X0191989Y0271919D01*
X0189844Y0274064D01*
X0187042Y0275225D01*
X0175158Y0275225D01*
X0172356Y0274064D01*
X0170211Y0271919D01*
X0169050Y0269117D01*
X0169050Y0266083D01*
X0169313Y0265448D01*
X0153300Y0281461D01*
X0153300Y0308734D01*
X0152432Y0310829D01*
X0150829Y0312432D01*
X0150800Y0312461D01*
X0150800Y0314188D01*
X0151356Y0314744D01*
X0151843Y0315920D01*
X0151843Y0324280D01*
X0151810Y0324361D01*
X0189048Y0324361D01*
X0188957Y0323899D01*
X0188957Y0320100D01*
X0188957Y0316301D01*
X0189057Y0315798D01*
X0189253Y0315325D01*
X0189537Y0314899D01*
X0189899Y0314537D01*
X0190325Y0314253D01*
X0190798Y0314057D01*
X0191301Y0313957D01*
X0195100Y0313957D01*
X0198899Y0313957D01*
X0199402Y0314057D01*
X0199875Y0314253D01*
X0200301Y0314537D01*
X0200663Y0314899D01*
X0200947Y0315325D01*
X0201143Y0315798D01*
X0201243Y0316301D01*
X0201243Y0320100D01*
X0195100Y0320100D01*
X0201243Y0320100D01*
X0201243Y0323899D01*
X0201152Y0324361D01*
X0202170Y0324361D01*
X0202136Y0324280D01*
X0202136Y0315920D01*
X0202623Y0314744D01*
X0203524Y0313844D01*
X0204700Y0313357D01*
X0213059Y0313357D01*
X0214235Y0313844D01*
X0215136Y0314744D01*
X0215623Y0315920D01*
X0215623Y0324280D01*
X0215589Y0324361D01*
X0254611Y0324361D01*
X0254577Y0324280D01*
X0254577Y0317638D01*
X0252768Y0315829D01*
X0251900Y0313734D01*
X0251900Y0309961D01*
X0244371Y0302432D01*
X0242768Y0300829D01*
X0241900Y0298734D01*
X0241900Y0259961D01*
X0240239Y0258300D01*
X0226966Y0258300D01*
X0224871Y0257432D01*
X0220664Y0253225D01*
X0215158Y0253225D01*
X0212356Y0252064D01*
X0210211Y0249919D01*
X0209050Y0247117D01*
X0209050Y0244083D01*
X0210211Y0241281D01*
X0212356Y0239136D01*
X0215158Y0237975D01*
X0219957Y0237975D01*
X0225707Y0232225D01*
X0215158Y0232225D01*
X0212356Y0231064D01*
X0210211Y0228919D01*
X0209050Y0226117D01*
X0209050Y0223083D01*
X0210211Y0220281D01*
X0212356Y0218136D01*
X0215158Y0216975D01*
X0225707Y0216975D01*
X0218957Y0210225D01*
X0215158Y0210225D01*
X0212356Y0209064D01*
X0210211Y0206919D01*
X0209050Y0204117D01*
X0209050Y0201083D01*
X0210211Y0198281D01*
X0212356Y0196136D01*
X0215158Y0194975D01*
X0227042Y0194975D01*
X0229844Y0196136D01*
X0231989Y0198281D01*
X0232040Y0198402D01*
X0232842Y0197600D01*
X0231750Y0196509D01*
X0230700Y0193972D01*
X0230700Y0191227D01*
X0231750Y0188691D01*
X0233266Y0187176D01*
X0232795Y0186704D01*
X0232212Y0185902D01*
X0231762Y0185018D01*
X0231518Y0184269D01*
X0231379Y0184511D01*
X0230818Y0185242D01*
X0230167Y0185893D01*
X0229436Y0186454D01*
X0228639Y0186914D01*
X0227788Y0187266D01*
X0226898Y0187505D01*
X0225985Y0187625D01*
X0221100Y0187625D01*
X0221100Y0180600D01*
X0221100Y0180600D01*
X0221100Y0173575D01*
X0225985Y0173575D01*
X0226898Y0173695D01*
X0227788Y0173934D01*
X0228639Y0174286D01*
X0229436Y0174746D01*
X0230167Y0175307D01*
X0230818Y0175958D01*
X0231379Y0176689D01*
X0231839Y0177486D01*
X0232191Y0178337D01*
X0232385Y0179060D01*
X0232795Y0178496D01*
X0233266Y0178024D01*
X0231750Y0176509D01*
X0230700Y0173972D01*
X0230700Y0171227D01*
X0231750Y0168691D01*
X0233691Y0166750D01*
X0233828Y0166694D01*
X0232885Y0165751D01*
X0232273Y0164275D01*
X0232199Y0164505D01*
X0231844Y0165201D01*
X0231385Y0165833D01*
X0230833Y0166385D01*
X0230201Y0166844D01*
X0229505Y0167199D01*
X0228762Y0167440D01*
X0227991Y0167562D01*
X0227600Y0167562D01*
X0227600Y0162600D01*
X0227600Y0162600D01*
X0227600Y0157638D01*
X0227991Y0157638D01*
X0228762Y0157760D01*
X0229505Y0158001D01*
X0230201Y0158356D01*
X0230833Y0158815D01*
X0231385Y0159367D01*
X0231844Y0159999D01*
X0232199Y0160695D01*
X0232273Y0160925D01*
X0232885Y0159449D01*
X0234449Y0157885D01*
X0236494Y0157038D01*
X0238600Y0157038D01*
X0238600Y0130072D01*
X0226656Y0124100D01*
X0223619Y0124100D01*
X0224500Y0126227D01*
X0224500Y0128972D01*
X0223450Y0131509D01*
X0222358Y0132600D01*
X0223450Y0133691D01*
X0224500Y0136227D01*
X0224500Y0138972D01*
X0223450Y0141509D01*
X0222358Y0142600D01*
X0223450Y0143691D01*
X0224500Y0146227D01*
X0224500Y0148543D01*
X0227450Y0145593D01*
X0227450Y0145076D01*
X0228234Y0143183D01*
X0228246Y0143171D01*
X0227937Y0142863D01*
X0227450Y0141687D01*
X0227450Y0136513D01*
X0227937Y0135337D01*
X0228837Y0134437D01*
X0230013Y0133950D01*
X0235187Y0133950D01*
X0236363Y0134437D01*
X0237263Y0135337D01*
X0237750Y0136513D01*
X0237750Y0141687D01*
X0237263Y0142863D01*
X0236954Y0143171D01*
X0236966Y0143183D01*
X0237750Y0145076D01*
X0237750Y0147124D01*
X0236966Y0149017D01*
X0235517Y0150466D01*
X0233624Y0151250D01*
X0233107Y0151250D01*
X0226627Y0157730D01*
X0227209Y0157638D01*
X0227600Y0157638D01*
X0227600Y0162600D01*
X0227600Y0162600D01*
X0227600Y0162600D01*
X0222638Y0162600D01*
X0222638Y0162991D01*
X0222760Y0163762D01*
X0223001Y0164505D01*
X0223356Y0165201D01*
X0223815Y0165833D01*
X0224367Y0166385D01*
X0224999Y0166844D01*
X0225695Y0167199D01*
X0226438Y0167440D01*
X0227209Y0167562D01*
X0227600Y0167562D01*
X0227600Y0162600D01*
X0222638Y0162600D01*
X0222638Y0162320D01*
X0221509Y0163450D01*
X0218972Y0164500D01*
X0216357Y0164500D01*
X0213893Y0166964D01*
X0214254Y0167324D01*
X0215000Y0169125D01*
X0215000Y0171075D01*
X0214254Y0172876D01*
X0212876Y0174254D01*
X0211075Y0175000D01*
X0210857Y0175000D01*
X0204100Y0181757D01*
X0204100Y0282549D01*
X0203491Y0284019D01*
X0202768Y0284742D01*
X0202768Y0287055D01*
X0202543Y0287600D01*
X0202768Y0288145D01*
X0202768Y0293748D01*
X0202281Y0294924D01*
X0201381Y0295825D01*
X0200205Y0296312D01*
X0194995Y0296312D01*
X0193819Y0295825D01*
X0192941Y0294946D01*
X0190962Y0294946D01*
X0189844Y0296064D01*
X0187042Y0297225D01*
X0175158Y0297225D01*
X0172356Y0296064D01*
X0170211Y0293919D01*
X0169050Y0291117D01*
X0169050Y0288083D01*
X0170211Y0285281D01*
X0172356Y0283136D01*
X0175158Y0281975D01*
X0187042Y0281975D01*
X0189844Y0283136D01*
X0191989Y0285281D01*
X0192431Y0286349D01*
X0192431Y0281452D01*
X0192919Y0280276D01*
X0193819Y0279375D01*
X0194995Y0278888D01*
X0196100Y0278888D01*
X0196100Y0179304D01*
X0196709Y0177834D01*
X0197043Y0177500D01*
X0196227Y0177500D01*
X0193691Y0176450D01*
X0192600Y0175358D01*
X0191509Y0176450D01*
X0191271Y0176548D01*
X0191379Y0176689D01*
X0191839Y0177486D01*
X0192191Y0178337D01*
X0192430Y0179227D01*
X0192550Y0180140D01*
X0192550Y0180600D01*
X0181100Y0180600D01*
X0181100Y0181717D02*
X0181100Y0181717D01*
X0181100Y0184915D02*
X0181100Y0184915D01*
X0172872Y0188114D02*
X0196100Y0188114D01*
X0196100Y0191312D02*
X0174500Y0191312D01*
X0174277Y0194511D02*
X0196100Y0194511D01*
X0196100Y0197709D02*
X0191418Y0197709D01*
X0193077Y0200908D02*
X0196100Y0200908D01*
X0196100Y0204106D02*
X0193150Y0204106D01*
X0191604Y0207305D02*
X0196100Y0207305D01*
X0196100Y0210503D02*
X0183465Y0210503D01*
X0180266Y0213702D02*
X0196100Y0213702D01*
X0196100Y0216900D02*
X0177068Y0216900D01*
X0191807Y0220099D02*
X0196100Y0220099D01*
X0196100Y0223297D02*
X0193150Y0223297D01*
X0192993Y0226496D02*
X0196100Y0226496D01*
X0196100Y0229694D02*
X0191214Y0229694D01*
X0196100Y0232893D02*
X0177161Y0232893D01*
X0180359Y0236091D02*
X0196100Y0236091D01*
X0196100Y0239290D02*
X0189998Y0239290D01*
X0192489Y0242488D02*
X0196100Y0242488D01*
X0196100Y0245687D02*
X0193150Y0245687D01*
X0192417Y0248885D02*
X0196100Y0248885D01*
X0196100Y0252084D02*
X0189797Y0252084D01*
X0196100Y0255282D02*
X0179479Y0255282D01*
X0176280Y0258481D02*
X0196100Y0258481D01*
X0196100Y0261679D02*
X0190388Y0261679D01*
X0192651Y0264878D02*
X0196100Y0264878D01*
X0196100Y0268076D02*
X0193150Y0268076D01*
X0192256Y0271275D02*
X0196100Y0271275D01*
X0196100Y0274473D02*
X0188856Y0274473D01*
X0192672Y0280870D02*
X0153891Y0280870D01*
X0153300Y0284069D02*
X0171423Y0284069D01*
X0169388Y0287268D02*
X0153300Y0287268D01*
X0153300Y0290466D02*
X0169050Y0290466D01*
X0170105Y0293665D02*
X0153300Y0293665D01*
X0153300Y0296863D02*
X0174284Y0296863D01*
X0187916Y0296863D02*
X0214284Y0296863D01*
X0215158Y0297225D02*
X0212356Y0296064D01*
X0210211Y0293919D01*
X0209050Y0291117D01*
X0209050Y0288083D01*
X0210211Y0285281D01*
X0212356Y0283136D01*
X0215158Y0281975D01*
X0227042Y0281975D01*
X0229844Y0283136D01*
X0231989Y0285281D01*
X0233150Y0288083D01*
X0233150Y0291117D01*
X0231989Y0293919D01*
X0229844Y0296064D01*
X0227042Y0297225D01*
X0215158Y0297225D01*
X0210105Y0293665D02*
X0202768Y0293665D01*
X0202768Y0290466D02*
X0209050Y0290466D01*
X0209388Y0287268D02*
X0202681Y0287268D01*
X0203441Y0284069D02*
X0211423Y0284069D01*
X0204100Y0280870D02*
X0241900Y0280870D01*
X0241900Y0277672D02*
X0204100Y0277672D01*
X0204100Y0274473D02*
X0213344Y0274473D01*
X0212356Y0274064D02*
X0210211Y0271919D01*
X0209050Y0269117D01*
X0209050Y0266083D01*
X0210211Y0263281D01*
X0212356Y0261136D01*
X0215158Y0259975D01*
X0227042Y0259975D01*
X0229844Y0261136D01*
X0231989Y0263281D01*
X0233150Y0266083D01*
X0233150Y0269117D01*
X0231989Y0271919D01*
X0229844Y0274064D01*
X0227042Y0275225D01*
X0215158Y0275225D01*
X0212356Y0274064D01*
X0209944Y0271275D02*
X0204100Y0271275D01*
X0204100Y0268076D02*
X0209050Y0268076D01*
X0209549Y0264878D02*
X0204100Y0264878D01*
X0204100Y0261679D02*
X0211812Y0261679D01*
X0204100Y0258481D02*
X0240420Y0258481D01*
X0241900Y0261679D02*
X0230388Y0261679D01*
X0232651Y0264878D02*
X0241900Y0264878D01*
X0241900Y0268076D02*
X0233150Y0268076D01*
X0232256Y0271275D02*
X0241900Y0271275D01*
X0241900Y0274473D02*
X0228856Y0274473D01*
X0230777Y0284069D02*
X0241900Y0284069D01*
X0241900Y0287268D02*
X0232812Y0287268D01*
X0233150Y0290466D02*
X0241900Y0290466D01*
X0241900Y0293665D02*
X0232095Y0293665D01*
X0227916Y0296863D02*
X0241900Y0296863D01*
X0242450Y0300062D02*
X0153300Y0300062D01*
X0153300Y0303260D02*
X0245199Y0303260D01*
X0244371Y0302432D02*
X0244371Y0302432D01*
X0248398Y0306459D02*
X0153300Y0306459D01*
X0152918Y0309657D02*
X0251596Y0309657D01*
X0251900Y0312856D02*
X0150800Y0312856D01*
X0151843Y0316054D02*
X0189006Y0316054D01*
X0188957Y0319253D02*
X0151843Y0319253D01*
X0151843Y0322451D02*
X0188957Y0322451D01*
X0188957Y0320100D02*
X0195100Y0320100D01*
X0195100Y0320100D01*
X0195100Y0313957D01*
X0195100Y0320100D01*
X0195100Y0320100D01*
X0195100Y0320100D01*
X0188957Y0320100D01*
X0195100Y0319253D02*
X0195100Y0319253D01*
X0195100Y0316054D02*
X0195100Y0316054D01*
X0201194Y0316054D02*
X0202136Y0316054D01*
X0202136Y0319253D02*
X0201243Y0319253D01*
X0201243Y0322451D02*
X0202136Y0322451D01*
X0215623Y0322451D02*
X0254577Y0322451D01*
X0254577Y0319253D02*
X0215623Y0319253D01*
X0215623Y0316054D02*
X0252993Y0316054D01*
X0273300Y0282745D02*
X0275158Y0281975D01*
X0287042Y0281975D01*
X0289844Y0283136D01*
X0291989Y0285281D01*
X0292431Y0286349D01*
X0292431Y0281452D01*
X0292919Y0280276D01*
X0293600Y0279594D01*
X0293600Y0181804D01*
X0294209Y0180334D01*
X0295334Y0179209D01*
X0302885Y0171658D01*
X0302834Y0171672D01*
X0302322Y0171600D01*
X0298358Y0171600D01*
X0296509Y0173450D01*
X0293972Y0174500D01*
X0291227Y0174500D01*
X0288691Y0173450D01*
X0287600Y0172358D01*
X0286509Y0173450D01*
X0286152Y0173597D01*
X0286898Y0173695D01*
X0287788Y0173934D01*
X0288639Y0174286D01*
X0289436Y0174746D01*
X0290167Y0175307D01*
X0290818Y0175958D01*
X0291379Y0176689D01*
X0291839Y0177486D01*
X0292191Y0178337D01*
X0292430Y0179227D01*
X0292550Y0180140D01*
X0292550Y0180600D01*
X0292550Y0181060D01*
X0292430Y0181973D01*
X0292191Y0182863D01*
X0291839Y0183714D01*
X0291379Y0184511D01*
X0290818Y0185242D01*
X0290167Y0185893D01*
X0289436Y0186454D01*
X0288639Y0186914D01*
X0287788Y0187266D01*
X0286898Y0187505D01*
X0285985Y0187625D01*
X0281100Y0187625D01*
X0281100Y0180600D01*
X0281100Y0180600D01*
X0292550Y0180600D01*
X0281100Y0180600D01*
X0281100Y0180600D01*
X0281100Y0187625D01*
X0276215Y0187625D01*
X0275302Y0187505D01*
X0274412Y0187266D01*
X0273561Y0186914D01*
X0273233Y0186725D01*
X0272358Y0187600D01*
X0273450Y0188691D01*
X0274500Y0191227D01*
X0274500Y0193972D01*
X0273862Y0195512D01*
X0275158Y0194975D01*
X0287042Y0194975D01*
X0289844Y0196136D01*
X0291989Y0198281D01*
X0293150Y0201083D01*
X0293150Y0204117D01*
X0291989Y0206919D01*
X0289844Y0209064D01*
X0287042Y0210225D01*
X0283743Y0210225D01*
X0276993Y0216975D01*
X0287042Y0216975D01*
X0289844Y0218136D01*
X0291989Y0220281D01*
X0293150Y0223083D01*
X0293150Y0226117D01*
X0291989Y0228919D01*
X0289844Y0231064D01*
X0287042Y0232225D01*
X0276493Y0232225D01*
X0282243Y0237975D01*
X0287042Y0237975D01*
X0289844Y0239136D01*
X0291989Y0241281D01*
X0293150Y0244083D01*
X0293150Y0247117D01*
X0291989Y0249919D01*
X0289844Y0252064D01*
X0287042Y0253225D01*
X0281536Y0253225D01*
X0274523Y0260238D01*
X0275158Y0259975D01*
X0287042Y0259975D01*
X0289844Y0261136D01*
X0291989Y0263281D01*
X0293150Y0266083D01*
X0293150Y0269117D01*
X0291989Y0271919D01*
X0289844Y0274064D01*
X0287042Y0275225D01*
X0275158Y0275225D01*
X0273300Y0274455D01*
X0273300Y0282745D01*
X0273300Y0280870D02*
X0292672Y0280870D01*
X0292431Y0284069D02*
X0290777Y0284069D01*
X0293600Y0277672D02*
X0273300Y0277672D01*
X0273300Y0274473D02*
X0273344Y0274473D01*
X0288856Y0274473D02*
X0293600Y0274473D01*
X0293600Y0271275D02*
X0292256Y0271275D01*
X0293150Y0268076D02*
X0293600Y0268076D01*
X0293600Y0264878D02*
X0292651Y0264878D01*
X0293600Y0261679D02*
X0290388Y0261679D01*
X0293600Y0258481D02*
X0276280Y0258481D01*
X0279479Y0255282D02*
X0293600Y0255282D01*
X0293600Y0252084D02*
X0289797Y0252084D01*
X0292417Y0248885D02*
X0293600Y0248885D01*
X0293600Y0245687D02*
X0293150Y0245687D01*
X0293600Y0242488D02*
X0292489Y0242488D01*
X0293600Y0239290D02*
X0289998Y0239290D01*
X0293600Y0236091D02*
X0280359Y0236091D01*
X0277161Y0232893D02*
X0293600Y0232893D01*
X0293600Y0229694D02*
X0291214Y0229694D01*
X0292993Y0226496D02*
X0293600Y0226496D01*
X0293600Y0223297D02*
X0293150Y0223297D01*
X0293600Y0220099D02*
X0291807Y0220099D01*
X0293600Y0216900D02*
X0277068Y0216900D01*
X0280266Y0213702D02*
X0293600Y0213702D01*
X0293600Y0210503D02*
X0283465Y0210503D01*
X0291604Y0207305D02*
X0293600Y0207305D01*
X0293600Y0204106D02*
X0293150Y0204106D01*
X0293077Y0200908D02*
X0293600Y0200908D01*
X0293600Y0197709D02*
X0291418Y0197709D01*
X0293600Y0194511D02*
X0274277Y0194511D01*
X0274500Y0191312D02*
X0293600Y0191312D01*
X0293600Y0188114D02*
X0272872Y0188114D01*
X0281100Y0184915D02*
X0281100Y0184915D01*
X0281100Y0181717D02*
X0281100Y0181717D01*
X0278994Y0173575D02*
X0278691Y0173450D01*
X0276750Y0171509D01*
X0275700Y0168972D01*
X0275700Y0166227D01*
X0276750Y0163691D01*
X0278691Y0161750D01*
X0281227Y0160700D01*
X0282843Y0160700D01*
X0291209Y0152334D01*
X0292334Y0151209D01*
X0293804Y0150600D01*
X0300660Y0150600D01*
X0301625Y0150200D01*
X0303575Y0150200D01*
X0305376Y0150946D01*
X0305700Y0151270D01*
X0305700Y0149227D01*
X0306750Y0146691D01*
X0307842Y0145600D01*
X0306750Y0144509D01*
X0305700Y0141972D01*
X0305700Y0139227D01*
X0305753Y0139100D01*
X0289447Y0139100D01*
X0289500Y0139227D01*
X0289500Y0141972D01*
X0288450Y0144509D01*
X0287358Y0145600D01*
X0288450Y0146691D01*
X0289500Y0149227D01*
X0289500Y0151972D01*
X0288450Y0154509D01*
X0286509Y0156450D01*
X0283972Y0157500D01*
X0281227Y0157500D01*
X0278691Y0156450D01*
X0277154Y0154912D01*
X0275751Y0156315D01*
X0273706Y0157162D01*
X0271494Y0157162D01*
X0269449Y0156315D01*
X0267885Y0154751D01*
X0267038Y0152706D01*
X0267038Y0150494D01*
X0267885Y0148449D01*
X0269449Y0146885D01*
X0270925Y0146273D01*
X0270695Y0146199D01*
X0269999Y0145844D01*
X0269367Y0145385D01*
X0268815Y0144833D01*
X0268356Y0144201D01*
X0268001Y0143505D01*
X0267760Y0142762D01*
X0267638Y0141991D01*
X0267638Y0141600D01*
X0267638Y0141209D01*
X0267760Y0140438D01*
X0268001Y0139695D01*
X0268356Y0138999D01*
X0268815Y0138367D01*
X0269367Y0137815D01*
X0269999Y0137356D01*
X0270695Y0137001D01*
X0271438Y0136760D01*
X0272209Y0136638D01*
X0272600Y0136638D01*
X0272991Y0136638D01*
X0273762Y0136760D01*
X0274053Y0136854D01*
X0256005Y0116100D01*
X0227742Y0116100D01*
X0228396Y0116100D01*
X0228531Y0116156D01*
X0228677Y0116166D01*
X0229262Y0116459D01*
X0229866Y0116709D01*
X0229969Y0116813D01*
X0244262Y0123959D01*
X0244866Y0124209D01*
X0244969Y0124313D01*
X0245100Y0124378D01*
X0245529Y0124872D01*
X0245991Y0125334D01*
X0246047Y0125470D01*
X0246143Y0125580D01*
X0246350Y0126200D01*
X0246600Y0126804D01*
X0246600Y0126951D01*
X0246646Y0127090D01*
X0246600Y0127742D01*
X0246600Y0150817D01*
X0247183Y0150234D01*
X0249076Y0149450D01*
X0251124Y0149450D01*
X0253017Y0150234D01*
X0253029Y0150246D01*
X0253337Y0149937D01*
X0254513Y0149450D01*
X0259687Y0149450D01*
X0260863Y0149937D01*
X0261763Y0150837D01*
X0262250Y0152013D01*
X0262250Y0157187D01*
X0261763Y0158363D01*
X0260863Y0159263D01*
X0259687Y0159750D01*
X0254513Y0159750D01*
X0253337Y0159263D01*
X0253029Y0158954D01*
X0253017Y0158966D01*
X0251124Y0159750D01*
X0249076Y0159750D01*
X0247183Y0158966D01*
X0246600Y0158383D01*
X0246600Y0158443D01*
X0248491Y0160334D01*
X0249100Y0161804D01*
X0249100Y0185896D01*
X0248491Y0187366D01*
X0247366Y0188491D01*
X0244500Y0191357D01*
X0244500Y0193972D01*
X0243450Y0196509D01*
X0242358Y0197600D01*
X0243450Y0198691D01*
X0244500Y0201227D01*
X0244500Y0203972D01*
X0243450Y0206509D01*
X0241509Y0208450D01*
X0238972Y0209500D01*
X0236227Y0209500D01*
X0235443Y0209175D01*
X0238855Y0212587D01*
X0239691Y0211750D01*
X0242227Y0210700D01*
X0244972Y0210700D01*
X0247509Y0211750D01*
X0248600Y0212842D01*
X0249691Y0211750D01*
X0252227Y0210700D01*
X0254972Y0210700D01*
X0256100Y0211167D01*
X0256100Y0196804D01*
X0256709Y0195334D01*
X0257834Y0194209D01*
X0260700Y0191343D01*
X0260700Y0191227D01*
X0261750Y0188691D01*
X0262842Y0187600D01*
X0261750Y0186509D01*
X0260700Y0183972D01*
X0260700Y0181227D01*
X0261750Y0178691D01*
X0262842Y0177600D01*
X0261750Y0176509D01*
X0260700Y0173972D01*
X0260700Y0171227D01*
X0261750Y0168691D01*
X0263691Y0166750D01*
X0266227Y0165700D01*
X0268972Y0165700D01*
X0271509Y0166750D01*
X0273450Y0168691D01*
X0274500Y0171227D01*
X0274500Y0173910D01*
X0275302Y0173695D01*
X0276215Y0173575D01*
X0278994Y0173575D01*
X0277363Y0172121D02*
X0274500Y0172121D01*
X0273545Y0168923D02*
X0275700Y0168923D01*
X0275909Y0165724D02*
X0269031Y0165724D01*
X0266169Y0165724D02*
X0249100Y0165724D01*
X0249100Y0162526D02*
X0277916Y0162526D01*
X0278370Y0156129D02*
X0275938Y0156129D01*
X0269262Y0156129D02*
X0262250Y0156129D01*
X0262250Y0152930D02*
X0267130Y0152930D01*
X0267353Y0149732D02*
X0260366Y0149732D01*
X0253834Y0149732D02*
X0251804Y0149732D01*
X0248396Y0149732D02*
X0246600Y0149732D01*
X0246600Y0146533D02*
X0270298Y0146533D01*
X0267946Y0143334D02*
X0246600Y0143334D01*
X0246600Y0140136D02*
X0267858Y0140136D01*
X0267638Y0141600D02*
X0272600Y0141600D01*
X0272600Y0136638D01*
X0272600Y0141600D01*
X0272600Y0141600D01*
X0272600Y0141600D01*
X0267638Y0141600D01*
X0272600Y0140136D02*
X0272600Y0140136D01*
X0272600Y0136937D02*
X0272600Y0136937D01*
X0270892Y0136937D02*
X0246600Y0136937D01*
X0246600Y0133739D02*
X0271344Y0133739D01*
X0268562Y0130540D02*
X0246600Y0130540D01*
X0246628Y0127342D02*
X0265781Y0127342D01*
X0263000Y0124143D02*
X0244708Y0124143D01*
X0238234Y0120945D02*
X0260218Y0120945D01*
X0257437Y0117746D02*
X0231837Y0117746D01*
X0227742Y0116100D02*
X0227742Y0116100D01*
X0226743Y0124143D02*
X0223637Y0124143D01*
X0224500Y0127342D02*
X0233140Y0127342D01*
X0238600Y0130540D02*
X0223851Y0130540D01*
X0223469Y0133739D02*
X0238600Y0133739D01*
X0238600Y0136937D02*
X0237750Y0136937D01*
X0237750Y0140136D02*
X0238600Y0140136D01*
X0238600Y0143334D02*
X0237029Y0143334D01*
X0237750Y0146533D02*
X0238600Y0146533D01*
X0238600Y0149732D02*
X0236252Y0149732D01*
X0238600Y0152930D02*
X0231427Y0152930D01*
X0228228Y0156129D02*
X0238600Y0156129D01*
X0233007Y0159327D02*
X0231345Y0159327D01*
X0227600Y0159327D02*
X0227600Y0159327D01*
X0227600Y0162526D02*
X0227600Y0162526D01*
X0227600Y0165724D02*
X0227600Y0165724D01*
X0223736Y0165724D02*
X0215133Y0165724D01*
X0214916Y0168923D02*
X0231655Y0168923D01*
X0231464Y0165724D02*
X0232874Y0165724D01*
X0230700Y0172121D02*
X0214567Y0172121D01*
X0215302Y0173695D02*
X0214412Y0173934D01*
X0213561Y0174286D01*
X0212764Y0174746D01*
X0212033Y0175307D01*
X0211382Y0175958D01*
X0210821Y0176689D01*
X0210361Y0177486D01*
X0210009Y0178337D01*
X0209770Y0179227D01*
X0209650Y0180140D01*
X0209650Y0180600D01*
X0221100Y0180600D01*
X0221100Y0180600D01*
X0221100Y0180600D01*
X0221100Y0187625D01*
X0216215Y0187625D01*
X0215302Y0187505D01*
X0214412Y0187266D01*
X0213561Y0186914D01*
X0212764Y0186454D01*
X0212033Y0185893D01*
X0211382Y0185242D01*
X0210821Y0184511D01*
X0210361Y0183714D01*
X0210009Y0182863D01*
X0209770Y0181973D01*
X0209650Y0181060D01*
X0209650Y0180600D01*
X0221100Y0180600D01*
X0221100Y0173575D01*
X0216215Y0173575D01*
X0215302Y0173695D01*
X0212021Y0175320D02*
X0210537Y0175320D01*
X0209960Y0178518D02*
X0207339Y0178518D01*
X0209736Y0181717D02*
X0204140Y0181717D01*
X0204100Y0184915D02*
X0211131Y0184915D01*
X0204100Y0188114D02*
X0232328Y0188114D01*
X0231728Y0184915D02*
X0231069Y0184915D01*
X0230700Y0191312D02*
X0204100Y0191312D01*
X0204100Y0194511D02*
X0230923Y0194511D01*
X0231418Y0197709D02*
X0232733Y0197709D01*
X0242467Y0197709D02*
X0256100Y0197709D01*
X0256100Y0200908D02*
X0244368Y0200908D01*
X0244445Y0204106D02*
X0256100Y0204106D01*
X0256100Y0207305D02*
X0242653Y0207305D01*
X0236771Y0210503D02*
X0256100Y0210503D01*
X0257532Y0194511D02*
X0244277Y0194511D01*
X0244545Y0191312D02*
X0260700Y0191312D01*
X0262328Y0188114D02*
X0247743Y0188114D01*
X0249100Y0184915D02*
X0261090Y0184915D01*
X0260700Y0181717D02*
X0249100Y0181717D01*
X0249100Y0178518D02*
X0261924Y0178518D01*
X0261258Y0175320D02*
X0249100Y0175320D01*
X0249100Y0172121D02*
X0260700Y0172121D01*
X0261655Y0168923D02*
X0249100Y0168923D01*
X0248055Y0159327D02*
X0247484Y0159327D01*
X0252145Y0159327D02*
X0253492Y0159327D01*
X0260708Y0159327D02*
X0284216Y0159327D01*
X0286830Y0156129D02*
X0287415Y0156129D01*
X0289103Y0152930D02*
X0290613Y0152930D01*
X0289500Y0149732D02*
X0305700Y0149732D01*
X0306909Y0146533D02*
X0288291Y0146533D01*
X0288936Y0143334D02*
X0306264Y0143334D01*
X0305700Y0140136D02*
X0289500Y0140136D01*
X0288737Y0132100D02*
X0305753Y0132100D01*
X0305700Y0131972D01*
X0305700Y0129227D01*
X0306750Y0126691D01*
X0307842Y0125600D01*
X0306750Y0124509D01*
X0305700Y0121972D01*
X0305700Y0119227D01*
X0306750Y0116691D01*
X0308691Y0114750D01*
X0311227Y0113700D01*
X0313972Y0113700D01*
X0316509Y0114750D01*
X0318450Y0116691D01*
X0319500Y0119227D01*
X0319500Y0121972D01*
X0318450Y0124509D01*
X0317358Y0125600D01*
X0318450Y0126691D01*
X0319500Y0129227D01*
X0319500Y0131972D01*
X0319447Y0132100D01*
X0329234Y0132100D01*
X0327885Y0130751D01*
X0327038Y0128706D01*
X0327038Y0126494D01*
X0327885Y0124449D01*
X0329449Y0122885D01*
X0330925Y0122273D01*
X0330695Y0122199D01*
X0329999Y0121844D01*
X0329367Y0121385D01*
X0328815Y0120833D01*
X0328356Y0120201D01*
X0328001Y0119505D01*
X0327760Y0118762D01*
X0327638Y0117991D01*
X0327638Y0117600D01*
X0327638Y0117209D01*
X0327760Y0116438D01*
X0328001Y0115695D01*
X0328356Y0114999D01*
X0328815Y0114367D01*
X0329367Y0113815D01*
X0329999Y0113356D01*
X0330695Y0113001D01*
X0331438Y0112760D01*
X0332209Y0112638D01*
X0332600Y0112638D01*
X0332991Y0112638D01*
X0333762Y0112760D01*
X0334505Y0113001D01*
X0335201Y0113356D01*
X0335833Y0113815D01*
X0336385Y0114367D01*
X0336439Y0114442D01*
X0336750Y0113691D01*
X0338266Y0112176D01*
X0337795Y0111704D01*
X0337212Y0110902D01*
X0336762Y0110018D01*
X0336455Y0109075D01*
X0336300Y0108096D01*
X0336300Y0107600D01*
X0342600Y0107600D01*
X0348900Y0107600D01*
X0348900Y0108096D01*
X0348745Y0109075D01*
X0348438Y0110018D01*
X0347988Y0110902D01*
X0347405Y0111704D01*
X0346934Y0112176D01*
X0348450Y0113691D01*
X0349500Y0116227D01*
X0349500Y0118972D01*
X0348450Y0121509D01*
X0347358Y0122600D01*
X0348450Y0123691D01*
X0349500Y0126227D01*
X0349500Y0128972D01*
X0348450Y0131509D01*
X0346509Y0133450D01*
X0343972Y0134500D01*
X0341227Y0134500D01*
X0338691Y0133450D01*
X0336750Y0131509D01*
X0336694Y0131372D01*
X0335751Y0132315D01*
X0335283Y0132509D01*
X0335583Y0132633D01*
X0335673Y0132724D01*
X0335788Y0132781D01*
X0336163Y0133213D01*
X0336567Y0133617D01*
X0336616Y0133736D01*
X0336700Y0133833D01*
X0336881Y0134375D01*
X0337100Y0134904D01*
X0337100Y0135032D01*
X0337927Y0137514D01*
X0338691Y0136750D01*
X0341227Y0135700D01*
X0343972Y0135700D01*
X0346509Y0136750D01*
X0347600Y0137842D01*
X0348691Y0136750D01*
X0351227Y0135700D01*
X0353972Y0135700D01*
X0356509Y0136750D01*
X0358358Y0138600D01*
X0360459Y0138600D01*
X0366151Y0130062D01*
X0365700Y0128972D01*
X0365700Y0126227D01*
X0366750Y0123691D01*
X0367842Y0122600D01*
X0366750Y0121509D01*
X0365700Y0118972D01*
X0365700Y0116227D01*
X0366750Y0113691D01*
X0367842Y0112600D01*
X0366750Y0111509D01*
X0365700Y0108972D01*
X0365700Y0106227D01*
X0366750Y0103691D01*
X0367842Y0102600D01*
X0366750Y0101509D01*
X0365700Y0098972D01*
X0365700Y0096227D01*
X0366750Y0093691D01*
X0368691Y0091750D01*
X0371227Y0090700D01*
X0373972Y0090700D01*
X0376509Y0091750D01*
X0378450Y0093691D01*
X0379500Y0096227D01*
X0379500Y0098972D01*
X0378450Y0101509D01*
X0377358Y0102600D01*
X0378450Y0103691D01*
X0379500Y0106227D01*
X0379500Y0108972D01*
X0378450Y0111509D01*
X0377358Y0112600D01*
X0378450Y0113691D01*
X0379500Y0116227D01*
X0379500Y0116578D01*
X0384262Y0118959D01*
X0384866Y0119209D01*
X0384969Y0119313D01*
X0385100Y0119378D01*
X0385529Y0119872D01*
X0398101Y0132444D01*
X0398101Y0005800D01*
X0331457Y0005800D01*
X0339866Y0014209D01*
X0340991Y0015334D01*
X0341600Y0016804D01*
X0341600Y0023396D01*
X0340991Y0024866D01*
X0339866Y0025991D01*
X0339866Y0025991D01*
X0334600Y0031257D01*
X0334600Y0033992D01*
X0333534Y0036565D01*
X0332499Y0037600D01*
X0333534Y0038635D01*
X0334600Y0041208D01*
X0334600Y0043992D01*
X0333534Y0046565D01*
X0332499Y0047600D01*
X0333534Y0048635D01*
X0334600Y0051208D01*
X0334600Y0053992D01*
X0333534Y0056565D01*
X0332075Y0058024D01*
X0332422Y0058371D01*
X0332933Y0059037D01*
X0333352Y0059763D01*
X0333673Y0060538D01*
X0333890Y0061349D01*
X0334000Y0062181D01*
X0334000Y0062600D01*
X0334000Y0063019D01*
X0333890Y0063851D01*
X0333673Y0064662D01*
X0333352Y0065437D01*
X0332933Y0066163D01*
X0332422Y0066829D01*
X0331829Y0067422D01*
X0331163Y0067933D01*
X0330437Y0068352D01*
X0329662Y0068673D01*
X0328851Y0068890D01*
X0328019Y0069000D01*
X0327600Y0069000D01*
X0327600Y0062600D01*
X0327600Y0062600D01*
X0334000Y0062600D01*
X0327600Y0062600D01*
X0327600Y0062600D01*
X0327600Y0069000D01*
X0327181Y0069000D01*
X0326349Y0068890D01*
X0325538Y0068673D01*
X0324763Y0068352D01*
X0324037Y0067933D01*
X0323371Y0067422D01*
X0322778Y0066829D01*
X0322600Y0066597D01*
X0322422Y0066829D01*
X0321829Y0067422D01*
X0321163Y0067933D01*
X0320437Y0068352D01*
X0319662Y0068673D01*
X0318851Y0068890D01*
X0318019Y0069000D01*
X0317600Y0069000D01*
X0317600Y0062600D01*
X0317600Y0062600D01*
X0327600Y0062600D01*
X0327600Y0062600D01*
X0324000Y0062600D01*
X0317600Y0062600D01*
X0317600Y0062600D01*
X0317600Y0062600D01*
X0311200Y0062600D01*
X0311200Y0063019D01*
X0311310Y0063851D01*
X0311527Y0064662D01*
X0311848Y0065437D01*
X0312267Y0066163D01*
X0312778Y0066829D01*
X0313371Y0067422D01*
X0314037Y0067933D01*
X0314763Y0068352D01*
X0315538Y0068673D01*
X0316349Y0068890D01*
X0317181Y0069000D01*
X0317600Y0069000D01*
X0317600Y0062600D01*
X0311200Y0062600D01*
X0311200Y0062181D01*
X0311310Y0061349D01*
X0311527Y0060538D01*
X0311848Y0059763D01*
X0312267Y0059037D01*
X0312778Y0058371D01*
X0313125Y0058024D01*
X0311666Y0056565D01*
X0310600Y0053992D01*
X0310600Y0051208D01*
X0311666Y0048635D01*
X0312701Y0047600D01*
X0311666Y0046565D01*
X0310600Y0043992D01*
X0310600Y0041208D01*
X0311666Y0038635D01*
X0312701Y0037600D01*
X0311666Y0036565D01*
X0310600Y0033992D01*
X0310600Y0031208D01*
X0311666Y0028635D01*
X0312701Y0027600D01*
X0311666Y0026565D01*
X0310600Y0023992D01*
X0310600Y0021208D01*
X0311666Y0018635D01*
X0313635Y0016666D01*
X0315314Y0015970D01*
X0313443Y0014100D01*
X0283619Y0014100D01*
X0284500Y0016227D01*
X0284500Y0018972D01*
X0283450Y0021509D01*
X0282358Y0022600D01*
X0283450Y0023691D01*
X0284500Y0026227D01*
X0284500Y0028972D01*
X0283450Y0031509D01*
X0282358Y0032600D01*
X0283450Y0033691D01*
X0284500Y0036227D01*
X0284500Y0038972D01*
X0283450Y0041509D01*
X0282358Y0042600D01*
X0283450Y0043691D01*
X0284500Y0046227D01*
X0284500Y0048972D01*
X0283450Y0051509D01*
X0282358Y0052600D01*
X0283100Y0053342D01*
X0284691Y0051750D01*
X0287227Y0050700D01*
X0289972Y0050700D01*
X0292509Y0051750D01*
X0294450Y0053691D01*
X0295500Y0056227D01*
X0295500Y0058972D01*
X0294450Y0061509D01*
X0293358Y0062600D01*
X0294450Y0063691D01*
X0295500Y0066227D01*
X0295500Y0068972D01*
X0294450Y0071509D01*
X0293358Y0072600D01*
X0294450Y0073691D01*
X0295500Y0076227D01*
X0295500Y0078972D01*
X0294450Y0081509D01*
X0292509Y0083450D01*
X0289972Y0084500D01*
X0287227Y0084500D01*
X0284691Y0083450D01*
X0283100Y0081858D01*
X0282358Y0082600D01*
X0283450Y0083691D01*
X0284500Y0086227D01*
X0284500Y0088972D01*
X0283450Y0091509D01*
X0281509Y0093450D01*
X0278972Y0094500D01*
X0276227Y0094500D01*
X0273691Y0093450D01*
X0271750Y0091509D01*
X0270700Y0088972D01*
X0270700Y0086227D01*
X0271750Y0083691D01*
X0272842Y0082600D01*
X0271750Y0081509D01*
X0270700Y0078972D01*
X0270700Y0076227D01*
X0271750Y0073691D01*
X0272842Y0072600D01*
X0271750Y0071509D01*
X0270700Y0068972D01*
X0270700Y0066227D01*
X0271750Y0063691D01*
X0272842Y0062600D01*
X0271750Y0061509D01*
X0270700Y0058972D01*
X0270700Y0056227D01*
X0271750Y0053691D01*
X0272842Y0052600D01*
X0271750Y0051509D01*
X0270700Y0048972D01*
X0270700Y0046227D01*
X0271750Y0043691D01*
X0272842Y0042600D01*
X0272409Y0042167D01*
X0266600Y0045072D01*
X0266600Y0082204D01*
X0266678Y0082596D01*
X0266600Y0082992D01*
X0266600Y0083396D01*
X0266447Y0083765D01*
X0266370Y0084157D01*
X0266146Y0084493D01*
X0265991Y0084866D01*
X0265708Y0085148D01*
X0256146Y0099493D01*
X0255991Y0099866D01*
X0255708Y0100148D01*
X0255487Y0100481D01*
X0255151Y0100705D01*
X0254866Y0100991D01*
X0254497Y0101144D01*
X0254165Y0101366D01*
X0253769Y0101445D01*
X0253396Y0101600D01*
X0252996Y0101600D01*
X0252604Y0101678D01*
X0252208Y0101600D01*
X0193499Y0101600D01*
X0192499Y0102600D01*
X0193534Y0103635D01*
X0194600Y0106208D01*
X0194600Y0108992D01*
X0194555Y0109100D01*
X0257030Y0109100D01*
X0257149Y0109060D01*
X0257722Y0109100D01*
X0258296Y0109100D01*
X0258412Y0109148D01*
X0258538Y0109157D01*
X0259052Y0109413D01*
X0259583Y0109633D01*
X0259672Y0109722D01*
X0259784Y0109778D01*
X0260161Y0110211D01*
X0260567Y0110617D01*
X0260615Y0110734D01*
X0276497Y0128997D01*
X0276762Y0128182D01*
X0277212Y0127298D01*
X0277795Y0126496D01*
X0278266Y0126024D01*
X0276750Y0124509D01*
X0275700Y0121972D01*
X0275700Y0119227D01*
X0276750Y0116691D01*
X0278691Y0114750D01*
X0281227Y0113700D01*
X0283972Y0113700D01*
X0286509Y0114750D01*
X0288450Y0116691D01*
X0289500Y0119227D01*
X0289500Y0121972D01*
X0288450Y0124509D01*
X0286934Y0126024D01*
X0287405Y0126496D01*
X0287988Y0127298D01*
X0288438Y0128182D01*
X0288745Y0129125D01*
X0288900Y0130104D01*
X0288900Y0130600D01*
X0288900Y0131096D01*
X0288745Y0132075D01*
X0288737Y0132100D01*
X0288900Y0130600D02*
X0282600Y0130600D01*
X0282600Y0130600D01*
X0288900Y0130600D01*
X0288900Y0130540D02*
X0305700Y0130540D01*
X0306481Y0127342D02*
X0288011Y0127342D01*
X0288601Y0124143D02*
X0306599Y0124143D01*
X0305700Y0120945D02*
X0289500Y0120945D01*
X0288886Y0117746D02*
X0306313Y0117746D01*
X0309180Y0114548D02*
X0286020Y0114548D01*
X0279180Y0114548D02*
X0263932Y0114548D01*
X0266713Y0117746D02*
X0276313Y0117746D01*
X0275700Y0120945D02*
X0269495Y0120945D01*
X0272276Y0124143D02*
X0276599Y0124143D01*
X0277189Y0127342D02*
X0275057Y0127342D01*
X0261151Y0111349D02*
X0337537Y0111349D01*
X0336309Y0108151D02*
X0194600Y0108151D01*
X0194080Y0104952D02*
X0290169Y0104952D01*
X0289734Y0104517D02*
X0288950Y0102624D01*
X0288950Y0100576D01*
X0289734Y0098683D01*
X0291183Y0097234D01*
X0293076Y0096450D01*
X0295124Y0096450D01*
X0297017Y0097234D01*
X0297029Y0097246D01*
X0297337Y0096937D01*
X0298513Y0096450D01*
X0303687Y0096450D01*
X0304863Y0096937D01*
X0305763Y0097837D01*
X0306250Y0099013D01*
X0306250Y0104187D01*
X0305763Y0105363D01*
X0304863Y0106263D01*
X0303687Y0106750D01*
X0298513Y0106750D01*
X0297337Y0106263D01*
X0297029Y0105954D01*
X0297017Y0105966D01*
X0295124Y0106750D01*
X0293076Y0106750D01*
X0291183Y0105966D01*
X0289734Y0104517D01*
X0288950Y0101754D02*
X0193346Y0101754D01*
X0180995Y0085254D02*
X0177259Y0085254D01*
X0176381Y0084375D01*
X0175205Y0083888D01*
X0169995Y0083888D01*
X0168819Y0084375D01*
X0167941Y0085254D01*
X0164205Y0085254D01*
X0163534Y0083635D01*
X0162499Y0082600D01*
X0163534Y0081565D01*
X0164600Y0078992D01*
X0164600Y0076208D01*
X0163534Y0073635D01*
X0162499Y0072600D01*
X0163499Y0071600D01*
X0167431Y0071600D01*
X0167431Y0072055D01*
X0167919Y0073232D01*
X0168061Y0073374D01*
X0168031Y0073525D01*
X0168031Y0075946D01*
X0172600Y0075946D01*
X0172600Y0075947D01*
X0172600Y0080712D01*
X0172600Y0075947D01*
X0172600Y0075947D01*
X0168031Y0075947D01*
X0168031Y0078368D01*
X0168131Y0078870D01*
X0168327Y0079343D01*
X0168612Y0079769D01*
X0168974Y0080131D01*
X0169400Y0080416D01*
X0169873Y0080612D01*
X0170375Y0080712D01*
X0172600Y0080712D01*
X0174825Y0080712D01*
X0175327Y0080612D01*
X0175800Y0080416D01*
X0176226Y0080131D01*
X0176588Y0079769D01*
X0176873Y0079343D01*
X0177069Y0078870D01*
X0177168Y0078368D01*
X0177168Y0075947D01*
X0172600Y0075947D01*
X0172600Y0075946D01*
X0177168Y0075946D01*
X0177168Y0073525D01*
X0177139Y0073374D01*
X0177281Y0073232D01*
X0177768Y0072055D01*
X0177768Y0071600D01*
X0181701Y0071600D01*
X0183125Y0073024D01*
X0182778Y0073371D01*
X0182267Y0074037D01*
X0181848Y0074763D01*
X0181527Y0075538D01*
X0181310Y0076349D01*
X0181200Y0077181D01*
X0181200Y0077600D01*
X0187600Y0077600D01*
X0187600Y0077600D01*
X0181200Y0077600D01*
X0181200Y0078019D01*
X0181310Y0078851D01*
X0181527Y0079662D01*
X0181848Y0080437D01*
X0182267Y0081163D01*
X0182778Y0081829D01*
X0183125Y0082176D01*
X0181666Y0083635D01*
X0180995Y0085254D01*
X0182738Y0082563D02*
X0162537Y0082563D01*
X0164446Y0079364D02*
X0168341Y0079364D01*
X0168031Y0076166D02*
X0164583Y0076166D01*
X0162867Y0072967D02*
X0167809Y0072967D01*
X0172600Y0076166D02*
X0172600Y0076166D01*
X0172600Y0079364D02*
X0172600Y0079364D01*
X0176859Y0079364D02*
X0181447Y0079364D01*
X0181359Y0076166D02*
X0177168Y0076166D01*
X0177391Y0072967D02*
X0183068Y0072967D01*
X0180600Y0056975D02*
X0176924Y0056975D01*
X0173726Y0053776D02*
X0181607Y0053776D01*
X0181257Y0050578D02*
X0170527Y0050578D01*
X0167329Y0047379D02*
X0180600Y0047379D01*
X0181440Y0044181D02*
X0163760Y0044181D01*
X0193760Y0044181D02*
X0197862Y0044181D01*
X0194664Y0047379D02*
X0194600Y0047379D01*
X0253821Y0018593D02*
X0270700Y0018593D01*
X0271045Y0015394D02*
X0253507Y0015394D01*
X0283167Y0021791D02*
X0310600Y0021791D01*
X0311013Y0024990D02*
X0283987Y0024990D01*
X0284500Y0028188D02*
X0312112Y0028188D01*
X0310600Y0031387D02*
X0283500Y0031387D01*
X0283820Y0034585D02*
X0310846Y0034585D01*
X0312517Y0037784D02*
X0284500Y0037784D01*
X0283668Y0040982D02*
X0310693Y0040982D01*
X0310678Y0044181D02*
X0283652Y0044181D01*
X0284500Y0047379D02*
X0312480Y0047379D01*
X0310861Y0050578D02*
X0283835Y0050578D01*
X0294485Y0053776D02*
X0310600Y0053776D01*
X0312075Y0056975D02*
X0295500Y0056975D01*
X0295003Y0060173D02*
X0311678Y0060173D01*
X0311246Y0063372D02*
X0294130Y0063372D01*
X0295500Y0066570D02*
X0312579Y0066570D01*
X0317600Y0066570D02*
X0317600Y0066570D01*
X0317600Y0063372D02*
X0317600Y0063372D01*
X0327600Y0063372D02*
X0327600Y0063372D01*
X0327600Y0066570D02*
X0327600Y0066570D01*
X0332621Y0066570D02*
X0398101Y0066570D01*
X0398101Y0063372D02*
X0333954Y0063372D01*
X0333522Y0060173D02*
X0398101Y0060173D01*
X0398101Y0056975D02*
X0333125Y0056975D01*
X0334600Y0053776D02*
X0398101Y0053776D01*
X0398101Y0050578D02*
X0334339Y0050578D01*
X0332720Y0047379D02*
X0398101Y0047379D01*
X0398101Y0044181D02*
X0334522Y0044181D01*
X0334507Y0040982D02*
X0398101Y0040982D01*
X0398101Y0037784D02*
X0332683Y0037784D01*
X0334354Y0034585D02*
X0398101Y0034585D01*
X0398101Y0031387D02*
X0334600Y0031387D01*
X0337669Y0028188D02*
X0398101Y0028188D01*
X0398101Y0024990D02*
X0340867Y0024990D01*
X0341600Y0021791D02*
X0398101Y0021791D01*
X0398101Y0018593D02*
X0341600Y0018593D01*
X0341016Y0015394D02*
X0398101Y0015394D01*
X0398101Y0012196D02*
X0337852Y0012196D01*
X0334654Y0008997D02*
X0398101Y0008997D01*
X0398101Y0069769D02*
X0295170Y0069769D01*
X0293725Y0072967D02*
X0351827Y0072967D01*
X0351183Y0073234D02*
X0353076Y0072450D01*
X0355124Y0072450D01*
X0357017Y0073234D01*
X0357029Y0073246D01*
X0357337Y0072937D01*
X0358513Y0072450D01*
X0363687Y0072450D01*
X0364863Y0072937D01*
X0365763Y0073837D01*
X0366250Y0075013D01*
X0366250Y0080187D01*
X0365763Y0081363D01*
X0364863Y0082263D01*
X0363687Y0082750D01*
X0358513Y0082750D01*
X0357337Y0082263D01*
X0357029Y0081954D01*
X0357017Y0081966D01*
X0355124Y0082750D01*
X0353076Y0082750D01*
X0351183Y0081966D01*
X0349734Y0080517D01*
X0348950Y0078624D01*
X0348950Y0076576D01*
X0349734Y0074683D01*
X0351183Y0073234D01*
X0349120Y0076166D02*
X0295474Y0076166D01*
X0295338Y0079364D02*
X0349256Y0079364D01*
X0352624Y0082563D02*
X0293395Y0082563D01*
X0283805Y0082563D02*
X0282395Y0082563D01*
X0284307Y0085761D02*
X0398101Y0085761D01*
X0398101Y0082563D02*
X0364138Y0082563D01*
X0366250Y0079364D02*
X0398101Y0079364D01*
X0398101Y0076166D02*
X0366250Y0076166D01*
X0364893Y0072967D02*
X0398101Y0072967D01*
X0398101Y0088960D02*
X0284500Y0088960D01*
X0282800Y0092158D02*
X0338284Y0092158D01*
X0338691Y0091750D02*
X0341227Y0090700D01*
X0343972Y0090700D01*
X0346509Y0091750D01*
X0348450Y0093691D01*
X0349500Y0096227D01*
X0349500Y0098972D01*
X0348450Y0101509D01*
X0346934Y0103024D01*
X0347405Y0103496D01*
X0347988Y0104298D01*
X0348438Y0105182D01*
X0348745Y0106125D01*
X0348900Y0107104D01*
X0348900Y0107600D01*
X0342600Y0107600D01*
X0342600Y0107600D01*
X0342600Y0107600D01*
X0336300Y0107600D01*
X0336300Y0107104D01*
X0336455Y0106125D01*
X0336762Y0105182D01*
X0337212Y0104298D01*
X0337795Y0103496D01*
X0338266Y0103024D01*
X0336750Y0101509D01*
X0335700Y0098972D01*
X0335700Y0096227D01*
X0336750Y0093691D01*
X0338691Y0091750D01*
X0336061Y0095357D02*
X0258903Y0095357D01*
X0256770Y0098555D02*
X0289861Y0098555D01*
X0306060Y0098555D02*
X0335700Y0098555D01*
X0336996Y0101754D02*
X0306250Y0101754D01*
X0305933Y0104952D02*
X0336878Y0104952D01*
X0348322Y0104952D02*
X0366228Y0104952D01*
X0365700Y0108151D02*
X0348891Y0108151D01*
X0347663Y0111349D02*
X0366685Y0111349D01*
X0366396Y0114548D02*
X0348804Y0114548D01*
X0349500Y0117746D02*
X0365700Y0117746D01*
X0366517Y0120945D02*
X0348683Y0120945D01*
X0348637Y0124143D02*
X0366563Y0124143D01*
X0365700Y0127342D02*
X0349500Y0127342D01*
X0348851Y0130540D02*
X0365832Y0130540D01*
X0363700Y0133739D02*
X0345810Y0133739D01*
X0346696Y0136937D02*
X0348504Y0136937D01*
X0356696Y0136937D02*
X0361568Y0136937D01*
X0369050Y0140136D02*
X0393600Y0140136D01*
X0393600Y0139257D02*
X0380231Y0125887D01*
X0379131Y0125338D01*
X0379500Y0126227D01*
X0379500Y0128972D01*
X0378450Y0131509D01*
X0376509Y0133450D01*
X0373972Y0134500D01*
X0372807Y0134500D01*
X0366146Y0144493D01*
X0365991Y0144866D01*
X0365708Y0145148D01*
X0365487Y0145481D01*
X0365151Y0145705D01*
X0364866Y0145991D01*
X0364497Y0146144D01*
X0364165Y0146366D01*
X0363769Y0146445D01*
X0363396Y0146600D01*
X0362996Y0146600D01*
X0362604Y0146678D01*
X0362208Y0146600D01*
X0358358Y0146600D01*
X0356509Y0148450D01*
X0353972Y0149500D01*
X0351227Y0149500D01*
X0348691Y0148450D01*
X0347600Y0147358D01*
X0346509Y0148450D01*
X0343972Y0149500D01*
X0341227Y0149500D01*
X0341100Y0149447D01*
X0341100Y0161150D01*
X0344583Y0164633D01*
X0345567Y0165617D01*
X0346100Y0166904D01*
X0346100Y0185796D01*
X0345567Y0187083D01*
X0341831Y0190819D01*
X0342000Y0191227D01*
X0342000Y0193972D01*
X0340950Y0196509D01*
X0339858Y0197600D01*
X0340950Y0198691D01*
X0342000Y0201227D01*
X0342000Y0203972D01*
X0341284Y0205700D01*
X0341472Y0205700D01*
X0344009Y0206750D01*
X0345100Y0207842D01*
X0346191Y0206750D01*
X0348727Y0205700D01*
X0351472Y0205700D01*
X0353600Y0206581D01*
X0353600Y0199304D01*
X0354209Y0197834D01*
X0358200Y0193843D01*
X0358200Y0191227D01*
X0359250Y0188691D01*
X0360342Y0187600D01*
X0359250Y0186509D01*
X0358200Y0183972D01*
X0358200Y0181227D01*
X0359250Y0178691D01*
X0360342Y0177600D01*
X0359250Y0176509D01*
X0358200Y0173972D01*
X0358200Y0171227D01*
X0359250Y0168691D01*
X0361191Y0166750D01*
X0363727Y0165700D01*
X0366472Y0165700D01*
X0369009Y0166750D01*
X0370950Y0168691D01*
X0372000Y0171227D01*
X0372000Y0173910D01*
X0372802Y0173695D01*
X0373715Y0173575D01*
X0378600Y0173575D01*
X0383485Y0173575D01*
X0384398Y0173695D01*
X0385288Y0173934D01*
X0386139Y0174286D01*
X0386936Y0174746D01*
X0387667Y0175307D01*
X0388318Y0175958D01*
X0388879Y0176689D01*
X0389339Y0177486D01*
X0389691Y0178337D01*
X0389930Y0179227D01*
X0390050Y0180140D01*
X0390050Y0180600D01*
X0390050Y0181060D01*
X0389930Y0181973D01*
X0389691Y0182863D01*
X0389339Y0183714D01*
X0388879Y0184511D01*
X0388318Y0185242D01*
X0387667Y0185893D01*
X0386936Y0186454D01*
X0386139Y0186914D01*
X0385288Y0187266D01*
X0384398Y0187505D01*
X0383485Y0187625D01*
X0378600Y0187625D01*
X0378600Y0180600D01*
X0378600Y0180600D01*
X0390050Y0180600D01*
X0378600Y0180600D01*
X0378600Y0180600D01*
X0378600Y0187625D01*
X0373715Y0187625D01*
X0372802Y0187505D01*
X0371912Y0187266D01*
X0371061Y0186914D01*
X0370733Y0186725D01*
X0369858Y0187600D01*
X0370950Y0188691D01*
X0372000Y0191227D01*
X0372000Y0193972D01*
X0371362Y0195512D01*
X0372658Y0194975D01*
X0384542Y0194975D01*
X0387344Y0196136D01*
X0389489Y0198281D01*
X0390650Y0201083D01*
X0390650Y0204117D01*
X0389489Y0206919D01*
X0387344Y0209064D01*
X0384542Y0210225D01*
X0379743Y0210225D01*
X0372993Y0216975D01*
X0384542Y0216975D01*
X0387344Y0218136D01*
X0389489Y0220281D01*
X0390650Y0223083D01*
X0390650Y0226117D01*
X0389489Y0228919D01*
X0387344Y0231064D01*
X0384542Y0232225D01*
X0373993Y0232225D01*
X0379743Y0237975D01*
X0384542Y0237975D01*
X0387344Y0239136D01*
X0389489Y0241281D01*
X0390650Y0244083D01*
X0390650Y0247117D01*
X0389489Y0249919D01*
X0387344Y0252064D01*
X0384542Y0253225D01*
X0379036Y0253225D01*
X0372023Y0260238D01*
X0372658Y0259975D01*
X0384542Y0259975D01*
X0387344Y0261136D01*
X0389489Y0263281D01*
X0390650Y0266083D01*
X0390650Y0269117D01*
X0389489Y0271919D01*
X0387344Y0274064D01*
X0384542Y0275225D01*
X0372658Y0275225D01*
X0369856Y0274064D01*
X0367711Y0271919D01*
X0366550Y0269117D01*
X0366550Y0266083D01*
X0366813Y0265448D01*
X0358300Y0273961D01*
X0358300Y0305239D01*
X0358712Y0305651D01*
X0359580Y0307746D01*
X0359580Y0314188D01*
X0360136Y0314744D01*
X0360623Y0315920D01*
X0360623Y0324280D01*
X0360589Y0324361D01*
X0398101Y0324361D01*
X0398101Y0293648D01*
X0397705Y0293812D01*
X0397045Y0293812D01*
X0395991Y0294866D01*
X0394866Y0295991D01*
X0393396Y0296600D01*
X0386051Y0296600D01*
X0384542Y0297225D01*
X0372658Y0297225D01*
X0369856Y0296064D01*
X0367711Y0293919D01*
X0366550Y0291117D01*
X0366550Y0288083D01*
X0367711Y0285281D01*
X0369856Y0283136D01*
X0372658Y0281975D01*
X0384542Y0281975D01*
X0387344Y0283136D01*
X0389489Y0285281D01*
X0389931Y0286349D01*
X0389931Y0285645D01*
X0390157Y0285100D01*
X0389931Y0284555D01*
X0389931Y0278952D01*
X0390419Y0277776D01*
X0391319Y0276875D01*
X0392495Y0276388D01*
X0393600Y0276388D01*
X0393600Y0139257D01*
X0391281Y0136937D02*
X0371182Y0136937D01*
X0375810Y0133739D02*
X0388082Y0133739D01*
X0384884Y0130540D02*
X0378851Y0130540D01*
X0379500Y0127342D02*
X0381685Y0127342D01*
X0386602Y0120945D02*
X0398101Y0120945D01*
X0398101Y0124143D02*
X0389800Y0124143D01*
X0392999Y0127342D02*
X0398101Y0127342D01*
X0398101Y0130540D02*
X0396197Y0130540D01*
X0398101Y0117746D02*
X0381837Y0117746D01*
X0378804Y0114548D02*
X0398101Y0114548D01*
X0398101Y0111349D02*
X0378515Y0111349D01*
X0379500Y0108151D02*
X0398101Y0108151D01*
X0398101Y0104952D02*
X0378972Y0104952D01*
X0378204Y0101754D02*
X0398101Y0101754D01*
X0398101Y0098555D02*
X0379500Y0098555D01*
X0379139Y0095357D02*
X0398101Y0095357D01*
X0398101Y0092158D02*
X0376916Y0092158D01*
X0368284Y0092158D02*
X0346916Y0092158D01*
X0349139Y0095357D02*
X0366061Y0095357D01*
X0365700Y0098555D02*
X0349500Y0098555D01*
X0348204Y0101754D02*
X0366996Y0101754D01*
X0358062Y0082563D02*
X0355576Y0082563D01*
X0356373Y0072967D02*
X0357307Y0072967D01*
X0332600Y0112638D02*
X0332600Y0117600D01*
X0332600Y0117600D01*
X0332600Y0117600D01*
X0327638Y0117600D01*
X0332600Y0117600D01*
X0332600Y0112638D01*
X0332600Y0114548D02*
X0332600Y0114548D01*
X0328684Y0114548D02*
X0316020Y0114548D01*
X0318886Y0117746D02*
X0327638Y0117746D01*
X0328927Y0120945D02*
X0319500Y0120945D01*
X0318601Y0124143D02*
X0328190Y0124143D01*
X0327038Y0127342D02*
X0318719Y0127342D01*
X0319500Y0130540D02*
X0327797Y0130540D01*
X0331077Y0139100D02*
X0319447Y0139100D01*
X0319500Y0139227D01*
X0319500Y0141972D01*
X0318981Y0143227D01*
X0323047Y0149685D01*
X0323499Y0149356D01*
X0324195Y0149001D01*
X0324938Y0148760D01*
X0325709Y0148638D01*
X0326100Y0148638D01*
X0326491Y0148638D01*
X0327262Y0148760D01*
X0328005Y0149001D01*
X0328701Y0149356D01*
X0329333Y0149815D01*
X0329885Y0150367D01*
X0330344Y0150999D01*
X0330699Y0151695D01*
X0330940Y0152438D01*
X0331062Y0153209D01*
X0331062Y0153600D01*
X0331062Y0153991D01*
X0330940Y0154762D01*
X0330699Y0155505D01*
X0330344Y0156201D01*
X0329885Y0156833D01*
X0329333Y0157385D01*
X0328701Y0157844D01*
X0328005Y0158199D01*
X0327775Y0158273D01*
X0329251Y0158885D01*
X0330815Y0160449D01*
X0331662Y0162494D01*
X0331662Y0164706D01*
X0330815Y0166751D01*
X0329251Y0168315D01*
X0327206Y0169162D01*
X0324994Y0169162D01*
X0322949Y0168315D01*
X0321385Y0166751D01*
X0320717Y0165140D01*
X0311927Y0173929D01*
X0312802Y0173695D01*
X0313715Y0173575D01*
X0318600Y0173575D01*
X0323485Y0173575D01*
X0324398Y0173695D01*
X0325288Y0173934D01*
X0326139Y0174286D01*
X0326936Y0174746D01*
X0327667Y0175307D01*
X0328318Y0175958D01*
X0328879Y0176689D01*
X0329339Y0177486D01*
X0329691Y0178337D01*
X0329885Y0179060D01*
X0330295Y0178496D01*
X0330766Y0178024D01*
X0329250Y0176509D01*
X0328200Y0173972D01*
X0328200Y0171227D01*
X0329250Y0168691D01*
X0331191Y0166750D01*
X0333727Y0165700D01*
X0335750Y0165700D01*
X0334633Y0164583D01*
X0334100Y0163296D01*
X0334100Y0148168D01*
X0331077Y0139100D01*
X0331423Y0140136D02*
X0319500Y0140136D01*
X0319049Y0143334D02*
X0332489Y0143334D01*
X0333555Y0146533D02*
X0321062Y0146533D01*
X0326100Y0148638D02*
X0326100Y0153600D01*
X0331062Y0153600D01*
X0326100Y0153600D01*
X0326100Y0153600D01*
X0326100Y0148638D01*
X0326100Y0149732D02*
X0326100Y0149732D01*
X0329218Y0149732D02*
X0334100Y0149732D01*
X0334100Y0152930D02*
X0331018Y0152930D01*
X0330381Y0156129D02*
X0334100Y0156129D01*
X0334100Y0159327D02*
X0329693Y0159327D01*
X0331662Y0162526D02*
X0334100Y0162526D01*
X0333669Y0165724D02*
X0331241Y0165724D01*
X0329155Y0168923D02*
X0327785Y0168923D01*
X0328200Y0172121D02*
X0313736Y0172121D01*
X0316934Y0168923D02*
X0324415Y0168923D01*
X0320959Y0165724D02*
X0320133Y0165724D01*
X0318600Y0173575D02*
X0318600Y0180600D01*
X0318600Y0180600D01*
X0318600Y0187625D01*
X0323485Y0187625D01*
X0324398Y0187505D01*
X0325288Y0187266D01*
X0326139Y0186914D01*
X0326936Y0186454D01*
X0327667Y0185893D01*
X0328318Y0185242D01*
X0328879Y0184511D01*
X0329018Y0184269D01*
X0329262Y0185018D01*
X0329712Y0185902D01*
X0330295Y0186704D01*
X0330766Y0187176D01*
X0329250Y0188691D01*
X0328200Y0191227D01*
X0328200Y0193972D01*
X0329250Y0196509D01*
X0330342Y0197600D01*
X0329540Y0198402D01*
X0329489Y0198281D01*
X0327344Y0196136D01*
X0324542Y0194975D01*
X0312658Y0194975D01*
X0309856Y0196136D01*
X0307711Y0198281D01*
X0306550Y0201083D01*
X0306550Y0204117D01*
X0307711Y0206919D01*
X0309856Y0209064D01*
X0312658Y0210225D01*
X0321457Y0210225D01*
X0326400Y0215168D01*
X0326400Y0217745D01*
X0324542Y0216975D01*
X0312658Y0216975D01*
X0309856Y0218136D01*
X0307711Y0220281D01*
X0306550Y0223083D01*
X0306550Y0226117D01*
X0307711Y0228919D01*
X0309856Y0231064D01*
X0312658Y0232225D01*
X0323207Y0232225D01*
X0317457Y0237975D01*
X0312658Y0237975D01*
X0309856Y0239136D01*
X0307711Y0241281D01*
X0306550Y0244083D01*
X0306550Y0247117D01*
X0307274Y0248865D01*
X0301600Y0254539D01*
X0301600Y0184257D01*
X0307504Y0178352D01*
X0307270Y0179227D01*
X0307150Y0180140D01*
X0307150Y0180600D01*
X0318600Y0180600D01*
X0318600Y0180600D01*
X0318600Y0187625D01*
X0313715Y0187625D01*
X0312802Y0187505D01*
X0311912Y0187266D01*
X0311061Y0186914D01*
X0310264Y0186454D01*
X0309533Y0185893D01*
X0308882Y0185242D01*
X0308321Y0184511D01*
X0307861Y0183714D01*
X0307509Y0182863D01*
X0307270Y0181973D01*
X0307150Y0181060D01*
X0307150Y0180600D01*
X0318600Y0180600D01*
X0318600Y0180600D01*
X0318600Y0173575D01*
X0318600Y0175320D02*
X0318600Y0175320D01*
X0318600Y0178518D02*
X0318600Y0178518D01*
X0318600Y0181717D02*
X0318600Y0181717D01*
X0318600Y0184915D02*
X0318600Y0184915D01*
X0308631Y0184915D02*
X0301600Y0184915D01*
X0301600Y0188114D02*
X0329828Y0188114D01*
X0329228Y0184915D02*
X0328569Y0184915D01*
X0328200Y0191312D02*
X0301600Y0191312D01*
X0301600Y0194511D02*
X0328423Y0194511D01*
X0328918Y0197709D02*
X0330233Y0197709D01*
X0339967Y0197709D02*
X0354334Y0197709D01*
X0353600Y0200908D02*
X0341868Y0200908D01*
X0341945Y0204106D02*
X0353600Y0204106D01*
X0345637Y0207305D02*
X0344563Y0207305D01*
X0341777Y0194511D02*
X0357532Y0194511D01*
X0358200Y0191312D02*
X0342000Y0191312D01*
X0344536Y0188114D02*
X0359828Y0188114D01*
X0358590Y0184915D02*
X0346100Y0184915D01*
X0346100Y0181717D02*
X0358200Y0181717D01*
X0359424Y0178518D02*
X0346100Y0178518D01*
X0346100Y0175320D02*
X0358758Y0175320D01*
X0358200Y0172121D02*
X0346100Y0172121D01*
X0346100Y0168923D02*
X0359155Y0168923D01*
X0363669Y0165724D02*
X0345611Y0165724D01*
X0347534Y0162526D02*
X0342475Y0162526D01*
X0344734Y0160517D02*
X0343950Y0158624D01*
X0343950Y0156576D01*
X0344734Y0154683D01*
X0346183Y0153234D01*
X0348076Y0152450D01*
X0350124Y0152450D01*
X0352017Y0153234D01*
X0352029Y0153246D01*
X0352337Y0152937D01*
X0353513Y0152450D01*
X0358687Y0152450D01*
X0359863Y0152937D01*
X0360763Y0153837D01*
X0361250Y0155013D01*
X0361250Y0160187D01*
X0360763Y0161363D01*
X0359863Y0162263D01*
X0358687Y0162750D01*
X0353513Y0162750D01*
X0352337Y0162263D01*
X0352029Y0161954D01*
X0352017Y0161966D01*
X0350124Y0162750D01*
X0348076Y0162750D01*
X0346183Y0161966D01*
X0344734Y0160517D01*
X0344241Y0159327D02*
X0341100Y0159327D01*
X0341100Y0156129D02*
X0344135Y0156129D01*
X0346917Y0152930D02*
X0341100Y0152930D01*
X0341100Y0149732D02*
X0393600Y0149732D01*
X0393600Y0152930D02*
X0359845Y0152930D01*
X0361250Y0156129D02*
X0393600Y0156129D01*
X0393600Y0159327D02*
X0361250Y0159327D01*
X0359228Y0162526D02*
X0393600Y0162526D01*
X0393600Y0165724D02*
X0366531Y0165724D01*
X0371045Y0168923D02*
X0393600Y0168923D01*
X0393600Y0172121D02*
X0372000Y0172121D01*
X0378600Y0173575D02*
X0378600Y0180600D01*
X0378600Y0173575D01*
X0378600Y0175320D02*
X0378600Y0175320D01*
X0378600Y0178518D02*
X0378600Y0178518D01*
X0378600Y0180600D02*
X0378600Y0180600D01*
X0378600Y0181717D02*
X0378600Y0181717D01*
X0378600Y0184915D02*
X0378600Y0184915D01*
X0370372Y0188114D02*
X0393600Y0188114D01*
X0393600Y0191312D02*
X0372000Y0191312D01*
X0371777Y0194511D02*
X0393600Y0194511D01*
X0393600Y0197709D02*
X0388918Y0197709D01*
X0390577Y0200908D02*
X0393600Y0200908D01*
X0393600Y0204106D02*
X0390650Y0204106D01*
X0389104Y0207305D02*
X0393600Y0207305D01*
X0393600Y0210503D02*
X0379465Y0210503D01*
X0376266Y0213702D02*
X0393600Y0213702D01*
X0393600Y0216900D02*
X0373068Y0216900D01*
X0389307Y0220099D02*
X0393600Y0220099D01*
X0393600Y0223297D02*
X0390650Y0223297D01*
X0390493Y0226496D02*
X0393600Y0226496D01*
X0393600Y0229694D02*
X0388714Y0229694D01*
X0393600Y0232893D02*
X0374661Y0232893D01*
X0377859Y0236091D02*
X0393600Y0236091D01*
X0393600Y0239290D02*
X0387498Y0239290D01*
X0389989Y0242488D02*
X0393600Y0242488D01*
X0393600Y0245687D02*
X0390650Y0245687D01*
X0389917Y0248885D02*
X0393600Y0248885D01*
X0393600Y0252084D02*
X0387297Y0252084D01*
X0393600Y0255282D02*
X0376979Y0255282D01*
X0373780Y0258481D02*
X0393600Y0258481D01*
X0393600Y0261679D02*
X0387888Y0261679D01*
X0390151Y0264878D02*
X0393600Y0264878D01*
X0393600Y0268076D02*
X0390650Y0268076D01*
X0389756Y0271275D02*
X0393600Y0271275D01*
X0393600Y0274473D02*
X0386356Y0274473D01*
X0390522Y0277672D02*
X0358300Y0277672D01*
X0358300Y0280870D02*
X0389931Y0280870D01*
X0389931Y0284069D02*
X0388277Y0284069D01*
X0398061Y0293665D02*
X0398101Y0293665D01*
X0398101Y0296863D02*
X0385416Y0296863D01*
X0398101Y0300062D02*
X0358300Y0300062D01*
X0358300Y0303260D02*
X0398101Y0303260D01*
X0398101Y0306459D02*
X0359046Y0306459D01*
X0359580Y0309657D02*
X0398101Y0309657D01*
X0398101Y0312856D02*
X0359580Y0312856D01*
X0360623Y0316054D02*
X0398101Y0316054D01*
X0398101Y0319253D02*
X0360623Y0319253D01*
X0360623Y0322451D02*
X0398101Y0322451D01*
X0371784Y0296863D02*
X0358300Y0296863D01*
X0358300Y0293665D02*
X0367605Y0293665D01*
X0366550Y0290466D02*
X0358300Y0290466D01*
X0358300Y0287268D02*
X0366888Y0287268D01*
X0368923Y0284069D02*
X0358300Y0284069D01*
X0358300Y0274473D02*
X0370844Y0274473D01*
X0367444Y0271275D02*
X0360986Y0271275D01*
X0364185Y0268076D02*
X0366550Y0268076D01*
X0322539Y0232893D02*
X0301600Y0232893D01*
X0301600Y0236091D02*
X0319341Y0236091D01*
X0309702Y0239290D02*
X0301600Y0239290D01*
X0301600Y0242488D02*
X0307211Y0242488D01*
X0306550Y0245687D02*
X0301600Y0245687D01*
X0301600Y0248885D02*
X0307254Y0248885D01*
X0304055Y0252084D02*
X0301600Y0252084D01*
X0301600Y0229694D02*
X0308486Y0229694D01*
X0306707Y0226496D02*
X0301600Y0226496D01*
X0301600Y0223297D02*
X0306550Y0223297D01*
X0307893Y0220099D02*
X0301600Y0220099D01*
X0301600Y0216900D02*
X0326400Y0216900D01*
X0324934Y0213702D02*
X0301600Y0213702D01*
X0301600Y0210503D02*
X0321735Y0210503D01*
X0308096Y0207305D02*
X0301600Y0207305D01*
X0301600Y0204106D02*
X0306550Y0204106D01*
X0306623Y0200908D02*
X0301600Y0200908D01*
X0301600Y0197709D02*
X0308282Y0197709D01*
X0293600Y0184915D02*
X0291069Y0184915D01*
X0292464Y0181717D02*
X0293636Y0181717D01*
X0292240Y0178518D02*
X0296025Y0178518D01*
X0299224Y0175320D02*
X0290179Y0175320D01*
X0297837Y0172121D02*
X0302422Y0172121D01*
X0307339Y0178518D02*
X0307460Y0178518D01*
X0307236Y0181717D02*
X0304140Y0181717D01*
X0327679Y0175320D02*
X0328758Y0175320D01*
X0329740Y0178518D02*
X0330278Y0178518D01*
X0350666Y0162526D02*
X0352972Y0162526D01*
X0352355Y0152930D02*
X0351283Y0152930D01*
X0363557Y0146533D02*
X0393600Y0146533D01*
X0393600Y0143334D02*
X0366918Y0143334D01*
X0338504Y0136937D02*
X0337735Y0136937D01*
X0336619Y0133739D02*
X0339390Y0133739D01*
X0326100Y0152930D02*
X0326100Y0152930D01*
X0326100Y0153600D02*
X0326100Y0153600D01*
X0387679Y0175320D02*
X0393600Y0175320D01*
X0393600Y0178518D02*
X0389740Y0178518D01*
X0389964Y0181717D02*
X0393600Y0181717D01*
X0393600Y0184915D02*
X0388569Y0184915D01*
X0272400Y0092158D02*
X0261035Y0092158D01*
X0263168Y0088960D02*
X0270700Y0088960D01*
X0270893Y0085761D02*
X0265300Y0085761D01*
X0266672Y0082563D02*
X0272805Y0082563D01*
X0270862Y0079364D02*
X0266600Y0079364D01*
X0266600Y0076166D02*
X0270726Y0076166D01*
X0272475Y0072967D02*
X0266600Y0072967D01*
X0266600Y0069769D02*
X0271030Y0069769D01*
X0270700Y0066570D02*
X0266600Y0066570D01*
X0266600Y0063372D02*
X0272070Y0063372D01*
X0271197Y0060173D02*
X0266600Y0060173D01*
X0266600Y0056975D02*
X0270700Y0056975D01*
X0271715Y0053776D02*
X0266600Y0053776D01*
X0266600Y0050578D02*
X0271365Y0050578D01*
X0270700Y0047379D02*
X0266600Y0047379D01*
X0268383Y0044181D02*
X0271548Y0044181D01*
X0284500Y0018593D02*
X0311708Y0018593D01*
X0314737Y0015394D02*
X0284155Y0015394D01*
X0199170Y0124100D02*
X0193619Y0124100D01*
X0194500Y0126227D01*
X0194500Y0128972D01*
X0193450Y0131509D01*
X0191934Y0133024D01*
X0192405Y0133496D01*
X0192988Y0134298D01*
X0193438Y0135182D01*
X0193745Y0136125D01*
X0193900Y0137104D01*
X0193900Y0137600D01*
X0193900Y0138096D01*
X0193745Y0139075D01*
X0193438Y0140018D01*
X0192988Y0140902D01*
X0192405Y0141704D01*
X0191934Y0142176D01*
X0193450Y0143691D01*
X0194500Y0146227D01*
X0194500Y0148972D01*
X0193450Y0151509D01*
X0192358Y0152600D01*
X0193358Y0153600D01*
X0195943Y0153600D01*
X0198600Y0150943D01*
X0198600Y0130530D01*
X0198446Y0130376D01*
X0197700Y0128575D01*
X0197700Y0126625D01*
X0198446Y0124824D01*
X0199170Y0124100D01*
X0199127Y0124143D02*
X0193637Y0124143D01*
X0194500Y0127342D02*
X0197700Y0127342D01*
X0198600Y0130540D02*
X0193851Y0130540D01*
X0192582Y0133739D02*
X0198600Y0133739D01*
X0198600Y0136937D02*
X0193874Y0136937D01*
X0193900Y0137600D02*
X0187600Y0137600D01*
X0193900Y0137600D01*
X0193378Y0140136D02*
X0198600Y0140136D01*
X0198600Y0143334D02*
X0193093Y0143334D01*
X0194500Y0146533D02*
X0198600Y0146533D01*
X0198600Y0149732D02*
X0194186Y0149732D01*
X0192688Y0152930D02*
X0196613Y0152930D01*
X0183266Y0142176D02*
X0182795Y0141704D01*
X0182212Y0140902D01*
X0181762Y0140018D01*
X0181455Y0139075D01*
X0181300Y0138096D01*
X0181300Y0137600D01*
X0187600Y0137600D01*
X0187600Y0137600D01*
X0187600Y0137600D01*
X0181300Y0137600D01*
X0181300Y0137104D01*
X0181455Y0136125D01*
X0181762Y0135182D01*
X0182212Y0134298D01*
X0182795Y0133496D01*
X0183266Y0133024D01*
X0181750Y0131509D01*
X0180700Y0128972D01*
X0180700Y0128878D01*
X0177500Y0132878D01*
X0177500Y0133575D01*
X0176754Y0135376D01*
X0176600Y0135530D01*
X0176600Y0142734D01*
X0177209Y0142638D01*
X0177600Y0142638D01*
X0177991Y0142638D01*
X0178762Y0142760D01*
X0179505Y0143001D01*
X0180201Y0143356D01*
X0180833Y0143815D01*
X0181385Y0144367D01*
X0181439Y0144442D01*
X0181750Y0143691D01*
X0183266Y0142176D01*
X0182107Y0143334D02*
X0180159Y0143334D01*
X0177600Y0143334D02*
X0177600Y0143334D01*
X0177600Y0142638D02*
X0177600Y0147600D01*
X0177600Y0147600D01*
X0177600Y0142638D01*
X0176600Y0140136D02*
X0181822Y0140136D01*
X0181326Y0136937D02*
X0176600Y0136937D01*
X0177432Y0133739D02*
X0182618Y0133739D01*
X0181349Y0130540D02*
X0179370Y0130540D01*
X0177600Y0146533D02*
X0177600Y0146533D01*
X0162018Y0162526D02*
X0137562Y0162526D01*
X0139031Y0165724D02*
X0158819Y0165724D01*
X0155621Y0168923D02*
X0143545Y0168923D01*
X0144500Y0172121D02*
X0152422Y0172121D01*
X0149224Y0175320D02*
X0143942Y0175320D01*
X0142422Y0178518D02*
X0146025Y0178518D01*
X0131655Y0168923D02*
X0121934Y0168923D01*
X0125133Y0165724D02*
X0128736Y0165724D01*
X0132600Y0165724D02*
X0132600Y0165724D01*
X0138162Y0152930D02*
X0144491Y0152930D01*
X0143950Y0149732D02*
X0137432Y0149732D01*
X0145884Y0146533D02*
X0127190Y0146533D01*
X0112842Y0145600D02*
X0112842Y0145600D01*
X0111264Y0143334D02*
X0108991Y0143334D01*
X0110700Y0140136D02*
X0105793Y0140136D01*
X0131418Y0197709D02*
X0132733Y0197709D01*
X0191069Y0184915D02*
X0196100Y0184915D01*
X0196100Y0181717D02*
X0192464Y0181717D01*
X0192240Y0178518D02*
X0196426Y0178518D01*
X0204100Y0197709D02*
X0210782Y0197709D01*
X0209123Y0200908D02*
X0204100Y0200908D01*
X0204100Y0204106D02*
X0209050Y0204106D01*
X0210596Y0207305D02*
X0204100Y0207305D01*
X0204100Y0210503D02*
X0219235Y0210503D01*
X0222434Y0213702D02*
X0204100Y0213702D01*
X0204100Y0216900D02*
X0225632Y0216900D01*
X0210393Y0220099D02*
X0204100Y0220099D01*
X0204100Y0223297D02*
X0209050Y0223297D01*
X0209207Y0226496D02*
X0204100Y0226496D01*
X0204100Y0229694D02*
X0210986Y0229694D01*
X0204100Y0232893D02*
X0225039Y0232893D01*
X0221841Y0236091D02*
X0204100Y0236091D01*
X0204100Y0239290D02*
X0212202Y0239290D01*
X0209711Y0242488D02*
X0204100Y0242488D01*
X0204100Y0245687D02*
X0209050Y0245687D01*
X0209783Y0248885D02*
X0204100Y0248885D01*
X0204100Y0252084D02*
X0212403Y0252084D01*
X0204100Y0255282D02*
X0222721Y0255282D01*
X0196100Y0277672D02*
X0157089Y0277672D01*
X0160288Y0274473D02*
X0173344Y0274473D01*
X0169944Y0271275D02*
X0163486Y0271275D01*
X0166685Y0268076D02*
X0169050Y0268076D01*
X0190777Y0284069D02*
X0192431Y0284069D01*
X0124577Y0316054D02*
X0069192Y0316054D01*
X0069343Y0319253D02*
X0124577Y0319253D01*
X0124577Y0322451D02*
X0069343Y0322451D01*
X0068300Y0312856D02*
X0115393Y0312856D01*
X0111596Y0309657D02*
X0068300Y0309657D01*
X0067020Y0306459D02*
X0108398Y0306459D01*
X0105199Y0303260D02*
X0065800Y0303260D01*
X0065800Y0300062D02*
X0102450Y0300062D01*
X0104371Y0302432D02*
X0104371Y0302432D01*
X0101900Y0290466D02*
X0101740Y0290466D01*
X0101600Y0274473D02*
X0101900Y0274473D01*
X0101900Y0271275D02*
X0101600Y0271275D01*
X0221100Y0184915D02*
X0221100Y0184915D01*
X0221100Y0181717D02*
X0221100Y0181717D01*
X0221100Y0178518D02*
X0221100Y0178518D01*
X0221100Y0175320D02*
X0221100Y0175320D01*
X0230179Y0175320D02*
X0231258Y0175320D01*
X0232240Y0178518D02*
X0232778Y0178518D01*
X0222638Y0162526D02*
X0222432Y0162526D01*
X0224500Y0146533D02*
X0226510Y0146533D01*
X0228171Y0143334D02*
X0223093Y0143334D01*
X0224018Y0140136D02*
X0227450Y0140136D01*
X0227450Y0136937D02*
X0224500Y0136937D01*
X0091379Y0053776D02*
X0005800Y0053776D01*
X0005800Y0050578D02*
X0045042Y0050578D01*
X0045880Y0051416D02*
X0043784Y0049320D01*
X0042650Y0046582D01*
X0042650Y0043618D01*
X0043784Y0040880D01*
X0045880Y0038784D01*
X0048618Y0037650D01*
X0051582Y0037650D01*
X0054320Y0038784D01*
X0056416Y0040880D01*
X0057550Y0043618D01*
X0057550Y0046582D01*
X0056416Y0049320D01*
X0054320Y0051416D01*
X0051582Y0052550D01*
X0048618Y0052550D01*
X0045880Y0051416D01*
X0042980Y0047379D02*
X0017579Y0047379D01*
X0019414Y0044181D02*
X0042650Y0044181D01*
X0043742Y0040982D02*
X0019398Y0040982D01*
X0017542Y0037784D02*
X0048295Y0037784D01*
X0051904Y0037784D02*
X0091520Y0037784D01*
X0091459Y0040982D02*
X0076241Y0040982D01*
X0076241Y0044181D02*
X0091459Y0044181D01*
X0069391Y0044181D02*
X0069391Y0044181D01*
X0069391Y0045100D02*
X0069391Y0045100D01*
X0069391Y0047379D02*
X0069391Y0047379D01*
X0069391Y0050578D02*
X0069391Y0050578D01*
X0062836Y0050578D02*
X0055158Y0050578D01*
X0057220Y0047379D02*
X0062541Y0047379D01*
X0062541Y0044181D02*
X0057550Y0044181D01*
X0056458Y0040982D02*
X0062541Y0040982D01*
X0069391Y0040982D02*
X0069391Y0040982D01*
X0055753Y0018593D02*
X0054366Y0018593D01*
X0054755Y0008997D02*
X0055293Y0008997D01*
X0018900Y0022600D02*
X0012600Y0022600D01*
X0018900Y0022600D01*
X0017405Y0018496D02*
X0016704Y0017795D01*
X0015902Y0017212D01*
X0015018Y0016762D01*
X0014075Y0016455D01*
X0013096Y0016300D01*
X0012600Y0016300D01*
X0012600Y0022600D01*
X0012600Y0022600D01*
X0012600Y0022600D01*
X0012600Y0022600D01*
X0012600Y0016300D01*
X0012104Y0016300D01*
X0011125Y0016455D01*
X0010182Y0016762D01*
X0009298Y0017212D01*
X0008496Y0017795D01*
X0007795Y0018496D01*
X0007212Y0019298D01*
X0006762Y0020182D01*
X0006455Y0021125D01*
X0006300Y0022104D01*
X0006300Y0022600D01*
X0012600Y0022600D01*
X0012600Y0021791D02*
X0012600Y0021791D01*
X0012600Y0018593D02*
X0012600Y0018593D01*
X0007724Y0018593D02*
X0005800Y0018593D01*
X0005800Y0021791D02*
X0006350Y0021791D01*
X0006752Y0024990D02*
X0005800Y0024990D01*
X0005800Y0028188D02*
X0007254Y0028188D01*
X0007621Y0047379D02*
X0005800Y0047379D01*
X0005800Y0063372D02*
X0014700Y0063372D01*
X0014948Y0066570D02*
X0005800Y0066570D01*
D23*
X0021600Y0064600D02*
X0021600Y0120600D01*
X0009600Y0120600D01*
X0007600Y0262600D01*
X0012600Y0267600D01*
X0021100Y0267600D01*
X0060100Y0266600D02*
X0081100Y0245600D01*
X0060100Y0266600D02*
X0060100Y0307600D01*
X0062600Y0310100D01*
X0062600Y0320600D01*
X0107600Y0297600D02*
X0107600Y0259100D01*
X0121100Y0245600D01*
X0147600Y0279100D02*
X0181100Y0245600D01*
X0221100Y0245600D02*
X0228100Y0252600D01*
X0242600Y0252600D01*
X0247600Y0257600D01*
X0247600Y0297600D01*
X0257600Y0307600D01*
X0257600Y0312600D01*
X0261320Y0316320D01*
X0261320Y0320100D01*
X0275100Y0320100D02*
X0275100Y0315100D01*
X0267600Y0307600D01*
X0267600Y0259100D01*
X0281100Y0245600D01*
X0305100Y0259100D02*
X0318600Y0245600D01*
X0305100Y0259100D02*
X0305100Y0292600D01*
X0320100Y0307600D01*
X0342600Y0307600D01*
X0340100Y0310100D01*
X0340100Y0320100D01*
X0353880Y0320100D02*
X0353880Y0308880D01*
X0352600Y0307600D01*
X0352600Y0271600D01*
X0378600Y0245600D01*
X0147600Y0279100D02*
X0147600Y0307600D01*
X0145100Y0310100D01*
X0145100Y0320100D01*
X0131320Y0320100D02*
X0131320Y0313880D01*
X0137600Y0307600D01*
X0117600Y0307600D01*
X0107600Y0297600D01*
X0069391Y0045100D02*
X0069391Y0042600D01*
X0049391Y0022600D01*
D24*
X0085600Y0028600D03*
X0098600Y0010600D03*
X0129600Y0026600D03*
X0059600Y0057600D03*
X0031600Y0087600D03*
X0061600Y0119600D03*
X0066600Y0140600D03*
X0079600Y0163600D03*
X0081600Y0191600D03*
X0084600Y0213600D03*
X0117600Y0213600D03*
X0120600Y0191600D03*
X0140600Y0152600D03*
X0158600Y0130600D03*
X0131600Y0128600D03*
X0130600Y0104600D03*
X0209600Y0105600D03*
X0225600Y0128600D03*
X0249600Y0105600D03*
X0255600Y0119600D03*
X0263600Y0127600D03*
X0251600Y0139600D03*
X0269600Y0160600D03*
X0280600Y0190600D03*
X0282600Y0214600D03*
X0303600Y0233600D03*
X0318600Y0212600D03*
X0318600Y0192600D03*
X0376600Y0164600D03*
X0388600Y0148600D03*
X0389600Y0106600D03*
X0330600Y0089600D03*
X0314600Y0108600D03*
X0280600Y0106600D03*
X0357600Y0047600D03*
X0354600Y0020600D03*
X0378600Y0190600D03*
X0382600Y0214600D03*
X0379600Y0257600D03*
X0377600Y0280600D03*
X0378600Y0314600D03*
X0393600Y0316600D03*
X0280600Y0279600D03*
X0280600Y0257600D03*
X0237600Y0281600D03*
X0221600Y0280600D03*
X0219600Y0256600D03*
X0180600Y0256600D03*
X0179600Y0278600D03*
X0162600Y0286600D03*
X0162600Y0318600D03*
X0098600Y0316600D03*
X0083600Y0317600D03*
X0080600Y0279600D03*
X0081600Y0256600D03*
X0104600Y0249600D03*
X0183600Y0212600D03*
X0182600Y0190600D03*
X0218600Y0213600D03*
X0220600Y0190600D03*
X0239600Y0317600D03*
X0020600Y0191600D03*
X0019600Y0149600D03*
X0022600Y0138600D03*
D25*
X0021100Y0202600D02*
X0021100Y0203600D01*
X0035100Y0217600D01*
X0035100Y0231600D01*
X0021100Y0245600D01*
X0022600Y0247100D01*
X0022600Y0247600D01*
X0042600Y0267600D01*
X0042600Y0297600D01*
X0050100Y0305100D01*
X0050100Y0307600D01*
X0050100Y0321320D01*
X0048820Y0320600D01*
X0081100Y0245600D02*
X0067600Y0232100D01*
X0067600Y0217600D01*
X0081100Y0204100D01*
X0081100Y0202600D01*
X0121100Y0202600D02*
X0121100Y0203600D01*
X0135100Y0217600D01*
X0135100Y0231600D01*
X0121100Y0245600D01*
X0167600Y0232100D02*
X0167600Y0217600D01*
X0181100Y0204100D01*
X0181100Y0202600D01*
X0167600Y0232100D02*
X0181100Y0245600D01*
X0221100Y0245600D02*
X0235100Y0231600D01*
X0235100Y0217600D01*
X0221100Y0203600D01*
X0221100Y0202600D01*
X0267600Y0217600D02*
X0281100Y0204100D01*
X0281100Y0202600D01*
X0267600Y0217600D02*
X0267600Y0232100D01*
X0281100Y0245600D01*
X0318600Y0245600D02*
X0332600Y0231600D01*
X0332600Y0212600D01*
X0322600Y0202600D01*
X0318600Y0202600D01*
X0365100Y0216100D02*
X0378600Y0202600D01*
X0365100Y0216100D02*
X0365100Y0232100D01*
X0378600Y0245600D01*
D26*
X0169254Y0092600D02*
X0152600Y0092600D01*
X0245100Y0022600D02*
X0272600Y0022600D01*
D27*
X0202600Y0062600D02*
X0177600Y0062600D01*
X0162600Y0047600D01*
X0157600Y0047600D01*
X0185100Y0092600D02*
X0175100Y0102600D01*
X0182600Y0112600D02*
X0257600Y0112600D01*
X0277600Y0135600D01*
X0333600Y0135600D01*
X0337600Y0147600D01*
X0337600Y0162600D01*
X0342600Y0167600D01*
X0342600Y0185100D01*
X0335100Y0192600D01*
X0192600Y0092600D02*
X0185100Y0092600D01*
X0182600Y0112600D02*
X0177600Y0117600D01*
X0162600Y0117600D01*
X0157600Y0112600D01*
X0157600Y0107600D01*
M02*
