G75*
%MOIN*%
%OFA0B0*%
%FSLAX25Y25*%
%IPPOS*%
%LPD*%
%AMOC8*
5,1,8,0,0,1.08239X$1,22.5*
%
%ADD10C,0.00500*%
%ADD11C,0.02400*%
%ADD12C,0.00800*%
%ADD13R,0.03000X0.01800*%
D10*
X0053600Y0307100D02*
X0056600Y0307100D01*
X0056600Y0307600D01*
X0056600Y0308100D01*
X0053600Y0308100D01*
X0053600Y0307100D01*
X0053600Y0307600D02*
X0056600Y0307600D01*
X0068506Y0332411D02*
X0042915Y0332411D01*
X0125415Y0331911D02*
X0151006Y0331911D01*
X0255415Y0331911D02*
X0281006Y0331911D01*
D11*
X0283525Y0336911D02*
X0283525Y0310100D01*
X0252659Y0310100D01*
X0252659Y0336911D01*
X0283525Y0336911D01*
X0153525Y0336911D02*
X0153525Y0310100D01*
X0122659Y0310100D01*
X0122659Y0336911D01*
X0153525Y0336911D01*
X0071025Y0337411D02*
X0071025Y0310600D01*
X0040159Y0310600D01*
X0040159Y0337411D01*
X0071025Y0337411D01*
D12*
X0075325Y0322145D02*
X0073791Y0320610D01*
X0073791Y0319076D01*
X0075325Y0317541D01*
X0073791Y0316006D01*
X0073791Y0314472D01*
X0075325Y0312937D01*
X0078395Y0312937D01*
X0079929Y0314472D01*
X0076860Y0317541D02*
X0075325Y0317541D01*
X0075325Y0322145D02*
X0078395Y0322145D01*
X0079929Y0320610D01*
X0082998Y0322145D02*
X0086068Y0322145D01*
X0084533Y0322145D02*
X0084533Y0314472D01*
X0086068Y0312937D01*
X0087602Y0312937D01*
X0089137Y0314472D01*
X0113544Y0314454D02*
X0119577Y0314454D01*
X0116561Y0311437D02*
X0116561Y0317471D01*
X0154291Y0314437D02*
X0160429Y0314437D01*
X0157360Y0314437D02*
X0157360Y0323645D01*
X0160429Y0320576D01*
X0163498Y0323645D02*
X0166568Y0323645D01*
X0165033Y0323645D02*
X0165033Y0315972D01*
X0166568Y0314437D01*
X0168102Y0314437D01*
X0169637Y0315972D01*
X0243544Y0314454D02*
X0249577Y0314454D01*
X0246561Y0311437D02*
X0246561Y0317471D01*
X0286291Y0315437D02*
X0292429Y0315437D01*
X0286291Y0321576D01*
X0286291Y0323110D01*
X0287825Y0324645D01*
X0290895Y0324645D01*
X0292429Y0323110D01*
X0295498Y0324645D02*
X0298568Y0324645D01*
X0297033Y0324645D02*
X0297033Y0316972D01*
X0298568Y0315437D01*
X0300102Y0315437D01*
X0301637Y0316972D01*
X0037077Y0314954D02*
X0031044Y0314954D01*
X0034061Y0311937D02*
X0034061Y0317971D01*
D13*
X0172600Y0072600D03*
X0172600Y0092600D03*
X0137600Y0282600D03*
X0097600Y0282600D03*
X0052600Y0285100D03*
X0197600Y0287600D03*
X0260100Y0282600D03*
X0297600Y0287600D03*
X0335100Y0285100D03*
X0395100Y0285100D03*
M02*
